<?xml version="1.0" encoding="UTF-8"?>
<!DOCTYPE svg PUBLIC "-//W3C//DTD SVG 1.1//EN" "http://www.w3.org/Graphics/SVG/1.1/DTD/svg11.dtd">
<svg xmlns="http://www.w3.org/2000/svg" version="1.1" width="4500px" height="4500px" style="shape-rendering:geometricPrecision; text-rendering:geometricPrecision; image-rendering:optimizeQuality; fill-rule:evenodd; clip-rule:evenodd" xmlns:xlink="http://www.w3.org/1999/xlink">
<g><path style="opacity:0.996" fill="#f6921e" d="M 3010.5,336.5 C 3184.78,332.626 3335.78,389.126 3463.5,506C 3507.97,548.863 3545.8,596.697 3577,649.5C 3730.38,687.969 3883.54,726.969 4036.5,766.5C 3905.5,875.992 3774.34,985.325 3643,1094.5C 3606.15,1245.64 3525.82,1367.64 3402,1460.5C 3403.68,1540.51 3405.85,1620.51 3408.5,1700.5C 3371.82,1708.13 3335.32,1716.46 3299,1725.5C 3298.17,1758.17 3298.33,1790.84 3299.5,1823.5C 3413.7,1796.53 3528.03,1770.19 3642.5,1744.5C 3643.05,2254.5 3643.38,2764.5 3643.5,3274.5C 2925.66,3444.08 2207.83,3613.75 1490,3783.5C 1486.94,3782.12 1484.1,3780.29 1481.5,3778C 1417.67,3720.17 1353.83,3662.33 1290,3604.5C 1289.5,3542.83 1289.33,3481.17 1289.5,3419.5C 1095.94,3463.85 902.441,3508.51 709,3553.5C 627.011,3488.18 545.011,3422.85 463,3357.5C 462.333,2782.83 462.333,2208.17 463,1633.5C 1032.12,1501.6 1601.28,1369.76 2170.5,1238C 2182.17,1219.67 2193.83,1201.33 2205.5,1183C 2140.03,1141.7 2074.7,1100.2 2009.5,1058.5C 2144.71,1027.66 2280.05,997.324 2415.5,967.5C 2416.31,774.422 2488.31,613.922 2631.5,486C 2740.85,394.14 2867.19,344.306 3010.5,336.5 Z"/></g>
<g><path style="opacity:1" fill="#122c4f" d="M 1386.5,3561.5 C 1386.83,3473.5 1386.5,3385.5 1385.5,3297.5C 1384.89,3297.62 1384.56,3297.96 1384.5,3298.5C 1167.46,3348.34 950.459,3398.34 733.5,3448.5C 732.5,3448.33 731.5,3448.17 730.5,3448C 673.667,3402.5 616.833,3357 560,3311.5C 558.797,3059.5 558.297,2807.5 558.5,2555.5C 588.856,2548.49 619.189,2541.33 649.5,2534C 619.667,2510.17 589.833,2486.33 560,2462.5C 558.795,2211.5 558.295,1960.5 558.5,1709.5C 698.641,1677.11 838.807,1644.78 979,1612.5C 981.032,1612.86 982.866,1613.69 984.5,1615C 1005.81,1631.32 1027.48,1647.16 1049.5,1662.5C 1050.5,1640.18 1050.83,1617.84 1050.5,1595.5C 1323.93,1532.93 1597.27,1469.93 1870.5,1406.5C 1877.84,1433.67 1885.67,1460.67 1894,1487.5C 1901.96,1457.25 1909.63,1426.91 1917,1396.5C 2138.26,1344.31 2359.76,1292.98 2581.5,1242.5C 2583.16,1263.31 2584.16,1284.31 2584.5,1305.5C 2584.5,1396.83 2584.5,1488.17 2584.5,1579.5C 2568.14,1583.04 2551.8,1586.71 2535.5,1590.5C 2535.5,1674.5 2535.5,1758.5 2535.5,1842.5C 2551.64,1839.48 2567.64,1835.81 2583.5,1831.5C 2584.5,1888.83 2584.83,1946.16 2584.5,2003.5C 2584.17,2031.51 2584.5,2059.51 2585.5,2087.5C 2586.11,2087.38 2586.44,2087.04 2586.5,2086.5C 2667.59,2068.25 2748.59,2049.58 2829.5,2030.5C 2830.5,1931.5 2830.83,1832.5 2830.5,1733.5C 2798.91,1740.52 2767.41,1747.85 2736,1755.5C 2735.5,1701.5 2735.33,1647.5 2735.5,1593.5C 2766.86,1586.96 2798.19,1580.3 2829.5,1573.5C 2830.67,1529.17 2830.83,1484.84 2830,1440.5C 2696.29,1380.79 2601.96,1283.13 2547,1147.5C 2545.06,1141.83 2543.22,1136.17 2541.5,1130.5C 2518.06,1135.09 2494.72,1140.26 2471.5,1146C 2459.58,1163.83 2447.92,1181.83 2436.5,1200C 2386.91,1211.54 2337.25,1222.54 2287.5,1233C 2304.87,1206.42 2321.87,1179.59 2338.5,1152.5C 2311.83,1135.5 2285.17,1118.5 2258.5,1101.5C 2307.37,1089.97 2356.37,1078.97 2405.5,1068.5C 2423.41,1078.8 2441.08,1089.63 2458.5,1101C 2459.5,1101.17 2460.5,1101.33 2461.5,1101.5C 2483.13,1096.51 2504.8,1091.68 2526.5,1087C 2527.02,1086.44 2527.36,1085.77 2527.5,1085C 2494.15,944.104 2513.98,811.271 2587,686.5C 2653.53,578.968 2746.36,503.801 2865.5,461C 3015.46,412.529 3159.46,426.196 3297.5,502C 3431.56,582.157 3516.22,698.657 3551.5,851.5C 3552.17,851.833 3552.83,852.167 3553.5,852.5C 3590.99,844.448 3628.32,835.781 3665.5,826.5C 3653.63,805.252 3641.63,784.085 3629.5,763C 3696.26,779.19 3762.93,796.024 3829.5,813.5C 3776.52,857.312 3723.69,901.312 3671,945.5C 3672.34,920.855 3673.84,896.188 3675.5,871.5C 3636.5,880.167 3597.5,888.834 3558.5,897.5C 3572.62,1047.93 3532.12,1181.27 3437,1297.5C 3373.64,1371.33 3295.8,1424 3203.5,1455.5C 3202.5,1467.82 3202.17,1480.15 3202.5,1492.5C 3236.87,1485.61 3271.2,1478.61 3305.5,1471.5C 3307.57,1522.16 3308.57,1572.83 3308.5,1623.5C 3273.29,1631.76 3238.12,1640.09 3203,1648.5C 3202.17,1747.17 3202.33,1845.84 3203.5,1944.5C 3317.69,1917.53 3432.02,1891.2 3546.5,1865.5C 3546.91,2309.83 3547.24,2754.17 3547.5,3198.5C 2870.18,3357.79 2193.01,3517.79 1516,3678.5C 1472.35,3640.02 1429.18,3601.02 1386.5,3561.5 Z"/></g>
<g><path style="opacity:1" fill="#fefefe" d="M 3005.5,487.5 C 3150.82,481.975 3274.66,530.309 3377,632.5C 3476.61,740.337 3518.95,867.67 3504,1014.5C 3483.95,1154.86 3416.45,1265.7 3301.5,1347C 3184.2,1423.38 3057.2,1445.72 2920.5,1414C 2795.93,1379.7 2699.76,1307.87 2632,1198.5C 2566.68,1084.3 2550.01,963.297 2582,835.5C 2623.08,695.771 2708.91,593.938 2839.5,530C 2892.45,506.098 2947.78,491.931 3005.5,487.5 Z"/></g>
<g><path style="opacity:1" fill="#283d52" d="M 3254.5,613.5 C 3284.31,613.81 3298.48,628.81 3297,658.5C 3288.98,681.764 3272.82,690.931 3248.5,686C 3229.16,676.831 3221.33,661.664 3225,640.5C 3230.28,626.38 3240.11,617.38 3254.5,613.5 Z"/></g>
<g><path style="opacity:1" fill="#132c4f" d="M 3021.5,645.5 C 3133.73,644.201 3223.56,687.868 3291,776.5C 3343.02,852.578 3359.68,935.911 3341,1026.5C 3314.97,1128.52 3254.13,1201.36 3158.5,1245C 3067.81,1280.95 2978.81,1277.28 2891.5,1234C 2794.93,1180.12 2739.76,1097.95 2726,987.5C 2718.58,869.867 2761.41,775.367 2854.5,704C 2904.69,668.707 2960.36,649.207 3021.5,645.5 Z"/></g>
<g><path style="opacity:1" fill="#283d52" d="M 2739.5,661.5 C 2760.32,660.172 2774.49,669.172 2782,688.5C 2785.32,704.066 2781.15,717.233 2769.5,728C 2749.56,740.125 2731.72,737.625 2716,720.5C 2705.54,701.978 2707.71,685.145 2722.5,670C 2727.73,666.102 2733.4,663.269 2739.5,661.5 Z"/></g>
<g><path style="opacity:1" fill="#f6921e" d="M 3014.5,700.5 C 3096.01,695.827 3165.51,722.161 3223,779.5C 3239.87,797.568 3254.04,817.568 3265.5,839.5C 3244.96,844.925 3224.3,849.925 3203.5,854.5C 3204.84,831.355 3196.17,813.188 3177.5,800C 3171.61,796.48 3165.27,794.146 3158.5,793C 3134.83,792.333 3111.17,792.333 3087.5,793C 3064.48,799.352 3050.31,814.186 3045,837.5C 3044.5,855.164 3044.33,872.83 3044.5,890.5C 2964.23,908.854 2883.9,927.02 2803.5,945C 2795.27,947.202 2787.43,950.368 2780,954.5C 2781.91,875.525 2812.74,810.359 2872.5,759C 2914,725.422 2961.33,705.922 3014.5,700.5 Z"/></g>
<g><path style="opacity:1" fill="#283d52" d="M 3346.5,717.5 C 3368.4,714.691 3383.56,723.358 3392,743.5C 3395.86,766.289 3387.03,781.789 3365.5,790C 3333.51,792.345 3318.34,777.511 3320,745.5C 3323.91,731.423 3332.75,722.09 3346.5,717.5 Z"/></g>
<g><path style="opacity:1" fill="#283d52" d="M 2666.5,780.5 C 2696.3,781.464 2710.13,796.797 2708,826.5C 2699.77,849.537 2683.6,858.37 2659.5,853C 2640.16,843.824 2632.33,828.657 2636,807.5C 2641.39,792.93 2651.56,783.93 2666.5,780.5 Z"/></g>
<g><path style="opacity:1" fill="#283d51" d="M 3399.5,848.5 C 3431.49,847.319 3446.32,862.653 3444,894.5C 3436.04,916.4 3420.54,925.233 3397.5,921C 3377.83,913.173 3369.33,898.673 3372,877.5C 3375.56,862.441 3384.73,852.775 3399.5,848.5 Z"/></g>
<g><path style="opacity:1" fill="#f4911f" d="M 3278.5,883.5 C 3280.77,883.141 3282.6,883.808 3284,885.5C 3287.13,894.325 3288.63,903.325 3288.5,912.5C 3259.96,919.092 3231.46,925.759 3203,932.5C 3202.5,921.839 3202.33,911.172 3202.5,900.5C 3228.03,895.2 3253.36,889.534 3278.5,883.5 Z"/></g>
<g><path style="opacity:1" fill="#283c51" d="M 2635.5,918.5 C 2667.02,916.52 2682.18,931.187 2681,962.5C 2677.72,977.112 2668.89,986.612 2654.5,991C 2632.95,994.741 2618.12,986.574 2610,966.5C 2605.13,943.244 2613.63,927.244 2635.5,918.5 Z"/></g>
<g><path style="opacity:1" fill="#f4911e" d="M 3043.5,937.5 C 3044.49,947.653 3044.83,957.986 3044.5,968.5C 2959.13,987.62 2873.8,1006.95 2788.5,1026.5C 2787,1020.83 2785.83,1015.16 2785,1009.5C 2791.35,1001.49 2799.18,995.322 2808.5,991C 2886.68,972.464 2965.01,954.631 3043.5,937.5 Z"/></g>
<g><path style="opacity:1" fill="#4a4443" d="M 3043.5,937.5 C 3043.56,936.957 3043.89,936.624 3044.5,936.5C 3045.82,947.326 3045.82,957.993 3044.5,968.5C 3044.83,957.986 3044.49,947.653 3043.5,937.5 Z"/></g>
<g><path style="opacity:1" fill="#f4911e" d="M 3289.5,958.5 C 3291.17,958.5 3292.83,958.5 3294.5,958.5C 3294.25,969.118 3293.25,979.618 3291.5,990C 3262.08,996.517 3232.74,1003.35 3203.5,1010.5C 3202.5,999.854 3202.17,989.187 3202.5,978.5C 3231.73,972.357 3260.73,965.69 3289.5,958.5 Z"/></g>
<g><path style="opacity:1" fill="#283d51" d="M 3398.5,1001.5 C 3430.52,1000.35 3445.35,1015.68 3443,1047.5C 3435.76,1067.37 3421.6,1076.53 3400.5,1075C 3377.44,1068.08 3367.61,1052.58 3371,1028.5C 3375.45,1014.54 3384.62,1005.54 3398.5,1001.5 Z"/></g>
<g><path style="opacity:1" fill="#f4911f" d="M 3043.5,1015.5 C 3044.49,1025.65 3044.83,1035.99 3044.5,1046.5C 2972.4,1062.77 2900.23,1078.77 2828,1094.5C 2824.4,1094.32 2820.9,1093.65 2817.5,1092.5C 2812.91,1085 2808.58,1077.33 2804.5,1069.5C 2884.03,1050.99 2963.7,1032.99 3043.5,1015.5 Z"/></g>
<g><path style="opacity:1" fill="#4b4443" d="M 3043.5,1015.5 C 3043.56,1014.96 3043.89,1014.62 3044.5,1014.5C 3045.82,1025.33 3045.82,1035.99 3044.5,1046.5C 3044.83,1035.99 3044.49,1025.65 3043.5,1015.5 Z"/></g>
<g><path style="opacity:1" fill="#f5921e" d="M 3275.5,1039.5 C 3277.29,1039.21 3278.95,1039.55 3280.5,1040.5C 3264.84,1085.5 3239.01,1123.5 3203,1154.5C 3202.5,1121.84 3202.33,1089.17 3202.5,1056.5C 3227.05,1051.28 3251.39,1045.61 3275.5,1039.5 Z"/></g>
<g><path style="opacity:1" fill="#283d52" d="M 2660.5,1059.5 C 2684.49,1056.57 2699.99,1066.57 2707,1089.5C 2706.86,1120.3 2691.36,1134.47 2660.5,1132C 2640.52,1124.34 2631.69,1109.84 2634,1088.5C 2637.46,1073.87 2646.3,1064.2 2660.5,1059.5 Z"/></g>
<g><path style="opacity:1" fill="#f5921e" d="M 3042.5,1093.5 C 3044.49,1133.49 3045.16,1173.82 3044.5,1214.5C 2969.41,1216.12 2905.41,1190.29 2852.5,1137C 2915.6,1121.68 2978.93,1107.18 3042.5,1093.5 Z"/></g>
<g><path style="opacity:1" fill="#4c4542" d="M 3042.5,1093.5 C 3043.21,1092.6 3044.21,1092.26 3045.5,1092.5C 3045.83,1133.34 3045.5,1174 3044.5,1214.5C 3045.16,1173.82 3044.49,1133.49 3042.5,1093.5 Z"/></g>
<g><path style="opacity:1" fill="#283d52" d="M 3345.5,1131.5 C 3375.8,1130.63 3390.63,1145.3 3390,1175.5C 3383.61,1197.12 3369.11,1206.95 3346.5,1205C 3323.81,1198.29 3313.98,1183.12 3317,1159.5C 3321.79,1145.21 3331.29,1135.88 3345.5,1131.5 Z"/></g>
<g><path style="opacity:1" fill="#283d52" d="M 2735.5,1178.5 C 2757.27,1176.8 2771.77,1186.13 2779,1206.5C 2782.15,1230.73 2771.98,1245.9 2748.5,1252C 2725.99,1253.49 2711.82,1243.33 2706,1221.5C 2704.97,1199.52 2714.81,1185.18 2735.5,1178.5 Z"/></g>
<g><path style="opacity:1" fill="#835e37" d="M 2581.5,1242.5 C 2582.21,1241.6 2583.21,1241.26 2584.5,1241.5C 2584.5,1262.83 2584.5,1284.17 2584.5,1305.5C 2584.16,1284.31 2583.16,1263.31 2581.5,1242.5 Z"/></g>
<g><path style="opacity:1" fill="#31c01e" d="M 2485.5,1364.5 C 2486.5,1410.33 2486.83,1456.33 2486.5,1502.5C 2470.43,1505.85 2454.43,1509.52 2438.5,1513.5C 2438.5,1663.83 2438.5,1814.17 2438.5,1964.5C 2454.79,1961.01 2471.12,1957.68 2487.5,1954.5C 2487.5,2000.5 2487.5,2046.5 2487.5,2092.5C 2405.72,2111.03 2324.05,2130.03 2242.5,2149.5C 2241.5,2103.17 2241.17,2056.84 2241.5,2010.5C 2257.8,2006.73 2274.14,2003.06 2290.5,1999.5C 2290.5,1972.5 2290.5,1945.5 2290.5,1918.5C 2290.83,1794.83 2290.5,1671.16 2289.5,1547.5C 2288.89,1547.62 2288.56,1547.96 2288.5,1548.5C 2273.09,1551.52 2257.76,1554.85 2242.5,1558.5C 2241.5,1512.67 2241.17,1466.67 2241.5,1420.5C 2322.72,1401.46 2404.05,1382.79 2485.5,1364.5 Z"/></g>
<g><path style="opacity:1" fill="#1f603e" d="M 2485.5,1364.5 C 2485.56,1363.96 2485.89,1363.62 2486.5,1363.5C 2487.83,1410 2487.83,1456.33 2486.5,1502.5C 2486.83,1456.33 2486.5,1410.33 2485.5,1364.5 Z"/></g>
<g><path style="opacity:1" fill="#217636" d="M 2241.5,1420.5 C 2241.17,1466.67 2241.5,1512.67 2242.5,1558.5C 2242.44,1559.04 2242.11,1559.38 2241.5,1559.5C 2240.17,1513 2240.17,1466.67 2241.5,1420.5 Z"/></g>
<g><path style="opacity:1" fill="#31c01e" d="M 1769.5,1811.5 C 1769.29,1810.08 1768.79,1808.74 1768,1807.5C 1767.17,1847.67 1767.34,1887.67 1768.5,1927.5C 1768.83,2037.84 1768.5,2148.17 1767.5,2258.5C 1722.94,2269.24 1678.28,2279.57 1633.5,2289.5C 1631.83,2069.67 1630.83,1849.67 1630.5,1629.5C 1630.17,1606.82 1630.5,1584.16 1631.5,1561.5C 1686.78,1548.61 1742.11,1535.78 1797.5,1523C 1799.26,1522.2 1800.93,1522.37 1802.5,1523.5C 1834.9,1635.87 1867.4,1748.2 1900,1860.5C 1932.18,1732.79 1964.51,1605.12 1997,1477.5C 2053.96,1463.48 2111.13,1450.14 2168.5,1437.5C 2168.5,1680.5 2168.5,1923.5 2168.5,2166.5C 2122.82,2176.67 2077.16,2187 2031.5,2197.5C 2031.67,2047.83 2031.5,1898.17 2031,1748.5C 1994.36,1906.72 1958.19,2065.06 1922.5,2223.5C 1907.41,2226.42 1892.41,2229.75 1877.5,2233.5C 1841.63,2092.81 1805.63,1952.15 1769.5,1811.5 Z"/></g>
<g><path style="opacity:1" fill="#f5921e" d="M 2988.5,1480.5 C 3007.11,1482.21 3025.78,1482.87 3044.5,1482.5C 3044.5,1497.5 3044.5,1512.5 3044.5,1527.5C 3026.12,1531.24 3007.79,1535.24 2989.5,1539.5C 2988.5,1519.84 2988.17,1500.18 2988.5,1480.5 Z"/></g>
<g><path style="opacity:1" fill="#268931" d="M 2288.5,1548.5 C 2288.56,1547.96 2288.89,1547.62 2289.5,1547.5C 2290.5,1671.16 2290.83,1794.83 2290.5,1918.5C 2289.83,1795.17 2289.17,1671.83 2288.5,1548.5 Z"/></g>
<g><path style="opacity:1" fill="#fcfcfc" d="M 3115.5,1573.5 C 3135.78,1570.8 3147.45,1579.47 3150.5,1599.5C 3149.04,1616.63 3139.7,1625.63 3122.5,1626.5C 3106.29,1624.63 3097.62,1615.47 3096.5,1599C 3097.74,1586.61 3104.07,1578.11 3115.5,1573.5 Z"/></g>
<g><path style="opacity:1" fill="#31c01e" d="M 1563.5,1577.5 C 1564.17,1692.17 1564.83,1806.83 1565.5,1921.5C 1565.5,2049.5 1565.5,2177.5 1565.5,2305.5C 1426.22,2337.82 1286.89,2369.82 1147.5,2401.5C 1147.33,2158.83 1147.5,1916.17 1148,1673.5C 1197.01,1661.46 1246.18,1650.13 1295.5,1639.5C 1295.5,1699.83 1295.5,1760.17 1295.5,1820.5C 1295.5,1956.83 1295.5,2093.17 1295.5,2229.5C 1296.79,2229.74 1297.79,2229.4 1298.5,2228.5C 1337.83,2219.5 1377.17,2210.5 1416.5,2201.5C 1416.5,2004.5 1416.5,1807.5 1416.5,1610.5C 1465.5,1599.63 1514.5,1588.63 1563.5,1577.5 Z"/></g>
<g><path style="opacity:1" fill="#299b2a" d="M 1563.5,1577.5 C 1563.56,1576.96 1563.89,1576.62 1564.5,1576.5C 1565.5,1691.5 1565.83,1806.5 1565.5,1921.5C 1564.83,1806.83 1564.17,1692.17 1563.5,1577.5 Z"/></g>
<g><path style="opacity:1" fill="#fcfdfd" d="M 2890.5,1617.5 C 2907.07,1615.36 2918.23,1622.03 2924,1637.5C 2925.97,1657.53 2916.97,1668.53 2897,1670.5C 2885.79,1669.96 2877.79,1664.63 2873,1654.5C 2868.14,1636.89 2873.97,1624.56 2890.5,1617.5 Z"/></g>
<g><path style="opacity:1" fill="#4a4443" d="M 3044.5,1684.5 C 3045.17,1733.83 3045.5,1783.33 3045.5,1833C 3045.5,1882.84 3044.83,1932.34 3043.5,1981.5C 3044.5,1882.57 3044.83,1783.57 3044.5,1684.5 Z"/></g>
<g><path style="opacity:1" fill="#f6921e" d="M 3044.5,1684.5 C 3044.83,1783.57 3044.5,1882.57 3043.5,1981.5C 3025.2,1985.66 3006.87,1989.66 2988.5,1993.5C 2988.17,1894.83 2988.5,1796.16 2989.5,1697.5C 3007.73,1692.69 3026.06,1688.36 3044.5,1684.5 Z"/></g>
<g><path style="opacity:1" fill="#31c01e" d="M 656.5,2415.5 C 656.168,2205.76 656.501,1996.1 657.5,1786.5C 757.287,1763.26 857.12,1740.26 957,1717.5C 959.544,1717.38 961.711,1718.22 963.5,1720C 995.167,1743.17 1026.83,1766.33 1058.5,1789.5C 1059.67,1856.83 1059.83,1924.16 1059,1991.5C 1036.17,2015.67 1013.33,2039.83 990.5,2064C 1021.68,2080.42 1053.01,2096.59 1084.5,2112.5C 1085.5,2213.83 1085.83,2315.16 1085.5,2416.5C 975.513,2441.83 865.513,2467.16 755.5,2492.5C 752.852,2492.03 750.519,2490.87 748.5,2489C 717.959,2464.29 687.292,2439.79 656.5,2415.5 Z"/></g>
<g><path style="opacity:1" fill="#216b3a" d="M 657.5,1786.5 C 656.501,1996.1 656.168,2205.76 656.5,2415.5C 655.833,2310.83 655.5,2206 655.5,2101C 655.5,1995.83 656.167,1891 657.5,1786.5 Z"/></g>
<g><path style="opacity:1" fill="#227636" d="M 1769.5,1811.5 C 1768.5,1850 1768.17,1888.66 1768.5,1927.5C 1767.34,1887.67 1767.17,1847.67 1768,1807.5C 1768.79,1808.74 1769.29,1810.08 1769.5,1811.5 Z"/></g>
<g><path style="opacity:1" fill="#122c4e" d="M 910.5,1866.5 C 912.495,1916.49 913.162,1966.82 912.5,2017.5C 876.425,2025.12 840.425,2033.12 804.5,2041.5C 804.167,1991.5 804.5,1941.5 805.5,1891.5C 840.652,1883.29 875.652,1874.96 910.5,1866.5 Z"/></g>
<g><path style="opacity:1" fill="#1e5d3f" d="M 1630.5,1629.5 C 1630.83,1849.67 1631.83,2069.67 1633.5,2289.5C 1632.79,2290.4 1631.79,2290.74 1630.5,2290.5C 1630.5,2070.17 1630.5,1849.83 1630.5,1629.5 Z"/></g>
<g><path style="opacity:1" fill="#31c01e" d="M 3442.5,1979.5 C 3443.83,1979.5 3445.17,1979.5 3446.5,1979.5C 3446.5,2222.5 3446.5,2465.5 3446.5,2708.5C 3304.72,2740.69 3163.06,2773.36 3021.5,2806.5C 3020.17,2563.5 3020.17,2320.5 3021.5,2077.5C 3162,2044.96 3302.33,2012.29 3442.5,1979.5 Z"/></g>
<g><path style="opacity:1" fill="#bc782a" d="M 2584.5,2003.5 C 2585.17,2031.17 2585.83,2058.83 2586.5,2086.5C 2586.44,2087.04 2586.11,2087.38 2585.5,2087.5C 2584.5,2059.51 2584.17,2031.51 2584.5,2003.5 Z"/></g>
<g><path style="opacity:1" fill="#31c01e" d="M 2958.5,2092.5 C 2960.5,2138.15 2961.16,2184.15 2960.5,2230.5C 2895.82,2245.28 2831.15,2260.28 2766.5,2275.5C 2765.17,2322.17 2765.17,2368.83 2766.5,2415.5C 2827.86,2401.16 2889.2,2386.83 2950.5,2372.5C 2951.5,2418.16 2951.83,2463.83 2951.5,2509.5C 2890.41,2523.18 2829.41,2537.18 2768.5,2551.5C 2767.33,2609.83 2767.17,2668.16 2768,2726.5C 2834.04,2710.62 2900.2,2695.28 2966.5,2680.5C 2966.83,2726.5 2966.5,2772.5 2965.5,2818.5C 2850.04,2846.19 2734.37,2872.86 2618.5,2898.5C 2618.17,2655.83 2618.5,2413.17 2619.5,2170.5C 2732.39,2143.99 2845.39,2117.99 2958.5,2092.5 Z"/></g>
<g><path style="opacity:1" fill="#299b2a" d="M 2958.5,2092.5 C 2959.21,2091.6 2960.21,2091.26 2961.5,2091.5C 2961.83,2138 2961.5,2184.34 2960.5,2230.5C 2961.16,2184.15 2960.5,2138.15 2958.5,2092.5 Z"/></g>
<g><path style="opacity:1" fill="#122c4e" d="M 934.5,2147.5 C 936.496,2202.16 937.163,2257.16 936.5,2312.5C 892.471,2322.51 848.471,2332.51 804.5,2342.5C 804.5,2287.5 804.5,2232.5 804.5,2177.5C 848.18,2168.63 891.514,2158.63 934.5,2147.5 Z"/></g>
<g><path style="opacity:1" fill="#122c4e" d="M 3298.5,2474.5 C 3298.5,2517.5 3298.5,2560.5 3298.5,2603.5C 3297.21,2603.26 3296.21,2603.6 3295.5,2604.5C 3253.55,2613.78 3211.72,2623.45 3170,2633.5C 3169.5,2482.83 3169.33,2332.17 3169.5,2181.5C 3212.56,2172.03 3255.56,2162.37 3298.5,2152.5C 3298.5,2259.83 3298.5,2367.17 3298.5,2474.5 Z"/></g>
<g><path style="opacity:1" fill="#20643c" d="M 1295.5,1820.5 C 1295.83,1956.67 1296.83,2092.67 1298.5,2228.5C 1297.79,2229.4 1296.79,2229.74 1295.5,2229.5C 1295.5,2093.17 1295.5,1956.83 1295.5,1820.5 Z"/></g>
<g><path style="opacity:1" fill="#31c01e" d="M 2547.5,2187.5 C 2548.17,2242.17 2548.83,2296.83 2549.5,2351.5C 2549.5,2539.5 2549.5,2727.5 2549.5,2915.5C 2502.45,2926.02 2455.45,2936.85 2408.5,2948C 2406.42,2948.81 2404.42,2948.64 2402.5,2947.5C 2354.43,2820.96 2306.77,2694.3 2259.5,2567.5C 2259.22,2566.71 2258.72,2566.04 2258,2565.5C 2257.17,2643.67 2257.33,2721.67 2258.5,2799.5C 2258.5,2860.5 2258.5,2921.5 2258.5,2982.5C 2212.49,2993.17 2166.49,3003.84 2120.5,3014.5C 2119.5,2771.5 2119.17,2528.5 2119.5,2285.5C 2166.89,2274.86 2214.22,2264.02 2261.5,2253C 2263.26,2252.2 2264.93,2252.37 2266.5,2253.5C 2314,2380.5 2361.5,2507.5 2409,2634.5C 2409.5,2495.83 2409.67,2357.17 2409.5,2218.5C 2455.42,2207.92 2501.42,2197.58 2547.5,2187.5 Z"/></g>
<g><path style="opacity:1" fill="#217636" d="M 2547.5,2187.5 C 2547.56,2186.96 2547.89,2186.62 2548.5,2186.5C 2549.5,2241.5 2549.83,2296.5 2549.5,2351.5C 2548.83,2296.83 2548.17,2242.17 2547.5,2187.5 Z"/></g>
<g><path style="opacity:1" fill="#31c01e" d="M 2049.5,2302.5 C 2050.17,2385.83 2050.83,2469.17 2051.5,2552.5C 2051.5,2623.5 2051.5,2694.5 2051.5,2765.5C 2024.56,2770.74 1997.89,2776.9 1971.5,2784C 2003.39,2864.85 2034.39,2946.02 2064.5,3027.5C 2015.17,3039 1965.83,3050.17 1916.5,3061C 1887.27,2980.48 1857.94,2899.98 1828.5,2819.5C 1828,2819.17 1827.5,2818.83 1827,2818.5C 1814.51,2821.61 1802.01,2824.61 1789.5,2827.5C 1789.5,2915.5 1789.5,3003.5 1789.5,3091.5C 1740.09,3102.19 1690.76,3113.19 1641.5,3124.5C 1641.33,2915.83 1641.5,2707.17 1642,2498.5C 1677.5,2456.33 1713,2414.17 1748.5,2372C 1848.72,2348.36 1949.06,2325.19 2049.5,2302.5 Z"/></g>
<g><path style="opacity:1" fill="#217636" d="M 2049.5,2302.5 C 2049.56,2301.96 2049.89,2301.62 2050.5,2301.5C 2051.5,2385.16 2051.83,2468.83 2051.5,2552.5C 2050.83,2469.17 2050.17,2385.83 2049.5,2302.5 Z"/></g>
<g><path style="opacity:1" fill="#31c01e" d="M 1573.5,2412.5 C 1575.16,2437.65 1576.16,2462.98 1576.5,2488.5C 1576.5,2705.83 1576.5,2923.17 1576.5,3140.5C 1434.45,3172.95 1292.45,3205.62 1150.5,3238.5C 1150.5,3151.5 1150.5,3064.5 1150.5,2977.5C 1150.17,2821.43 1150.5,2665.43 1151.5,2509.5C 1292.1,2476.85 1432.77,2444.52 1573.5,2412.5 Z"/></g>
<g><path style="opacity:1" fill="#299a2a" d="M 1573.5,2412.5 C 1574.21,2411.6 1575.21,2411.26 1576.5,2411.5C 1576.5,2437.17 1576.5,2462.83 1576.5,2488.5C 1576.16,2462.98 1575.16,2437.65 1573.5,2412.5 Z"/></g>
<g><path style="opacity:1" fill="#2a9b2a" d="M 3298.5,2474.5 C 3299.5,2517.66 3299.83,2561 3299.5,2604.5C 3298.17,2604.5 3296.83,2604.5 3295.5,2604.5C 3296.21,2603.6 3297.21,2603.26 3298.5,2603.5C 3298.5,2560.5 3298.5,2517.5 3298.5,2474.5 Z"/></g>
<g><path style="opacity:1" fill="#122c4e" d="M 1901.5,2475.5 C 1902.5,2538.33 1902.83,2601.33 1902.5,2664.5C 1864.79,2673.01 1827.12,2681.68 1789.5,2690.5C 1789.5,2627.17 1789.5,2563.83 1789.5,2500.5C 1826.93,2492.59 1864.27,2484.26 1901.5,2475.5 Z"/></g>
<g><path style="opacity:1" fill="#278c30" d="M 1901.5,2475.5 C 1901.56,2474.96 1901.89,2474.62 1902.5,2474.5C 1903.83,2538 1903.83,2601.33 1902.5,2664.5C 1902.83,2601.33 1902.5,2538.33 1901.5,2475.5 Z"/></g>
<g><path style="opacity:1" fill="#278b30" d="M 1151.5,2509.5 C 1150.5,2665.43 1150.17,2821.43 1150.5,2977.5C 1149.83,2899.67 1149.5,2821.67 1149.5,2743.5C 1149.5,2665.16 1150.17,2587.16 1151.5,2509.5 Z"/></g>
<g><path style="opacity:1" fill="#31c01e" d="M 959.5,2553.5 C 993.669,2577.19 1027.5,2601.52 1061,2626.5C 1061.67,2693.83 1061.67,2761.17 1061,2828.5C 1038.32,2852.35 1015.82,2876.35 993.5,2900.5C 1024.83,2916.83 1056.17,2933.17 1087.5,2949.5C 1088.5,3050.83 1088.83,3152.16 1088.5,3253.5C 978.002,3278.08 867.669,3303.42 757.5,3329.5C 724.549,3303.72 691.715,3277.72 659,3251.5C 658.167,3042.17 658.333,2832.83 659.5,2623.5C 759.682,2600.37 859.682,2577.03 959.5,2553.5 Z"/></g>
<g><path style="opacity:1" fill="#2a9c2a" d="M 2259.5,2567.5 C 2258.5,2644.66 2258.17,2722 2258.5,2799.5C 2257.33,2721.67 2257.17,2643.67 2258,2565.5C 2258.72,2566.04 2259.22,2566.71 2259.5,2567.5 Z"/></g>
<g><path style="opacity:1" fill="#122c4e" d="M 1426.5,2585.5 C 1427.17,2660.83 1427.83,2736.17 1428.5,2811.5C 1428.67,2886.17 1428.5,2960.83 1428,3035.5C 1384.91,3045.9 1341.75,3055.9 1298.5,3065.5C 1298.5,2915.17 1298.5,2764.83 1298.5,2614.5C 1341.15,2604.84 1383.82,2595.17 1426.5,2585.5 Z"/></g>
<g><path style="opacity:1" fill="#1a5142" d="M 1426.5,2585.5 C 1426.56,2584.96 1426.89,2584.62 1427.5,2584.5C 1428.5,2660.16 1428.83,2735.83 1428.5,2811.5C 1427.83,2736.17 1427.17,2660.83 1426.5,2585.5 Z"/></g>
<g><path style="opacity:1" fill="#122c4e" d="M 914.5,2703.5 C 914.5,2753.5 914.5,2803.5 914.5,2853.5C 913.209,2853.26 912.209,2853.6 911.5,2854.5C 877.468,2861.95 843.468,2869.62 809.5,2877.5C 807.505,2828.18 806.838,2778.51 807.5,2728.5C 842.976,2719.86 878.643,2711.52 914.5,2703.5 Z"/></g>
<g><path style="opacity:1" fill="#227735" d="M 914.5,2703.5 C 915.499,2753.66 915.832,2804 915.5,2854.5C 914.167,2854.5 912.833,2854.5 911.5,2854.5C 912.209,2853.6 913.209,2853.26 914.5,2853.5C 914.5,2803.5 914.5,2753.5 914.5,2703.5 Z"/></g>
<g><path style="opacity:1" fill="#217138" d="M 807.5,2728.5 C 806.838,2778.51 807.505,2828.18 809.5,2877.5C 808.791,2878.4 807.791,2878.74 806.5,2878.5C 806.168,2828.33 806.501,2778.33 807.5,2728.5 Z"/></g>
<g><path style="opacity:1" fill="#fefefe" d="M 3377.5,2825.5 C 3378.5,2825.5 3379.5,2825.5 3380.5,2825.5C 3380.5,2910.5 3380.5,2995.5 3380.5,3080.5C 3410.38,3073.2 3440.38,3066.53 3470.5,3060.5C 3470.5,3080.5 3470.5,3100.5 3470.5,3120.5C 3419.21,3131.78 3368.04,3143.45 3317,3155.5C 3316.5,3050.17 3316.33,2944.83 3316.5,2839.5C 3337.07,2835.36 3357.4,2830.69 3377.5,2825.5 Z"/></g>
<g><path style="opacity:1" fill="#fefefe" d="M 3199.5,3029.5 C 3199.5,3060.5 3199.5,3091.5 3199.5,3122.5C 3200.79,3122.74 3201.79,3122.4 3202.5,3121.5C 3230.56,3115.38 3258.56,3109.05 3286.5,3102.5C 3288.49,3121.8 3289.15,3141.47 3288.5,3161.5C 3237.79,3173.29 3187.12,3185.29 3136.5,3197.5C 3135.5,3092.17 3135.17,2986.84 3135.5,2881.5C 3156.82,2876.84 3178.15,2872.17 3199.5,2867.5C 3199.5,2921.5 3199.5,2975.5 3199.5,3029.5 Z"/></g>
<g><path style="opacity:1" fill="#fdfefe" d="M 3110.5,2887.5 C 3111.5,2992.67 3111.83,3098 3111.5,3203.5C 3090.36,3207.41 3069.36,3212.08 3048.5,3217.5C 3047.5,3183.17 3047.17,3148.84 3047.5,3114.5C 3029.73,3118.03 3012.06,3122.03 2994.5,3126.5C 2993.5,3161.16 2993.17,3195.83 2993.5,3230.5C 2971.86,3235.27 2950.19,3239.94 2928.5,3244.5C 2928.33,3156.17 2928.5,3067.83 2929,2979.5C 2945.17,2959.33 2961.33,2939.17 2977.5,2919C 3021.92,2908.35 3066.25,2897.85 3110.5,2887.5 Z"/></g>
<g><path style="opacity:1" fill="#fefefe" d="M 2845.5,2948.5 C 2860.46,2958.32 2875.13,2968.66 2889.5,2979.5C 2890.67,3009.16 2890.83,3038.83 2890,3068.5C 2879.95,3078.05 2870.45,3088.05 2861.5,3098.5C 2874.52,3106.01 2887.85,3113.01 2901.5,3119.5C 2902.5,3163.49 2902.83,3207.49 2902.5,3251.5C 2854.65,3261.71 2806.98,3272.71 2759.5,3284.5C 2745.5,3273.5 2731.5,3262.5 2717.5,3251.5C 2716.5,3160.5 2716.17,3069.5 2716.5,2978.5C 2759.73,2968.94 2802.73,2958.94 2845.5,2948.5 Z"/></g>
<g><path style="opacity:1" fill="#122c4f" d="M 3045.5,2963.5 C 3046.5,2993.66 3046.83,3024 3046.5,3054.5C 3028.85,3057.96 3011.35,3061.96 2994,3066.5C 2993.5,3035.84 2993.33,3005.17 2993.5,2974.5C 3010.84,2970.83 3028.18,2967.16 3045.5,2963.5 Z"/></g>
<g><path style="opacity:1" fill="#4e627c" d="M 3045.5,2963.5 C 3045.56,2962.96 3045.89,2962.62 3046.5,2962.5C 3047.83,2993.33 3047.83,3024 3046.5,3054.5C 3046.83,3024 3046.5,2993.66 3045.5,2963.5 Z"/></g>
<g><path style="opacity:1" fill="#122c4e" d="M 935.5,2984.5 C 936.833,2984.5 938.167,2984.5 939.5,2984.5C 939.5,3039.5 939.5,3094.5 939.5,3149.5C 895.51,3158.79 851.677,3168.79 808,3179.5C 807.167,3124.5 807.333,3069.5 808.5,3014.5C 851.071,3004.99 893.404,2994.99 935.5,2984.5 Z"/></g>
<g><path style="opacity:1" fill="#fdfdfd" d="M 2568.5,3281.5 C 2568.5,3212.17 2568.5,3142.83 2568.5,3073.5C 2566.9,3073.23 2565.57,3073.57 2564.5,3074.5C 2546.05,3078.3 2527.72,3082.63 2509.5,3087.5C 2508.5,3067.18 2508.17,3046.84 2508.5,3026.5C 2569.14,3012.62 2629.81,2998.95 2690.5,2985.5C 2690.5,3005.5 2690.5,3025.5 2690.5,3045.5C 2671.52,3049.29 2652.69,3053.62 2634,3058.5C 2633.5,3143.5 2633.33,3228.5 2633.5,3313.5C 2611.91,3318.2 2590.41,3323.2 2569,3328.5C 2568.5,3312.84 2568.33,3297.17 2568.5,3281.5 Z"/></g>
<g><path style="opacity:1" fill="#132d4f" d="M 2824.5,3014.5 C 2826.49,3035.47 2827.16,3056.81 2826.5,3078.5C 2811.31,3082.46 2795.97,3085.8 2780.5,3088.5C 2780.33,3067.16 2780.5,3045.83 2781,3024.5C 2795.32,3020.47 2809.82,3017.14 2824.5,3014.5 Z"/></g>
<g><path style="opacity:1" fill="#8895a6" d="M 2824.5,3014.5 C 2825.21,3013.6 2826.21,3013.26 2827.5,3013.5C 2827.83,3035.34 2827.5,3057.01 2826.5,3078.5C 2827.16,3056.81 2826.49,3035.47 2824.5,3014.5 Z"/></g>
<g><path style="opacity:1" fill="#4d617b" d="M 3199.5,3029.5 C 3199.84,3060.35 3200.84,3091.01 3202.5,3121.5C 3201.79,3122.4 3200.79,3122.74 3199.5,3122.5C 3199.5,3091.5 3199.5,3060.5 3199.5,3029.5 Z"/></g>
<g><path style="opacity:1" fill="#fdfdfd" d="M 2481.5,3033.5 C 2482.5,3053.33 2482.83,3073.33 2482.5,3093.5C 2454.46,3099.62 2426.46,3105.95 2398.5,3112.5C 2397.5,3132.66 2397.17,3152.99 2397.5,3173.5C 2398.79,3173.74 2399.79,3173.4 2400.5,3172.5C 2426.54,3166.71 2452.54,3160.71 2478.5,3154.5C 2479.83,3174.17 2479.83,3193.83 2478.5,3213.5C 2452.23,3219.82 2425.9,3225.82 2399.5,3231.5C 2399.33,3256.84 2399.5,3282.17 2400,3307.5C 2428.4,3300.44 2456.9,3293.78 2485.5,3287.5C 2485.5,3307.5 2485.5,3327.5 2485.5,3347.5C 2436.21,3359.16 2386.88,3370.49 2337.5,3381.5C 2335.84,3372.38 2334.84,3363.04 2334.5,3353.5C 2334.33,3258.17 2334.5,3162.83 2335,3067.5C 2383.71,3055.65 2432.55,3044.32 2481.5,3033.5 Z"/></g>
<g><path style="opacity:1" fill="#c0c7d0" d="M 2481.5,3033.5 C 2481.56,3032.96 2481.89,3032.62 2482.5,3032.5C 2483.83,3053 2483.83,3073.33 2482.5,3093.5C 2482.83,3073.33 2482.5,3053.33 2481.5,3033.5 Z"/></g>
<g><path style="opacity:1" fill="#4d617b" d="M 2564.5,3074.5 C 2565.57,3073.57 2566.9,3073.23 2568.5,3073.5C 2568.5,3142.83 2568.5,3212.17 2568.5,3281.5C 2567.5,3212.67 2567.17,3143.67 2567.5,3074.5C 2566.5,3074.5 2565.5,3074.5 2564.5,3074.5 Z"/></g>
<g><path style="opacity:1" fill="#fefefe" d="M 2242.5,3403.5 C 2241.83,3370.17 2241.17,3336.83 2240.5,3303.5C 2240.5,3298.83 2240.5,3294.17 2240.5,3289.5C 2219.77,3293.97 2199.1,3298.64 2178.5,3303.5C 2176.51,3341.82 2175.84,3380.49 2176.5,3419.5C 2155.12,3423.96 2133.79,3428.63 2112.5,3433.5C 2112.33,3328.5 2112.5,3223.5 2113,3118.5C 2133.81,3113.57 2154.64,3108.57 2175.5,3103.5C 2176.5,3128.82 2176.83,3154.16 2176.5,3179.5C 2176.17,3201.18 2176.5,3222.84 2177.5,3244.5C 2178.11,3244.38 2178.44,3244.04 2178.5,3243.5C 2180.69,3242.18 2182.19,3240.18 2183,3237.5C 2202,3188.17 2221,3138.83 2240,3089.5C 2261.43,3084.1 2282.93,3079.27 2304.5,3075C 2285.27,3125.53 2265.93,3176.03 2246.5,3226.5C 2247,3226.83 2247.5,3227.17 2248,3227.5C 2266.8,3222.97 2285.63,3218.64 2304.5,3214.5C 2305.5,3272.83 2305.83,3331.16 2305.5,3389.5C 2284.49,3394.06 2263.49,3398.73 2242.5,3403.5 Z"/></g>
<g><path style="opacity:1" fill="#c0c7d1" d="M 3286.5,3102.5 C 3287.21,3101.6 3288.21,3101.26 3289.5,3101.5C 3289.83,3121.67 3289.5,3141.67 3288.5,3161.5C 3289.15,3141.47 3288.49,3121.8 3286.5,3102.5 Z"/></g>
<g><path style="opacity:1" fill="#c3cad3" d="M 2398.5,3112.5 C 2397.85,3132.86 2398.51,3152.86 2400.5,3172.5C 2399.79,3173.4 2398.79,3173.74 2397.5,3173.5C 2397.17,3152.99 2397.5,3132.66 2398.5,3112.5 Z"/></g>
<g><path style="opacity:1" fill="#fcfcfd" d="M 2079.5,3125.5 C 2080.83,3125.5 2082.17,3125.5 2083.5,3125.5C 2083.5,3156.83 2083.5,3188.17 2083.5,3219.5C 2063.79,3223.68 2044.13,3228.01 2024.5,3232.5C 2024.83,3221.48 2024.5,3210.48 2023.5,3199.5C 2010.17,3202.5 1996.83,3205.5 1983.5,3208.5C 1983.17,3222.52 1983.5,3236.52 1984.5,3250.5C 2017.83,3268.5 2051.17,3286.5 2084.5,3304.5C 2085.5,3349.83 2085.83,3395.16 2085.5,3440.5C 2029.18,3453.33 1972.85,3466 1916.5,3478.5C 1916.17,3445.83 1916.5,3413.16 1917.5,3380.5C 1938.46,3375.37 1959.46,3370.37 1980.5,3365.5C 1981.5,3378.15 1981.83,3390.82 1981.5,3403.5C 1994.45,3400.58 2007.45,3397.91 2020.5,3395.5C 2020.83,3378.49 2020.5,3361.49 2019.5,3344.5C 1985.76,3326.55 1952.26,3308.21 1919,3289.5C 1918.33,3247.5 1918.33,3205.5 1919,3163.5C 1972.64,3150.88 2026.14,3138.21 2079.5,3125.5 Z"/></g>
<g><path style="opacity:1" fill="#122c4f" d="M 2832.5,3135.5 C 2834.17,3135.5 2835.83,3135.5 2837.5,3135.5C 2837.5,3159.17 2837.5,3182.83 2837.5,3206.5C 2818.5,3210.5 2799.5,3214.5 2780.5,3218.5C 2780.17,3195.16 2780.5,3171.82 2781.5,3148.5C 2798.6,3144.05 2815.6,3139.72 2832.5,3135.5 Z"/></g>
<g><path style="opacity:1" fill="#fdfefe" d="M 1831.5,3498.5 C 1829.84,3464.51 1828.84,3430.18 1828.5,3395.5C 1827.89,3395.62 1827.56,3395.96 1827.5,3396.5C 1809.86,3399.95 1792.36,3403.95 1775,3408.5C 1774.5,3443.17 1774.33,3477.83 1774.5,3512.5C 1753.44,3516.84 1732.44,3521.51 1711.5,3526.5C 1710.33,3437.84 1710.17,3349.17 1711,3260.5C 1727.17,3240.33 1743.33,3220.17 1759.5,3200C 1804.12,3189.51 1848.79,3179.34 1893.5,3169.5C 1893.83,3274.5 1893.5,3379.5 1892.5,3484.5C 1872.2,3489.27 1851.87,3493.94 1831.5,3498.5 Z"/></g>
<g><path style="opacity:1" fill="#4f637c" d="M 2176.5,3179.5 C 2177.17,3200.83 2177.83,3222.17 2178.5,3243.5C 2178.44,3244.04 2178.11,3244.38 2177.5,3244.5C 2176.5,3222.84 2176.17,3201.18 2176.5,3179.5 Z"/></g>
<g><path style="opacity:1" fill="#fdfdfd" d="M 1625.5,3230.5 C 1627.65,3230.37 1629.65,3230.87 1631.5,3232C 1644.69,3242.03 1658.03,3251.86 1671.5,3261.5C 1672.67,3290.83 1672.83,3320.16 1672,3349.5C 1662.49,3359.68 1652.99,3369.85 1643.5,3380C 1656.56,3387.28 1669.73,3394.45 1683,3401.5C 1683.5,3445.5 1683.67,3489.5 1683.5,3533.5C 1636.16,3543.47 1589,3554.13 1542,3565.5C 1540.83,3565.33 1539.67,3565.17 1538.5,3565C 1525,3554.17 1511.5,3543.33 1498,3532.5C 1497.17,3441.83 1497.33,3351.16 1498.5,3260.5C 1541,3250.62 1583.33,3240.62 1625.5,3230.5 Z"/></g>
<g><path style="opacity:1" fill="#132c4f" d="M 1776.5,3347.5 C 1775.83,3320.17 1775.17,3292.83 1774.5,3265.5C 1774.5,3262.5 1774.5,3259.5 1774.5,3256.5C 1792.51,3252.5 1810.51,3248.5 1828.5,3244.5C 1828.83,3274.84 1828.5,3305.17 1827.5,3335.5C 1810.57,3339.82 1793.57,3343.82 1776.5,3347.5 Z"/></g>
<g><path style="opacity:1" fill="#4e627c" d="M 1774.5,3265.5 C 1775.17,3292.83 1775.83,3320.17 1776.5,3347.5C 1776.44,3348.04 1776.11,3348.38 1775.5,3348.5C 1774.5,3320.84 1774.17,3293.17 1774.5,3265.5 Z"/></g>
<g><path style="opacity:1" fill="#132d4f" d="M 1604.5,3295.5 C 1605.83,3295.5 1607.17,3295.5 1608.5,3295.5C 1608.5,3317.17 1608.5,3338.83 1608.5,3360.5C 1593.48,3363.67 1578.48,3367.01 1563.5,3370.5C 1562.5,3348.84 1562.17,3327.18 1562.5,3305.5C 1576.7,3302.53 1590.7,3299.2 1604.5,3295.5 Z"/></g>
<g><path style="opacity:1" fill="#835e37" d="M 1384.5,3298.5 C 1384.56,3297.96 1384.89,3297.62 1385.5,3297.5C 1386.5,3385.5 1386.83,3473.5 1386.5,3561.5C 1385.83,3473.83 1385.17,3386.17 1384.5,3298.5 Z"/></g>
<g><path style="opacity:1" fill="#4d607a" d="M 2178.5,3303.5 C 2177.84,3342.26 2177.17,3380.93 2176.5,3419.5C 2175.84,3380.49 2176.51,3341.82 2178.5,3303.5 Z"/></g>
<g><path style="opacity:1" fill="#8895a6" d="M 2240.5,3303.5 C 2241.17,3336.83 2241.83,3370.17 2242.5,3403.5C 2242.44,3404.04 2242.11,3404.38 2241.5,3404.5C 2240.5,3370.84 2240.17,3337.17 2240.5,3303.5 Z"/></g>
<g><path style="opacity:1" fill="#8794a5" d="M 2334.5,3353.5 C 2334.84,3363.04 2335.84,3372.38 2337.5,3381.5C 2336.79,3382.4 2335.79,3382.74 2334.5,3382.5C 2334.5,3372.83 2334.5,3363.17 2334.5,3353.5 Z"/></g>
<g><path style="opacity:1" fill="#8996a7" d="M 1827.5,3396.5 C 1827.56,3395.96 1827.89,3395.62 1828.5,3395.5C 1828.84,3430.18 1829.84,3464.51 1831.5,3498.5C 1830.79,3499.4 1829.79,3499.74 1828.5,3499.5C 1828.83,3465 1828.5,3430.66 1827.5,3396.5 Z"/></g>
<g><path style="opacity:1" fill="#122c4f" d="M 1616.5,3417.5 C 1617.83,3428.81 1618.5,3440.48 1618.5,3452.5C 1618.49,3464.57 1618.16,3476.57 1617.5,3488.5C 1599.11,3492.24 1580.78,3496.24 1562.5,3500.5C 1562.5,3476.83 1562.5,3453.17 1562.5,3429.5C 1580.51,3425.5 1598.51,3421.5 1616.5,3417.5 Z"/></g>
<g><path style="opacity:1" fill="#8a97a8" d="M 1616.5,3417.5 C 1617.21,3416.6 1618.21,3416.26 1619.5,3416.5C 1620.16,3440.86 1619.49,3464.86 1617.5,3488.5C 1618.16,3476.57 1618.49,3464.57 1618.5,3452.5C 1618.5,3440.48 1617.83,3428.81 1616.5,3417.5 Z"/></g>
</svg>
