<?xml version="1.0" encoding="UTF-8"?>
<!DOCTYPE svg PUBLIC "-//W3C//DTD SVG 1.1//EN" "http://www.w3.org/Graphics/SVG/1.1/DTD/svg11.dtd">
<svg xmlns="http://www.w3.org/2000/svg" version="1.1" width="280px" height="285px" style="shape-rendering:geometricPrecision; text-rendering:geometricPrecision; image-rendering:optimizeQuality; fill-rule:evenodd; clip-rule:evenodd" xmlns:xlink="http://www.w3.org/1999/xlink">
<g><path style="opacity:0.895" fill="#d39313" d="M 106.5,-0.5 C 128.5,-0.5 150.5,-0.5 172.5,-0.5C 207.431,1.89572 242.097,7.06239 276.5,15C 277.691,15.6979 278.691,16.5313 279.5,17.5C 279.5,26.8333 279.5,36.1667 279.5,45.5C 276.561,103.817 258.895,157.317 226.5,206C 238.836,207.905 251.17,209.905 263.5,212C 268.957,215.96 269.791,220.793 266,226.5C 262.478,229.266 259.145,232.266 256,235.5C 255.965,249.261 255.298,262.927 254,276.5C 249.193,279.149 244.527,278.816 240,275.5C 237.695,278.771 234.528,280.437 230.5,280.5C 208.341,275.806 186.008,272.639 163.5,271C 156.929,275.755 150.262,280.255 143.5,284.5C 141.167,284.5 138.833,284.5 136.5,284.5C 128.916,279.456 121.083,274.79 113,270.5C 91.7395,273.238 70.5729,276.571 49.5,280.5C 45.3684,280.519 42.2017,278.852 40,275.5C 27.8187,281.485 22.3187,277.651 23.5,264C 24.4282,254.509 24.5949,245.009 24,235.5C 20.0342,232.536 16.3675,229.203 13,225.5C 10.2243,219.866 11.391,215.366 16.5,212C 28.5867,209.992 40.5867,207.826 52.5,205.5C 20.6436,157.931 2.97694,105.597 -0.5,48.5C -0.5,38.1667 -0.5,27.8333 -0.5,17.5C 0.267389,16.828 0.934056,15.9947 1.5,15C 36.2562,7.15457 71.2562,1.9879 106.5,-0.5 Z"/></g>
<g><path style="opacity:1" fill="#070504" d="M 106.5,3.5 C 149.44,1.62965 192.107,4.12965 234.5,11C 247.837,13.5676 261.171,16.0676 274.5,18.5C 276.015,88.2676 257.349,151.934 218.5,209.5C 229.432,211.408 240.432,212.908 251.5,214C 255.645,214.421 259.478,215.588 263,217.5C 263.706,219.971 263.373,222.305 262,224.5C 258.667,227.167 255.333,229.833 252,232.5C 251.667,245.833 251.333,259.167 251,272.5C 246.328,273.682 241.828,273.016 237.5,270.5C 236.073,273.596 233.739,275.596 230.5,276.5C 208.801,272.022 186.967,268.356 165,265.5C 156.644,270.6 148.144,275.6 139.5,280.5C 132.16,276.499 125.16,271.999 118.5,267C 95.0946,268.268 71.9279,271.434 49,276.5C 45.5498,275.887 43.7165,273.887 43.5,270.5C 38.6264,272.124 33.6264,273.124 28.5,273.5C 28.6666,259.829 28.4999,246.163 28,232.5C 22.577,229.548 18.4103,225.382 15.5,220C 16.2874,216.932 18.2874,215.266 21.5,215C 34.8065,213.114 48.1398,211.447 61.5,210C 21.9797,152.448 2.97972,88.6145 4.5,18.5C 38.2963,11.2439 72.2963,6.2439 106.5,3.5 Z"/></g>
<g><path style="opacity:1" fill="#c68b12" d="M 246.5,23.5 C 245.791,24.404 244.791,24.7373 243.5,24.5C 175.207,16.58 106.873,16.58 38.5,24.5C 37.5084,24.6716 36.8417,24.3382 36.5,23.5C 106.525,9.02531 176.525,9.02531 246.5,23.5 Z"/></g>
<g><path style="opacity:1" fill="#7c560c" d="M 246.5,23.5 C 249.48,24.2655 252.48,25.0989 255.5,26C 251.3,26.2794 247.3,25.7794 243.5,24.5C 244.791,24.7373 245.791,24.404 246.5,23.5 Z"/></g>
<g><path style="opacity:1" fill="#75520b" d="M 36.5,23.5 C 36.8417,24.3382 37.5084,24.6716 38.5,24.5C 34.3766,25.872 30.0433,26.372 25.5,26C 29.104,24.8461 32.7707,24.0128 36.5,23.5 Z"/></g>
<g><path style="opacity:1" fill="#6c0809" d="M 128.5,30.5 C 141.837,30.3334 155.171,30.5001 168.5,31C 178.148,36.1349 184.148,43.9683 186.5,54.5C 176.155,53.8778 165.822,53.0445 155.5,52C 152.432,42.1044 145.765,35.9377 135.5,33.5C 125.329,34.6695 119.996,40.3362 119.5,50.5C 112.578,50.1878 105.744,50.5212 99,51.5C 97.6218,49.7866 95.9552,48.4533 94,47.5C 93.2072,43.7051 91.2072,40.7051 88,38.5C 87.5065,36.8659 87.3398,35.1992 87.5,33.5C 101.335,32.7429 115.002,31.7429 128.5,30.5 Z"/></g>
<g><path style="opacity:1" fill="#6d0809" d="M 186.5,33.5 C 188.134,32.8389 189.967,32.5056 192,32.5C 198.845,33.1345 205.678,33.8012 212.5,34.5C 211.935,42.5554 210.935,50.5554 209.5,58.5C 204.909,58.1978 200.409,57.5311 196,56.5C 195.526,47.5728 192.36,39.9062 186.5,33.5 Z"/></g>
<g><path style="opacity:1" fill="#f7f6f5" d="M 57.5,36.5 C 60.4534,36.1496 62.7867,37.1496 64.5,39.5C 64.3691,40.3764 64.7025,41.0431 65.5,41.5C 67.3964,40.7255 69.063,39.7255 70.5,38.5C 73.3176,38.6574 75.3176,39.9908 76.5,42.5C 76.3505,43.552 76.5172,44.552 77,45.5C 78.6516,44.6006 80.1516,43.6006 81.5,42.5C 83.7099,42.894 85.0432,44.2273 85.5,46.5C 87.0066,47.9755 88.6732,49.3088 90.5,50.5C 88.4184,50.6243 86.9184,51.6243 86,53.5C 85.9241,57.819 86.0907,62.1524 86.5,66.5C 84.5,66.5 82.5,66.5 80.5,66.5C 80.6658,61.8215 80.4992,57.1548 80,52.5C 79.4169,50.9984 78.5836,49.6651 77.5,48.5C 76.8843,54.3755 75.8843,60.0422 74.5,65.5C 72.5853,65.7845 70.9187,65.4511 69.5,64.5C 69.691,59.1007 69.191,53.7674 68,48.5C 67.3109,47.6433 66.4776,46.9767 65.5,46.5C 65.1368,52.5592 64.1368,58.2258 62.5,63.5C 61.1667,63.1667 59.8333,62.8333 58.5,62.5C 55.8085,55.6846 54.6419,48.6846 55,41.5C 51.7897,45.4065 47.623,47.0732 42.5,46.5C 46.9769,42.3518 51.9769,39.0185 57.5,36.5 Z"/></g>
<g><path style="opacity:1" fill="#6c0809" d="M 222.5,36.5 C 231.414,36.654 240.081,38.154 248.5,41C 240.258,46.0753 233.924,52.9086 229.5,61.5C 226.23,62.1919 222.897,62.1919 219.5,61.5C 220.609,53.1797 221.609,44.8463 222.5,36.5 Z"/></g>
<g><path style="opacity:1" fill="#cc8f17" d="M 57.5,36.5 C 51.9769,39.0185 46.9769,42.3518 42.5,46.5C 38.4017,47.265 34.4017,48.0984 30.5,49C 29.1667,46 29.1667,43 30.5,40C 39.4043,38.0374 48.4043,36.8707 57.5,36.5 Z"/></g>
<g><path style="opacity:1" fill="#ba851e" d="M 70.5,38.5 C 69.063,39.7255 67.3964,40.7255 65.5,41.5C 64.7025,41.0431 64.3691,40.3764 64.5,39.5C 66.2646,38.5386 68.2646,38.2053 70.5,38.5 Z"/></g>
<g><path style="opacity:1" fill="#b28227" d="M 76.5,42.5 C 78.1667,42.5 79.8333,42.5 81.5,42.5C 80.1516,43.6006 78.6516,44.6006 77,45.5C 76.5172,44.552 76.3505,43.552 76.5,42.5 Z"/></g>
<g><path style="opacity:1" fill="#c38812" d="M 126.5,39.5 C 130.133,39.443 130.3,40.443 127,42.5C 126.808,44.5767 126.308,46.5767 125.5,48.5C 125.167,47.6667 124.833,46.8333 124.5,46C 125.033,43.7739 125.7,41.6073 126.5,39.5 Z"/></g>
<g><path style="opacity:1" fill="#b2b2b2" d="M 128.5,43.5 C 129.788,45.0348 129.788,46.7015 128.5,48.5C 127.334,46.8327 127.334,45.166 128.5,43.5 Z"/></g>
<g><path style="opacity:1" fill="#d3d3d3" d="M 130.5,37.5 C 130.735,36.9033 131.235,36.5699 132,36.5C 135.885,39.2779 137.885,42.9446 138,47.5C 136.22,43.5965 133.72,40.2632 130.5,37.5 Z"/></g>
<g><path style="opacity:1" fill="#d2d2d2" d="M 137.5,39.5 C 141.15,42.07 142.817,45.4034 142.5,49.5C 140.822,46.1447 139.156,42.8113 137.5,39.5 Z"/></g>
<g><path style="opacity:1" fill="#c28812" d="M 138.5,38.5 C 138.56,37.9569 138.893,37.6236 139.5,37.5C 144.527,40.5633 147.86,44.8966 149.5,50.5C 148.5,50.5 147.5,50.5 146.5,50.5C 145.044,45.7073 142.377,41.7073 138.5,38.5 Z"/></g>
<g><path style="opacity:1" fill="#bf984f" d="M 85.5,46.5 C 87.1992,46.3398 88.8659,46.5065 90.5,47C 91.7911,48.2917 91.7911,49.4583 90.5,50.5C 88.6732,49.3088 87.0066,47.9755 85.5,46.5 Z"/></g>
<g><path style="opacity:1" fill="#eeeeee" d="M 46.5,51.5 C 47.8333,51.5 49.1667,51.5 50.5,51.5C 52.0003,55.3301 52.6669,59.3301 52.5,63.5C 51.5,63.5 50.5,63.5 49.5,63.5C 49.1557,53.7785 48.1557,53.4452 46.5,62.5C 42.5116,58.7976 42.5116,55.1309 46.5,51.5 Z"/></g>
<g><path style="opacity:1" fill="#690809" d="M 248.5,50.5 C 249.072,55.4475 248.405,60.4475 246.5,65.5C 244.236,66.0378 241.903,65.7044 239.5,64.5C 238.592,63.21 238.759,61.8767 240,60.5C 242.669,57.0003 245.502,53.667 248.5,50.5 Z"/></g>
<g><path style="opacity:1" fill="#e7e7e7" d="M 226.5,65.5 C 225.081,66.4511 223.415,66.7845 221.5,66.5C 200.274,62.9007 178.941,60.0674 157.5,58C 134.488,57.2669 111.488,57.4336 88.5,58.5C 88.5,57.1667 88.5,55.8333 88.5,54.5C 135.068,51.3942 181.068,55.0609 226.5,65.5 Z"/></g>
<g><path style="opacity:1" fill="#680809" d="M 110.5,62.5 C 113.355,61.1968 116.355,61.1968 119.5,62.5C 118.833,63.8333 117.833,64.8333 116.5,65.5C 114.68,64.1171 112.68,63.1171 110.5,62.5 Z"/></g>
<g><path style="opacity:1" fill="#c98d12" d="M 99.5,62.5 C 105.646,64.2772 111.313,67.1106 116.5,71C 111.553,70.1101 106.553,69.1101 101.5,68C 100.536,66.2745 99.8693,64.4412 99.5,62.5 Z"/></g>
<g><path style="opacity:1" fill="#d19314" d="M 140.5,62.5 C 142.167,62.5 143.833,62.5 145.5,62.5C 145.5,63.5 145.5,64.5 145.5,65.5C 143.833,65.5 142.167,65.5 140.5,65.5C 140.5,64.5 140.5,63.5 140.5,62.5 Z"/></g>
<g><path style="opacity:1" fill="#937138" d="M 147.5,61.5 C 149.674,61.9202 151.674,61.9202 153.5,61.5C 155.111,62.3202 155.778,63.6536 155.5,65.5C 152.833,65.5 150.167,65.5 147.5,65.5C 147.5,64.1667 147.5,62.8333 147.5,61.5 Z"/></g>
<g><path style="opacity:1" fill="#6c0809" d="M 161.5,63.5 C 169.224,63.7571 176.891,64.5904 184.5,66C 182.874,69.4232 180.874,72.5899 178.5,75.5C 173.682,71.0121 168.016,68.3455 161.5,67.5C 161.5,66.1667 161.5,64.8333 161.5,63.5 Z"/></g>
<g><path style="opacity:1" fill="#8e6513" d="M 58.5,62.5 C 59.8333,62.8333 61.1667,63.1667 62.5,63.5C 60.6921,65.1053 58.6921,65.4387 56.5,64.5C 57.2427,63.8182 57.9094,63.1515 58.5,62.5 Z"/></g>
<g><path style="opacity:1" fill="#edebe6" d="M 93.5,63.5 C 93.5,65.8333 93.5,68.1667 93.5,70.5C 91.9317,71.4731 90.265,71.6397 88.5,71C 90.4426,68.5144 92.1093,66.0144 93.5,63.5 Z"/></g>
<g><path style="opacity:1" fill="#dbbd8c" d="M 140.5,62.5 C 140.5,63.5 140.5,64.5 140.5,65.5C 139.417,65.5394 138.417,65.8728 137.5,66.5C 136.436,63.9364 137.436,62.6031 140.5,62.5 Z"/></g>
<g><path style="opacity:1" fill="#b6831e" d="M 69.5,64.5 C 70.9187,65.4511 72.5853,65.7845 74.5,65.5C 71.8166,67.2809 68.8166,67.7809 65.5,67C 66.9839,66.3378 68.3172,65.5045 69.5,64.5 Z"/></g>
<g><path style="opacity:1" fill="#c48d21" d="M 93.5,63.5 C 94.6935,63.9704 95.3601,64.9704 95.5,66.5C 95.6598,68.3545 94.9931,69.6879 93.5,70.5C 93.5,68.1667 93.5,65.8333 93.5,63.5 Z"/></g>
<g><path style="opacity:1" fill="#be923f" d="M 133.5,64.5 C 135.465,64.9483 135.798,65.9483 134.5,67.5C 133.614,66.675 133.281,65.675 133.5,64.5 Z"/></g>
<g><path style="opacity:1" fill="#be881b" d="M 80.5,66.5 C 82.5,66.5 84.5,66.5 86.5,66.5C 83.8632,68.4274 80.8632,68.9274 77.5,68C 78.2438,66.9614 79.2438,66.4614 80.5,66.5 Z"/></g>
<g><path style="opacity:1" fill="#cc8f16" d="M 127.5,65.5 C 124.879,65.4772 123.545,66.8105 123.5,69.5C 124.232,72.1971 125.066,74.8638 126,77.5C 131.024,86.2333 136.524,94.5666 142.5,102.5C 139.784,100.387 136.95,98.3867 134,96.5C 131.665,99.1662 129.831,102.166 128.5,105.5C 130.314,108.918 131.981,112.251 133.5,115.5C 134.591,118.428 136.591,120.594 139.5,122C 138.667,122.167 137.833,122.333 137,122.5C 134.173,120.035 131.007,117.869 127.5,116C 124.047,111.563 121.047,106.896 118.5,102C 118.833,101.167 119.167,100.333 119.5,99.5C 120.168,103.675 122.501,105.842 126.5,106C 120.739,100.32 117.906,93.4864 118,85.5C 118.689,84.6433 119.522,83.9767 120.5,83.5C 120.465,89.0376 122.965,93.3709 128,96.5C 126.914,92.3625 125.247,88.3625 123,84.5C 120.274,78.5875 119.94,72.5875 122,66.5C 123.062,65.1007 124.395,64.1007 126,63.5C 127.03,63.8361 127.53,64.5028 127.5,65.5 Z"/></g>
<g><path style="opacity:1" fill="#6c0809" d="M 193.5,67.5 C 197.81,68.0802 202.143,68.4135 206.5,68.5C 202.434,96.533 196.601,124.2 189,151.5C 188.64,153.421 187.806,155.088 186.5,156.5C 185.522,156.023 184.689,155.357 184,154.5C 183.371,150.129 183.537,145.796 184.5,141.5C 183.5,141.5 182.5,141.5 181.5,141.5C 180.599,137.759 181.932,135.759 185.5,135.5C 185.351,134.448 185.517,133.448 186,132.5C 188.308,131.359 190.141,129.692 191.5,127.5C 189.44,122.38 187.107,117.38 184.5,112.5C 185.833,111.167 187.167,109.833 188.5,108.5C 188.069,107.707 187.735,106.873 187.5,106C 189.03,102.41 190.364,98.7432 191.5,95C 189.964,90.7248 188.63,86.3915 187.5,82C 189.908,77.3485 191.908,72.5152 193.5,67.5 Z"/></g>
<g><path style="opacity:1" fill="#aeaeae" d="M 226.5,65.5 C 235.169,67.9351 243.836,70.4351 252.5,73C 253.696,73.6543 253.696,74.1543 252.5,74.5C 242.114,71.5628 231.781,68.8962 221.5,66.5C 223.415,66.7845 225.081,66.4511 226.5,65.5 Z"/></g>
<g><path style="opacity:1" fill="#939393" d="M 141.5,69.5 C 142.117,69.6107 142.617,69.944 143,70.5C 143.667,74.5 143.667,78.5 143,82.5C 142.417,78.1679 141.917,73.8346 141.5,69.5 Z"/></g>
<g><path style="opacity:1" fill="#6d0809" d="M 217.5,71.5 C 220.313,71.5481 222.979,72.2147 225.5,73.5C 226.286,81.8908 227.453,90.2241 229,98.5C 231.271,116.142 228.271,132.808 220,148.5C 213.496,161.819 205.996,174.485 197.5,186.5C 194.71,185.803 192.043,184.803 189.5,183.5C 190.153,178.677 192.82,175.51 197.5,174C 203.022,167.203 203.689,160.036 199.5,152.5C 206.761,125.733 212.761,98.7328 217.5,71.5 Z"/></g>
<g><path style="opacity:1" fill="#efeeed" d="M 77.5,71.5 C 78.422,73.8163 80.0887,75.483 82.5,76.5C 82.8333,76.5 83.1667,76.5 83.5,76.5C 85.2018,78.8002 85.8685,81.4669 85.5,84.5C 81.84,85.6727 78.0067,86.6727 74,87.5C 70.009,86.8356 66.1757,85.6689 62.5,84C 65.9112,83.4739 69.2446,82.6406 72.5,81.5C 74.1547,82.228 75.8214,82.3947 77.5,82C 74.8059,79.3466 73.9726,76.1799 75,72.5C 75.6708,71.7476 76.5041,71.4142 77.5,71.5 Z"/></g>
<g><path style="opacity:1" fill="#cd9529" d="M 77.5,71.5 C 80.3701,72.0781 82.0367,73.7448 82.5,76.5C 80.0887,75.483 78.422,73.8163 77.5,71.5 Z"/></g>
<g><path style="opacity:1" fill="#e1e1e1" d="M 94.5,73.5 C 101.048,73.885 107.381,75.0516 113.5,77C 111.863,77.6012 110.197,78.1012 108.5,78.5C 104.529,77.8028 100.529,77.3028 96.5,77C 94.0614,76.4666 93.3948,75.3 94.5,73.5 Z"/></g>
<g><path style="opacity:1" fill="#cacaca" d="M 165.5,79.5 C 163.049,78.5892 160.715,77.7559 158.5,77C 159.868,78.3402 161.201,79.6736 162.5,81C 162.333,81.5 162.167,82 162,82.5C 160.019,80.3425 157.686,78.6759 155,77.5C 153.506,74.7413 152.172,72.0746 151,69.5C 154.275,72.6155 158.108,74.7822 162.5,76C 163.71,77.0391 164.71,78.2058 165.5,79.5 Z"/></g>
<g><path style="opacity:1" fill="#b57f11" d="M 153.5,68.5 C 159.149,70.6031 164.815,72.7698 170.5,75C 173.07,77.0673 175.07,79.5673 176.5,82.5C 176.047,84.5652 175.047,86.2318 173.5,87.5C 173.207,83.8068 171.873,80.6401 169.5,78C 164.946,74.7628 159.946,72.2628 154.5,70.5C 153.702,70.0431 153.369,69.3764 153.5,68.5 Z"/></g>
<g><path style="opacity:1" fill="#d8d8d8" d="M 145.5,70.5 C 150.677,73.4729 153.51,77.8063 154,83.5C 151.36,81.1054 148.86,78.6054 146.5,76C 146.957,75.586 147.291,75.086 147.5,74.5C 146.37,73.3777 145.703,72.0443 145.5,70.5 Z"/></g>
<g><path style="opacity:1" fill="#c08715" d="M 85.5,84.5 C 85.8685,81.4669 85.2018,78.8002 83.5,76.5C 84.7927,75.3552 85.9593,75.6885 87,77.5C 87.5881,80.1394 87.0881,82.4727 85.5,84.5 Z"/></g>
<g><path style="opacity:1" fill="#680809" d="M 235.5,75.5 C 238.741,75.8776 241.741,76.8776 244.5,78.5C 242.357,85.0729 240.523,91.7396 239,98.5C 236.546,91.1014 235.379,83.4348 235.5,75.5 Z"/></g>
<g><path style="opacity:1" fill="#e1e1e1" d="M 41.5,78.5 C 53.0118,78.6392 52.6785,79.6392 40.5,81.5C 39.1667,81.1667 37.8333,80.8333 36.5,80.5C 38.2914,79.8302 39.9581,79.1635 41.5,78.5 Z"/></g>
<g><path style="opacity:1" fill="#c7c7c7" d="M 165.5,79.5 C 167.686,79.5106 168.519,80.5106 168,82.5C 166.955,81.6266 166.122,80.6266 165.5,79.5 Z"/></g>
<g><path style="opacity:1" fill="#b78011" d="M 183.5,82.5 C 184.767,84.7804 185.767,87.2804 186.5,90C 182.512,93.2952 182.512,96.6285 186.5,100C 185.874,100.75 185.374,101.584 185,102.5C 183.697,100.06 182.53,97.5602 181.5,95C 182.4,90.8668 183.067,86.7001 183.5,82.5 Z"/></g>
<g><path style="opacity:1" fill="#efefef" d="M 90.5,84.5 C 92.7866,86.5651 95.2866,86.8984 98,85.5C 101.612,87.0203 105.445,87.8536 109.5,88C 104.202,89.1009 98.8685,89.6009 93.5,89.5C 89.8484,89.2122 88.8484,87.5455 90.5,84.5 Z"/></g>
<g><path style="opacity:1" fill="#ac7810" d="M 159.5,87.5 C 164.36,87.6773 169.026,88.6773 173.5,90.5C 173.719,91.675 173.386,92.675 172.5,93.5C 170.615,92.3906 168.615,91.5573 166.5,91C 157.819,91.3458 149.152,91.1791 140.5,90.5C 147.046,89.9257 153.379,88.9257 159.5,87.5 Z"/></g>
<g><path style="opacity:1" fill="#b67f11" d="M 176.5,89.5 C 179.741,92.2331 180.241,95.5665 178,99.5C 176.595,96.3812 176.095,93.0479 176.5,89.5 Z"/></g>
<g><path style="opacity:1" fill="#f3f2f1" d="M 179.5,101.5 C 180.404,102.209 180.737,103.209 180.5,104.5C 179.518,105.141 178.518,105.807 177.5,106.5C 172.692,102.018 167.358,98.3509 161.5,95.5C 159.337,95.7453 157.67,96.7453 156.5,98.5C 159.003,99.9643 161.67,101.131 164.5,102C 160.898,103.757 157.232,104.924 153.5,105.5C 154.435,107.861 155.768,110.028 157.5,112C 161.154,113.274 164.82,114.44 168.5,115.5C 171.313,116.615 173.647,115.782 175.5,113C 176.448,112.517 177.448,112.351 178.5,112.5C 180.82,117.14 183.153,121.807 185.5,126.5C 185.137,127.183 184.804,127.85 184.5,128.5C 182.213,128.276 180.047,127.609 178,126.5C 175.929,127.667 174.429,127.001 173.5,124.5C 173.855,123.478 174.522,122.811 175.5,122.5C 177.371,122.859 178.871,123.859 180,125.5C 180.249,123.332 179.416,121.665 177.5,120.5C 173.249,118.479 170.916,119.813 170.5,124.5C 168.473,124.338 166.473,124.505 164.5,125C 162.312,127.71 160.645,130.71 159.5,134C 157.521,134.684 155.854,134.184 154.5,132.5C 152.131,137.637 153.631,140.637 159,141.5C 161.151,141.357 162.818,140.357 164,138.5C 164.494,140.134 164.66,141.801 164.5,143.5C 166.167,143.5 167.833,143.5 169.5,143.5C 171.599,144.612 173.933,145.279 176.5,145.5C 176.5,146.833 176.5,148.167 176.5,149.5C 172.67,151.461 168.67,152.128 164.5,151.5C 162.945,151.278 161.611,150.611 160.5,149.5C 159.833,149.833 159.167,150.167 158.5,150.5C 156.705,148.297 154.371,147.131 151.5,147C 146.783,143.777 145.117,139.444 146.5,134C 144.473,132.604 144.14,130.938 145.5,129C 148.623,128.794 151.623,128.127 154.5,127C 157.978,124.294 158.311,121.294 155.5,118C 153.741,117.202 152.074,117.369 150.5,118.5C 153.133,119.884 153.133,121.218 150.5,122.5C 147.853,120.451 147.019,117.784 148,114.5C 148.914,112.336 150.081,110.336 151.5,108.5C 150.553,106.941 149.887,105.274 149.5,103.5C 150.833,101.5 150.833,99.5 149.5,97.5C 149.529,95.9707 150.196,94.804 151.5,94C 162.575,90.7085 171.241,93.8751 177.5,103.5C 178.522,103.145 179.189,102.478 179.5,101.5 Z"/></g>
<g><path style="opacity:1" fill="#e7e7e7" d="M 185.5,93.5 C 187.465,93.9483 187.798,94.9483 186.5,96.5C 185.614,95.675 185.281,94.675 185.5,93.5 Z"/></g>
<g><path style="opacity:1" fill="#c88f21" d="M 50.5,96.5 C 45.9057,97.3428 42.2391,96.0094 39.5,92.5C 41.9715,91.0654 43.6382,91.8987 44.5,95C 46.7078,95.1909 48.7078,95.6909 50.5,96.5 Z"/></g>
<g><path style="opacity:1" fill="#e0dad0" d="M 127.5,65.5 C 125.253,68.8904 125.087,72.5571 127,76.5C 133.276,86.4418 139.943,96.1085 147,105.5C 145.854,110.034 145.521,114.7 146,119.5C 146.398,122.232 147.898,124.065 150.5,125C 146.34,125.579 144.006,123.745 143.5,119.5C 143.33,115.356 143.997,111.356 145.5,107.5C 144.725,105.604 143.725,103.937 142.5,102.5C 136.524,94.5666 131.024,86.2333 126,77.5C 125.066,74.8638 124.232,72.1971 123.5,69.5C 123.545,66.8105 124.879,65.4772 127.5,65.5 Z"/></g>
<g><path style="opacity:1" fill="#c98d12" d="M 252.5,88.5 C 248.808,132.586 233.308,172.253 206,207.5C 202.591,208.622 199.091,208.789 195.5,208C 225.856,173.782 244.856,133.948 252.5,88.5 Z"/></g>
<g><path style="opacity:1" fill="#c98d12" d="M 26.5,89.5 C 33.7221,125.277 47.5554,158.277 68,188.5C 73.1245,195.293 78.6245,201.793 84.5,208C 81.1667,208.667 77.8333,208.667 74.5,208C 47.0555,173.258 31.0555,133.758 26.5,89.5 Z"/></g>
<g><path style="opacity:1" fill="#c98f1f" d="M 69.5,113.5 C 61.2316,109.599 52.565,106.932 43.5,105.5C 40.3864,101.803 41.3864,100.637 46.5,102C 54.2267,104.296 61.56,107.463 68.5,111.5C 69.2975,111.957 69.6309,112.624 69.5,113.5 Z"/></g>
<g><path style="opacity:1" fill="#e1e1e1" d="M 133.5,115.5 C 133.668,111.831 132.668,108.498 130.5,105.5C 132.727,98.7674 135.894,98.1007 140,103.5C 140.217,108.553 140.717,113.553 141.5,118.5C 140.277,119.614 138.944,119.781 137.5,119C 136.295,117.624 134.962,116.458 133.5,115.5 Z"/></g>
<g><path style="opacity:1" fill="#a37312" d="M 179.5,101.5 C 180.077,100.227 180.743,100.227 181.5,101.5C 182.577,103.729 183.244,106.063 183.5,108.5C 182.5,108.5 181.5,108.5 180.5,108.5C 180.5,107.167 180.5,105.833 180.5,104.5C 180.737,103.209 180.404,102.209 179.5,101.5 Z"/></g>
<g><path style="opacity:1" fill="#efeeee" d="M 43.5,105.5 C 52.565,106.932 61.2316,109.599 69.5,113.5C 64.3028,128.877 63.1361,144.544 66,160.5C 62.6511,153.802 59.3178,147.136 56,140.5C 54.9451,134.164 56.4451,128.497 60.5,123.5C 57.0105,122.141 53.6772,122.474 50.5,124.5C 48.3773,122.255 47.3773,119.588 47.5,116.5C 52.5444,116.582 57.5444,116.749 62.5,117C 56.943,113.054 50.943,109.887 44.5,107.5C 43.7025,107.043 43.3691,106.376 43.5,105.5 Z"/></g>
<g><path style="opacity:1" fill="#cd9321" d="M 142.5,102.5 C 143.725,103.937 144.725,105.604 145.5,107.5C 143.997,111.356 143.33,115.356 143.5,119.5C 142.511,114.025 142.178,108.358 142.5,102.5 Z"/></g>
<g><path style="opacity:1" fill="#262626" d="M 135.5,102.5 C 136.79,103.058 137.623,104.058 138,105.5C 138.667,108.833 138.667,112.167 138,115.5C 137.362,114.391 136.862,113.225 136.5,112C 137.894,109.403 137.727,106.903 136,104.5C 135.085,105.328 134.419,106.328 134,107.5C 133.387,105.505 133.887,103.838 135.5,102.5 Z"/></g>
<g><path style="opacity:1" fill="#cc9429" d="M 153.5,105.5 C 159.053,108.102 164.053,111.436 168.5,115.5C 164.82,114.44 161.154,113.274 157.5,112C 155.768,110.028 154.435,107.861 153.5,105.5 Z"/></g>
<g><path style="opacity:1" fill="#dcdcdc" d="M 164.5,108.5 C 166.265,107.539 168.265,107.205 170.5,107.5C 170.351,108.552 170.517,109.552 171,110.5C 174.346,109.911 174.346,110.578 171,112.5C 169.028,110.768 166.861,109.435 164.5,108.5 Z"/></g>
<g><path style="opacity:1" fill="#c18711" d="M 86.5,110.5 C 87.7122,112.264 87.3788,113.93 85.5,115.5C 84.8933,115.376 84.56,115.043 84.5,114.5C 84.2291,112.62 84.8958,111.287 86.5,110.5 Z"/></g>
<g><path style="opacity:1" fill="#a6a6a6" d="M 88.5,109.5 C 90.9118,109.694 91.9118,111.027 91.5,113.5C 90.5,113.5 89.5,113.5 88.5,113.5C 88.5,112.167 88.5,110.833 88.5,109.5 Z"/></g>
<g><path style="opacity:1" fill="#c38d25" d="M 178.5,112.5 C 179.496,112.414 180.329,112.748 181,113.5C 183.388,117.608 185.221,121.941 186.5,126.5C 186.253,127.713 185.586,128.38 184.5,128.5C 184.804,127.85 185.137,127.183 185.5,126.5C 183.153,121.807 180.82,117.14 178.5,112.5 Z"/></g>
<g><path style="opacity:1" fill="#be8511" d="M 89.5,116.5 C 90.7082,115.218 92.0416,115.218 93.5,116.5C 91.8534,118.934 90.5201,118.934 89.5,116.5 Z"/></g>
<g><path style="opacity:1" fill="#e9e9e9" d="M 85.5,116.5 C 86.5862,116.62 87.2528,117.287 87.5,118.5C 86.5752,120.849 85.5752,120.683 84.5,118C 85.056,117.617 85.3893,117.117 85.5,116.5 Z"/></g>
<g><path style="opacity:1" fill="#cf9113" d="M 81.5,118.5 C 83.9725,119.749 84.1391,121.415 82,123.5C 81.7216,122.584 81.2216,121.918 80.5,121.5C 80.2627,120.209 80.596,119.209 81.5,118.5 Z"/></g>
<g><path style="opacity:1" fill="#8f8f8f" d="M 91.5,119.5 C 93.337,119.639 93.6704,120.306 92.5,121.5C 91.7025,121.043 91.3691,120.376 91.5,119.5 Z"/></g>
<g><path style="opacity:1" fill="#c48912" d="M 86.5,121.5 C 87.5,121.5 88.5,121.5 89.5,121.5C 89.5,122.5 89.5,123.5 89.5,124.5C 88.5,124.5 87.5,124.5 86.5,124.5C 86.5,123.5 86.5,122.5 86.5,121.5 Z"/></g>
<g><path style="opacity:1" fill="#e1e1e1" d="M 83.5,123.5 C 86.1402,124.794 86.1402,126.127 83.5,127.5C 82.3744,126.192 82.3744,124.858 83.5,123.5 Z"/></g>
<g><path style="opacity:1" fill="#d09319" d="M 111.5,124.5 C 107.232,125.373 102.898,125.706 98.5,125.5C 102.182,124.739 106.015,124.072 110,123.5C 110.765,123.57 111.265,123.903 111.5,124.5 Z"/></g>
<g><path style="opacity:1" fill="#b99455" d="M 177.5,120.5 C 179.416,121.665 180.249,123.332 180,125.5C 178.871,123.859 177.371,122.859 175.5,122.5C 176.167,121.833 176.833,121.167 177.5,120.5 Z"/></g>
<g><path style="opacity:1" fill="#e9e9e8" d="M 111.5,124.5 C 109.999,128.831 107.499,132.498 104,135.5C 104.079,133.154 104.912,130.987 106.5,129C 97.5904,130.479 94.9238,135.479 98.5,144C 97.9777,144.95 97.311,145.784 96.5,146.5C 99.8018,152.299 103.302,157.966 107,163.5C 109.615,168.046 111.615,172.713 113,177.5C 103.595,169.679 96.9283,160.013 93,148.5C 91.0731,139.789 92.9064,132.122 98.5,125.5C 102.898,125.706 107.232,125.373 111.5,124.5 Z"/></g>
<g><path style="opacity:1" fill="#b68013" d="M 79.5,126.5 C 81.256,127.552 81.9227,129.219 81.5,131.5C 80.609,132.11 79.609,132.443 78.5,132.5C 76.8617,130.045 77.195,128.045 79.5,126.5 Z"/></g>
<g><path style="opacity:1" fill="#b88111" d="M 84.5,128.5 C 85.5,128.5 86.5,128.5 87.5,128.5C 87.7778,130.346 87.1112,131.68 85.5,132.5C 84.5713,131.311 84.238,129.978 84.5,128.5 Z"/></g>
<g><path style="opacity:1" fill="#eaeaea" d="M 168.5,129.5 C 171.758,130.908 174.924,132.574 178,134.5C 177.793,136.751 177.627,139.085 177.5,141.5C 173.833,141.5 170.167,141.5 166.5,141.5C 165.874,137.625 167.541,135.791 171.5,136C 168.855,134.713 167.855,132.547 168.5,129.5 Z"/></g>
<g><path style="opacity:1" fill="#d9d9d9" d="M 81.5,131.5 C 83.2132,132.635 83.8799,134.302 83.5,136.5C 81.8916,137.538 80.8916,136.871 80.5,134.5C 81.1272,133.583 81.4606,132.583 81.5,131.5 Z"/></g>
<g><path style="opacity:1" fill="#efece7" d="M 179.5,152.5 C 179.371,158.873 182.538,162.206 189,162.5C 191.379,162.518 193.546,161.851 195.5,160.5C 196.61,164.947 194.943,168.114 190.5,170C 187.167,170.667 183.833,170.667 180.5,170C 178.323,168.485 176.156,166.985 174,165.5C 172.216,166.309 170.383,166.976 168.5,167.5C 166.02,166.758 163.687,165.758 161.5,164.5C 160.014,164.897 158.514,165.23 157,165.5C 153.443,163.602 149.61,162.435 145.5,162C 143.418,158.728 140.418,156.895 136.5,156.5C 135.376,155.086 134.376,153.586 133.5,152C 130.429,151.853 127.596,151.02 125,149.5C 124.833,149.167 124.667,148.833 124.5,148.5C 132.549,146.734 135.049,142.067 132,134.5C 130.736,132.393 128.903,131.393 126.5,131.5C 127.269,120.76 122.269,114.594 111.5,113C 109.341,108.914 106.008,106.247 101.5,105C 100.272,102.86 98.6051,101.193 96.5,100C 92.68,99.7652 89.0133,98.9318 85.5,97.5C 83.8333,98.1667 82.1667,98.8333 80.5,99.5C 74.5143,99.3724 68.5143,99.3724 62.5,99.5C 58.5117,98.4909 54.5117,97.4909 50.5,96.5C 48.7078,95.6909 46.7078,95.1909 44.5,95C 43.6382,91.8987 41.9715,91.0654 39.5,92.5C 38.596,91.791 38.2627,90.791 38.5,89.5C 41.5993,89.0923 43.9326,90.259 45.5,93C 49.0473,92.9138 52.0473,94.0805 54.5,96.5C 57.4605,95.2753 60.2939,95.6086 63,97.5C 68.6667,97.5 74.3333,97.5 80,97.5C 81.9076,96.5457 83.9076,95.879 86,95.5C 90.4009,96.8685 94.9009,98.0352 99.5,99C 101.618,103.074 104.951,105.741 109.5,107C 110.257,108.512 111.257,109.846 112.5,111C 122.888,112.886 128.554,119.052 129.5,129.5C 135.075,133.051 136.908,138.051 135,144.5C 133.5,146 132,147.5 130.5,149C 132.488,149.18 134.488,149.014 136.5,148.5C 136.34,150.199 136.506,151.866 137,153.5C 139.133,154.418 141.3,154.584 143.5,154C 144.167,155.667 144.833,157.333 145.5,159C 147.856,159.155 150.189,159.155 152.5,159C 154.913,164.361 158.08,164.861 162,160.5C 164.048,162.053 166.215,163.386 168.5,164.5C 170.728,163.781 172.561,162.448 174,160.5C 176.087,161.834 177.587,163.667 178.5,166C 184.062,169.749 189.062,169.249 193.5,164.5C 186.805,166.13 181.638,163.796 178,157.5C 177.365,155.365 177.699,153.365 179,151.5C 179.399,151.728 179.565,152.062 179.5,152.5 Z"/></g>
<g><path style="opacity:1" fill="#bb8314" d="M 78.5,135.5 C 80.0739,137.102 80.7406,139.102 80.5,141.5C 79.8333,141.833 79.1667,142.167 78.5,142.5C 76.0431,140.018 76.0431,137.684 78.5,135.5 Z"/></g>
<g><path style="opacity:1" fill="#b47e11" d="M 83.5,136.5 C 84.5862,136.62 85.2528,137.287 85.5,138.5C 85.1667,139.167 84.8333,139.833 84.5,140.5C 83.5713,139.311 83.238,137.978 83.5,136.5 Z"/></g>
<g><path style="opacity:1" fill="#d7d7d7" d="M 114.5,131.5 C 115.598,132.601 115.765,133.934 115,135.5C 113.611,139.903 110.778,142.403 106.5,143C 109.793,139.574 112.459,135.741 114.5,131.5 Z"/></g>
<g><path style="opacity:1" fill="#f0f0f0" d="M 80.5,141.5 C 81.4916,141.328 82.1583,141.662 82.5,142.5C 82.719,143.675 82.3857,144.675 81.5,145.5C 80.5713,144.311 80.238,142.978 80.5,141.5 Z"/></g>
<g><path style="opacity:1" fill="#8c620d" d="M 73.5,146.5 C 72.5655,147.568 72.2322,148.901 72.5,150.5C 71.353,146.354 71.1864,142.02 72,137.5C 72.5022,140.513 73.0022,143.513 73.5,146.5 Z"/></g>
<g><path style="opacity:1" fill="#c58f27" d="M 169.5,143.5 C 172.187,143.336 174.854,143.503 177.5,144C 178.98,146.235 178.647,148.068 176.5,149.5C 176.5,148.167 176.5,146.833 176.5,145.5C 173.933,145.279 171.599,144.612 169.5,143.5 Z"/></g>
<g><path style="opacity:1" fill="#aa7710" d="M 83.5,144.5 C 85.1042,145.287 85.7709,146.62 85.5,148.5C 82.5189,148.206 81.8522,146.872 83.5,144.5 Z"/></g>
<g><path style="opacity:1" fill="#c68c19" d="M 78.5,145.5 C 79.9468,146.134 80.6134,147.301 80.5,149C 80.472,150.07 80.1386,150.903 79.5,151.5C 77.5252,149.638 77.1919,147.638 78.5,145.5 Z"/></g>
<g><path style="opacity:1" fill="#c98c12" d="M 73.5,146.5 C 75.3474,154.393 78.3474,161.726 82.5,168.5C 82.7497,170.674 83.7497,172.341 85.5,173.5C 85.8449,176.198 87.1782,178.198 89.5,179.5C 90.0798,181.749 91.4131,183.415 93.5,184.5C 99.6911,193.189 107.358,200.356 116.5,206C 113.833,206.667 111.167,206.667 108.5,206C 89.5005,193.234 77.5005,174.734 72.5,150.5C 72.2322,148.901 72.5655,147.568 73.5,146.5 Z"/></g>
<g><path style="opacity:1" fill="#ededed" d="M 83.5,150.5 C 83.5,150.833 83.5,151.167 83.5,151.5C 83.5308,155.276 82.8641,155.443 81.5,152C 81.8361,150.97 82.5028,150.47 83.5,150.5 Z"/></g>
<g><path style="opacity:1" fill="#c7c5c3" d="M 86.5,110.5 C 84.8958,111.287 84.2291,112.62 84.5,114.5C 83.5116,115.795 82.5116,117.128 81.5,118.5C 80.596,119.209 80.2627,120.209 80.5,121.5C 80.634,123.292 80.3007,124.958 79.5,126.5C 77.195,128.045 76.8617,130.045 78.5,132.5C 78.5,133.5 78.5,134.5 78.5,135.5C 76.0431,137.684 76.0431,140.018 78.5,142.5C 78.5,143.5 78.5,144.5 78.5,145.5C 77.1919,147.638 77.5252,149.638 79.5,151.5C 80.1098,152.391 80.4431,153.391 80.5,154.5C 80.0535,157.01 80.7202,159.01 82.5,160.5C 83.1098,161.391 83.4431,162.391 83.5,163.5C 83.1201,165.698 83.7868,167.365 85.5,168.5C 86.7671,170.039 87.7671,171.706 88.5,173.5C 88.5,174.5 88.5,175.5 88.5,176.5C 87.7281,175.306 86.7281,174.306 85.5,173.5C 85.2503,171.326 84.2503,169.659 82.5,168.5C 76.8802,156.115 74.7135,143.115 76,129.5C 77.634,121.234 81.134,113.9 86.5,107.5C 87.5624,108.425 87.5624,109.425 86.5,110.5 Z"/></g>
<g><path style="opacity:1" fill="#2b251d" d="M 80.5,141.5 C 80.238,142.978 80.5713,144.311 81.5,145.5C 82.3857,144.675 82.719,143.675 82.5,142.5C 83.3382,142.842 83.6716,143.508 83.5,144.5C 81.8522,146.872 82.5189,148.206 85.5,148.5C 84.8333,149.167 84.1667,149.833 83.5,150.5C 82.5028,150.47 81.8361,150.97 81.5,152C 82.8641,155.443 83.5308,155.276 83.5,151.5C 84.1667,152.5 84.8333,153.5 85.5,154.5C 85.427,156.027 86.0937,157.027 87.5,157.5C 87.1667,158.167 86.8333,158.833 86.5,159.5C 85.1054,157.946 84.4387,158.279 84.5,160.5C 85.2418,163.083 85.9085,163.083 86.5,160.5C 87.8852,161.947 87.5518,162.947 85.5,163.5C 84.8333,163.5 84.1667,163.5 83.5,163.5C 83.4431,162.391 83.1098,161.391 82.5,160.5C 84.0156,157.92 83.3489,155.92 80.5,154.5C 80.4431,153.391 80.1098,152.391 79.5,151.5C 80.1386,150.903 80.472,150.07 80.5,149C 80.6134,147.301 79.9468,146.134 78.5,145.5C 78.5,144.5 78.5,143.5 78.5,142.5C 79.1667,142.167 79.8333,141.833 80.5,141.5 Z"/></g>
<g><path style="opacity:1" fill="#c98d12" d="M 87.5,157.5 C 86.0937,157.027 85.427,156.027 85.5,154.5C 85.81,153.262 86.31,153.262 87,154.5C 87.4828,155.448 87.6495,156.448 87.5,157.5 Z"/></g>
<g><path style="opacity:1" fill="#c68b12" d="M 80.5,154.5 C 83.3489,155.92 84.0156,157.92 82.5,160.5C 80.7202,159.01 80.0535,157.01 80.5,154.5 Z"/></g>
<g><path style="opacity:1" fill="#e8e8e8" d="M 86.5,159.5 C 86.5,159.833 86.5,160.167 86.5,160.5C 85.9085,163.083 85.2418,163.083 84.5,160.5C 84.4387,158.279 85.1054,157.946 86.5,159.5 Z"/></g>
<g><path style="opacity:1" fill="#b57f10" d="M 88.5,161.5 C 90.7279,162.322 91.3946,163.655 90.5,165.5C 88.8888,164.68 88.2222,163.346 88.5,161.5 Z"/></g>
<g><path style="opacity:1" fill="#ae7910" d="M 83.5,163.5 C 84.1667,163.5 84.8333,163.5 85.5,163.5C 86.355,164.531 87.0217,165.697 87.5,167C 87.1639,168.03 86.4972,168.53 85.5,168.5C 83.7868,167.365 83.1201,165.698 83.5,163.5 Z"/></g>
<g><path style="opacity:1" fill="#c68d1e" d="M 50.5,96.5 C 54.5117,97.4909 58.5117,98.4909 62.5,99.5C 68.5143,99.3724 74.5143,99.3724 80.5,99.5C 82.1667,98.8333 83.8333,98.1667 85.5,97.5C 89.0133,98.9318 92.68,99.7652 96.5,100C 98.6051,101.193 100.272,102.86 101.5,105C 106.008,106.247 109.341,108.914 111.5,113C 122.269,114.594 127.269,120.76 126.5,131.5C 128.903,131.393 130.736,132.393 132,134.5C 135.049,142.067 132.549,146.734 124.5,148.5C 124.667,148.833 124.833,149.167 125,149.5C 127.596,151.02 130.429,151.853 133.5,152C 134.376,153.586 135.376,155.086 136.5,156.5C 140.418,156.895 143.418,158.728 145.5,162C 149.61,162.435 153.443,163.602 157,165.5C 158.514,165.23 160.014,164.897 161.5,164.5C 163.687,165.758 166.02,166.758 168.5,167.5C 170.383,166.976 172.216,166.309 174,165.5C 176.156,166.985 178.323,168.485 180.5,170C 183.833,170.667 187.167,170.667 190.5,170C 194.943,168.114 196.61,164.947 195.5,160.5C 193.546,161.851 191.379,162.518 189,162.5C 182.538,162.206 179.371,158.873 179.5,152.5C 181.024,158.843 185.024,161.343 191.5,160C 193.176,158.823 194.509,157.323 195.5,155.5C 196.478,155.977 197.311,156.643 198,157.5C 198.667,169.817 192.834,174.651 180.5,172C 178.167,170.5 175.833,169 173.5,167.5C 169.311,170.251 165.311,169.917 161.5,166.5C 157.765,168.181 154.431,167.681 151.5,165C 147.179,165.433 143.846,163.933 141.5,160.5C 136.904,160.232 134.238,157.898 133.5,153.5C 126.477,154.47 122.81,151.47 122.5,144.5C 129.296,146.207 132.129,143.54 131,136.5C 129.468,134.438 127.468,133.104 125,132.5C 125.662,126.636 123.829,121.803 119.5,118C 116.007,117.058 112.674,115.725 109.5,114C 105.763,109.667 101.763,105.667 97.5,102C 93.3437,101.815 89.3437,100.982 85.5,99.5C 82.476,100.73 79.476,100.73 76.5,99.5C 74.941,100.447 73.2743,101.113 71.5,101.5C 64.8472,100.601 58.1805,99.7679 51.5,99C 50.7476,98.3292 50.4142,97.4959 50.5,96.5 Z"/></g>
<g><path style="opacity:1" fill="#dadada" d="M 88.5,166.5 C 90.1207,166.787 91.1207,167.787 91.5,169.5C 90.675,170.386 89.675,170.719 88.5,170.5C 88.5,169.167 88.5,167.833 88.5,166.5 Z"/></g>
<g><path style="opacity:1" fill="#ebebeb" d="M 125.5,165.5 C 127.795,168.297 130.295,170.964 133,173.5C 134.33,180.469 134.997,187.469 135,194.5C 130.928,185.117 127.761,175.45 125.5,165.5 Z"/></g>
<g><path style="opacity:1" fill="#231f19" d="M 82.5,168.5 C 84.2503,169.659 85.2503,171.326 85.5,173.5C 83.7497,172.341 82.7497,170.674 82.5,168.5 Z"/></g>
<g><path style="opacity:1" fill="#b67f11" d="M 93.5,169.5 C 95.7279,170.322 96.3946,171.655 95.5,173.5C 93.8888,172.68 93.2222,171.346 93.5,169.5 Z"/></g>
<g><path style="opacity:1" fill="#be8613" d="M 90.5,176.5 C 89.8333,176.5 89.1667,176.5 88.5,176.5C 88.5,175.5 88.5,174.5 88.5,173.5C 89.2789,171.073 90.4455,171.073 92,173.5C 92.7252,175.157 92.2252,176.157 90.5,176.5 Z"/></g>
<g><path style="opacity:1" fill="#2c2418" d="M 85.5,173.5 C 86.7281,174.306 87.7281,175.306 88.5,176.5C 89.1098,177.391 89.4431,178.391 89.5,179.5C 87.1782,178.198 85.8449,176.198 85.5,173.5 Z"/></g>
<g><path style="opacity:1" fill="#e9e9e9" d="M 137.5,173.5 C 141.142,174.649 144.808,175.816 148.5,177C 146.316,182.536 143.483,187.703 140,192.5C 140.291,187.856 140.291,183.189 140,178.5C 138.906,176.922 138.072,175.255 137.5,173.5 Z"/></g>
<g><path style="opacity:1" fill="#ad7c1b" d="M 174.5,174.5 C 173.833,175.167 173.167,175.833 172.5,176.5C 172.312,174.897 172.812,173.563 174,172.5C 174.464,173.094 174.631,173.761 174.5,174.5 Z"/></g>
<g><path style="opacity:1" fill="#e6e6e6" d="M 94.5,174.5 C 98.1654,176.374 98.1654,177.707 94.5,178.5C 94.5,177.167 94.5,175.833 94.5,174.5 Z"/></g>
<g><path style="opacity:1" fill="#c18712" d="M 99.5,177.5 C 100.995,177.415 101.995,178.081 102.5,179.5C 100.604,180.639 99.6043,179.973 99.5,177.5 Z"/></g>
<g><path style="opacity:1" fill="#b6b6b6" d="M 170.5,175.5 C 171.776,176.386 171.776,177.386 170.5,178.5C 169.438,177.575 169.438,176.575 170.5,175.5 Z"/></g>
<g><path style="opacity:1" fill="#9e9d9d" d="M 174.5,174.5 C 174.373,179.151 173.373,183.485 171.5,187.5C 171.5,186.167 171.5,184.833 171.5,183.5C 172.434,182.432 172.768,181.099 172.5,179.5C 172.5,178.5 172.5,177.5 172.5,176.5C 173.167,175.833 173.833,175.167 174.5,174.5 Z"/></g>
<g><path style="opacity:1" fill="#bd8514" d="M 97.5,184.5 C 95.0882,184.306 94.0882,182.973 94.5,180.5C 94.56,179.957 94.8933,179.624 95.5,179.5C 96.8139,180.313 97.9805,181.313 99,182.5C 99.5281,183.816 99.0281,184.483 97.5,184.5 Z"/></g>
<g><path style="opacity:1" fill="#90650d" d="M 168.5,181.5 C 166.027,181.053 165.86,180.053 168,178.5C 168.483,179.448 168.649,180.448 168.5,181.5 Z"/></g>
<g><path style="opacity:1" fill="#876016" d="M 172.5,179.5 C 172.768,181.099 172.434,182.432 171.5,183.5C 170.876,183.083 170.543,182.416 170.5,181.5C 170.747,180.287 171.414,179.62 172.5,179.5 Z"/></g>
<g><path style="opacity:1" fill="#2d251b" d="M 89.5,179.5 C 91.5869,180.585 92.9202,182.251 93.5,184.5C 91.4131,183.415 90.0798,181.749 89.5,179.5 Z"/></g>
<g><path style="opacity:1" fill="#d8d8d8" d="M 152.5,178.5 C 154.646,178.696 154.812,179.696 153,181.5C 151.38,183.241 149.88,185.075 148.5,187C 147.833,187.667 147.167,187.667 146.5,187C 148.387,184.05 150.387,181.216 152.5,178.5 Z"/></g>
<g><path style="opacity:1" fill="#dddddd" d="M 100.5,181.5 C 102.283,182.114 103.616,183.28 104.5,185C 101.51,185.847 100.176,184.68 100.5,181.5 Z"/></g>
<g><path style="opacity:1" fill="#bababa" d="M 168.5,181.5 C 169.797,182.849 169.63,184.182 168,185.5C 167.421,184.072 167.588,182.738 168.5,181.5 Z"/></g>
<g><path style="opacity:1" fill="#d8d7d6" d="M 88.5,176.5 C 89.1667,176.5 89.8333,176.5 90.5,176.5C 92.1667,177.5 93.5,178.833 94.5,180.5C 94.0882,182.973 95.0882,184.306 97.5,184.5C 98.795,185.488 100.128,186.488 101.5,187.5C 101.989,188.995 102.655,190.329 103.5,191.5C 106.071,191.976 108.071,193.31 109.5,195.5C 110.167,196.167 110.833,196.833 111.5,197.5C 113.639,198.158 115.639,199.158 117.5,200.5C 118.183,202.176 119.517,202.843 121.5,202.5C 121.833,202.5 122.167,202.5 122.5,202.5C 120.97,204.847 118.97,205.014 116.5,203C 108.381,197.379 100.714,191.212 93.5,184.5C 92.9202,182.251 91.5869,180.585 89.5,179.5C 89.4431,178.391 89.1098,177.391 88.5,176.5 Z"/></g>
<g><path style="opacity:1" fill="#cd8f13" d="M 106.5,184.5 C 108.983,184.73 109.483,185.397 108,186.5C 106.97,186.164 106.47,185.497 106.5,184.5 Z"/></g>
<g><path style="opacity:1" fill="#b68011" d="M 165.5,187.5 C 164.224,186.614 164.224,185.614 165.5,184.5C 166.562,185.425 166.562,186.425 165.5,187.5 Z"/></g>
<g><path style="opacity:1" fill="#cd8f13" d="M 170.5,187.5 C 170.167,188.167 169.833,188.833 169.5,189.5C 168.203,188.151 168.37,186.818 170,185.5C 170.464,186.094 170.631,186.761 170.5,187.5 Z"/></g>
<g><path style="opacity:1" fill="#c98d12" d="M 103.5,191.5 C 102.655,190.329 101.989,188.995 101.5,187.5C 103.664,186.882 105.33,187.882 106.5,190.5C 105.675,191.386 104.675,191.719 103.5,191.5 Z"/></g>
<g><path style="opacity:1" fill="#c1c1c1" d="M 165.5,187.5 C 167.465,187.948 167.798,188.948 166.5,190.5C 165.614,189.675 165.281,188.675 165.5,187.5 Z"/></g>
<g><path style="opacity:1" fill="#e7e7e7" d="M 107.5,188.5 C 109.09,188.628 110.423,189.295 111.5,190.5C 109.167,191.941 107.834,191.275 107.5,188.5 Z"/></g>
<g><path style="opacity:1" fill="#a97710" d="M 113.5,191.5 C 114.849,190.203 116.182,190.37 117.5,192C 116.072,192.579 114.738,192.412 113.5,191.5 Z"/></g>
<g><path style="opacity:1" fill="#cdcac6" d="M 170.5,187.5 C 170.833,187.5 171.167,187.5 171.5,187.5C 171.496,189.842 170.663,191.842 169,193.5C 168.421,192.072 168.588,190.738 169.5,189.5C 169.833,188.833 170.167,188.167 170.5,187.5 Z"/></g>
<g><path style="opacity:1" fill="#b78011" d="M 162.5,189.5 C 163.776,190.386 163.776,191.386 162.5,192.5C 161.438,191.575 161.438,190.575 162.5,189.5 Z"/></g>
<g><path style="opacity:1" fill="#f5f4f4" d="M 179.5,190.5 C 182.984,191.657 186.317,192.99 189.5,194.5C 187.396,194.201 185.396,194.534 183.5,195.5C 183.624,196.107 183.957,196.44 184.5,196.5C 189.359,197.345 189.692,199.011 185.5,201.5C 179.554,198.486 178.887,199.486 183.5,204.5C 182.259,207.144 180.259,207.977 177.5,207C 175.779,206.261 174.113,205.427 172.5,204.5C 175.372,200.09 177.705,195.423 179.5,190.5 Z"/></g>
<g><path style="opacity:1" fill="#c68f26" d="M 179.5,190.5 C 184.074,189.561 188.407,190.561 192.5,193.5C 192.145,194.522 191.478,195.189 190.5,195.5C 190.5,194.833 190.167,194.5 189.5,194.5C 186.317,192.99 182.984,191.657 179.5,190.5 Z"/></g>
<g><path style="opacity:1" fill="#d09213" d="M 111.5,197.5 C 110.833,196.833 110.167,196.167 109.5,195.5C 109.843,193.775 110.843,193.275 112.5,194C 113.973,194.71 114.64,195.876 114.5,197.5C 113.5,197.5 112.5,197.5 111.5,197.5 Z"/></g>
<g><path style="opacity:1" fill="#9d701b" d="M 167.5,195.5 C 166.833,195.5 166.167,195.5 165.5,195.5C 164.133,193.907 164.466,192.574 166.5,191.5C 167.429,192.689 167.762,194.022 167.5,195.5 Z"/></g>
<g><path style="opacity:1" fill="#d7d7d7" d="M 115.5,194.5 C 117.346,194.222 118.68,194.889 119.5,196.5C 117.167,197.941 115.834,197.275 115.5,194.5 Z"/></g>
<g><path style="opacity:1" fill="#8b8b8a" d="M 189.5,194.5 C 190.167,194.5 190.5,194.833 190.5,195.5C 188.265,195.205 186.265,195.539 184.5,196.5C 183.957,196.44 183.624,196.107 183.5,195.5C 185.396,194.534 187.396,194.201 189.5,194.5 Z"/></g>
<g><path style="opacity:1" fill="#ab7810" d="M 156.5,195.5 C 157.675,195.281 158.675,195.614 159.5,196.5C 157.948,197.798 156.948,197.465 156.5,195.5 Z"/></g>
<g><path style="opacity:1" fill="#bababa" d="M 163.5,196.5 C 163.167,196.5 162.833,196.5 162.5,196.5C 159.988,195.784 159.988,194.784 162.5,193.5C 163.386,194.325 163.719,195.325 163.5,196.5 Z"/></g>
<g><path style="opacity:1" fill="#c08611" d="M 120.5,196.5 C 121.849,195.203 123.182,195.37 124.5,197C 123.072,197.579 121.738,197.412 120.5,196.5 Z"/></g>
<g><path style="opacity:1" fill="#f2f2f2" d="M 165.5,195.5 C 166.167,195.5 166.833,195.5 167.5,195.5C 167.267,197.062 166.6,198.395 165.5,199.5C 164.662,199.158 164.328,198.492 164.5,197.5C 164.833,196.833 165.167,196.167 165.5,195.5 Z"/></g>
<g><path style="opacity:1" fill="#ba8211" d="M 162.5,196.5 C 162.833,196.5 163.167,196.5 163.5,196.5C 163.5,196.833 163.5,197.167 163.5,197.5C 163.715,199.179 163.048,200.179 161.5,200.5C 160.761,200.631 160.094,200.464 159.5,200C 160.365,198.641 161.365,197.474 162.5,196.5 Z"/></g>
<g><path style="opacity:1" fill="#bd8513" d="M 121.5,202.5 C 119.517,202.843 118.183,202.176 117.5,200.5C 117.369,199.761 117.536,199.094 118,198.5C 120.071,199.103 121.238,200.436 121.5,202.5 Z"/></g>
<g><path style="opacity:1" fill="#835b0c" d="M 150.5,199.5 C 151.675,199.281 152.675,199.614 153.5,200.5C 152.277,201.614 150.944,201.781 149.5,201C 150.056,200.617 150.389,200.117 150.5,199.5 Z"/></g>
<g><path style="opacity:1" fill="#e0e0e0" d="M 122.5,202.5 C 122.667,199.043 123.667,198.71 125.5,201.5C 124.675,202.386 123.675,202.719 122.5,202.5 Z"/></g>
<g><path style="opacity:1" fill="#a7a7a7" d="M 158.5,201.5 C 157.5,201.5 156.5,201.5 155.5,201.5C 154.957,201.44 154.624,201.107 154.5,200.5C 156.901,197.587 158.234,197.921 158.5,201.5 Z"/></g>
<g><path style="opacity:1" fill="#c8c8c8" d="M 163.5,197.5 C 163.833,197.5 164.167,197.5 164.5,197.5C 164.328,198.492 164.662,199.158 165.5,199.5C 163.706,201.797 161.706,203.963 159.5,206C 158.563,206.692 157.897,206.525 157.5,205.5C 158.338,205.158 158.672,204.492 158.5,203.5C 159.5,202.5 160.5,201.5 161.5,200.5C 163.048,200.179 163.715,199.179 163.5,197.5 Z"/></g>
<g><path style="opacity:1" fill="#bf8615" d="M 155.5,201.5 C 156.5,201.5 157.5,201.5 158.5,201.5C 158.5,202.167 158.5,202.833 158.5,203.5C 158.672,204.492 158.338,205.158 157.5,205.5C 153.155,205.702 152.488,204.369 155.5,201.5 Z"/></g>
<g><path style="opacity:1" fill="#dddddd" d="M 149.5,202.5 C 151.355,202.272 152.188,202.939 152,204.5C 147.898,206.171 147.064,205.504 149.5,202.5 Z"/></g>
<g><path style="opacity:1" fill="#c38812" d="M 174.5,189.5 C 175.043,189.56 175.376,189.893 175.5,190.5C 172.79,196.092 169.456,201.259 165.5,206C 164.167,206.667 162.833,206.667 161.5,206C 167.192,201.486 171.525,195.986 174.5,189.5 Z"/></g>
<g><path style="opacity:1" fill="#c78b12" d="M 141.5,203.5 C 142.978,203.238 144.311,203.571 145.5,204.5C 143.926,205.631 142.259,205.798 140.5,205C 141.056,204.617 141.389,204.117 141.5,203.5 Z"/></g>
<g><path style="opacity:1" fill="#e3e3e3" d="M 102.5,211.5 C 142.268,210.484 181.935,211.984 221.5,216C 225.378,217.065 225.378,217.899 221.5,218.5C 166.813,211.845 112.146,211.845 57.5,218.5C 56.6143,217.675 56.281,216.675 56.5,215.5C 72.0105,214.513 87.3439,213.18 102.5,211.5 Z"/></g>
<g><path style="opacity:1" fill="#f4f4f4" d="M 125.5,246.5 C 123.833,246.5 122.167,246.5 120.5,246.5C 120.5,240.167 120.5,233.833 120.5,227.5C 121.93,227.579 123.264,227.246 124.5,226.5C 125.167,229.642 125.834,232.642 126.5,235.5C 127.833,235.5 129.167,235.5 130.5,235.5C 130.5,232.5 130.5,229.5 130.5,226.5C 126.366,225.515 122.032,225.182 117.5,225.5C 116.317,224.496 114.984,223.662 113.5,223C 121.08,222.187 128.58,222.353 136,223.5C 136.667,228.167 136.667,232.833 136,237.5C 135.5,238 135,238.5 134.5,239C 131.518,239.498 128.518,239.665 125.5,239.5C 125.5,241.833 125.5,244.167 125.5,246.5 Z"/></g>
<g><path style="opacity:1" fill="#f0f0f0" d="M 138.5,221.5 C 142.833,221.5 147.167,221.5 151.5,221.5C 151.5,222.833 151.5,224.167 151.5,225.5C 148.833,225.5 146.167,225.5 143.5,225.5C 143.5,227.5 143.5,229.5 143.5,231.5C 145.857,231.337 148.19,231.503 150.5,232C 149.663,233.011 149.33,234.178 149.5,235.5C 147.5,235.5 145.5,235.5 143.5,235.5C 143.5,237.833 143.5,240.167 143.5,242.5C 146.167,242.5 148.833,242.5 151.5,242.5C 151.5,243.833 151.5,245.167 151.5,246.5C 147.167,246.5 142.833,246.5 138.5,246.5C 138.5,238.167 138.5,229.833 138.5,221.5 Z"/></g>
<g><path style="opacity:1" fill="#f1f1f1" d="M 170.5,246.5 C 170.5,246.833 170.5,247.167 170.5,247.5C 168.801,247.66 167.134,247.494 165.5,247C 164.206,244.913 163.039,242.746 162,240.5C 161.329,239.748 160.496,239.414 159.5,239.5C 158.532,241.607 158.198,243.941 158.5,246.5C 156.833,246.5 155.167,246.5 153.5,246.5C 153.5,238.5 153.5,230.5 153.5,222.5C 158.565,222.219 163.565,222.552 168.5,223.5C 169.662,228.467 169.829,233.467 169,238.5C 168.308,239.025 167.808,239.692 167.5,240.5C 168.559,242.534 169.559,244.534 170.5,246.5 Z"/></g>
<g><path style="opacity:1" fill="#f6f6f6" d="M 38.5,264.5 C 37.1809,253.265 37.1809,241.931 38.5,230.5C 39.8333,230.5 41.1667,230.5 42.5,230.5C 42.3359,233.187 42.5026,235.854 43,238.5C 44.3561,237.62 45.8561,237.286 47.5,237.5C 47.5,234.5 47.5,231.5 47.5,228.5C 44.4299,228.368 41.4299,228.701 38.5,229.5C 37.5084,229.328 36.8417,229.662 36.5,230.5C 34.7446,229.928 33.0779,229.094 31.5,228C 30.1667,227.333 30.1667,226.667 31.5,226C 37.0083,225.221 42.5083,224.388 48,223.5C 49.4357,223.559 50.769,223.892 52,224.5C 52.6667,236.167 52.6667,247.833 52,259.5C 47.7145,261.652 43.2145,263.319 38.5,264.5 Z"/></g>
<g><path style="opacity:1" fill="#f2f2f2" d="M 98.5,222.5 C 102.767,222.203 106.934,222.536 111,223.5C 111.5,231.493 111.666,239.493 111.5,247.5C 109.833,247.5 108.167,247.5 106.5,247.5C 106.5,243.833 106.5,240.167 106.5,236.5C 104.833,236.5 103.167,236.5 101.5,236.5C 101.5,240.5 101.5,244.5 101.5,248.5C 99.5,248.5 97.5,248.5 95.5,248.5C 95.169,240.472 95.5023,232.472 96.5,224.5C 97.5223,224.145 98.189,223.478 98.5,222.5 Z"/></g>
<g><path style="opacity:1" fill="#b8b8b8" d="M 177.5,235.5 C 176.517,231.702 176.183,227.702 176.5,223.5C 175.167,223.5 173.833,223.5 172.5,223.5C 172.5,231.5 172.5,239.5 172.5,247.5C 171.833,247.5 171.167,247.5 170.5,247.5C 170.5,247.167 170.5,246.833 170.5,246.5C 171.492,238.684 171.826,230.684 171.5,222.5C 173.5,222.5 175.5,222.5 177.5,222.5C 177.5,226.833 177.5,231.167 177.5,235.5 Z"/></g>
<g><path style="opacity:1" fill="#f4f4f4" d="M 177.5,235.5 C 179.58,231.798 181.58,227.965 183.5,224C 185.579,223.192 187.579,223.359 189.5,224.5C 187.167,229.167 184.833,233.833 182.5,238.5C 184.957,241.914 187.291,245.414 189.5,249C 187.421,249.808 185.421,249.641 183.5,248.5C 181.862,245.696 180.029,243.029 178,240.5C 177.503,243.146 177.336,245.813 177.5,248.5C 175.585,248.784 173.919,248.451 172.5,247.5C 172.5,239.5 172.5,231.5 172.5,223.5C 173.833,223.5 175.167,223.5 176.5,223.5C 176.183,227.702 176.517,231.702 177.5,235.5 Z"/></g>
<g><path style="opacity:1" fill="#f0f0f0" d="M 242.5,231.5 C 242.828,242.679 242.495,253.679 241.5,264.5C 240.178,264.67 239.011,264.337 238,263.5C 237.667,256.833 237.333,250.167 237,243.5C 235.644,242.62 234.144,242.286 232.5,242.5C 232.5,248.833 232.5,255.167 232.5,261.5C 230.738,261.643 229.071,261.309 227.5,260.5C 226.334,248.514 226.167,236.514 227,224.5C 234.273,223.721 241.439,224.554 248.5,227C 246.859,229.163 244.859,230.663 242.5,231.5 Z"/></g>
<g><path style="opacity:1" fill="#ededed" d="M 76.5,251.5 C 76.5,243.833 76.5,236.167 76.5,228.5C 74.901,228.232 73.5676,228.566 72.5,229.5C 71.671,236.989 71.171,244.656 71,252.5C 69.3005,253.406 67.4672,253.739 65.5,253.5C 65.3336,244.827 65.5002,236.16 66,227.5C 70.0082,224.689 74.3415,224.023 79,225.5C 82.2804,224.754 85.6138,224.087 89,223.5C 90.2613,223.759 91.2613,224.426 92,225.5C 92.4997,233.493 92.6664,241.493 92.5,249.5C 90.5,249.5 88.5,249.5 86.5,249.5C 86.5,242.5 86.5,235.5 86.5,228.5C 84.8333,228.5 83.1667,228.5 81.5,228.5C 81.5,236.167 81.5,243.833 81.5,251.5C 79.8333,251.5 78.1667,251.5 76.5,251.5 Z"/></g>
<g><path style="opacity:1" fill="#f3f3f3" d="M 206.5,242.5 C 206.5,245.5 206.5,248.5 206.5,251.5C 205.167,251.5 203.833,251.5 202.5,251.5C 201.676,247.688 201.176,243.688 201,239.5C 199.644,238.62 198.144,238.286 196.5,238.5C 196.5,242.5 196.5,246.5 196.5,250.5C 194.533,250.739 192.699,250.406 191,249.5C 190.185,241.254 190.352,233.088 191.5,225C 195.833,224.333 200.167,224.333 204.5,225C 205,225.5 205.5,226 206,226.5C 206.499,231.823 206.666,237.156 206.5,242.5 Z"/></g>
<g><path style="opacity:1" fill="#fbfbfb" d="M 61.5,226.5 C 61.8065,236.25 61.4732,245.916 60.5,255.5C 59.1667,255.5 57.8333,255.5 56.5,255.5C 56.5,245.833 56.5,236.167 56.5,226.5C 58.1667,226.5 59.8333,226.5 61.5,226.5 Z"/></g>
<g><path style="opacity:1" fill="#000000" d="M 130.5,226.5 C 130.5,229.5 130.5,232.5 130.5,235.5C 129.167,235.5 127.833,235.5 126.5,235.5C 126.5,232.5 126.5,229.5 126.5,226.5C 127.833,226.5 129.167,226.5 130.5,226.5 Z"/></g>
<g><path style="opacity:1" fill="#000000" d="M 159.5,226.5 C 160.833,226.5 162.167,226.5 163.5,226.5C 163.5,229.5 163.5,232.5 163.5,235.5C 162.167,235.5 160.833,235.5 159.5,235.5C 159.5,232.5 159.5,229.5 159.5,226.5 Z"/></g>
<g><path style="opacity:1" fill="#eeeeee" d="M 208.5,243.5 C 210.167,243.5 211.833,243.5 213.5,243.5C 213.205,245.735 213.539,247.735 214.5,249.5C 215.583,249.539 216.583,249.873 217.5,250.5C 218.484,247.572 218.817,244.572 218.5,241.5C 215.015,241.309 211.849,240.309 209,238.5C 208.173,234.459 208.34,230.459 209.5,226.5C 210.293,226.069 211.127,225.735 212,225.5C 215.461,226.218 218.961,226.718 222.5,227C 224.314,229.481 224.98,232.315 224.5,235.5C 222.5,235.5 220.5,235.5 218.5,235.5C 218.5,233.833 218.5,232.167 218.5,230.5C 217.167,230.5 215.833,230.5 214.5,230.5C 214.5,232.833 214.5,235.167 214.5,237.5C 217.93,237.107 221.096,237.773 224,239.5C 224.667,244.5 224.667,249.5 224,254.5C 218.634,255.56 213.634,254.56 209,251.5C 208.503,248.854 208.336,246.187 208.5,243.5 Z"/></g>
<g><path style="opacity:1" fill="#161616" d="M 101.5,226.5 C 103.167,226.5 104.833,226.5 106.5,226.5C 106.5,228.5 106.5,230.5 106.5,232.5C 104.833,232.5 103.167,232.5 101.5,232.5C 101.5,230.5 101.5,228.5 101.5,226.5 Z"/></g>
<g><path style="opacity:1" fill="#505050" d="M 117.5,225.5 C 122.032,225.182 126.366,225.515 130.5,226.5C 129.167,226.5 127.833,226.5 126.5,226.5C 126.5,229.5 126.5,232.5 126.5,235.5C 125.834,232.642 125.167,229.642 124.5,226.5C 123.264,227.246 121.93,227.579 120.5,227.5C 119.5,226.833 118.5,226.167 117.5,225.5 Z"/></g>
<g><path style="opacity:1" fill="#141414" d="M 38.5,230.5 C 38.5,230.167 38.5,229.833 38.5,229.5C 41.4299,228.701 44.4299,228.368 47.5,228.5C 47.5,231.5 47.5,234.5 47.5,237.5C 45.8561,237.286 44.3561,237.62 43,238.5C 42.5026,235.854 42.3359,233.187 42.5,230.5C 41.1667,230.5 39.8333,230.5 38.5,230.5 Z"/></g>
<g><path style="opacity:1" fill="#101010" d="M 196.5,228.5 C 198.167,228.5 199.833,228.5 201.5,228.5C 201.5,230.5 201.5,232.5 201.5,234.5C 199.833,234.5 198.167,234.5 196.5,234.5C 196.5,232.5 196.5,230.5 196.5,228.5 Z"/></g>
<g><path style="opacity:1" fill="#141414" d="M 232.5,228.5 C 235.487,228.998 238.487,229.498 241.5,230C 240.207,230.49 238.873,230.657 237.5,230.5C 237.5,233.167 237.5,235.833 237.5,238.5C 235.856,238.714 234.356,238.38 233,237.5C 232.502,234.518 232.335,231.518 232.5,228.5 Z"/></g>
<g><path style="opacity:1" fill="#858585" d="M 72.5,229.5 C 73.5676,228.566 74.901,228.232 76.5,228.5C 76.5,236.167 76.5,243.833 76.5,251.5C 75.5084,244.352 75.175,237.019 75.5,229.5C 74.5,229.5 73.5,229.5 72.5,229.5 Z"/></g>
<g><path style="opacity:1" fill="#787878" d="M 38.5,229.5 C 38.5,229.833 38.5,230.167 38.5,230.5C 37.1809,241.931 37.1809,253.265 38.5,264.5C 38.44,265.043 38.1067,265.376 37.5,265.5C 36.5011,253.852 36.1678,242.186 36.5,230.5C 36.8417,229.662 37.5084,229.328 38.5,229.5 Z"/></g>
<g><path style="opacity:1" fill="#3f3f3f" d="M 242.5,231.5 C 243.824,242.674 243.824,254.007 242.5,265.5C 241.893,265.376 241.56,265.043 241.5,264.5C 242.495,253.679 242.828,242.679 242.5,231.5 Z"/></g>
<g><path style="opacity:1" fill="#6a6a6a" d="M 120.5,227.5 C 120.5,233.833 120.5,240.167 120.5,246.5C 122.167,246.5 123.833,246.5 125.5,246.5C 123.735,247.461 121.735,247.795 119.5,247.5C 119.176,240.646 119.509,233.979 120.5,227.5 Z"/></g>
<g><path style="opacity:1" fill="#505050" d="M 61.5,226.5 C 62.1659,231.155 62.4993,235.988 62.5,241C 62.4937,246.216 61.8271,251.049 60.5,255.5C 61.4732,245.916 61.8065,236.25 61.5,226.5 Z"/></g>
<g><path style="opacity:1" fill="#111111" d="M 42.5,242.5 C 44.1667,242.5 45.8333,242.5 47.5,242.5C 47.5,247.5 47.5,252.5 47.5,257.5C 46.0695,257.421 44.7362,257.754 43.5,258.5C 42.5052,253.208 42.1718,247.875 42.5,242.5 Z"/></g>
<g><path style="opacity:1" fill="#828282" d="M 206.5,242.5 C 207.479,245.625 207.813,248.958 207.5,252.5C 205.585,252.784 203.919,252.451 202.5,251.5C 203.833,251.5 205.167,251.5 206.5,251.5C 206.5,248.5 206.5,245.5 206.5,242.5 Z"/></g>
<g><path style="opacity:1" fill="#7b7b7b" d="M 208.5,243.5 C 210.265,242.539 212.265,242.205 214.5,242.5C 214.5,244.833 214.5,247.167 214.5,249.5C 213.539,247.735 213.205,245.735 213.5,243.5C 211.833,243.5 210.167,243.5 208.5,243.5 Z"/></g>
<g><path style="opacity:1" fill="#727272" d="M 159.5,239.5 C 159.5,242.167 159.5,244.833 159.5,247.5C 157.265,247.795 155.265,247.461 153.5,246.5C 155.167,246.5 156.833,246.5 158.5,246.5C 158.198,243.941 158.532,241.607 159.5,239.5 Z"/></g>
<g><path style="opacity:1" fill="#e8e8e8" d="M 208.5,260.5 C 207.081,261.451 205.415,261.784 203.5,261.5C 157.779,255.849 112.112,256.182 66.5,262.5C 65.5084,262.672 64.8417,262.338 64.5,261.5C 112.426,252.502 160.426,252.168 208.5,260.5 Z"/></g>
<g><path style="opacity:1" fill="#b0b0b0" d="M 208.5,260.5 C 213.534,261.474 218.534,262.641 223.5,264C 216.662,263.725 209.996,262.892 203.5,261.5C 205.415,261.784 207.081,261.451 208.5,260.5 Z"/></g>
<g><path style="opacity:1" fill="#929292" d="M 64.5,261.5 C 64.8417,262.338 65.5084,262.672 66.5,262.5C 63.0196,263.687 59.353,264.187 55.5,264C 58.3751,262.698 61.3751,261.865 64.5,261.5 Z"/></g>
<g><path style="opacity:1" fill="#c68b12" d="M 124.5,265.5 C 127.976,264.357 131.642,264.19 135.5,265C 138.833,268.333 142.167,268.333 145.5,265C 149.167,264.333 152.833,264.333 156.5,265C 151.332,268.419 145.998,271.585 140.5,274.5C 134.816,271.995 129.482,268.995 124.5,265.5 Z"/></g>
</svg>
