<?xml version="1.0" encoding="UTF-8"?>
<!DOCTYPE svg PUBLIC "-//W3C//DTD SVG 1.1//EN" "http://www.w3.org/Graphics/SVG/1.1/DTD/svg11.dtd">
<svg xmlns="http://www.w3.org/2000/svg" version="1.1" width="1181px" height="1181px" style="shape-rendering:geometricPrecision; text-rendering:geometricPrecision; image-rendering:optimizeQuality; fill-rule:evenodd; clip-rule:evenodd" xmlns:xlink="http://www.w3.org/1999/xlink">
<g><path style="opacity:0.993" fill="#231f20" d="M 525.5,66.5 C 633.823,61.5274 741.156,69.3608 847.5,90C 881.327,97.3621 914.661,106.362 947.5,117C 968.329,125.787 978.829,141.621 979,164.5C 985.312,273.757 986.978,383.09 984,492.5C 981.965,581.034 969.631,668.034 947,753.5C 929.89,813.896 904.89,870.563 872,923.5C 827.728,989.444 771.562,1042.61 703.5,1083C 675.024,1099.4 645.358,1113.4 614.5,1125C 608.752,1126.92 602.919,1128.42 597,1129.5C 586.54,1127.34 576.373,1124.18 566.5,1120C 451.405,1071.23 363.905,992.067 304,882.5C 268.64,813.091 243.974,739.757 230,662.5C 221.128,611.188 215.128,559.522 212,507.5C 205.633,386.457 206.3,265.457 214,144.5C 215.465,127.398 223.965,115.231 239.5,108C 250.29,104.257 261.29,101.257 272.5,99C 356.091,81.4615 440.424,70.6282 525.5,66.5 Z"/></g>
<g><path style="opacity:1" fill="#c7c4c5" d="M 542.5,103.5 C 546.833,103.5 551.167,103.5 555.5,103.5C 555.467,124.056 555.8,144.889 556.5,166C 556.154,168.94 555.154,171.44 553.5,173.5C 550.606,172.118 548.106,170.118 546,167.5C 544.046,163.019 542.713,158.352 542,153.5C 541.172,136.662 541.338,119.995 542.5,103.5 Z"/></g>
<g><path style="opacity:1" fill="#bab6b8" d="M 542.5,103.5 C 547.567,102.176 552.734,102.176 558,103.5C 558.055,121.219 558.722,138.886 560,156.5C 563.701,162.347 569.034,164.68 576,163.5C 579.221,163.459 582.388,163.125 585.5,162.5C 586.5,142.511 586.833,122.511 586.5,102.5C 592.167,102.5 597.833,102.5 603.5,102.5C 603.969,125.566 603.469,148.566 602,171.5C 598.369,175.397 593.869,177.23 588.5,177C 580.167,177.667 571.833,177.667 563.5,177C 559.891,176.299 556.558,175.132 553.5,173.5C 555.154,171.44 556.154,168.94 556.5,166C 555.8,144.889 555.467,124.056 555.5,103.5C 551.167,103.5 546.833,103.5 542.5,103.5 Z"/></g>
<g><path style="opacity:1" fill="#bdb9bb" d="M 670.5,148.5 C 670.783,149.289 671.283,149.956 672,150.5C 672.5,135.17 672.667,119.837 672.5,104.5C 677.762,104.195 682.928,104.529 688,105.5C 688.667,128.5 688.667,151.5 688,174.5C 687.535,175.931 686.701,177.097 685.5,178C 680.713,178.879 676.047,178.545 671.5,177C 661.457,161.747 651.291,146.58 641,131.5C 640.5,146.496 640.333,161.496 640.5,176.5C 635.167,176.5 629.833,176.5 624.5,176.5C 624.333,152.498 624.5,128.498 625,104.5C 625.5,104 626,103.5 626.5,103C 630.833,102.333 635.167,102.333 639.5,103C 650.77,117.453 661.104,132.62 670.5,148.5 Z"/></g>
<g><path style="opacity:1" fill="#534f50" d="M 672.5,104.5 C 672.667,119.837 672.5,135.17 672,150.5C 671.283,149.956 670.783,149.289 670.5,148.5C 671.167,133.833 671.833,119.167 672.5,104.5 Z"/></g>
<g><path style="opacity:1" fill="#f3f4f5" d="M 473.5,180.5 C 471.833,180.5 470.167,180.5 468.5,180.5C 468.5,156.167 468.5,131.833 468.5,107.5C 473.473,106.836 478.473,106.503 483.5,106.5C 483.5,131.167 483.5,155.833 483.5,180.5C 480.167,180.5 476.833,180.5 473.5,180.5 Z"/></g>
<g><path style="opacity:1" fill="#908c8e" d="M 720.5,107.5 C 717.5,107.5 714.5,107.5 711.5,107.5C 711.5,131.5 711.5,155.5 711.5,179.5C 710.502,155.339 710.169,131.006 710.5,106.5C 714.042,106.187 717.375,106.521 720.5,107.5 Z"/></g>
<g><path style="opacity:1" fill="#d1cfd1" d="M 720.5,107.5 C 722.792,107.244 724.959,107.577 727,108.5C 727.5,132.831 727.667,157.164 727.5,181.5C 721.886,181.927 716.553,181.26 711.5,179.5C 711.5,155.5 711.5,131.5 711.5,107.5C 714.5,107.5 717.5,107.5 720.5,107.5 Z"/></g>
<g><path style="opacity:1" fill="#c6c6c7" d="M 468.5,107.5 C 468.5,131.833 468.5,156.167 468.5,180.5C 470.167,180.5 471.833,180.5 473.5,180.5C 471.735,181.461 469.735,181.795 467.5,181.5C 467.169,156.661 467.502,131.994 468.5,107.5 Z"/></g>
<g><path style="opacity:1" fill="#e8e8e9" d="M 801.5,116.5 C 801.5,120.5 801.5,124.5 801.5,128.5C 795.491,128.299 789.491,127.966 783.5,127.5C 782.5,127.5 781.5,127.5 780.5,127.5C 779.503,146.659 779.17,165.993 779.5,185.5C 776.833,185.5 774.167,185.5 771.5,185.5C 768.881,185.768 766.381,185.435 764,184.5C 763.5,164.503 763.333,144.503 763.5,124.5C 756.822,124.211 750.156,123.711 743.5,123C 742.533,118.599 742.2,114.099 742.5,109.5C 762.393,111.1 782.06,113.433 801.5,116.5 Z"/></g>
<g><path style="opacity:1" fill="#f2f2f3" d="M 405.5,113.5 C 408.833,113.5 412.167,113.5 415.5,113.5C 415.025,132.593 415.525,151.593 417,170.5C 418.906,171.131 420.906,171.464 423,171.5C 432.783,170.066 442.616,169.399 452.5,169.5C 452.8,174.099 452.467,178.599 451.5,183C 439.798,183.904 428.131,185.07 416.5,186.5C 408.188,187.601 402.688,184.268 400,176.5C 399.5,155.836 399.333,135.169 399.5,114.5C 401.735,114.795 403.735,114.461 405.5,113.5 Z"/></g>
<g><path style="opacity:1" fill="#8d8c8d" d="M 801.5,116.5 C 802.485,120.634 802.818,124.968 802.5,129.5C 795.928,129.761 789.594,129.094 783.5,127.5C 789.491,127.966 795.491,128.299 801.5,128.5C 801.5,124.5 801.5,120.5 801.5,116.5 Z"/></g>
<g><path style="opacity:1" fill="#ececed" d="M 825.5,120.5 C 839.523,122.003 853.523,123.836 867.5,126C 868.467,130.401 868.8,134.901 868.5,139.5C 856.84,138 845.173,136.834 833.5,136C 832.533,140.401 832.2,144.901 832.5,149.5C 842.881,150.59 853.215,152.09 863.5,154C 864.743,155.87 865.41,158.036 865.5,160.5C 865.333,162.5 865.167,164.5 865,166.5C 864.439,167.022 863.772,167.355 863,167.5C 852.853,165.693 842.687,164.027 832.5,162.5C 832.334,167.511 832.501,172.511 833,177.5C 833.833,179 835,180.167 836.5,181C 847.526,182.753 858.526,184.586 869.5,186.5C 869.5,191.167 869.5,195.833 869.5,200.5C 855.351,198.883 841.351,196.383 827.5,193C 822.226,189.726 818.392,185.226 816,179.5C 815.333,163.167 815.333,146.833 816,130.5C 818.022,125.98 821.189,122.647 825.5,120.5 Z"/></g>
<g><path style="opacity:1" fill="#ecebed" d="M 348.5,121.5 C 352.514,121.334 356.514,121.501 360.5,122C 361,122.5 361.5,123 362,123.5C 369.515,143.708 376.849,164.041 384,184.5C 384.497,186.81 384.663,189.143 384.5,191.5C 378.848,192.032 373.181,192.365 367.5,192.5C 366.553,187.877 365.22,183.377 363.5,179C 355.078,179.316 346.745,180.483 338.5,182.5C 337.551,187.898 335.885,193.064 333.5,198C 328.3,199.74 322.966,200.907 317.5,201.5C 324.547,177.854 331.714,154.188 339,130.5C 340.039,128.254 341.206,126.087 342.5,124C 344.611,123.155 346.611,122.322 348.5,121.5 Z"/></g>
<g><path style="opacity:1" fill="#bebebf" d="M 780.5,127.5 C 780.5,147.167 780.5,166.833 780.5,186.5C 777.287,186.81 774.287,186.477 771.5,185.5C 774.167,185.5 776.833,185.5 779.5,185.5C 779.17,165.993 779.503,146.659 780.5,127.5 Z"/></g>
<g><path style="opacity:1" fill="#e3e3e5" d="M 907.5,134.5 C 907.5,138.5 907.5,142.5 907.5,146.5C 905.5,146.5 903.5,146.5 901.5,146.5C 901.17,162.009 901.504,177.342 902.5,192.5C 905.627,193.581 908.96,194.247 912.5,194.5C 915.625,195.479 918.958,195.813 922.5,195.5C 922.5,200.167 922.5,204.833 922.5,209.5C 920.167,209.5 917.833,209.5 915.5,209.5C 907.492,208.11 899.492,206.61 891.5,205C 889,203.833 887.167,202 886,199.5C 885.333,177.5 885.333,155.5 886,133.5C 886.479,131.354 887.812,130.354 890,130.5C 896.04,131.553 901.873,132.887 907.5,134.5 Z"/></g>
<g><path style="opacity:1" fill="#c9c6c7" d="M 292.5,135.5 C 296.912,136.07 300.078,138.403 302,142.5C 304.19,151.761 301.69,159.428 294.5,165.5C 304.929,169.705 308.429,177.372 305,188.5C 301.987,196.678 296.487,202.345 288.5,205.5C 287.631,197.017 287.631,188.684 288.5,180.5C 288.167,179.833 287.833,179.167 287.5,178.5C 287.5,164.167 287.5,149.833 287.5,135.5C 289.167,135.5 290.833,135.5 292.5,135.5 Z"/></g>
<g><path style="opacity:1" fill="#bdb9bb" d="M 292.5,135.5 C 290.833,135.5 289.167,135.5 287.5,135.5C 287.5,149.833 287.5,164.167 287.5,178.5C 285.497,176.985 283.163,176.319 280.5,176.5C 275.117,177.008 269.784,177.842 264.5,179C 263.524,185.076 263.19,191.242 263.5,197.5C 271.212,197.239 278.545,195.405 285.5,192C 288.154,188.673 289.154,184.839 288.5,180.5C 287.631,188.684 287.631,197.017 288.5,205.5C 286.142,207.129 283.476,208.295 280.5,209C 271.997,210.367 263.664,212.367 255.5,215C 252.901,215.769 250.401,215.602 248,214.5C 247.333,191.167 247.333,167.833 248,144.5C 248.374,143.584 248.874,142.75 249.5,142C 259.357,139.036 269.357,136.702 279.5,135C 284.02,134.186 288.354,134.353 292.5,135.5 Z"/></g>
<g><path style="opacity:1" fill="#2f2b2c" d="M 350.5,139.5 C 354.44,147.986 357.44,156.986 359.5,166.5C 354.149,167.037 348.816,167.704 343.5,168.5C 345.939,158.867 348.273,149.201 350.5,139.5 Z"/></g>
<g><path style="opacity:1" fill="#d4d3d4" d="M 907.5,134.5 C 928.194,136.362 941.027,147.362 946,167.5C 946.976,177.287 946.31,186.954 944,196.5C 937.756,208.078 928.256,212.411 915.5,209.5C 917.833,209.5 920.167,209.5 922.5,209.5C 922.5,204.833 922.5,200.167 922.5,195.5C 918.958,195.813 915.625,195.479 912.5,194.5C 921.647,196.173 927.147,192.506 929,183.5C 933.504,161.467 924.671,149.467 902.5,147.5C 902.5,162.5 902.5,177.5 902.5,192.5C 901.504,177.342 901.17,162.009 901.5,146.5C 903.5,146.5 905.5,146.5 907.5,146.5C 907.5,142.5 907.5,138.5 907.5,134.5 Z"/></g>
<g><path style="opacity:1" fill="#252122" d="M 912.5,194.5 C 908.96,194.247 905.627,193.581 902.5,192.5C 902.5,177.5 902.5,162.5 902.5,147.5C 924.671,149.467 933.504,161.467 929,183.5C 927.147,192.506 921.647,196.173 912.5,194.5 Z"/></g>
<g><path style="opacity:1" fill="#262223" d="M 276.5,149.5 C 283.99,148.302 286.823,151.302 285,158.5C 283.457,160.378 281.624,161.878 279.5,163C 274.235,163.892 269.068,165.059 264,166.5C 263.172,161.798 263.338,157.131 264.5,152.5C 268.623,151.489 272.623,150.489 276.5,149.5 Z"/></g>
<g><path style="opacity:1" fill="#262223" d="M 287.5,178.5 C 287.833,179.167 288.167,179.833 288.5,180.5C 289.154,184.839 288.154,188.673 285.5,192C 278.545,195.405 271.212,197.239 263.5,197.5C 263.19,191.242 263.524,185.076 264.5,179C 269.784,177.842 275.117,177.008 280.5,176.5C 283.163,176.319 285.497,176.985 287.5,178.5 Z"/></g>
<g><path style="opacity:1" fill="#f8d00b" d="M 576.5,209.5 C 581.167,209.5 585.833,209.5 590.5,209.5C 590.5,218.5 590.5,227.5 590.5,236.5C 585.833,236.5 581.167,236.5 576.5,236.5C 576.5,227.5 576.5,218.5 576.5,209.5 Z"/></g>
<g><path style="opacity:1" fill="#f6dd08" d="M 590.5,209.5 C 599.833,209.5 609.167,209.5 618.5,209.5C 618.5,218.5 618.5,227.5 618.5,236.5C 609.167,236.5 599.833,236.5 590.5,236.5C 590.5,227.5 590.5,218.5 590.5,209.5 Z"/></g>
<g><path style="opacity:1" fill="#f4d20c" d="M 618.5,209.5 C 620.5,209.5 622.5,209.5 624.5,209.5C 628.97,210.486 633.637,210.819 638.5,210.5C 638.5,219.167 638.5,227.833 638.5,236.5C 631.833,236.5 625.167,236.5 618.5,236.5C 618.5,227.5 618.5,218.5 618.5,209.5 Z"/></g>
<g><path style="opacity:1" fill="#f8b414" d="M 576.5,209.5 C 576.5,218.5 576.5,227.5 576.5,236.5C 569.978,236.177 563.645,236.51 557.5,237.5C 550.524,238.232 543.524,238.565 536.5,238.5C 520.619,238.492 504.952,239.492 489.5,241.5C 475.122,241.947 460.788,242.947 446.5,244.5C 446.5,235.5 446.5,226.5 446.5,217.5C 442.833,217.5 439.167,217.5 435.5,217.5C 455.954,215.057 476.621,213.391 497.5,212.5C 507.704,212.646 517.704,211.979 527.5,210.5C 543.824,209.794 560.157,209.461 576.5,209.5 Z"/></g>
<g><path style="opacity:1" fill="#eba81c" d="M 624.5,209.5 C 660.292,210.331 695.959,212.664 731.5,216.5C 733.218,217.224 735.052,217.891 737,218.5C 737.167,222.833 737.333,227.167 737.5,231.5C 737.492,236.222 736.825,240.555 735.5,244.5C 729.797,244.625 724.13,244.292 718.5,243.5C 715.512,241.86 712.179,241.026 708.5,241C 702.843,240.501 697.176,240.334 691.5,240.5C 646.873,237.994 602.207,236.994 557.5,237.5C 563.645,236.51 569.978,236.177 576.5,236.5C 581.167,236.5 585.833,236.5 590.5,236.5C 599.833,236.5 609.167,236.5 618.5,236.5C 625.167,236.5 631.833,236.5 638.5,236.5C 638.5,227.833 638.5,219.167 638.5,210.5C 633.637,210.819 628.97,210.486 624.5,209.5 Z"/></g>
<g><path style="opacity:1" fill="#af8019" d="M 527.5,210.5 C 517.704,211.979 507.704,212.646 497.5,212.5C 507.296,211.021 517.296,210.354 527.5,210.5 Z"/></g>
<g><path style="opacity:1" fill="#f8c014" d="M 435.5,217.5 C 439.167,217.5 442.833,217.5 446.5,217.5C 446.5,226.5 446.5,235.5 446.5,244.5C 436.836,245.444 427.169,246.444 417.5,247.5C 418.952,246.698 420.618,246.198 422.5,246C 421.325,239.895 421.325,233.729 422.5,227.5C 422.432,224.562 421.766,221.895 420.5,219.5C 425.269,218.111 430.269,217.444 435.5,217.5 Z"/></g>
<g><path style="opacity:1" fill="#db9d22" d="M 731.5,216.5 C 738.489,217.276 745.489,217.943 752.5,218.5C 752.5,218.833 752.5,219.167 752.5,219.5C 752.197,227.889 752.53,236.222 753.5,244.5C 749.555,245.491 745.555,245.824 741.5,245.5C 739.265,245.795 737.265,245.461 735.5,244.5C 736.825,240.555 737.492,236.222 737.5,231.5C 737.333,227.167 737.167,222.833 737,218.5C 735.052,217.891 733.218,217.224 731.5,216.5 Z"/></g>
<g><path style="opacity:1" fill="#594422" d="M 752.5,219.5 C 752.5,219.167 752.5,218.833 752.5,218.5C 757.731,218.444 762.731,219.111 767.5,220.5C 766.167,220.5 764.833,220.5 763.5,220.5C 759.865,219.886 756.198,219.552 752.5,219.5 Z"/></g>
<g><path style="opacity:1" fill="#a3891d" d="M 414.5,219.5 C 409.358,220.859 404.025,221.859 398.5,222.5C 396.833,222.5 395.167,222.5 393.5,222.5C 400.264,220.765 407.264,219.765 414.5,219.5 Z"/></g>
<g><path style="opacity:1" fill="#ca9125" d="M 752.5,219.5 C 756.198,219.552 759.865,219.886 763.5,220.5C 765.161,229.373 765.827,238.373 765.5,247.5C 763.167,247.5 760.833,247.5 758.5,247.5C 752.611,247.55 746.944,246.884 741.5,245.5C 745.555,245.824 749.555,245.491 753.5,244.5C 752.53,236.222 752.197,227.889 752.5,219.5 Z"/></g>
<g><path style="opacity:1" fill="#f7ce17" d="M 414.5,219.5 C 416.5,219.5 418.5,219.5 420.5,219.5C 421.766,221.895 422.432,224.562 422.5,227.5C 421.325,233.729 421.325,239.895 422.5,246C 420.618,246.198 418.952,246.698 417.5,247.5C 409.475,248.336 401.475,249.336 393.5,250.5C 394.919,249.549 396.585,249.216 398.5,249.5C 398.5,240.5 398.5,231.5 398.5,222.5C 404.025,221.859 409.358,220.859 414.5,219.5 Z"/></g>
<g><path style="opacity:1" fill="#b48129" d="M 763.5,220.5 C 764.833,220.5 766.167,220.5 767.5,220.5C 775.131,221.825 782.798,223.159 790.5,224.5C 791.473,233.517 791.473,242.517 790.5,251.5C 786.19,250.92 781.857,250.586 777.5,250.5C 770.964,249.949 764.631,248.949 758.5,247.5C 760.833,247.5 763.167,247.5 765.5,247.5C 765.827,238.373 765.161,229.373 763.5,220.5 Z"/></g>
<g><path style="opacity:1" fill="#f0d71f" d="M 393.5,222.5 C 395.167,222.5 396.833,222.5 398.5,222.5C 398.5,231.5 398.5,240.5 398.5,249.5C 396.585,249.216 394.919,249.549 393.5,250.5C 390.345,250.99 387.345,251.656 384.5,252.5C 382.167,252.5 379.833,252.5 377.5,252.5C 377.031,243.586 377.031,234.586 377.5,225.5C 371.552,226.602 365.552,227.269 359.5,227.5C 370.582,225.052 381.915,223.385 393.5,222.5 Z"/></g>
<g><path style="opacity:1" fill="#f2e726" d="M 377.5,252.5 C 374.72,253.078 372.053,253.745 369.5,254.5C 345.032,258.1 320.699,262.433 296.5,267.5C 296.334,258.494 296.5,249.494 297,240.5C 297.717,239.956 298.217,239.289 298.5,238.5C 310.676,235.373 323.009,233.04 335.5,231.5C 342.862,231.427 349.862,230.093 356.5,227.5C 357.5,227.5 358.5,227.5 359.5,227.5C 365.552,227.269 371.552,226.602 377.5,225.5C 377.031,234.586 377.031,243.586 377.5,252.5 Z"/></g>
<g><path style="opacity:1" fill="#b2aa26" d="M 356.5,227.5 C 349.862,230.093 342.862,231.427 335.5,231.5C 342.237,229.43 349.237,228.097 356.5,227.5 Z"/></g>
<g><path style="opacity:1" fill="#a4752a" d="M 790.5,224.5 C 829.262,230.36 867.262,239.026 904.5,250.5C 902.738,250.643 901.071,250.309 899.5,249.5C 898.502,258.475 898.168,267.475 898.5,276.5C 901.346,276.552 903.68,277.552 905.5,279.5C 863.443,266.65 820.777,256.983 777.5,250.5C 781.857,250.586 786.19,250.92 790.5,251.5C 791.473,242.517 791.473,233.517 790.5,224.5 Z"/></g>
<g><path style="opacity:1" fill="#242020" d="M 557.5,237.5 C 602.207,236.994 646.873,237.994 691.5,240.5C 700.294,242.081 709.294,243.081 718.5,243.5C 724.13,244.292 729.797,244.625 735.5,244.5C 737.265,245.461 739.265,245.795 741.5,245.5C 746.944,246.884 752.611,247.55 758.5,247.5C 764.631,248.949 770.964,249.949 777.5,250.5C 820.777,256.983 863.443,266.65 905.5,279.5C 910.574,280.969 915.574,282.636 920.5,284.5C 925.622,285.644 930.122,287.978 934,291.5C 936.211,302.058 937.711,312.724 938.5,323.5C 938.444,328.731 939.111,333.731 940.5,338.5C 941.831,351.138 942.831,363.805 943.5,376.5C 943.399,387.698 944.066,398.698 945.5,409.5C 945.263,410.791 945.596,411.791 946.5,412.5C 947.784,448.501 947.784,484.501 946.5,520.5C 945.053,529.963 944.387,539.63 944.5,549.5C 941.692,592.488 936.359,635.155 928.5,677.5C 925.04,692.353 921.707,707.353 918.5,722.5C 912.743,742.448 906.743,762.448 900.5,782.5C 881.351,837.797 854.517,889.13 820,936.5C 809.412,950.59 797.912,963.924 785.5,976.5C 779.86,982.806 773.86,988.806 767.5,994.5C 763.079,997.71 759.079,1001.38 755.5,1005.5C 747.097,1011.36 739.097,1017.7 731.5,1024.5C 713.86,1036.61 695.527,1047.77 676.5,1058C 671.591,1065.58 665.925,1072.58 659.5,1079C 652.782,1084.35 645.782,1089.18 638.5,1093.5C 620.822,1100.6 602.489,1102.93 583.5,1100.5C 557.52,1094.99 537.52,1080.82 523.5,1058C 491.141,1040.46 461.141,1019.63 433.5,995.5C 425.139,986.807 416.806,978.14 408.5,969.5C 401.138,961.141 393.804,952.808 386.5,944.5C 378.135,933.143 369.802,921.81 361.5,910.5C 337.166,871.499 316.833,830.499 300.5,787.5C 293.603,766.812 286.936,746.145 280.5,725.5C 279.116,716.685 277.116,708.018 274.5,699.5C 274.59,696.848 273.924,694.515 272.5,692.5C 271.291,686.016 269.958,679.683 268.5,673.5C 264.677,652.4 261.01,631.4 257.5,610.5C 257.448,606.802 257.114,603.135 256.5,599.5C 256.556,594.269 255.889,589.269 254.5,584.5C 254.473,578.949 253.806,573.616 252.5,568.5C 252.5,566.833 252.5,565.167 252.5,563.5C 252.224,555.319 251.557,547.319 250.5,539.5C 249.614,523.771 248.614,508.104 247.5,492.5C 247.5,461.833 247.5,431.167 247.5,400.5C 248.633,381.175 249.633,361.842 250.5,342.5C 251.889,337.731 252.556,332.731 252.5,327.5C 253.505,312.124 255.005,296.791 257,281.5C 257.785,279.714 258.951,278.214 260.5,277C 264.294,275.886 267.96,274.72 271.5,273.5C 279.904,271.683 288.238,269.683 296.5,267.5C 320.699,262.433 345.032,258.1 369.5,254.5C 374.731,254.556 379.731,253.889 384.5,252.5C 387.345,251.656 390.345,250.99 393.5,250.5C 401.475,249.336 409.475,248.336 417.5,247.5C 427.169,246.444 436.836,245.444 446.5,244.5C 460.788,242.947 475.122,241.947 489.5,241.5C 505.353,241.046 521.02,240.046 536.5,238.5C 543.524,238.565 550.524,238.232 557.5,237.5 Z"/></g>
<g><path style="opacity:1" fill="#513f1f" d="M 536.5,238.5 C 521.02,240.046 505.353,241.046 489.5,241.5C 504.952,239.492 520.619,238.492 536.5,238.5 Z"/></g>
<g><path style="opacity:1" fill="#f1de24" d="M 298.5,238.5 C 298.217,239.289 297.717,239.956 297,240.5C 296.5,249.494 296.334,258.494 296.5,267.5C 288.238,269.683 279.904,271.683 271.5,273.5C 269.833,273.5 268.167,273.5 266.5,273.5C 266.196,264.416 266.529,255.416 267.5,246.5C 277.531,243.088 287.864,240.421 298.5,238.5 Z"/></g>
<g><path style="opacity:1" fill="#b07e20" d="M 691.5,240.5 C 697.176,240.334 702.843,240.501 708.5,241C 712.179,241.026 715.512,241.86 718.5,243.5C 709.294,243.081 700.294,242.081 691.5,240.5 Z"/></g>
<g><path style="opacity:1" fill="#f1ce1d" d="M 267.5,246.5 C 266.529,255.416 266.196,264.416 266.5,273.5C 268.167,273.5 269.833,273.5 271.5,273.5C 267.96,274.72 264.294,275.886 260.5,277C 258.951,278.214 257.785,279.714 257,281.5C 255.005,296.791 253.505,312.124 252.5,327.5C 251.111,332.269 250.444,337.269 250.5,342.5C 249.633,361.842 248.633,381.175 247.5,400.5C 246.17,351.598 246.17,302.598 247.5,253.5C 253.373,249.207 260.04,246.874 267.5,246.5 Z"/></g>
<g><path style="opacity:1" fill="#252627" d="M 641.5,252.5 C 641.5,268.833 641.5,285.167 641.5,301.5C 632.531,294.008 623.531,286.508 614.5,279C 596.334,266.626 576.334,261.126 554.5,262.5C 554.5,259.167 554.5,255.833 554.5,252.5C 583.496,251.195 612.496,251.195 641.5,252.5 Z"/></g>
<g><path style="opacity:1" fill="#454547" d="M 554.5,252.5 C 554.5,255.833 554.5,259.167 554.5,262.5C 540.683,264.495 527.683,268.995 515.5,276C 498.444,286.188 482.11,297.355 466.5,309.5C 465.503,292.008 465.17,274.341 465.5,256.5C 491.488,254.713 517.488,253.047 543.5,251.5C 547.349,251.501 551.016,251.835 554.5,252.5 Z"/></g>
<g><path style="opacity:1" fill="#454547" d="M 730.5,258.5 C 730.5,280.167 730.5,301.833 730.5,323.5C 707.994,323.169 685.66,323.503 663.5,324.5C 656.865,317.032 649.698,310.032 642,303.5C 641.536,302.906 641.369,302.239 641.5,301.5C 641.5,285.167 641.5,268.833 641.5,252.5C 646.316,251.35 651.316,251.184 656.5,252C 681.19,253.984 705.856,256.151 730.5,258.5 Z"/></g>
<g><path style="opacity:1" fill="#4a4322" d="M 377.5,252.5 C 379.833,252.5 382.167,252.5 384.5,252.5C 379.731,253.889 374.731,254.556 369.5,254.5C 372.053,253.745 374.72,253.078 377.5,252.5 Z"/></g>
<g><path style="opacity:1" fill="#b4802a" d="M 904.5,250.5 C 909.013,251.592 913.346,252.926 917.5,254.5C 917.168,263.857 917.502,273.19 918.5,282.5C 919.522,282.855 920.189,283.522 920.5,284.5C 915.574,282.636 910.574,280.969 905.5,279.5C 903.68,277.552 901.346,276.552 898.5,276.5C 898.168,267.475 898.502,258.475 899.5,249.5C 901.071,250.309 902.738,250.643 904.5,250.5 Z"/></g>
<g><path style="opacity:1" fill="#f3c91b" d="M 247.5,253.5 C 246.17,302.598 246.17,351.598 247.5,400.5C 247.5,431.167 247.5,461.833 247.5,492.5C 246.501,554.998 246.168,617.664 246.5,680.5C 243.575,667.316 240.741,653.983 238,640.5C 237.096,634.865 236.596,629.198 236.5,623.5C 236.333,504.833 236.5,386.166 237,267.5C 237.608,265.846 238.108,264.179 238.5,262.5C 240.522,258.478 243.522,255.478 247.5,253.5 Z"/></g>
<g><path style="opacity:1" fill="#262728" d="M 465.5,256.5 C 465.17,274.341 465.503,292.008 466.5,309.5C 460.091,314.034 454.091,319.034 448.5,324.5C 425.006,323.502 401.339,323.169 377.5,323.5C 378.154,304.47 377.487,285.803 375.5,267.5C 405.367,263.551 435.367,259.884 465.5,256.5 Z"/></g>
<g><path style="opacity:1" fill="#262728" d="M 730.5,258.5 C 760.808,262.034 790.808,266.701 820.5,272.5C 818.514,289.134 817.848,306.134 818.5,323.5C 789.167,323.5 759.833,323.5 730.5,323.5C 730.5,301.833 730.5,280.167 730.5,258.5 Z"/></g>
<g><path style="opacity:1" fill="#cc9029" d="M 917.5,254.5 C 925.18,256.893 932.847,259.393 940.5,262C 943.42,263.946 946.087,266.113 948.5,268.5C 946.505,316.155 945.838,364.155 946.5,412.5C 945.596,411.791 945.263,410.791 945.5,409.5C 945.45,398.311 944.783,387.311 943.5,376.5C 942.831,363.805 941.831,351.138 940.5,338.5C 940.556,333.269 939.889,328.269 938.5,323.5C 937.711,312.724 936.211,302.058 934,291.5C 930.122,287.978 925.622,285.644 920.5,284.5C 920.189,283.522 919.522,282.855 918.5,282.5C 917.502,273.19 917.168,263.857 917.5,254.5 Z"/></g>
<g><path style="opacity:1" fill="#241f20" d="M 641.5,301.5 C 641.369,302.239 641.536,302.906 642,303.5C 649.698,310.032 656.865,317.032 663.5,324.5C 682.392,342.453 704.059,356.119 728.5,365.5C 741.551,371.094 755.217,375.261 769.5,378C 785.752,380.528 802.085,382.361 818.5,383.5C 834.275,385.7 850.275,386.7 866.5,386.5C 866.5,401.5 866.5,416.5 866.5,431.5C 856.833,431.5 847.167,431.5 837.5,431.5C 836.391,431.557 835.391,431.89 834.5,432.5C 829.577,437.013 826.743,442.679 826,449.5C 825.5,479.832 825.333,510.165 825.5,540.5C 825.5,576.5 825.5,612.5 825.5,648.5C 825.333,681.168 825.5,713.835 826,746.5C 827.342,750.232 828.509,753.899 829.5,757.5C 838.281,773.476 849.615,787.643 863.5,800C 850.146,800.922 837.146,803.588 824.5,808C 822.121,808.716 820.121,809.883 818.5,811.5C 815.86,811.954 813.527,813.121 811.5,815C 790.573,834.433 767.573,850.933 742.5,864.5C 738.036,867.399 733.37,869.732 728.5,871.5C 718.945,875.962 708.945,879.129 698.5,881C 683.471,882.002 668.471,883.335 653.5,885C 649.375,885.863 645.375,887.03 641.5,888.5C 632.019,890.907 623.685,895.407 616.5,902C 589.549,917.956 560.549,924.123 529.5,920.5C 518.613,918.693 508.279,915.193 498.5,910C 487.279,903.228 476.612,895.728 466.5,887.5C 457.565,880.572 448.898,873.238 440.5,865.5C 423.587,847.212 402.587,837.212 377.5,835.5C 374.102,835.82 370.768,835.487 367.5,834.5C 372.895,829.648 376.229,823.648 377.5,816.5C 378.927,814.852 379.76,812.852 380,810.5C 384.082,792.398 385.582,774.065 384.5,755.5C 382.167,755.5 379.833,755.5 377.5,755.5C 377.5,755.167 377.5,754.833 377.5,754.5C 379.833,754.5 382.167,754.5 384.5,754.5C 384.5,719.167 384.5,683.833 384.5,648.5C 384.5,612.5 384.5,576.5 384.5,540.5C 382.167,540.5 379.833,540.5 377.5,540.5C 377.5,540.167 377.5,539.833 377.5,539.5C 379.833,539.5 382.167,539.5 384.5,539.5C 384.5,504.167 384.5,468.833 384.5,433.5C 382.167,433.5 379.833,433.5 377.5,433.5C 377.5,433.167 377.5,432.833 377.5,432.5C 379.833,432.5 382.167,432.5 384.5,432.5C 384.723,418.806 384.223,405.139 383,391.5C 381.76,386.479 379.926,381.812 377.5,377.5C 375.669,371.665 372.002,367.331 366.5,364.5C 370.142,362.915 373.808,361.581 377.5,360.5C 403.238,352.465 426.905,340.465 448.5,324.5C 454.091,319.034 460.091,314.034 466.5,309.5C 482.11,297.355 498.444,286.188 515.5,276C 527.683,268.995 540.683,264.495 554.5,262.5C 576.334,261.126 596.334,266.626 614.5,279C 623.531,286.508 632.531,294.008 641.5,301.5 Z"/></g>
<g><path style="opacity:1" fill="#f5c31a" d="M 238.5,262.5 C 238.108,264.179 237.608,265.846 237,267.5C 236.5,386.166 236.333,504.833 236.5,623.5C 234.765,616.67 233.432,609.67 232.5,602.5C 232.556,597.269 231.889,592.269 230.5,587.5C 230.414,583.143 230.08,578.81 229.5,574.5C 229.046,567.841 228.713,561.174 228.5,554.5C 229.015,477.498 229.015,400.498 228.5,323.5C 228.601,309.698 229.934,296.031 232.5,282.5C 233.491,277.95 234.491,273.283 235.5,268.5C 235.461,265.911 236.461,263.911 238.5,262.5 Z"/></g>
<g><path style="opacity:1" fill="#454547" d="M 375.5,267.5 C 377.487,285.803 378.154,304.47 377.5,323.5C 348.167,323.5 318.833,323.5 289.5,323.5C 289.5,310.167 289.5,296.833 289.5,283.5C 317.883,276.778 346.55,271.444 375.5,267.5 Z"/></g>
<g><path style="opacity:1" fill="#d39429" d="M 948.5,268.5 C 953.153,272.453 956.32,277.453 958,283.5C 961.74,305.031 964.24,326.697 965.5,348.5C 965.419,361.066 966.419,373.399 968.5,385.5C 974.031,466.796 971.198,547.796 960,628.5C 956.353,653.723 951.853,678.723 946.5,703.5C 945.501,652.336 945.168,601.003 945.5,549.5C 946.029,539.842 946.362,530.175 946.5,520.5C 947.784,484.501 947.784,448.501 946.5,412.5C 945.838,364.155 946.505,316.155 948.5,268.5 Z"/></g>
<g><path style="opacity:1" fill="#454547" d="M 820.5,272.5 C 849.54,278.403 878.207,285.736 906.5,294.5C 906.5,304.167 906.5,313.833 906.5,323.5C 877.167,323.5 847.833,323.5 818.5,323.5C 817.848,306.134 818.514,289.134 820.5,272.5 Z"/></g>
<g><path style="opacity:1" fill="#a4841e" d="M 235.5,268.5 C 234.491,273.283 233.491,277.95 232.5,282.5C 232.044,277.404 233.044,272.738 235.5,268.5 Z"/></g>
<g><path style="opacity:1" fill="#e2e1de" d="M 603.5,294.5 C 603.489,296.017 602.823,297.184 601.5,298C 595.556,301.611 589.889,305.611 584.5,310C 583.207,310.49 581.873,310.657 580.5,310.5C 557.52,304.498 535.52,306.998 514.5,318C 494.886,332.051 484.219,351.217 482.5,375.5C 481.532,377.607 481.198,379.941 481.5,382.5C 467.121,391.779 452.955,401.446 439,411.5C 438.5,428.83 438.333,446.163 438.5,463.5C 438.818,468.032 438.485,472.366 437.5,476.5C 437.333,452.164 437.5,427.831 438,403.5C 440.002,389.854 443.002,376.521 447,363.5C 439.084,368.876 430.917,373.876 422.5,378.5C 422.167,379.667 421.833,380.833 421.5,382C 423.2,395.444 423.867,408.944 423.5,422.5C 418.455,426.195 413.122,429.528 407.5,432.5C 407.828,420.655 407.495,408.988 406.5,397.5C 405.337,392.181 404.171,386.847 403,381.5C 401.71,379.208 400.043,377.208 398,375.5C 397.28,373.888 397.446,372.388 398.5,371C 435.099,356.535 466.765,334.868 493.5,306C 527.475,277.762 564.141,273.928 603.5,294.5 Z"/></g>
<g><path style="opacity:1" fill="#d1cecc" d="M 603.5,294.5 C 610.568,298.728 617.235,303.561 623.5,309C 633.533,318.325 643.866,327.158 654.5,335.5C 654.489,337.017 653.823,338.184 652.5,339C 654.301,339.317 654.634,339.984 653.5,341C 646.324,345.755 639.324,350.755 632.5,356C 630.975,357.009 629.308,357.509 627.5,357.5C 620.034,333.367 604.368,317.701 580.5,310.5C 581.873,310.657 583.207,310.49 584.5,310C 589.889,305.611 595.556,301.611 601.5,298C 602.823,297.184 603.489,296.017 603.5,294.5 Z"/></g>
<g><path style="opacity:1" fill="#46484a" d="M 289.5,323.5 C 289.5,359.833 289.5,396.167 289.5,432.5C 280.167,432.5 270.833,432.5 261.5,432.5C 261.616,396.091 263.283,359.758 266.5,323.5C 274.167,323.5 281.833,323.5 289.5,323.5 Z"/></g>
<g><path style="opacity:1" fill="#8a8a8c" d="M 289.5,323.5 C 318.833,323.5 348.167,323.5 377.5,323.5C 377.5,335.833 377.5,348.167 377.5,360.5C 373.808,361.581 370.142,362.915 366.5,364.5C 372.002,367.331 375.669,371.665 377.5,377.5C 377.5,395.833 377.5,414.167 377.5,432.5C 348.167,432.5 318.833,432.5 289.5,432.5C 289.5,396.167 289.5,359.833 289.5,323.5 Z"/></g>
<g><path style="opacity:1" fill="#4a4c4d" d="M 377.5,323.5 C 401.339,323.169 425.006,323.502 448.5,324.5C 426.905,340.465 403.238,352.465 377.5,360.5C 377.5,348.167 377.5,335.833 377.5,323.5 Z"/></g>
<g><path style="opacity:1" fill="#89898b" d="M 663.5,324.5 C 685.66,323.503 707.994,323.169 730.5,323.5C 731.149,337.873 730.482,351.873 728.5,365.5C 704.059,356.119 682.392,342.453 663.5,324.5 Z"/></g>
<g><path style="opacity:1" fill="#4a4c4d" d="M 730.5,323.5 C 759.833,323.5 789.167,323.5 818.5,323.5C 818.5,343.5 818.5,363.5 818.5,383.5C 802.085,382.361 785.752,380.528 769.5,378C 755.217,375.261 741.551,371.094 728.5,365.5C 730.482,351.873 731.149,337.873 730.5,323.5 Z"/></g>
<g><path style="opacity:1" fill="#8a8a8c" d="M 818.5,323.5 C 847.833,323.5 877.167,323.5 906.5,323.5C 906.5,359.833 906.5,396.167 906.5,432.5C 883.327,432.831 860.327,432.498 837.5,431.5C 847.167,431.5 856.833,431.5 866.5,431.5C 867.496,416.342 867.83,401.009 867.5,385.5C 851.159,384.999 834.826,384.333 818.5,383.5C 818.5,363.5 818.5,343.5 818.5,323.5 Z"/></g>
<g><path style="opacity:1" fill="#454749" d="M 906.5,323.5 C 912.5,323.5 918.5,323.5 924.5,323.5C 929.416,359.663 931.749,395.996 931.5,432.5C 923.167,432.5 914.833,432.5 906.5,432.5C 906.5,396.167 906.5,359.833 906.5,323.5 Z"/></g>
<g><path style="opacity:1" fill="#c1262d" d="M 598.5,819.5 C 598.649,820.552 598.483,821.552 598,822.5C 597.329,821.748 596.496,821.414 595.5,821.5C 587.067,809.535 582.4,796.202 581.5,781.5C 581.174,662.478 581.508,543.478 582.5,424.5C 585.344,417.65 590.011,412.317 596.5,408.5C 581.68,392.868 569.847,375.201 561,355.5C 560.333,483.833 560.333,612.167 561,740.5C 562.586,771.639 572.586,799.639 591,824.5C 596.43,830.437 602.263,835.77 608.5,840.5C 608.5,844.167 608.5,847.833 608.5,851.5C 607.5,851.5 606.5,851.5 605.5,851.5C 588.702,842.165 574.869,829.499 564,813.5C 552.484,796.467 543.65,778.133 537.5,758.5C 537.168,720.663 537.502,682.996 538.5,645.5C 542.459,658.432 544.793,671.765 545.5,685.5C 545.672,689.534 546.172,693.534 547,697.5C 547.833,591.165 547.667,484.832 546.5,378.5C 545.702,378.957 545.369,379.624 545.5,380.5C 543.928,385.315 541.595,389.648 538.5,393.5C 537.506,384.348 537.173,375.015 537.5,365.5C 544.637,351.877 550.137,337.543 554,322.5C 560.044,344.328 569.711,364.328 583,382.5C 590.05,392.107 597.217,401.607 604.5,411C 600.054,414.442 595.887,418.276 592,422.5C 589.163,427.172 587.163,432.172 586,437.5C 585.333,550.833 585.333,664.167 586,777.5C 587.445,792.332 591.611,806.332 598.5,819.5 Z"/></g>
<g><path style="opacity:1" fill="#f2bb19" d="M 228.5,323.5 C 229.015,400.498 229.015,477.498 228.5,554.5C 228.167,554.5 227.833,554.5 227.5,554.5C 225.725,533.862 224.391,513.196 223.5,492.5C 223.282,451.826 223.615,411.159 224.5,370.5C 224.939,354.609 226.273,338.942 228.5,323.5 Z"/></g>
<g><path style="opacity:1" fill="#6b4f24" d="M 938.5,323.5 C 939.889,328.269 940.556,333.269 940.5,338.5C 939.111,333.731 938.444,328.731 938.5,323.5 Z"/></g>
<g><path style="opacity:1" fill="#8e791f" d="M 252.5,327.5 C 252.556,332.731 251.889,337.731 250.5,342.5C 250.444,337.269 251.111,332.269 252.5,327.5 Z"/></g>
<g><path style="opacity:1" fill="#b6b1b3" d="M 654.5,335.5 C 664.5,343.167 674.5,350.833 684.5,358.5C 684.539,359.583 684.873,360.583 685.5,361.5C 667.87,374.126 650.204,386.459 632.5,398.5C 632.825,391.313 632.491,384.313 631.5,377.5C 630.548,370.742 629.215,364.075 627.5,357.5C 629.308,357.509 630.975,357.009 632.5,356C 639.324,350.755 646.324,345.755 653.5,341C 654.634,339.984 654.301,339.317 652.5,339C 653.823,338.184 654.489,337.017 654.5,335.5 Z"/></g>
<g><path style="opacity:1" fill="#8f1c24" d="M 582.5,424.5 C 581.732,425.263 581.232,426.263 581,427.5C 580.167,545.667 580.334,663.667 581.5,781.5C 582.4,796.202 587.067,809.535 595.5,821.5C 601.052,826.884 606.052,832.717 610.5,839C 610.164,840.03 609.497,840.53 608.5,840.5C 602.263,835.77 596.43,830.437 591,824.5C 572.586,799.639 562.586,771.639 561,740.5C 560.333,612.167 560.333,483.833 561,355.5C 569.847,375.201 581.68,392.868 596.5,408.5C 590.011,412.317 585.344,417.65 582.5,424.5 Z"/></g>
<g><path style="opacity:1" fill="#a17227" d="M 965.5,348.5 C 967.607,360.599 968.607,372.932 968.5,385.5C 966.419,373.399 965.419,361.066 965.5,348.5 Z"/></g>
<g><path style="opacity:1" fill="#a6a1a5" d="M 684.5,358.5 C 688.558,361.89 692.891,364.89 697.5,367.5C 697.703,369.39 697.037,370.89 695.5,372C 693.242,373.93 690.742,375.43 688,376.5C 687.685,378.586 687.185,380.586 686.5,382.5C 684.108,379.402 681.942,376.069 680,372.5C 679.828,375.826 679.995,379.159 680.5,382.5C 680.5,383.5 680.5,384.5 680.5,385.5C 665.079,397.24 649.079,408.24 632.5,418.5C 632.5,411.833 632.5,405.167 632.5,398.5C 650.204,386.459 667.87,374.126 685.5,361.5C 684.873,360.583 684.539,359.583 684.5,358.5 Z"/></g>
<g><path style="opacity:1" fill="#fcfcfc" d="M 686.5,382.5 C 688.194,384.861 690.194,386.861 692.5,388.5C 692.333,423.502 692.5,458.502 693,493.5C 695.022,498.223 697.522,502.557 700.5,506.5C 701.702,508.392 703.035,510.226 704.5,512C 696.696,512.485 689.863,515.318 684,520.5C 683.667,479.167 683.333,437.833 683,396.5C 682.477,391.638 681.644,386.972 680.5,382.5C 679.995,379.159 679.828,375.826 680,372.5C 681.942,376.069 684.108,379.402 686.5,382.5 Z"/></g>
<g><path style="opacity:1" fill="#cb4348" d="M 545.5,685.5 C 546.833,583.833 546.833,482.167 545.5,380.5C 545.369,379.624 545.702,378.957 546.5,378.5C 547.667,484.832 547.833,591.165 547,697.5C 546.172,693.534 545.672,689.534 545.5,685.5 Z"/></g>
<g><path style="opacity:1" fill="#4a4c4d" d="M 377.5,377.5 C 379.926,381.812 381.76,386.479 383,391.5C 384.223,405.139 384.723,418.806 384.5,432.5C 382.167,432.5 379.833,432.5 377.5,432.5C 377.5,414.167 377.5,395.833 377.5,377.5 Z"/></g>
<g><path style="opacity:1" fill="#d1242a" d="M 755.5,389.5 C 755.821,394.695 755.487,399.695 754.5,404.5C 753.038,403.542 751.705,402.376 750.5,401C 749.668,400.312 749.002,400.479 748.5,401.5C 751.347,409.237 752.847,417.237 753,425.5C 753.667,542.5 753.667,659.5 753,776.5C 752.146,783.481 750.646,790.314 748.5,797C 748.667,797.5 748.833,798 749,798.5C 749.949,796.907 751.115,795.574 752.5,794.5C 754.841,793.492 755.841,794.492 755.5,797.5C 755.171,810.846 754.838,824.18 754.5,837.5C 740.662,847.567 725.329,854.567 708.5,858.5C 709.505,852.977 709.505,847.477 708.5,842C 708.978,840.697 709.645,839.531 710.5,838.5C 728.418,820.993 738.585,799.66 741,774.5C 741.667,657.5 741.667,540.5 741,423.5C 738.991,408.479 735.157,393.979 729.5,380C 738.151,382.843 746.818,386.01 755.5,389.5 Z"/></g>
<g><path style="opacity:1" fill="#da7d81" d="M 545.5,380.5 C 546.833,482.167 546.833,583.833 545.5,685.5C 544.793,671.765 542.459,658.432 538.5,645.5C 538.127,642.426 537.461,639.426 536.5,636.5C 536.667,568.166 536.5,499.833 536,431.5C 535.768,430.263 535.268,429.263 534.5,428.5C 533.002,423.678 530.336,419.678 526.5,416.5C 525.04,414.537 523.373,412.704 521.5,411C 529.407,407.261 535.073,401.428 538.5,393.5C 541.595,389.648 543.928,385.315 545.5,380.5 Z"/></g>
<g><path style="opacity:1" fill="#b2292e" d="M 537.5,365.5 C 537.173,375.015 537.506,384.348 538.5,393.5C 535.073,401.428 529.407,407.261 521.5,411C 523.373,412.704 525.04,414.537 526.5,416.5C 525.602,510.805 525.268,605.472 525.5,700.5C 524.667,615.001 524.167,529.334 524,443.5C 520.198,430.387 513.698,418.887 504.5,409C 517.556,396.052 528.556,381.552 537.5,365.5 Z"/></g>
<g><path style="opacity:1" fill="#5f5d5e" d="M 818.5,383.5 C 834.826,384.333 851.159,384.999 867.5,385.5C 867.83,401.009 867.496,416.342 866.5,431.5C 866.5,416.5 866.5,401.5 866.5,386.5C 850.275,386.7 834.275,385.7 818.5,383.5 Z"/></g>
<g><path style="opacity:1" fill="#d2292c" d="M 755.5,389.5 C 761.173,390.836 766.839,392.169 772.5,393.5C 773.124,536.083 773.458,679.416 773.5,823.5C 767.734,828.931 761.401,833.598 754.5,837.5C 754.838,824.18 755.171,810.846 755.5,797.5C 755.841,794.492 754.841,793.492 752.5,794.5C 756.414,786.928 759.247,778.928 761,770.5C 761.667,653.5 761.667,536.5 761,419.5C 759.696,414.077 757.53,409.077 754.5,404.5C 755.487,399.695 755.821,394.695 755.5,389.5 Z"/></g>
<g><path style="opacity:1" fill="#4e3c23" d="M 943.5,376.5 C 944.783,387.311 945.45,398.311 945.5,409.5C 944.066,398.698 943.399,387.698 943.5,376.5 Z"/></g>
<g><path style="opacity:1" fill="#d8d5d2" d="M 481.5,382.5 C 481.5,399.833 481.5,417.167 481.5,434.5C 467.367,444.405 453.033,454.071 438.5,463.5C 438.333,446.163 438.5,428.83 439,411.5C 452.955,401.446 467.121,391.779 481.5,382.5 Z"/></g>
<g><path style="opacity:1" fill="#ca272a" d="M 772.5,393.5 C 776.9,394.302 781.233,395.302 785.5,396.5C 785.5,535.833 785.5,675.167 785.5,814.5C 781.5,817.5 777.5,820.5 773.5,823.5C 773.458,679.416 773.124,536.083 772.5,393.5 Z"/></g>
<g><path style="opacity:1" fill="#999499" d="M 680.5,385.5 C 681.955,395.106 682.621,404.772 682.5,414.5C 665.543,425.558 649.043,437.225 633,449.5C 632.5,439.172 632.334,428.839 632.5,418.5C 649.079,408.24 665.079,397.24 680.5,385.5 Z"/></g>
<g><path style="opacity:1" fill="#c4272b" d="M 785.5,396.5 C 788.237,396.401 790.904,396.735 793.5,397.5C 793.5,534.5 793.5,671.5 793.5,808.5C 790.872,810.488 788.205,812.488 785.5,814.5C 785.5,675.167 785.5,535.833 785.5,396.5 Z"/></g>
<g><path style="opacity:1" fill="#be282b" d="M 793.5,397.5 C 794.167,397.5 794.833,397.5 795.5,397.5C 796.568,398.434 797.901,398.768 799.5,398.5C 799.406,533.52 799.74,668.853 800.5,804.5C 798.167,805.833 795.833,807.167 793.5,808.5C 793.5,671.5 793.5,534.5 793.5,397.5 Z"/></g>
<g><path style="opacity:1" fill="#b4272b" d="M 799.5,398.5 C 803.119,399.244 806.785,399.577 810.5,399.5C 811.833,399.5 813.167,399.5 814.5,399.5C 816.607,400.468 818.941,400.802 821.5,400.5C 821.5,406.5 821.5,412.5 821.5,418.5C 814.913,421.968 810.413,427.301 808,434.5C 807.333,543.5 807.333,652.5 808,761.5C 810.228,766.882 813.062,771.882 816.5,776.5C 817.261,783.141 817.927,789.808 818.5,796.5C 812.244,798.629 806.244,801.296 800.5,804.5C 799.74,668.853 799.406,533.52 799.5,398.5 Z"/></g>
<g><path style="opacity:1" fill="#752426" d="M 795.5,397.5 C 800.731,397.444 805.731,398.111 810.5,399.5C 806.785,399.577 803.119,399.244 799.5,398.5C 797.901,398.768 796.568,398.434 795.5,397.5 Z"/></g>
<g><path style="opacity:1" fill="#938f94" d="M 697.5,367.5 C 701.17,369.833 705.17,371.333 709.5,372C 710.804,372.804 711.471,373.971 711.5,375.5C 708.316,382.217 705.816,389.217 704,396.5C 703.5,427.498 703.333,458.498 703.5,489.5C 702.671,481.343 702.171,473.01 702,464.5C 699.154,466.257 696.488,468.257 694,470.5C 693.832,442.997 693.332,415.664 692.5,388.5C 690.194,386.861 688.194,384.861 686.5,382.5C 687.185,380.586 687.685,378.586 688,376.5C 690.742,375.43 693.242,373.93 695.5,372C 697.037,370.89 697.703,369.39 697.5,367.5 Z"/></g>
<g><path style="opacity:1" fill="#921f2b" d="M 814.5,399.5 C 817.167,399.5 819.833,399.5 822.5,399.5C 825.625,400.479 828.958,400.813 832.5,400.5C 833.441,405.07 833.774,409.737 833.5,414.5C 829.233,415.229 825.233,416.562 821.5,418.5C 821.5,412.5 821.5,406.5 821.5,400.5C 818.941,400.802 816.607,400.468 814.5,399.5 Z"/></g>
<g><path style="opacity:1" fill="#47191c" d="M 822.5,399.5 C 834.167,399.5 845.833,399.5 857.5,399.5C 857.5,404.5 857.5,409.5 857.5,414.5C 851.5,414.5 845.5,414.5 839.5,414.5C 839.5,409.833 839.5,405.167 839.5,400.5C 837.167,400.5 834.833,400.5 832.5,400.5C 828.958,400.813 825.625,400.479 822.5,399.5 Z"/></g>
<g><path style="opacity:1" fill="#e47a7d" d="M 754.5,404.5 C 757.53,409.077 759.696,414.077 761,419.5C 761.667,536.5 761.667,653.5 761,770.5C 759.247,778.928 756.414,786.928 752.5,794.5C 751.115,795.574 749.949,796.907 749,798.5C 748.833,798 748.667,797.5 748.5,797C 750.646,790.314 752.146,783.481 753,776.5C 753.667,659.5 753.667,542.5 753,425.5C 752.847,417.237 751.347,409.237 748.5,401.5C 749.002,400.479 749.668,400.312 750.5,401C 751.705,402.376 753.038,403.542 754.5,404.5 Z"/></g>
<g><path style="opacity:1" fill="#6f1924" d="M 832.5,400.5 C 834.833,400.5 837.167,400.5 839.5,400.5C 839.5,405.167 839.5,409.833 839.5,414.5C 837.5,414.5 835.5,414.5 833.5,414.5C 833.774,409.737 833.441,405.07 832.5,400.5 Z"/></g>
<g><path style="opacity:1" fill="#7f631f" d="M 224.5,370.5 C 223.615,411.159 223.282,451.826 223.5,492.5C 222.336,457.336 222.169,422.002 223,386.5C 223.173,380.984 223.673,375.651 224.5,370.5 Z"/></g>
<g><path style="opacity:1" fill="#f7f6f6" d="M 437.5,476.5 C 437.5,479.167 437.5,481.833 437.5,484.5C 436.681,487.305 436.181,490.305 436,493.5C 432.453,497.678 428.287,500.011 423.5,500.5C 423.5,498.167 423.5,495.833 423.5,493.5C 423.5,469.833 423.5,446.167 423.5,422.5C 423.867,408.944 423.2,395.444 421.5,382C 421.833,380.833 422.167,379.667 422.5,378.5C 430.917,373.876 439.084,368.876 447,363.5C 443.002,376.521 440.002,389.854 438,403.5C 437.5,427.831 437.333,452.164 437.5,476.5 Z"/></g>
<g><path style="opacity:1" fill="#8f8c91" d="M 631.5,377.5 C 632.491,384.313 632.825,391.313 632.5,398.5C 632.5,405.167 632.5,411.833 632.5,418.5C 632.334,428.839 632.5,439.172 633,449.5C 649.043,437.225 665.543,425.558 682.5,414.5C 682.5,430.5 682.5,446.5 682.5,462.5C 666.302,474.523 649.802,486.189 633,497.5C 632.5,507.161 632.334,516.828 632.5,526.5C 632.5,530.833 632.5,535.167 632.5,539.5C 631.501,485.669 631.168,431.669 631.5,377.5 Z"/></g>
<g><path style="opacity:1" fill="#bd292f" d="M 526.5,416.5 C 530.336,419.678 533.002,423.678 534.5,428.5C 535.154,497.98 535.82,567.313 536.5,636.5C 537.461,639.426 538.127,642.426 538.5,645.5C 537.502,682.996 537.168,720.663 537.5,758.5C 530.998,739.804 526.998,720.471 525.5,700.5C 525.268,605.472 525.602,510.805 526.5,416.5 Z"/></g>
<g><path style="opacity:1" fill="#b0202a" d="M 582.5,424.5 C 581.508,543.478 581.174,662.478 581.5,781.5C 580.334,663.667 580.167,545.667 581,427.5C 581.232,426.263 581.732,425.263 582.5,424.5 Z"/></g>
<g><path style="opacity:1" fill="#2b2a2b" d="M 834.5,432.5 C 858.328,433.498 882.328,433.831 906.5,433.5C 906.5,468.833 906.5,504.167 906.5,539.5C 906.5,539.833 906.5,540.167 906.5,540.5C 879.5,540.5 852.5,540.5 825.5,540.5C 825.333,510.165 825.5,479.832 826,449.5C 826.743,442.679 829.577,437.013 834.5,432.5 Z"/></g>
<g><path style="opacity:1" fill="#575758" d="M 837.5,431.5 C 860.327,432.498 883.327,432.831 906.5,432.5C 906.5,432.833 906.5,433.167 906.5,433.5C 882.328,433.831 858.328,433.498 834.5,432.5C 835.391,431.89 836.391,431.557 837.5,431.5 Z"/></g>
<g><path style="opacity:1" fill="#161616" d="M 289.5,433.5 C 289.5,468.833 289.5,504.167 289.5,539.5C 281.167,539.5 272.833,539.5 264.5,539.5C 261.921,504.221 260.921,468.888 261.5,433.5C 270.833,433.5 280.167,433.5 289.5,433.5 Z"/></g>
<g><path style="opacity:1" fill="#2b2a2b" d="M 289.5,432.5 C 318.833,432.5 348.167,432.5 377.5,432.5C 377.5,432.833 377.5,433.167 377.5,433.5C 377.5,468.833 377.5,504.167 377.5,539.5C 377.5,539.833 377.5,540.167 377.5,540.5C 348.167,540.5 318.833,540.5 289.5,540.5C 289.5,540.167 289.5,539.833 289.5,539.5C 289.5,504.167 289.5,468.833 289.5,433.5C 289.5,433.167 289.5,432.833 289.5,432.5 Z"/></g>
<g><path style="opacity:1" fill="#171717" d="M 377.5,433.5 C 379.833,433.5 382.167,433.5 384.5,433.5C 384.5,468.833 384.5,504.167 384.5,539.5C 382.167,539.5 379.833,539.5 377.5,539.5C 377.5,504.167 377.5,468.833 377.5,433.5 Z"/></g>
<g><path style="opacity:1" fill="#161616" d="M 906.5,433.5 C 915.167,433.5 923.833,433.5 932.5,433.5C 932.891,468.859 932.224,504.193 930.5,539.5C 922.5,539.5 914.5,539.5 906.5,539.5C 906.5,504.167 906.5,468.833 906.5,433.5 Z"/></g>
<g><path style="opacity:1" fill="#ce585c" d="M 534.5,428.5 C 535.268,429.263 535.768,430.263 536,431.5C 536.5,499.833 536.667,568.166 536.5,636.5C 535.82,567.313 535.154,497.98 534.5,428.5 Z"/></g>
<g><path style="opacity:1" fill="#cbc7c6" d="M 481.5,434.5 C 481.5,443.5 481.5,452.5 481.5,461.5C 467.484,471.602 453.318,481.602 439,491.5C 438.5,501.494 438.334,511.494 438.5,521.5C 438.5,529.5 438.5,537.5 438.5,545.5C 438.5,552.5 438.5,559.5 438.5,566.5C 438.5,588.833 438.5,611.167 438.5,633.5C 438.5,643.167 438.5,652.833 438.5,662.5C 438.5,664.5 438.5,666.5 438.5,668.5C 438.167,668.5 437.833,668.5 437.5,668.5C 437.5,607.167 437.5,545.833 437.5,484.5C 437.5,481.833 437.5,479.167 437.5,476.5C 438.485,472.366 438.818,468.032 438.5,463.5C 453.033,454.071 467.367,444.405 481.5,434.5 Z"/></g>
<g><path style="opacity:1" fill="#d3d0ce" d="M 423.5,422.5 C 423.5,446.167 423.5,469.833 423.5,493.5C 422.778,493.082 422.278,492.416 422,491.5C 417.976,495.185 413.643,498.519 409,501.5C 408.809,499.292 408.309,497.292 407.5,495.5C 407.5,474.5 407.5,453.5 407.5,432.5C 413.122,429.528 418.455,426.195 423.5,422.5 Z"/></g>
<g><path style="opacity:1" fill="#a7a3a8" d="M 692.5,388.5 C 693.332,415.664 693.832,442.997 694,470.5C 696.488,468.257 699.154,466.257 702,464.5C 702.171,473.01 702.671,481.343 703.5,489.5C 704.501,495.194 706.835,500.194 710.5,504.5C 708.956,504.297 707.622,503.63 706.5,502.5C 704.576,504.019 702.576,505.353 700.5,506.5C 697.522,502.557 695.022,498.223 693,493.5C 692.5,458.502 692.333,423.502 692.5,388.5 Z"/></g>
<g><path style="opacity:1" fill="#bbb6b7" d="M 481.5,461.5 C 481.5,471.5 481.5,481.5 481.5,491.5C 467.182,501.479 452.848,511.479 438.5,521.5C 438.334,511.494 438.5,501.494 439,491.5C 453.318,481.602 467.484,471.602 481.5,461.5 Z"/></g>
<g><path style="opacity:1" fill="#9a979c" d="M 682.5,462.5 C 682.5,472.5 682.5,482.5 682.5,492.5C 665.795,503.847 649.128,515.18 632.5,526.5C 632.334,516.828 632.5,507.161 633,497.5C 649.802,486.189 666.302,474.523 682.5,462.5 Z"/></g>
<g><path style="opacity:1" fill="#f2ce1d" d="M 247.5,492.5 C 248.614,508.104 249.614,523.771 250.5,539.5C 250.178,547.729 250.845,555.729 252.5,563.5C 252.5,565.167 252.5,566.833 252.5,568.5C 252.376,574.069 253.043,579.402 254.5,584.5C 254.444,589.731 255.111,594.731 256.5,599.5C 257.114,603.135 257.448,606.802 257.5,610.5C 256.823,621.235 256.156,632.069 255.5,643C 256.096,669.785 256.429,696.618 256.5,723.5C 255.662,723.158 255.328,722.492 255.5,721.5C 255.59,718.848 254.924,716.515 253.5,714.5C 251.159,703.15 248.825,691.817 246.5,680.5C 246.168,617.664 246.501,554.998 247.5,492.5 Z"/></g>
<g><path style="opacity:1" fill="#aea9ac" d="M 481.5,491.5 C 481.5,499.5 481.5,507.5 481.5,515.5C 466.911,525.281 452.578,535.281 438.5,545.5C 438.5,537.5 438.5,529.5 438.5,521.5C 452.848,511.479 467.182,501.479 481.5,491.5 Z"/></g>
<g><path style="opacity:1" fill="#aba7ac" d="M 682.5,492.5 C 682.181,502.416 682.514,512.25 683.5,522C 671.363,529.971 659.363,538.138 647.5,546.5C 646.066,547.588 645.066,548.922 644.5,550.5C 641.777,545.444 637.777,541.777 632.5,539.5C 632.5,535.167 632.5,530.833 632.5,526.5C 649.128,515.18 665.795,503.847 682.5,492.5 Z"/></g>
<g><path style="opacity:1" fill="#b6b3b8" d="M 680.5,382.5 C 681.644,386.972 682.477,391.638 683,396.5C 683.333,437.833 683.667,479.167 684,520.5C 689.863,515.318 696.696,512.485 704.5,512C 703.035,510.226 701.702,508.392 700.5,506.5C 702.576,505.353 704.576,504.019 706.5,502.5C 707.622,503.63 708.956,504.297 710.5,504.5C 714.497,509.33 718.997,513.664 724,517.5C 724.72,519.112 724.554,520.612 723.5,522C 708.269,522.313 693.602,525.313 679.5,531C 667.221,536.946 657.888,545.946 651.5,558C 649.888,558.72 648.388,558.554 647,557.5C 646.153,555.146 645.32,552.812 644.5,550.5C 645.066,548.922 646.066,547.588 647.5,546.5C 659.363,538.138 671.363,529.971 683.5,522C 682.514,512.25 682.181,502.416 682.5,492.5C 682.5,482.5 682.5,472.5 682.5,462.5C 682.5,446.5 682.5,430.5 682.5,414.5C 682.621,404.772 681.955,395.106 680.5,385.5C 680.5,384.5 680.5,383.5 680.5,382.5 Z"/></g>
<g><path style="opacity:1" fill="#a09b9f" d="M 481.5,515.5 C 481.188,522.422 481.521,529.256 482.5,536C 467.63,545.93 452.963,556.097 438.5,566.5C 438.5,559.5 438.5,552.5 438.5,545.5C 452.578,535.281 466.911,525.281 481.5,515.5 Z"/></g>
<g><path style="opacity:1" fill="#bdb8b9" d="M 423.5,493.5 C 423.5,495.833 423.5,498.167 423.5,500.5C 423.5,512.167 423.5,523.833 423.5,535.5C 422.732,534.737 422.232,533.737 422,532.5C 417.976,536.185 413.643,539.519 409,542.5C 408.809,540.292 408.309,538.292 407.5,536.5C 407.5,522.833 407.5,509.167 407.5,495.5C 408.309,497.292 408.809,499.292 409,501.5C 413.643,498.519 417.976,495.185 422,491.5C 422.278,492.416 422.778,493.082 423.5,493.5 Z"/></g>
<g><path style="opacity:1" fill="#ebebec" d="M 437.5,484.5 C 437.5,545.833 437.5,607.167 437.5,668.5C 437.5,686.833 437.5,705.167 437.5,723.5C 436.691,721.708 436.191,719.708 436,717.5C 432.333,720.167 428.667,722.833 425,725.5C 424.829,734.01 424.329,742.343 423.5,750.5C 423.5,744.833 423.5,739.167 423.5,733.5C 423.5,721.5 423.5,709.5 423.5,697.5C 423.5,685.833 423.5,674.167 423.5,662.5C 423.5,634.167 423.5,605.833 423.5,577.5C 423.5,563.5 423.5,549.5 423.5,535.5C 423.5,523.833 423.5,512.167 423.5,500.5C 428.287,500.011 432.453,497.678 436,493.5C 436.181,490.305 436.681,487.305 437.5,484.5 Z"/></g>
<g><path style="opacity:1" fill="#938f94" d="M 624.5,542.5 C 620.274,543.617 616.607,545.784 613.5,549C 614.823,549.816 615.489,550.983 615.5,552.5C 609.777,547.281 603.611,542.615 597,538.5C 596.333,533.5 596.333,528.5 597,523.5C 600.128,522.058 602.962,522.558 605.5,525C 612.03,530.699 618.363,536.533 624.5,542.5 Z"/></g>
<g><path style="opacity:1" fill="#46484a" d="M 289.5,540.5 C 289.5,576.5 289.5,612.5 289.5,648.5C 285.563,648.793 281.73,648.46 278,647.5C 271.908,612.059 267.741,576.392 265.5,540.5C 273.5,540.5 281.5,540.5 289.5,540.5 Z"/></g>
<g><path style="opacity:1" fill="#8b8b8d" d="M 289.5,540.5 C 318.833,540.5 348.167,540.5 377.5,540.5C 377.5,576.5 377.5,612.5 377.5,648.5C 348.167,648.5 318.833,648.5 289.5,648.5C 289.5,612.5 289.5,576.5 289.5,540.5 Z"/></g>
<g><path style="opacity:1" fill="#4c4d4f" d="M 377.5,540.5 C 379.833,540.5 382.167,540.5 384.5,540.5C 384.5,576.5 384.5,612.5 384.5,648.5C 382.167,648.5 379.833,648.5 377.5,648.5C 377.5,612.5 377.5,576.5 377.5,540.5 Z"/></g>
<g><path style="opacity:1" fill="#8b8b8d" d="M 825.5,540.5 C 852.5,540.5 879.5,540.5 906.5,540.5C 906.5,576.5 906.5,612.5 906.5,648.5C 879.5,648.5 852.5,648.5 825.5,648.5C 825.5,612.5 825.5,576.5 825.5,540.5 Z"/></g>
<g><path style="opacity:1" fill="#454749" d="M 906.5,540.5 C 914.5,540.5 922.5,540.5 930.5,540.5C 928.155,576.639 924.488,612.639 919.5,648.5C 915.167,648.5 910.833,648.5 906.5,648.5C 906.5,612.5 906.5,576.5 906.5,540.5 Z"/></g>
<g><path style="opacity:1" fill="#886226" d="M 946.5,520.5 C 946.362,530.175 946.029,539.842 945.5,549.5C 945.167,549.5 944.833,549.5 944.5,549.5C 944.387,539.63 945.053,529.963 946.5,520.5 Z"/></g>
<g><path style="opacity:1" fill="#8f8b91" d="M 482.5,375.5 C 482.333,428.168 482.5,480.834 483,533.5C 492.277,523.515 503.444,517.015 516.5,514C 517,514.5 517.5,515 518,515.5C 518.829,520.533 518.662,525.533 517.5,530.5C 507.252,531.311 498.752,535.644 492,543.5C 480.029,561.354 478.196,580.354 486.5,600.5C 470.497,611.504 454.497,622.504 438.5,633.5C 438.5,611.167 438.5,588.833 438.5,566.5C 452.963,556.097 467.63,545.93 482.5,536C 481.521,529.256 481.188,522.422 481.5,515.5C 481.5,507.5 481.5,499.5 481.5,491.5C 481.5,481.5 481.5,471.5 481.5,461.5C 481.5,452.5 481.5,443.5 481.5,434.5C 481.5,417.167 481.5,399.833 481.5,382.5C 481.198,379.941 481.532,377.607 482.5,375.5 Z"/></g>
<g><path style="opacity:1" fill="#cc8f29" d="M 944.5,549.5 C 944.833,549.5 945.167,549.5 945.5,549.5C 945.168,601.003 945.501,652.336 946.5,703.5C 941.512,725.794 935.512,747.794 928.5,769.5C 927.226,738.99 927.226,708.323 928.5,677.5C 936.359,635.155 941.692,592.488 944.5,549.5 Z"/></g>
<g><path style="opacity:1" fill="#a6a3a8" d="M 624.5,542.5 C 630.956,549.281 636.623,556.614 641.5,564.5C 638.455,565.389 635.789,566.889 633.5,569C 631.393,570.264 630.393,572.097 630.5,574.5C 627.008,566.198 622.008,558.864 615.5,552.5C 615.489,550.983 614.823,549.816 613.5,549C 616.607,545.784 620.274,543.617 624.5,542.5 Z"/></g>
<g><path style="opacity:1" fill="#8b6f1e" d="M 227.5,554.5 C 227.833,554.5 228.167,554.5 228.5,554.5C 228.713,561.174 229.046,567.841 229.5,574.5C 227.961,568.063 227.294,561.396 227.5,554.5 Z"/></g>
<g><path style="opacity:1" fill="#867220" d="M 250.5,539.5 C 251.557,547.319 252.224,555.319 252.5,563.5C 250.845,555.729 250.178,547.729 250.5,539.5 Z"/></g>
<g><path style="opacity:1" fill="#a49fa3" d="M 423.5,535.5 C 423.5,549.5 423.5,563.5 423.5,577.5C 418.645,580.76 413.645,583.76 408.5,586.5C 407.543,569.868 407.21,553.201 407.5,536.5C 408.309,538.292 408.809,540.292 409,542.5C 413.643,539.519 417.976,536.185 422,532.5C 422.232,533.737 422.732,534.737 423.5,535.5 Z"/></g>
<g><path style="opacity:1" fill="#ae9620" d="M 252.5,568.5 C 253.806,573.616 254.473,578.949 254.5,584.5C 253.043,579.402 252.376,574.069 252.5,568.5 Z"/></g>
<g><path style="opacity:1" fill="#c2bfc4" d="M 641.5,564.5 C 647.326,574.142 653.659,583.476 660.5,592.5C 658.073,591.026 655.74,591.193 653.5,593C 648.36,597.738 642.693,601.738 636.5,605C 635.891,606.948 635.224,608.782 634.5,610.5C 635.399,598.19 634.066,586.19 630.5,574.5C 630.393,572.097 631.393,570.264 633.5,569C 635.789,566.889 638.455,565.389 641.5,564.5 Z"/></g>
<g><path style="opacity:1" fill="#8a868b" d="M 406.5,397.5 C 407.495,408.988 407.828,420.655 407.5,432.5C 407.5,453.5 407.5,474.5 407.5,495.5C 407.5,509.167 407.5,522.833 407.5,536.5C 407.21,553.201 407.543,569.868 408.5,586.5C 413.645,583.76 418.645,580.76 423.5,577.5C 423.5,605.833 423.5,634.167 423.5,662.5C 422.717,664.343 422.05,666.343 421.5,668.5C 417.277,671.682 412.944,674.682 408.5,677.5C 407.501,690.483 407.168,703.483 407.5,716.5C 407.5,726.833 407.5,737.167 407.5,747.5C 407.825,755.352 407.492,763.018 406.5,770.5C 406.5,646.167 406.5,521.833 406.5,397.5 Z"/></g>
<g><path style="opacity:1" fill="#847220" d="M 254.5,584.5 C 255.889,589.269 256.556,594.269 256.5,599.5C 255.111,594.731 254.444,589.731 254.5,584.5 Z"/></g>
<g><path style="opacity:1" fill="#d2d1d5" d="M 660.5,592.5 C 663.167,595.5 665.833,598.5 668.5,601.5C 667.504,601.586 666.671,601.252 666,600.5C 655.665,608.327 645.165,615.993 634.5,623.5C 634.5,619.167 634.5,614.833 634.5,610.5C 635.224,608.782 635.891,606.948 636.5,605C 642.693,601.738 648.36,597.738 653.5,593C 655.74,591.193 658.073,591.026 660.5,592.5 Z"/></g>
<g><path style="opacity:1" fill="#5d4c1f" d="M 230.5,587.5 C 231.889,592.269 232.556,597.269 232.5,602.5C 231.111,597.731 230.444,592.731 230.5,587.5 Z"/></g>
<g><path style="opacity:1" fill="#9a969b" d="M 486.5,600.5 C 494.017,613.188 505.183,620.521 520,622.5C 520.667,626.5 520.667,630.5 520,634.5C 517.159,636.504 513.993,637.004 510.5,636C 499.132,630.466 490.132,622.299 483.5,611.5C 483.217,610.711 482.717,610.044 482,609.5C 481.5,617.159 481.334,624.826 481.5,632.5C 467.328,642.751 452.995,652.751 438.5,662.5C 438.5,652.833 438.5,643.167 438.5,633.5C 454.497,622.504 470.497,611.504 486.5,600.5 Z"/></g>
<g><path style="opacity:1" fill="#bdbabf" d="M 621.5,584.5 C 623.467,584.261 625.301,584.594 627,585.5C 627.667,591.167 627.667,596.833 627,602.5C 618.679,612.163 609.179,620.33 598.5,627C 597.167,627.667 595.833,627.667 594.5,627C 593.361,621.584 593.194,616.084 594,610.5C 604.626,603.374 613.793,594.707 621.5,584.5 Z"/></g>
<g><path style="opacity:1" fill="#e3e4e7" d="M 668.5,601.5 C 674.625,607.301 681.292,612.301 688.5,616.5C 686.801,616.34 685.134,616.506 683.5,617C 668.204,627.654 652.871,638.321 637.5,649C 636.131,650.719 635.131,652.552 634.5,654.5C 634.5,644.167 634.5,633.833 634.5,623.5C 645.165,615.993 655.665,608.327 666,600.5C 666.671,601.252 667.504,601.586 668.5,601.5 Z"/></g>
<g><path style="opacity:1" fill="#f0f2f4" d="M 688.5,616.5 C 700.9,623.388 714.233,626.555 728.5,626C 730.211,627.133 730.711,628.633 730,630.5C 722.626,636.206 716.293,642.873 711,650.5C 709.241,654.009 708.074,657.675 707.5,661.5C 706.505,672.988 706.172,684.655 706.5,696.5C 702.676,700.245 698.343,703.245 693.5,705.5C 693.825,713.352 693.492,721.018 692.5,728.5C 692.833,712.486 692.499,696.486 691.5,680.5C 686.453,676.087 682.62,670.754 680,664.5C 680.805,673.476 681.805,682.476 683,691.5C 683.5,699.159 683.666,706.826 683.5,714.5C 667.948,725.003 652.281,735.67 636.5,746.5C 635.824,745.398 635.158,744.398 634.5,743.5C 634.5,713.833 634.5,684.167 634.5,654.5C 635.131,652.552 636.131,650.719 637.5,649C 652.871,638.321 668.204,627.654 683.5,617C 685.134,616.506 686.801,616.34 688.5,616.5 Z"/></g>
<g><path style="opacity:1" fill="#f0d420" d="M 257.5,610.5 C 261.01,631.4 264.677,652.4 268.5,673.5C 267.883,673.389 267.383,673.056 267,672.5C 266.5,701.165 266.333,729.831 266.5,758.5C 264.731,752.527 262.731,746.527 260.5,740.5C 260.59,737.848 259.924,735.515 258.5,733.5C 257.626,730.211 256.959,726.877 256.5,723.5C 256.429,696.618 256.096,669.785 255.5,643C 256.156,632.069 256.823,621.235 257.5,610.5 Z"/></g>
<g><path style="opacity:1" fill="#a9a5aa" d="M 481.5,632.5 C 481.5,641.5 481.5,650.5 481.5,659.5C 467.469,670.189 453.136,680.522 438.5,690.5C 438.5,683.167 438.5,675.833 438.5,668.5C 438.5,666.5 438.5,664.5 438.5,662.5C 452.995,652.751 467.328,642.751 481.5,632.5 Z"/></g>
<g><path style="opacity:1" fill="#2b2a2b" d="M 289.5,648.5 C 318.833,648.5 348.167,648.5 377.5,648.5C 377.5,683.833 377.5,719.167 377.5,754.5C 377.5,754.833 377.5,755.167 377.5,755.5C 353.143,754.843 329.143,755.51 305.5,757.5C 299.736,739.792 294.569,721.792 290,703.5C 289.5,685.17 289.333,666.836 289.5,648.5 Z"/></g>
<g><path style="opacity:1" fill="#171717" d="M 377.5,648.5 C 379.833,648.5 382.167,648.5 384.5,648.5C 384.5,683.833 384.5,719.167 384.5,754.5C 382.167,754.5 379.833,754.5 377.5,754.5C 377.5,719.167 377.5,683.833 377.5,648.5 Z"/></g>
<g><path style="opacity:1" fill="#2b2a2b" d="M 825.5,648.5 C 852.5,648.5 879.5,648.5 906.5,648.5C 906.667,669.836 906.5,691.169 906,712.5C 902.273,727.755 898.106,742.755 893.5,757.5C 883.188,756.168 872.522,755.501 861.5,755.5C 850.478,755.501 839.812,756.168 829.5,757.5C 828.509,753.899 827.342,750.232 826,746.5C 825.5,713.835 825.333,681.168 825.5,648.5 Z"/></g>
<g><path style="opacity:1" fill="#fdfdfd" d="M 692.5,728.5 C 692.17,748.007 692.503,767.341 693.5,786.5C 695.654,792.637 698.987,797.97 703.5,802.5C 703.953,803.458 704.619,804.292 705.5,805C 697.511,804.984 690.511,807.484 684.5,812.5C 683.504,797.342 683.17,782.009 683.5,766.5C 683.5,749.167 683.5,731.833 683.5,714.5C 683.666,706.826 683.5,699.159 683,691.5C 681.805,682.476 680.805,673.476 680,664.5C 682.62,670.754 686.453,676.087 691.5,680.5C 692.499,696.486 692.833,712.486 692.5,728.5 Z"/></g>
<g><path style="opacity:1" fill="#f1da22" d="M 268.5,673.5 C 269.958,679.683 271.291,686.016 272.5,692.5C 272.41,695.152 273.076,697.485 274.5,699.5C 277.116,708.018 279.116,716.685 280.5,725.5C 279.502,748.661 279.169,771.994 279.5,795.5C 274.365,783.539 270.032,771.206 266.5,758.5C 266.333,729.831 266.5,701.165 267,672.5C 267.383,673.056 267.883,673.389 268.5,673.5 Z"/></g>
<g><path style="opacity:1" fill="#bfbcc1" d="M 481.5,659.5 C 481.5,670.167 481.5,680.833 481.5,691.5C 466.979,701.258 452.646,711.258 438.5,721.5C 438.5,711.167 438.5,700.833 438.5,690.5C 453.136,680.522 467.469,670.189 481.5,659.5 Z"/></g>
<g><path style="opacity:1" fill="#bf8729" d="M 928.5,677.5 C 927.226,708.323 927.226,738.99 928.5,769.5C 925.363,779.579 922.029,789.579 918.5,799.5C 917.199,773.98 917.199,748.313 918.5,722.5C 921.707,707.353 925.04,692.353 928.5,677.5 Z"/></g>
<g><path style="opacity:1" fill="#a9a6ab" d="M 423.5,662.5 C 423.5,674.167 423.5,685.833 423.5,697.5C 422.801,699.556 421.801,701.556 420.5,703.5C 416.453,705.909 412.453,708.242 408.5,710.5C 408.795,712.735 408.461,714.735 407.5,716.5C 407.168,703.483 407.501,690.483 408.5,677.5C 412.944,674.682 417.277,671.682 421.5,668.5C 422.05,666.343 422.717,664.343 423.5,662.5 Z"/></g>
<g><path style="opacity:1" fill="#8a7d23" d="M 272.5,692.5 C 273.924,694.515 274.59,696.848 274.5,699.5C 273.076,697.485 272.41,695.152 272.5,692.5 Z"/></g>
<g><path style="opacity:1" fill="#cecdd1" d="M 481.5,691.5 C 481.5,697.5 481.5,703.5 481.5,709.5C 467.449,719.28 453.282,728.947 439,738.5C 438.501,732.843 438.334,727.176 438.5,721.5C 452.646,711.258 466.979,701.258 481.5,691.5 Z"/></g>
<g><path style="opacity:1" fill="#605d5f" d="M 483.5,611.5 C 482.501,668.998 482.168,726.664 482.5,784.5C 481.504,768.342 481.17,752.009 481.5,735.5C 481.5,726.833 481.5,718.167 481.5,709.5C 481.5,703.5 481.5,697.5 481.5,691.5C 481.5,680.833 481.5,670.167 481.5,659.5C 481.5,650.5 481.5,641.5 481.5,632.5C 481.334,624.826 481.5,617.159 482,609.5C 482.717,610.044 483.217,610.711 483.5,611.5 Z"/></g>
<g><path style="opacity:1" fill="#6d5e21" d="M 253.5,714.5 C 254.924,716.515 255.59,718.848 255.5,721.5C 254.076,719.485 253.41,717.152 253.5,714.5 Z"/></g>
<g><path style="opacity:1" fill="#e0e0e3" d="M 437.5,668.5 C 437.833,668.5 438.167,668.5 438.5,668.5C 438.5,675.833 438.5,683.167 438.5,690.5C 438.5,700.833 438.5,711.167 438.5,721.5C 438.334,727.176 438.501,732.843 439,738.5C 453.282,728.947 467.449,719.28 481.5,709.5C 481.5,718.167 481.5,726.833 481.5,735.5C 469.86,742.835 458.86,750.835 448.5,759.5C 444.536,760.773 441.37,763.107 439,766.5C 438.829,758.656 438.329,750.989 437.5,743.5C 437.5,736.833 437.5,730.167 437.5,723.5C 437.5,705.167 437.5,686.833 437.5,668.5 Z"/></g>
<g><path style="opacity:1" fill="#f0df24" d="M 280.5,725.5 C 286.936,746.145 293.603,766.812 300.5,787.5C 299.883,787.389 299.383,787.056 299,786.5C 298.204,805.864 298.37,825.198 299.5,844.5C 291.67,828.684 285.003,812.351 279.5,795.5C 279.169,771.994 279.502,748.661 280.5,725.5 Z"/></g>
<g><path style="opacity:1" fill="#c0bdc2" d="M 423.5,697.5 C 423.5,709.5 423.5,721.5 423.5,733.5C 422.636,734.688 421.636,735.855 420.5,737C 416.854,739.302 413.187,741.636 409.5,744C 408.915,745.302 408.249,746.469 407.5,747.5C 407.5,737.167 407.5,726.833 407.5,716.5C 408.461,714.735 408.795,712.735 408.5,710.5C 412.453,708.242 416.453,705.909 420.5,703.5C 421.801,701.556 422.801,699.556 423.5,697.5 Z"/></g>
<g><path style="opacity:1" fill="#dad9dc" d="M 706.5,696.5 C 706.667,711.17 706.5,725.837 706,740.5C 702.61,743.71 698.777,746.377 694.5,748.5C 693.501,761.149 693.168,773.816 693.5,786.5C 692.503,767.341 692.17,748.007 692.5,728.5C 693.492,721.018 693.825,713.352 693.5,705.5C 698.343,703.245 702.676,700.245 706.5,696.5 Z"/></g>
<g><path style="opacity:1" fill="#5e5221" d="M 258.5,733.5 C 259.924,735.515 260.59,737.848 260.5,740.5C 259.076,738.485 258.41,736.152 258.5,733.5 Z"/></g>
<g><path style="opacity:1" fill="#dfdfe2" d="M 683.5,714.5 C 683.5,731.833 683.5,749.167 683.5,766.5C 682.508,758.684 682.174,750.684 682.5,742.5C 681.448,742.351 680.448,742.517 679.5,743C 664.914,754.085 649.914,764.585 634.5,774.5C 634.5,764.167 634.5,753.833 634.5,743.5C 635.158,744.398 635.824,745.398 636.5,746.5C 652.281,735.67 667.948,725.003 683.5,714.5 Z"/></g>
<g><path style="opacity:1" fill="#8a8a8c" d="M 377.5,755.5 C 377.5,775.833 377.5,796.167 377.5,816.5C 376.229,823.648 372.895,829.648 367.5,834.5C 370.768,835.487 374.102,835.82 377.5,835.5C 377.5,845.5 377.5,855.5 377.5,865.5C 368.833,865.5 360.167,865.5 351.5,865.5C 332.86,830.914 317.527,794.914 305.5,757.5C 329.143,755.51 353.143,754.843 377.5,755.5 Z"/></g>
<g><path style="opacity:1" fill="#4b4b4d" d="M 377.5,755.5 C 379.833,755.5 382.167,755.5 384.5,755.5C 385.582,774.065 384.082,792.398 380,810.5C 379.76,812.852 378.927,814.852 377.5,816.5C 377.5,796.167 377.5,775.833 377.5,755.5 Z"/></g>
<g><path style="opacity:1" fill="#8a8a8c" d="M 893.5,757.5 C 881.818,794.866 866.818,830.866 848.5,865.5C 838.5,865.5 828.5,865.5 818.5,865.5C 818.5,847.5 818.5,829.5 818.5,811.5C 820.121,809.883 822.121,808.716 824.5,808C 837.146,803.588 850.146,800.922 863.5,800C 849.615,787.643 838.281,773.476 829.5,757.5C 839.812,756.168 850.478,755.501 861.5,755.5C 872.522,755.501 883.188,756.168 893.5,757.5 Z"/></g>
<g><path style="opacity:1" fill="#d2d1d4" d="M 683.5,766.5 C 683.17,782.009 683.504,797.342 684.5,812.5C 684.44,813.043 684.107,813.376 683.5,813.5C 682.506,808.544 682.173,803.544 682.5,798.5C 682.666,788.161 682.5,777.828 682,767.5C 666.468,777.928 651.135,788.595 636,799.5C 635.79,797.942 635.29,796.609 634.5,795.5C 634.5,788.5 634.5,781.5 634.5,774.5C 649.914,764.585 664.914,754.085 679.5,743C 680.448,742.517 681.448,742.351 682.5,742.5C 682.174,750.684 682.508,758.684 683.5,766.5 Z"/></g>
<g><path style="opacity:1" fill="#f9f9fa" d="M 437.5,723.5 C 437.5,730.167 437.5,736.833 437.5,743.5C 437.779,766.188 437.779,788.854 437.5,811.5C 432.434,804.779 425.768,800.445 417.5,798.5C 419.978,790.028 421.645,781.361 422.5,772.5C 423.118,765.183 423.451,757.849 423.5,750.5C 424.329,742.343 424.829,734.01 425,725.5C 428.667,722.833 432.333,720.167 436,717.5C 436.191,719.708 436.691,721.708 437.5,723.5 Z"/></g>
<g><path style="opacity:1" fill="#b17e2a" d="M 918.5,722.5 C 917.199,748.313 917.199,773.98 918.5,799.5C 913.083,814.344 907.083,829.011 900.5,843.5C 899.208,823.313 899.208,802.98 900.5,782.5C 906.743,762.448 912.743,742.448 918.5,722.5 Z"/></g>
<g><path style="opacity:1" fill="#d9d9dc" d="M 423.5,733.5 C 423.5,739.167 423.5,744.833 423.5,750.5C 423.451,757.849 423.118,765.183 422.5,772.5C 417.242,776.141 411.909,779.807 406.5,783.5C 406.026,786.217 405.026,788.55 403.5,790.5C 404.716,783.868 405.716,777.201 406.5,770.5C 407.492,763.018 407.825,755.352 407.5,747.5C 408.249,746.469 408.915,745.302 409.5,744C 413.187,741.636 416.854,739.302 420.5,737C 421.636,735.855 422.636,734.688 423.5,733.5 Z"/></g>
<g><path style="opacity:1" fill="#b8b6b8" d="M 707.5,661.5 C 707.5,706.167 707.5,750.833 707.5,795.5C 706.793,797.134 705.627,798.468 704,799.5C 703.517,800.448 703.351,801.448 703.5,802.5C 698.987,797.97 695.654,792.637 693.5,786.5C 693.168,773.816 693.501,761.149 694.5,748.5C 698.777,746.377 702.61,743.71 706,740.5C 706.5,725.837 706.667,711.17 706.5,696.5C 706.172,684.655 706.505,672.988 707.5,661.5 Z"/></g>
<g><path style="opacity:1" fill="#98212b" d="M 816.5,776.5 C 823.125,783.268 830.792,788.768 839.5,793C 832.28,793.016 825.28,794.183 818.5,796.5C 817.927,789.808 817.261,783.141 816.5,776.5 Z"/></g>
<g><path style="opacity:1" fill="#eff1f3" d="M 481.5,735.5 C 481.17,752.009 481.504,768.342 482.5,784.5C 482.918,794.078 484.585,803.411 487.5,812.5C 488.041,815.652 487.041,818.152 484.5,820C 475.902,825.263 467.568,830.929 459.5,837C 457.35,838.411 455.016,839.245 452.5,839.5C 436.272,828.385 418.605,820.552 399.5,816C 398.919,815.107 398.585,814.107 398.5,813C 399.583,808.504 400.583,804.004 401.5,799.5C 402.924,797.485 403.59,795.152 403.5,792.5C 403.5,791.833 403.5,791.167 403.5,790.5C 405.026,788.55 406.026,786.217 406.5,783.5C 411.909,779.807 417.242,776.141 422.5,772.5C 421.645,781.361 419.978,790.028 417.5,798.5C 425.768,800.445 432.434,804.779 437.5,811.5C 437.779,788.854 437.779,766.188 437.5,743.5C 438.329,750.989 438.829,758.656 439,766.5C 441.37,763.107 444.536,760.773 448.5,759.5C 458.86,750.835 469.86,742.835 481.5,735.5 Z"/></g>
<g><path style="opacity:1" fill="#f1e626" d="M 300.5,787.5 C 316.833,830.499 337.166,871.499 361.5,910.5C 361.828,922.678 361.495,934.678 360.5,946.5C 336.131,915.125 315.797,881.125 299.5,844.5C 298.37,825.198 298.204,805.864 299,786.5C 299.383,787.056 299.883,787.389 300.5,787.5 Z"/></g>
<g><path style="opacity:1" fill="#c1bfc2" d="M 682.5,798.5 C 664.86,810.309 647.36,822.309 630,834.5C 629.51,833.207 629.343,831.873 629.5,830.5C 633.655,819.232 635.321,807.565 634.5,795.5C 635.29,796.609 635.79,797.942 636,799.5C 651.135,788.595 666.468,777.928 682,767.5C 682.5,777.828 682.666,788.161 682.5,798.5 Z"/></g>
<g><path style="opacity:1" fill="#7e7d7f" d="M 403.5,792.5 C 403.59,795.152 402.924,797.485 401.5,799.5C 401.41,796.848 402.076,794.515 403.5,792.5 Z"/></g>
<g><path style="opacity:1" fill="#b0acb0" d="M 707.5,795.5 C 709.345,799.819 712.178,803.486 716,806.5C 716.667,807.833 716.667,809.167 716,810.5C 699.049,816.25 683.216,824.084 668.5,834C 664.456,837.043 661.123,840.709 658.5,845C 656.833,845.667 655.167,845.667 653.5,845C 646.5,840.329 638.833,837.663 630.5,837C 628.392,834.984 628.058,832.817 629.5,830.5C 629.343,831.873 629.51,833.207 630,834.5C 647.36,822.309 664.86,810.309 682.5,798.5C 682.173,803.544 682.506,808.544 683.5,813.5C 684.107,813.376 684.44,813.043 684.5,812.5C 690.511,807.484 697.511,804.984 705.5,805C 704.619,804.292 703.953,803.458 703.5,802.5C 703.351,801.448 703.517,800.448 704,799.5C 705.627,798.468 706.793,797.134 707.5,795.5 Z"/></g>
<g><path style="opacity:1" fill="#4b4c4d" d="M 818.5,811.5 C 818.5,829.5 818.5,847.5 818.5,865.5C 792.995,865.831 767.661,865.498 742.5,864.5C 767.573,850.933 790.573,834.433 811.5,815C 813.527,813.121 815.86,811.954 818.5,811.5 Z"/></g>
<g><path style="opacity:1" fill="#dfe0e2" d="M 487.5,812.5 C 493.538,824.883 501.204,836.216 510.5,846.5C 510.877,848.258 511.544,849.925 512.5,851.5C 504.38,856.781 496.38,862.281 488.5,868C 487.181,868.195 485.847,868.028 484.5,867.5C 473.512,858.51 462.845,849.177 452.5,839.5C 455.016,839.245 457.35,838.411 459.5,837C 467.568,830.929 475.902,825.263 484.5,820C 487.041,818.152 488.041,815.652 487.5,812.5 Z"/></g>
<g><path style="opacity:1" fill="#4a4c4d" d="M 377.5,835.5 C 402.587,837.212 423.587,847.212 440.5,865.5C 419.5,865.5 398.5,865.5 377.5,865.5C 377.5,855.5 377.5,845.5 377.5,835.5 Z"/></g>
<g><path style="opacity:1" fill="#ae1e2d" d="M 598.5,819.5 C 606.966,831.297 617.633,840.63 630.5,847.5C 630.5,851.833 630.5,856.167 630.5,860.5C 629.167,860.5 627.833,860.5 626.5,860.5C 618.82,858.82 611.82,855.82 605.5,851.5C 606.5,851.5 607.5,851.5 608.5,851.5C 608.5,847.833 608.5,844.167 608.5,840.5C 609.497,840.53 610.164,840.03 610.5,839C 606.052,832.717 601.052,826.884 595.5,821.5C 596.496,821.414 597.329,821.748 598,822.5C 598.483,821.552 598.649,820.552 598.5,819.5 Z"/></g>
<g><path style="opacity:1" fill="#b41f24" d="M 710.5,838.5 C 709.645,839.531 708.978,840.697 708.5,842C 709.505,847.477 709.505,852.977 708.5,858.5C 707.292,859.234 705.959,859.567 704.5,859.5C 702.833,859.5 701.167,859.5 699.5,859.5C 699.226,854.737 699.559,850.07 700.5,845.5C 703.475,842.677 706.808,840.344 710.5,838.5 Z"/></g>
<g><path style="opacity:1" fill="#901b20" d="M 700.5,845.5 C 699.559,850.07 699.226,854.737 699.5,859.5C 701.167,859.5 702.833,859.5 704.5,859.5C 678.546,866.833 652.546,867.166 626.5,860.5C 627.833,860.5 629.167,860.5 630.5,860.5C 630.5,856.167 630.5,851.833 630.5,847.5C 654.072,857.289 677.405,856.623 700.5,845.5 Z"/></g>
<g><path style="opacity:1" fill="#a4752a" d="M 900.5,782.5 C 899.208,802.98 899.208,823.313 900.5,843.5C 874.854,902.314 839.187,954.147 793.5,999C 791.677,999.997 790.01,1001.16 788.5,1002.5C 788.666,993.494 788.5,984.494 788,975.5C 787.329,976.252 786.496,976.586 785.5,976.5C 797.912,963.924 809.412,950.59 820,936.5C 854.517,889.13 881.351,837.797 900.5,782.5 Z"/></g>
<g><path style="opacity:1" fill="#c9c8cb" d="M 510.5,846.5 C 515.843,852.843 521.843,858.509 528.5,863.5C 524.358,867.794 519.691,871.627 514.5,875C 510.845,877.827 506.845,879.993 502.5,881.5C 496.099,877.305 490.099,872.639 484.5,867.5C 485.847,868.028 487.181,868.195 488.5,868C 496.38,862.281 504.38,856.781 512.5,851.5C 511.544,849.925 510.877,848.258 510.5,846.5 Z"/></g>
<g><path style="opacity:1" fill="#282a2b" d="M 742.5,864.5 C 767.661,865.498 792.995,865.831 818.5,865.5C 818.17,881.675 818.504,897.675 819.5,913.5C 804.276,934.391 787.609,954.057 769.5,972.5C 756.677,971.505 743.677,971.171 730.5,971.5C 731.16,937.817 730.493,904.483 728.5,871.5C 733.37,869.732 738.036,867.399 742.5,864.5 Z"/></g>
<g><path style="opacity:1" fill="#4a4a4c" d="M 351.5,865.5 C 360.167,865.5 368.833,865.5 377.5,865.5C 377.5,879.5 377.5,893.5 377.5,907.5C 367.845,894.207 359.178,880.207 351.5,865.5 Z"/></g>
<g><path style="opacity:1" fill="#282a2b" d="M 377.5,865.5 C 398.5,865.5 419.5,865.5 440.5,865.5C 448.898,873.238 457.565,880.572 466.5,887.5C 465.502,915.662 465.169,943.995 465.5,972.5C 454.167,972.5 442.833,972.5 431.5,972.5C 411.268,952.609 393.268,930.942 377.5,907.5C 377.5,893.5 377.5,879.5 377.5,865.5 Z"/></g>
<g><path style="opacity:1" fill="#4a4a4c" d="M 818.5,865.5 C 828.5,865.5 838.5,865.5 848.5,865.5C 839.325,881.86 829.658,897.86 819.5,913.5C 818.504,897.675 818.17,881.675 818.5,865.5 Z"/></g>
<g><path style="opacity:1" fill="#a39ea2" d="M 542.5,899.5 C 553.575,892.284 564.575,884.784 575.5,877C 573.866,876.506 572.199,876.34 570.5,876.5C 581.951,874.196 592.451,869.529 602,862.5C 608.743,865.787 615.576,868.954 622.5,872C 623.935,874.267 623.602,876.267 621.5,878C 606.431,889.913 589.431,897.58 570.5,901C 562.833,901.667 555.167,901.667 547.5,901C 545.618,900.802 543.952,900.302 542.5,899.5 Z"/></g>
<g><path style="opacity:1" fill="#bcb9bc" d="M 528.5,863.5 C 534.721,868.072 541.388,871.739 548.5,874.5C 540.828,880.002 533.162,885.502 525.5,891C 523.866,891.494 522.199,891.66 520.5,891.5C 513.879,889.192 507.879,885.858 502.5,881.5C 506.845,879.993 510.845,877.827 514.5,875C 519.691,871.627 524.358,867.794 528.5,863.5 Z"/></g>
<g><path style="opacity:1" fill="#4a4a4d" d="M 728.5,871.5 C 730.493,904.483 731.16,937.817 730.5,971.5C 743.677,971.171 756.677,971.505 769.5,972.5C 757.117,984.55 744.117,995.884 730.5,1006.5C 730.5,995.167 730.5,983.833 730.5,972.5C 711.659,972.17 692.993,972.503 674.5,973.5C 666.45,960.12 655.45,949.786 641.5,942.5C 641.5,924.5 641.5,906.5 641.5,888.5C 645.375,887.03 649.375,885.863 653.5,885C 668.471,883.335 683.471,882.002 698.5,881C 708.945,879.129 718.945,875.962 728.5,871.5 Z"/></g>
<g><path style="opacity:1" fill="#afabae" d="M 548.5,874.5 C 555.752,875.938 563.086,876.604 570.5,876.5C 572.199,876.34 573.866,876.506 575.5,877C 564.575,884.784 553.575,892.284 542.5,899.5C 534.455,898.464 527.122,895.797 520.5,891.5C 522.199,891.66 523.866,891.494 525.5,891C 533.162,885.502 540.828,880.002 548.5,874.5 Z"/></g>
<g><path style="opacity:1" fill="#282a2b" d="M 641.5,888.5 C 641.5,906.5 641.5,924.5 641.5,942.5C 619.733,931.765 597.067,929.598 573.5,936C 566.412,938.378 559.746,941.545 553.5,945.5C 553.5,937.833 553.5,930.167 553.5,922.5C 545.257,922.935 537.257,922.269 529.5,920.5C 560.549,924.123 589.549,917.956 616.5,902C 623.685,895.407 632.019,890.907 641.5,888.5 Z"/></g>
<g><path style="opacity:1" fill="#4a4a4d" d="M 466.5,887.5 C 476.612,895.728 487.279,903.228 498.5,910C 508.279,915.193 518.613,918.693 529.5,920.5C 537.257,922.269 545.257,922.935 553.5,922.5C 553.5,930.167 553.5,937.833 553.5,945.5C 541.781,952.552 532.448,961.886 525.5,973.5C 505.674,972.503 485.674,972.17 465.5,972.5C 465.169,943.995 465.502,915.662 466.5,887.5 Z"/></g>
<g><path style="opacity:1" fill="#f2df23" d="M 361.5,910.5 C 369.802,921.81 378.135,933.143 386.5,944.5C 387.285,950.128 387.952,955.795 388.5,961.5C 388.38,967.269 387.38,972.603 385.5,977.5C 376.035,968.04 367.702,957.707 360.5,946.5C 361.495,934.678 361.828,922.678 361.5,910.5 Z"/></g>
<g><path style="opacity:1" fill="#edd30b" d="M 631.5,946.5 C 630.504,946.414 629.671,946.748 629,947.5C 628.782,950.426 628.282,953.26 627.5,956C 629.119,956.236 630.119,957.069 630.5,958.5C 615.542,951.654 599.876,949.654 583.5,952.5C 582.5,952.5 581.5,952.5 580.5,952.5C 580.5,949.167 580.5,945.833 580.5,942.5C 581.791,942.737 582.791,942.404 583.5,941.5C 600.04,937.738 616.04,939.405 631.5,946.5 Z"/></g>
<g><path style="opacity:1" fill="#f0c710" d="M 631.5,946.5 C 633.954,947.227 636.287,948.227 638.5,949.5C 638.964,952.136 639.297,954.803 639.5,957.5C 639.444,959.64 638.777,961.306 637.5,962.5C 635.184,961.194 632.85,959.861 630.5,958.5C 630.119,957.069 629.119,956.236 627.5,956C 628.282,953.26 628.782,950.426 629,947.5C 629.671,946.748 630.504,946.414 631.5,946.5 Z"/></g>
<g><path style="opacity:1" fill="#f3b215" d="M 583.5,941.5 C 582.791,942.404 581.791,942.737 580.5,942.5C 580.5,945.833 580.5,949.167 580.5,952.5C 581.5,952.5 582.5,952.5 583.5,952.5C 562.578,959.579 547.412,973.246 538,993.5C 536.355,999.079 535.188,1004.75 534.5,1010.5C 533.346,1016.99 533.179,1023.65 534,1030.5C 534.757,1032.31 535.59,1033.98 536.5,1035.5C 543.932,1055.6 557.266,1070.26 576.5,1079.5C 575.518,1082.96 575.185,1086.63 575.5,1090.5C 576.791,1090.26 577.791,1090.6 578.5,1091.5C 548.749,1082.91 529.916,1063.58 522,1033.5C 516.35,990.85 533.184,961.017 572.5,944C 576.112,942.85 579.778,942.017 583.5,941.5 Z"/></g>
<g><path style="opacity:1" fill="#282324" d="M 630.5,958.5 C 632.85,959.861 635.184,961.194 637.5,962.5C 665.855,984.894 673.022,1012.89 659,1046.5C 653.771,1055.89 646.938,1063.89 638.5,1070.5C 633.099,1074.07 627.432,1077.07 621.5,1079.5C 620.391,1079.56 619.391,1079.89 618.5,1080.5C 604.416,1083.38 590.416,1083.04 576.5,1079.5C 557.266,1070.26 543.932,1055.6 536.5,1035.5C 534.765,1027.29 534.098,1018.95 534.5,1010.5C 535.188,1004.75 536.355,999.079 538,993.5C 547.412,973.246 562.578,959.579 583.5,952.5C 599.876,949.654 615.542,951.654 630.5,958.5 Z"/></g>
<g><path style="opacity:1" fill="#e9a61d" d="M 638.5,949.5 C 660.279,961.623 673.612,979.957 678.5,1004.5C 678.716,1013.53 678.383,1022.53 677.5,1031.5C 673.135,1053.9 661.135,1070.9 641.5,1082.5C 641.666,1078.15 641.499,1073.82 641,1069.5C 640.329,1070.25 639.496,1070.59 638.5,1070.5C 646.938,1063.89 653.771,1055.89 659,1046.5C 673.022,1012.89 665.855,984.894 637.5,962.5C 638.777,961.306 639.444,959.64 639.5,957.5C 639.297,954.803 638.964,952.136 638.5,949.5 Z"/></g>
<g><path style="opacity:1" fill="#948f94" d="M 629.5,968.5 C 628.127,968.343 626.793,968.51 625.5,969C 623.792,971.043 621.792,972.71 619.5,974C 614.134,979.286 609.134,984.786 604.5,990.5C 604.5,980.167 604.5,969.833 604.5,959.5C 613.308,961.443 621.641,964.443 629.5,968.5 Z"/></g>
<g><path style="opacity:1" fill="#f3cf19" d="M 386.5,944.5 C 393.804,952.808 401.138,961.141 408.5,969.5C 408.666,979.506 408.5,989.506 408,999.5C 407.329,998.748 406.496,998.414 405.5,998.5C 398.131,992.132 391.464,985.132 385.5,977.5C 387.38,972.603 388.38,967.269 388.5,961.5C 387.952,955.795 387.285,950.128 386.5,944.5 Z"/></g>
<g><path style="opacity:1" fill="#b6acb3" d="M 591.5,960.5 C 592.376,960.369 593.043,960.702 593.5,961.5C 591.639,962.528 590.305,964.028 589.5,966C 588.552,966.483 587.552,966.649 586.5,966.5C 586.649,967.552 586.483,968.552 586,969.5C 579.978,974.513 573.644,979.179 567,983.5C 566.329,982.748 565.496,982.414 564.5,982.5C 562.856,980.519 561.19,978.519 559.5,976.5C 568.458,967.946 579.125,962.613 591.5,960.5 Z"/></g>
<g><path style="opacity:1" fill="#4a4c4d" d="M 431.5,972.5 C 442.833,972.5 454.167,972.5 465.5,972.5C 465.5,982.5 465.5,992.5 465.5,1002.5C 453.271,993.609 441.937,983.609 431.5,972.5 Z"/></g>
<g><path style="opacity:1" fill="#89898b" d="M 465.5,972.5 C 485.674,972.17 505.674,972.503 525.5,973.5C 519.226,982.479 515.392,992.479 514,1003.5C 513.178,1014.94 513.511,1026.28 515,1037.5C 497.468,1027.16 480.968,1015.5 465.5,1002.5C 465.5,992.5 465.5,982.5 465.5,972.5 Z"/></g>
<g><path style="opacity:1" fill="#89898b" d="M 730.5,1006.5 C 716.333,1018.14 701.167,1028.48 685,1037.5C 689.812,1014.74 686.312,993.402 674.5,973.5C 692.993,972.503 711.659,972.17 730.5,972.5C 730.5,983.833 730.5,995.167 730.5,1006.5 Z"/></g>
<g><path style="opacity:1" fill="#f7eff2" d="M 632.5,970.5 C 635.455,972.122 638.122,974.122 640.5,976.5C 630.203,986.098 623.87,997.765 621.5,1011.5C 616.167,1011.5 610.833,1011.5 605.5,1011.5C 605.334,1005.49 605.501,999.491 606,993.5C 613.104,986.565 619.937,979.565 626.5,972.5C 628.173,970.914 630.173,970.247 632.5,970.5 Z"/></g>
<g><path style="opacity:1" fill="#938e94" d="M 591.5,960.5 C 592.542,959.209 593.708,959.209 595,960.5C 595.5,973.496 595.667,986.496 595.5,999.5C 594.732,998.737 594.232,997.737 594,996.5C 589.454,1000.71 584.621,1004.55 579.5,1008C 578.663,1009.01 578.33,1010.18 578.5,1011.5C 576.518,1000.56 571.852,990.897 564.5,982.5C 565.496,982.414 566.329,982.748 567,983.5C 573.644,979.179 579.978,974.513 586,969.5C 586.483,968.552 586.649,967.552 586.5,966.5C 587.552,966.649 588.552,966.483 589.5,966C 590.305,964.028 591.639,962.528 593.5,961.5C 593.043,960.702 592.376,960.369 591.5,960.5 Z"/></g>
<g><path style="opacity:1" fill="#f1e9ec" d="M 644.5,984.5 C 647.385,985.545 649.552,987.545 651,990.5C 654.485,997.455 656.652,1004.79 657.5,1012.5C 648.833,1012.5 640.167,1012.5 631.5,1012.5C 632.757,1001.72 637.09,992.391 644.5,984.5 Z"/></g>
<g><path style="opacity:1" fill="#f6c415" d="M 408.5,969.5 C 416.806,978.14 425.139,986.807 433.5,995.5C 434.399,1004.97 434.066,1014.3 432.5,1023.5C 423.173,1015.51 414.173,1007.17 405.5,998.5C 406.496,998.414 407.329,998.748 408,999.5C 408.5,989.506 408.666,979.506 408.5,969.5 Z"/></g>
<g><path style="opacity:1" fill="#b68329" d="M 788.5,1002.5 C 782.924,1008.62 776.924,1014.29 770.5,1019.5C 770.666,1010.83 770.5,1002.16 770,993.5C 769.329,994.252 768.496,994.586 767.5,994.5C 773.86,988.806 779.86,982.806 785.5,976.5C 786.496,976.586 787.329,976.252 788,975.5C 788.5,984.494 788.666,993.494 788.5,1002.5 Z"/></g>
<g><path style="opacity:1" fill="#9a949a" d="M 552.5,984.5 C 554.903,984.393 556.736,985.393 558,987.5C 563.747,994.913 567.247,1003.25 568.5,1012.5C 559.833,1012.5 551.167,1012.5 542.5,1012.5C 543.662,1002.34 546.996,993.01 552.5,984.5 Z"/></g>
<g><path style="opacity:1" fill="#c68e26" d="M 770.5,1019.5 C 766.828,1023 762.828,1026 758.5,1028.5C 758.666,1020.49 758.5,1012.49 758,1004.5C 757.329,1005.25 756.496,1005.59 755.5,1005.5C 759.079,1001.38 763.079,997.71 767.5,994.5C 768.496,994.586 769.329,994.252 770,993.5C 770.5,1002.16 770.666,1010.83 770.5,1019.5 Z"/></g>
<g><path style="opacity:1" fill="#d3cbcf" d="M 629.5,968.5 C 630.71,968.932 631.71,969.599 632.5,970.5C 630.173,970.247 628.173,970.914 626.5,972.5C 619.937,979.565 613.104,986.565 606,993.5C 605.501,999.491 605.334,1005.49 605.5,1011.5C 610.833,1011.5 616.167,1011.5 621.5,1011.5C 616.025,1012.49 610.358,1012.82 604.5,1012.5C 604.5,1005.17 604.5,997.833 604.5,990.5C 609.134,984.786 614.134,979.286 619.5,974C 621.792,972.71 623.792,971.043 625.5,969C 626.793,968.51 628.127,968.343 629.5,968.5 Z"/></g>
<g><path style="opacity:1" fill="#b8b1b6" d="M 595.5,999.5 C 595.5,1003.83 595.5,1008.17 595.5,1012.5C 589.642,1012.82 583.975,1012.49 578.5,1011.5C 578.33,1010.18 578.663,1009.01 579.5,1008C 584.621,1004.55 589.454,1000.71 594,996.5C 594.232,997.737 594.732,998.737 595.5,999.5 Z"/></g>
<g><path style="opacity:1" fill="#e6dee2" d="M 592.5,1001.5 C 594.402,1004.34 595.069,1007.67 594.5,1011.5C 590.818,1011.67 587.152,1011.5 583.5,1011C 586.743,1007.93 589.743,1004.76 592.5,1001.5 Z"/></g>
<g><path style="opacity:1" fill="#f6b414" d="M 433.5,995.5 C 461.141,1019.63 491.141,1040.46 523.5,1058C 537.52,1080.82 557.52,1094.99 583.5,1100.5C 582.167,1100.5 580.833,1100.5 579.5,1100.5C 578.873,1105.07 579.873,1109.07 582.5,1112.5C 526.807,1092 476.807,1062.34 432.5,1023.5C 434.066,1014.3 434.399,1004.97 433.5,995.5 Z"/></g>
<g><path style="opacity:1" fill="#7c5c1f" d="M 678.5,1004.5 C 679.656,1012.32 679.823,1020.32 679,1028.5C 678.768,1029.74 678.268,1030.74 677.5,1031.5C 678.383,1022.53 678.716,1013.53 678.5,1004.5 Z"/></g>
<g><path style="opacity:1" fill="#db9c22" d="M 758.5,1028.5 C 751.024,1035.98 742.691,1042.31 733.5,1047.5C 734.132,1039.43 733.465,1031.76 731.5,1024.5C 739.097,1017.7 747.097,1011.36 755.5,1005.5C 756.496,1005.59 757.329,1005.25 758,1004.5C 758.5,1012.49 758.666,1020.49 758.5,1028.5 Z"/></g>
<g><path style="opacity:1" fill="#908b91" d="M 568.5,1022.5 C 562.921,1024.22 558.588,1027.72 555.5,1033C 551.582,1034.08 549.248,1036.58 548.5,1040.5C 545.432,1034.58 543.432,1028.25 542.5,1021.5C 551.349,1021.17 560.016,1021.51 568.5,1022.5 Z"/></g>
<g><path style="opacity:1" fill="#f8f0f3" d="M 578.5,1022.5 C 583.833,1022.5 589.167,1022.5 594.5,1022.5C 594.5,1039.5 594.5,1056.5 594.5,1073.5C 593.5,1073.5 592.5,1073.5 591.5,1073.5C 578.904,1071.87 568.237,1066.54 559.5,1057.5C 566.423,1050.66 571.59,1042.66 575,1033.5C 575.882,1030.21 576.548,1026.88 577,1023.5C 577.383,1022.94 577.883,1022.61 578.5,1022.5 Z"/></g>
<g><path style="opacity:1" fill="#efe8ec" d="M 631.5,1022.5 C 639.84,1022.33 648.173,1022.5 656.5,1023C 652.5,1027 648.5,1031 644.5,1035C 642.22,1035.23 640.22,1036.07 638.5,1037.5C 637.735,1036.39 636.735,1035.72 635.5,1035.5C 633.088,1031.52 631.755,1027.19 631.5,1022.5 Z"/></g>
<g><path style="opacity:1" fill="#f4ecf0" d="M 621.5,1022.5 C 623.684,1030.71 626.684,1038.71 630.5,1046.5C 630.736,1049.23 629.903,1051.56 628,1053.5C 621.042,1059.75 613.876,1065.75 606.5,1071.5C 605.501,1055.18 605.167,1038.85 605.5,1022.5C 610.833,1022.5 616.167,1022.5 621.5,1022.5 Z"/></g>
<g><path style="opacity:1" fill="#d3cdd1" d="M 631.5,1022.5 C 639.984,1021.51 648.651,1021.17 657.5,1021.5C 656.628,1026.24 655.462,1030.91 654,1035.5C 653.392,1037.07 652.558,1038.4 651.5,1039.5C 649.338,1039.9 648.005,1041.23 647.5,1043.5C 645.677,1044.75 643.677,1045.41 641.5,1045.5C 639.102,1042.43 637.102,1039.1 635.5,1035.5C 636.735,1035.72 637.735,1036.39 638.5,1037.5C 640.22,1036.07 642.22,1035.23 644.5,1035C 648.5,1031 652.5,1027 656.5,1023C 648.173,1022.5 639.84,1022.33 631.5,1022.5 Z"/></g>
<g><path style="opacity:1" fill="#b68822" d="M 534.5,1010.5 C 534.098,1018.95 534.765,1027.29 536.5,1035.5C 535.59,1033.98 534.757,1032.31 534,1030.5C 533.179,1023.65 533.346,1016.99 534.5,1010.5 Z"/></g>
<g><path style="opacity:1" fill="#c3bcbf" d="M 578.5,1022.5 C 583.975,1021.51 589.642,1021.18 595.5,1021.5C 595.5,1039.17 595.5,1056.83 595.5,1074.5C 593.901,1074.77 592.568,1074.43 591.5,1073.5C 592.5,1073.5 593.5,1073.5 594.5,1073.5C 594.5,1056.5 594.5,1039.5 594.5,1022.5C 589.167,1022.5 583.833,1022.5 578.5,1022.5 Z"/></g>
<g><path style="opacity:1" fill="#d7cfd4" d="M 568.5,1022.5 C 566.714,1032.57 562.38,1041.41 555.5,1049C 554.216,1049.68 553.049,1049.52 552,1048.5C 550.546,1045.93 549.38,1043.26 548.5,1040.5C 549.248,1036.58 551.582,1034.08 555.5,1033C 558.588,1027.72 562.921,1024.22 568.5,1022.5 Z"/></g>
<g><path style="opacity:1" fill="#eaa61d" d="M 731.5,1024.5 C 733.465,1031.76 734.132,1039.43 733.5,1047.5C 704.586,1068.47 673.586,1086.13 640.5,1100.5C 641.01,1097.61 640.344,1095.28 638.5,1093.5C 645.782,1089.18 652.782,1084.35 659.5,1079C 665.925,1072.58 671.591,1065.58 676.5,1058C 695.527,1047.77 713.86,1036.61 731.5,1024.5 Z"/></g>
<g><path style="opacity:1" fill="#9f969d" d="M 651.5,1039.5 C 651.145,1043.1 649.811,1046.27 647.5,1049C 644.696,1049.39 642.696,1048.22 641.5,1045.5C 643.677,1045.41 645.677,1044.75 647.5,1043.5C 648.005,1041.23 649.338,1039.9 651.5,1039.5 Z"/></g>
<g><path style="opacity:1" fill="#d3ccd0" d="M 621.5,1022.5 C 616.167,1022.5 610.833,1022.5 605.5,1022.5C 605.167,1038.85 605.501,1055.18 606.5,1071.5C 613.876,1065.75 621.042,1059.75 628,1053.5C 629.903,1051.56 630.736,1049.23 630.5,1046.5C 631.167,1046.5 631.5,1046.83 631.5,1047.5C 631.678,1048.69 632.011,1049.86 632.5,1051C 627.767,1058.57 622.1,1065.4 615.5,1071.5C 612.088,1072.19 608.754,1073.19 605.5,1074.5C 604.5,1056.85 604.167,1039.18 604.5,1021.5C 610.358,1021.18 616.025,1021.51 621.5,1022.5 Z"/></g>
<g><path style="opacity:1" fill="#b0a7ad" d="M 631.5,1047.5 C 634.101,1050.6 636.934,1053.6 640,1056.5C 640.667,1057.17 640.667,1057.83 640,1058.5C 632.894,1064.8 624.727,1069.14 615.5,1071.5C 622.1,1065.4 627.767,1058.57 632.5,1051C 632.011,1049.86 631.678,1048.69 631.5,1047.5 Z"/></g>
<g><path style="opacity:1" fill="#ebc311" d="M 641.5,1082.5 C 636.516,1085.66 631.182,1088.33 625.5,1090.5C 626.596,1086.59 626.762,1082.59 626,1078.5C 624.644,1079.38 623.144,1079.71 621.5,1079.5C 627.432,1077.07 633.099,1074.07 638.5,1070.5C 639.496,1070.59 640.329,1070.25 641,1069.5C 641.499,1073.82 641.666,1078.15 641.5,1082.5 Z"/></g>
<g><path style="opacity:1" fill="#e7c50e" d="M 576.5,1079.5 C 590.416,1083.04 604.416,1083.38 618.5,1080.5C 616.438,1081.78 614.104,1082.61 611.5,1083C 603.507,1083.5 595.507,1083.67 587.5,1083.5C 587.5,1086.83 587.5,1090.17 587.5,1093.5C 584.37,1093.3 581.37,1092.63 578.5,1091.5C 577.791,1090.6 576.791,1090.26 575.5,1090.5C 575.185,1086.63 575.518,1082.96 576.5,1079.5 Z"/></g>
<g><path style="opacity:1" fill="#f0d70a" d="M 625.5,1090.5 C 612.944,1094.44 600.277,1095.44 587.5,1093.5C 587.5,1090.17 587.5,1086.83 587.5,1083.5C 595.507,1083.67 603.507,1083.5 611.5,1083C 614.104,1082.61 616.438,1081.78 618.5,1080.5C 619.391,1079.89 620.391,1079.56 621.5,1079.5C 623.144,1079.71 624.644,1079.38 626,1078.5C 626.762,1082.59 626.596,1086.59 625.5,1090.5 Z"/></g>
<g><path style="opacity:1" fill="#eac80e" d="M 638.5,1093.5 C 640.344,1095.28 641.01,1097.61 640.5,1100.5C 633.328,1103.89 625.994,1106.89 618.5,1109.5C 618.5,1106.83 618.5,1104.17 618.5,1101.5C 608.194,1102.37 597.86,1102.7 587.5,1102.5C 587.237,1106.6 587.57,1110.6 588.5,1114.5C 586.302,1114.12 584.302,1113.46 582.5,1112.5C 579.873,1109.07 578.873,1105.07 579.5,1100.5C 580.833,1100.5 582.167,1100.5 583.5,1100.5C 602.489,1102.93 620.822,1100.6 638.5,1093.5 Z"/></g>
<g><path style="opacity:1" fill="#f2d909" d="M 618.5,1109.5 C 611.443,1112.39 604.276,1115.06 597,1117.5C 593.892,1116.97 591.059,1115.97 588.5,1114.5C 587.57,1110.6 587.237,1106.6 587.5,1102.5C 597.86,1102.7 608.194,1102.37 618.5,1101.5C 618.5,1104.17 618.5,1106.83 618.5,1109.5 Z"/></g>
</svg>
