<?xml version="1.0" encoding="UTF-8"?>
<!DOCTYPE svg PUBLIC "-//W3C//DTD SVG 1.1//EN" "http://www.w3.org/Graphics/SVG/1.1/DTD/svg11.dtd">
<svg xmlns="http://www.w3.org/2000/svg" version="1.1" width="4169px" height="4169px" style="shape-rendering:geometricPrecision; text-rendering:geometricPrecision; image-rendering:optimizeQuality; fill-rule:evenodd; clip-rule:evenodd" xmlns:xlink="http://www.w3.org/1999/xlink">
<g><path style="opacity:0.999" fill="#000000" d="M 2365.5,866.5 C 2430.27,862.152 2487.94,879.985 2538.5,920C 2549.67,930.5 2560.83,941 2572,951.5C 2583.36,969.367 2594.53,987.367 2605.5,1005.5C 3016.85,1006.01 3428.18,1006.84 3839.5,1008C 3950.89,1021.57 4034.39,1076.74 4090,1173.5C 4131.82,1253.9 4139.82,1337.57 4114,1424.5C 4100.97,1464.92 4080.97,1501.25 4054,1533.5C 4037.03,1551.47 4019.7,1569.14 4002,1586.5C 4002.28,1958.5 4001.95,2330.5 4001,2702.5C 3988.17,2817.74 3931.67,2903.91 3831.5,2961C 3614.46,3066.34 3390.79,3155.34 3160.5,3228C 3010.08,3275.61 2858.08,3317.61 2704.5,3354C 2702.69,3367.93 2701.86,3382.09 2702,3396.5C 2700.18,3412.29 2692.68,3424.45 2679.5,3433C 2605.72,3471.49 2528.05,3499.49 2446.5,3517C 2312.07,3546.25 2176.07,3558.92 2038.5,3555C 1932.29,3552.9 1827.29,3540.57 1723.5,3518C 1643.35,3500.73 1566.68,3473.73 1493.5,3437C 1479.52,3430.36 1469.69,3419.86 1464,3405.5C 1463.12,3402.21 1462.45,3398.88 1462,3395.5C 1461.5,3381.5 1461.33,3367.5 1461.5,3353.5C 1172.53,3286.45 890.526,3197.62 615.5,3087C 516.474,3046.82 419.141,3002.82 323.5,2955C 240.126,2904.22 188.626,2830.72 169,2734.5C 166.235,2719.29 164.569,2703.95 164,2688.5C 163.667,2321.17 163.333,1953.83 163,1586.5C 150,1573.5 137,1560.5 124,1547.5C 46.5628,1460.76 20.8961,1360.43 47,1246.5C 79.7231,1132.78 152.223,1057.28 264.5,1020C 288.993,1012.75 313.993,1008.42 339.5,1007C 948.5,1006.67 1557.5,1006.33 2166.5,1006C 2177.46,988.584 2188.29,971.084 2199,953.5C 2243.27,902.951 2298.77,873.951 2365.5,866.5 Z"/></g>
<g><path style="opacity:1" fill="#e0b662" d="M 2372.5,994.5 C 2412.16,991.325 2445.33,1004.33 2472,1033.5C 2492.71,1067.08 2513.54,1100.58 2534.5,1134C 2963.5,1134.33 3392.5,1134.67 3821.5,1135C 3896.66,1143.13 3950.82,1180.97 3984,1248.5C 4011.15,1314.73 4005.15,1377.73 3966,1437.5C 3960.67,1444.17 3955.33,1450.83 3950,1457.5C 3924.67,1482.83 3899.33,1508.17 3874,1533.5C 3874.33,1920.17 3873.99,2306.83 3873,2693.5C 3865.49,2758.4 3834.32,2808.23 3779.5,2843C 3599.22,2931.47 3413.88,3007.8 3223.5,3072C 3033.32,3136.25 2840.48,3191.09 2645,3236.5C 2644.5,3214.17 2644.33,3191.84 2644.5,3169.5C 2936.94,3102.52 3221.94,3012.35 3499.5,2899C 3583.87,2864.31 3666.87,2826.65 3748.5,2786C 3785.18,2761.83 3805.35,2727.66 3809,2683.5C 3809.97,2290.83 3810.3,1898.16 3810,1505.5C 3842,1473.5 3874,1441.5 3906,1409.5C 3933.45,1374.69 3941.78,1335.69 3931,1292.5C 3915.5,1244 3883,1213.83 3833.5,1202C 3828.53,1201.11 3823.53,1200.45 3818.5,1200C 3378.5,1199.67 2938.5,1199.33 2498.5,1199C 2472.54,1157.58 2446.71,1116.08 2421,1074.5C 2407.52,1060.8 2391.35,1056.3 2372.5,1061C 2364.14,1063.6 2356.97,1068.1 2351,1074.5C 2325.56,1116.27 2299.73,1157.77 2273.5,1199C 1630.5,1199.33 987.5,1199.67 344.5,1200C 287.991,1208.51 251.158,1240.01 234,1294.5C 223.552,1340.29 233.885,1380.62 265,1415.5C 295.333,1445.83 325.667,1476.17 356,1506.5C 356.333,1899.83 356.667,2293.17 357,2686.5C 361.535,2728.43 381.035,2761.26 415.5,2785C 555.556,2854.03 698.889,2915.36 845.5,2969C 1066.71,3049.8 1292.05,3116.64 1521.5,3169.5C 1521.83,3191.84 1521.5,3214.18 1520.5,3236.5C 1229.45,3169.78 945.448,3080.95 668.5,2970C 574.866,2931.69 482.533,2890.35 391.5,2846C 335.248,2812.7 302.415,2763.53 293,2698.5C 292.667,2310.17 292.333,1921.83 292,1533.5C 265.333,1506.83 238.667,1480.17 212,1453.5C 164.627,1394.6 153.294,1329.27 178,1257.5C 203.162,1196.34 247.662,1157.17 311.5,1140C 322.036,1137.49 332.703,1135.83 343.5,1135C 975.029,1135.04 1606.7,1134.54 2238.5,1133.5C 2259.33,1099.83 2280.17,1066.17 2301,1032.5C 2320.59,1011.79 2344.43,999.12 2372.5,994.5 Z"/></g>
<g><path style="opacity:1" fill="#fefefe" d="M 2384.5,1183.5 C 2385.5,1316.67 2385.83,1450 2385.5,1583.5C 2326.45,1721.27 2267.12,1858.93 2207.5,1996.5C 2064.08,1752.31 1921.25,1507.98 1779,1263.5C 1903.76,1405.35 2028.76,1547.02 2154,1688.5C 2230.83,1520.17 2307.66,1351.84 2384.5,1183.5 Z"/></g>
<g><path style="opacity:1" fill="#c5c4c4" d="M 2385.5,1583.5 C 2385.83,1450 2385.5,1316.67 2384.5,1183.5C 2384.99,1182.53 2385.49,1181.53 2386,1180.5C 2462.18,1349.53 2538.35,1518.53 2614.5,1687.5C 2740.79,1546.92 2866.63,1405.92 2992,1264.5C 2992.72,1263.55 2993.55,1263.38 2994.5,1264C 2849.54,1508.08 2704.71,1752.25 2560,1996.5C 2501.8,1858.77 2443.63,1721.11 2385.5,1583.5 Z"/></g>
<g><path style="opacity:1" fill="#7e7e7e" d="M 792.5,1327.5 C 647.666,1327.17 502.999,1327.5 358.5,1328.5C 357.957,1328.44 357.624,1328.11 357.5,1327.5C 502.666,1326.17 647.666,1326.17 792.5,1327.5 Z"/></g>
<g><path style="opacity:1" fill="#fefefe" d="M 358.5,1328.5 C 502.999,1327.5 647.666,1327.17 792.5,1327.5C 859.352,1327.39 923.685,1339.89 985.5,1365C 1089.93,1416.48 1151.1,1499.98 1169,1615.5C 1173.89,1657.87 1173.55,1700.21 1168,1742.5C 1162.17,1784.35 1147.5,1822.69 1124,1857.5C 1098.5,1896.33 1066.33,1928.5 1027.5,1954C 989.962,1975.4 949.629,1988.4 906.5,1993C 894.23,1994.76 881.896,1995.76 869.5,1996C 741.167,1996.5 612.834,1996.67 484.5,1996.5C 484.333,1825.17 484.5,1653.83 485,1482.5C 493.863,1491.7 503.03,1500.53 512.5,1509C 522.495,1510 526.661,1505.5 525,1495.5C 469.993,1439.33 414.493,1383.66 358.5,1328.5 Z"/></g>
<g><path style="opacity:1" fill="#7f7f7f" d="M 1698.5,1327.5 C 1546.5,1327.5 1394.5,1327.5 1242.5,1327.5C 1242.5,1550.5 1242.5,1773.5 1242.5,1996.5C 1241.5,1773.33 1241.17,1550 1241.5,1326.5C 1394,1326.17 1546.33,1326.5 1698.5,1327.5 Z"/></g>
<g><path style="opacity:1" fill="#fefefe" d="M 1698.5,1327.5 C 1712.15,1372.08 1725.48,1416.75 1738.5,1461.5C 1640.5,1461.5 1542.5,1461.5 1444.5,1461.5C 1444.5,1502.17 1444.5,1542.83 1444.5,1583.5C 1537.67,1584.5 1631,1584.83 1724.5,1584.5C 1724.5,1629.17 1724.5,1673.83 1724.5,1718.5C 1631,1718.17 1537.67,1718.5 1444.5,1719.5C 1444.5,1766.83 1444.5,1814.17 1444.5,1861.5C 1545.5,1861.5 1646.5,1861.5 1747.5,1861.5C 1747.5,1906.5 1747.5,1951.5 1747.5,1996.5C 1579.17,1996.5 1410.83,1996.5 1242.5,1996.5C 1242.5,1773.5 1242.5,1550.5 1242.5,1327.5C 1394.5,1327.5 1546.5,1327.5 1698.5,1327.5 Z"/></g>
<g><path style="opacity:1" fill="#fefefe" d="M 3164.5,1326.5 C 3298.83,1326.33 3433.17,1326.5 3567.5,1327C 3512,1382.5 3456.5,1438 3401,1493.5C 3397.96,1500.09 3399.46,1505.25 3405.5,1509C 3408.59,1509.65 3411.59,1509.32 3414.5,1508C 3426.67,1495.83 3438.83,1483.67 3451,1471.5C 3528.42,1646.02 3605.59,1820.69 3682.5,1995.5C 3613.5,1996.83 3544.5,1996.83 3475.5,1995.5C 3457.63,1950.93 3439.63,1906.43 3421.5,1862C 3324.5,1861.33 3227.5,1861.33 3130.5,1862C 3112.07,1906.44 3093.74,1950.94 3075.5,1995.5C 3006.5,1996.83 2937.5,1996.83 2868.5,1995.5C 2967.46,1772.59 3066.12,1549.59 3164.5,1326.5 Z"/></g>
<g><path style="opacity:1" fill="#b58f4c" d="M 2147.5,1587.5 C 2136.07,1500.78 2123.07,1414.45 2108.5,1328.5C 2108.78,1327.71 2109.28,1327.04 2110,1326.5C 2147.65,1367.65 2185.48,1408.65 2223.5,1449.5C 2198.5,1496.17 2173.5,1542.83 2148.5,1589.5C 2147.7,1589.04 2147.37,1588.38 2147.5,1587.5 Z"/></g>
<g><path style="opacity:1" fill="#b58f4c" d="M 2622.5,1587.5 C 2623.12,1587.39 2623.62,1587.06 2624,1586.5C 2636.13,1501.61 2648.63,1416.78 2661.5,1332C 2661.47,1330.93 2661.14,1330.1 2660.5,1329.5C 2661.14,1327.67 2662.14,1327.33 2663.5,1328.5C 2686.17,1377.17 2708.83,1425.83 2731.5,1474.5C 2695.67,1512.83 2659.83,1551.17 2624,1589.5C 2623.28,1588.96 2622.78,1588.29 2622.5,1587.5 Z"/></g>
<g><path style="opacity:1" fill="#e0b662" d="M 2108.5,1328.5 C 2123.07,1414.45 2136.07,1500.78 2147.5,1587.5C 2111.52,1550.18 2075.85,1512.52 2040.5,1474.5C 2063.38,1425.82 2086.05,1377.16 2108.5,1328.5 Z"/></g>
<g><path style="opacity:1" fill="#e0b662" d="M 2660.5,1329.5 C 2661.14,1330.1 2661.47,1330.93 2661.5,1332C 2648.63,1416.78 2636.13,1501.61 2624,1586.5C 2623.62,1587.06 2623.12,1587.39 2622.5,1587.5C 2597.79,1541.92 2573.46,1496.08 2549.5,1450C 2586.35,1409.65 2623.35,1369.48 2660.5,1329.5 Z"/></g>
<g><path style="opacity:1" fill="#e0b662" d="M 2137.5,1995.5 C 2082.34,1996.5 2027,1996.83 1971.5,1996.5C 1916.31,1786.42 1861.15,1576.42 1806,1366.5C 1916.51,1576.19 2027.01,1785.86 2137.5,1995.5 Z"/></g>
<g><path style="opacity:1" fill="#b58f4c" d="M 2965.5,1366.5 C 2911.42,1576.14 2856.42,1785.8 2800.5,1995.5C 2745.17,1996.83 2689.83,1996.83 2634.5,1995.5C 2745.29,1786.05 2855.63,1576.38 2965.5,1366.5 Z"/></g>
<g><path style="opacity:1" fill="#000000" d="M 686.5,1461.5 C 719.835,1461.33 753.168,1461.5 786.5,1462C 819.731,1463.89 851.398,1471.89 881.5,1486C 928.729,1515.91 956.229,1558.75 964,1614.5C 971.47,1664.38 967.804,1713.38 953,1761.5C 942.363,1791.8 922.863,1814.3 894.5,1829C 862.5,1845.5 828.5,1854.83 792.5,1857C 757.168,1857.5 721.835,1857.67 686.5,1857.5C 686.5,1725.5 686.5,1593.5 686.5,1461.5 Z"/></g>
<g><path style="opacity:1" fill="#000000" d="M 3374.5,1743.5 C 3309.33,1743.83 3244.33,1743.5 3179.5,1742.5C 3211.51,1661.97 3244.01,1581.64 3277,1501.5C 3309.79,1582.04 3342.29,1662.71 3374.5,1743.5 Z"/></g>
<g><path style="opacity:1" fill="#9a9a9a" d="M 1444.5,1583.5 C 1538.17,1583.5 1631.83,1583.5 1725.5,1583.5C 1725.5,1628.83 1725.5,1674.17 1725.5,1719.5C 1631.83,1719.5 1538.17,1719.5 1444.5,1719.5C 1537.67,1718.5 1631,1718.17 1724.5,1718.5C 1724.5,1673.83 1724.5,1629.17 1724.5,1584.5C 1631,1584.83 1537.67,1584.5 1444.5,1583.5 Z"/></g>
<g><path style="opacity:1" fill="#3f403f" d="M 3179.5,1742.5 C 3244.33,1743.5 3309.33,1743.83 3374.5,1743.5C 3309.33,1744.83 3244,1744.83 3178.5,1743.5C 3178.62,1742.89 3178.96,1742.56 3179.5,1742.5 Z"/></g>
<g><path style="opacity:1" fill="#b58f4c" d="M 2385.5,1996.5 C 2385.83,1912.33 2385.5,1828.33 2384.5,1744.5C 2385.09,1743.23 2385.59,1741.9 2386,1740.5C 2419.99,1825.64 2453.49,1910.97 2486.5,1996.5C 2452.83,1996.5 2419.17,1996.5 2385.5,1996.5 Z"/></g>
<g><path style="opacity:1" fill="#e0b662" d="M 2384.5,1744.5 C 2385.5,1828.33 2385.83,1912.33 2385.5,1996.5C 2352.16,1996.83 2318.83,1996.5 2285.5,1995.5C 2318.31,1911.73 2351.31,1828.06 2384.5,1744.5 Z"/></g>
<g><path style="opacity:1" fill="#372d18" d="M 2137.5,1995.5 C 2138.04,1995.56 2138.38,1995.89 2138.5,1996.5C 2082.67,1997.83 2027,1997.83 1971.5,1996.5C 2027,1996.83 2082.34,1996.5 2137.5,1995.5 Z"/></g>
<g><path style="opacity:1" fill="#e0b662" d="M 484.5,2124.5 C 1550.17,2124.5 2615.83,2124.5 3681.5,2124.5C 3681.83,2309.07 3681.5,2493.57 3680.5,2678C 3474.61,2776.75 3262.61,2860.42 3044.5,2929C 2807.76,3003.48 2567.26,3062.98 2323,3107.5C 2263.97,3006.96 2175.8,2959.13 2058.5,2964C 1963.21,2975.55 1891.87,3022.71 1844.5,3105.5C 1842.83,3105.83 1841.17,3106.17 1839.5,3106.5C 1496.76,3044.75 1162.43,2952.59 836.5,2830C 717.405,2784.19 600.405,2733.52 485.5,2678C 484.501,2493.57 484.167,2309.07 484.5,2124.5 Z"/></g>
<g><path style="opacity:1" fill="#6d5930" d="M 1599.5,2251.5 C 1564.83,2251.5 1530.17,2251.5 1495.5,2251.5C 1495.81,2254.39 1495.47,2257.05 1494.5,2259.5C 1494.5,2256.5 1494.5,2253.5 1494.5,2250.5C 1529.67,2250.17 1564.67,2250.5 1599.5,2251.5 Z"/></g>
<g><path style="opacity:1" fill="#000000" d="M 1056.5,2251.5 C 1091.17,2251.5 1125.83,2251.5 1160.5,2251.5C 1158.8,2393.67 1156.8,2535.84 1154.5,2678C 1150.13,2713.28 1165.13,2735.28 1199.5,2744C 1217.24,2749.64 1235.24,2754.14 1253.5,2757.5C 1268.37,2757.99 1277.2,2750.99 1280,2736.5C 1284.37,2574.85 1288.21,2413.18 1291.5,2251.5C 1326.5,2251.5 1361.5,2251.5 1396.5,2251.5C 1392.36,2423.86 1387.53,2596.19 1382,2768.5C 1372.8,2825.01 1339.96,2847.84 1283.5,2837C 1246.36,2827.29 1209.7,2815.96 1173.5,2803C 1139.96,2791.66 1111.13,2773.16 1087,2747.5C 1070.03,2727.27 1060.03,2703.94 1057,2677.5C 1056.5,2535.5 1056.33,2393.5 1056.5,2251.5 Z"/></g>
<g><path style="opacity:1" fill="#000000" d="M 1599.5,2251.5 C 1635.28,2359.98 1670.45,2468.64 1705,2577.5C 1707.55,2468.84 1709.72,2360.17 1711.5,2251.5C 1746.5,2251.5 1781.5,2251.5 1816.5,2251.5C 1813.2,2472.5 1809.86,2693.5 1806.5,2914.5C 1805.51,2921.98 1805.17,2929.65 1805.5,2937.5C 1803.83,2937.5 1802.17,2937.5 1800.5,2937.5C 1766.44,2934.42 1732.44,2930.75 1698.5,2926.5C 1699.55,2880.17 1700.05,2833.84 1700,2787.5C 1665.26,2684.28 1629.93,2581.28 1594,2478.5C 1590.6,2616.5 1587.27,2754.5 1584,2892.5C 1583.83,2897.86 1583.33,2903.2 1582.5,2908.5C 1547.75,2902.26 1513.08,2895.6 1478.5,2888.5C 1483.54,2678.83 1488.87,2469.16 1494.5,2259.5C 1495.47,2257.05 1495.81,2254.39 1495.5,2251.5C 1530.17,2251.5 1564.83,2251.5 1599.5,2251.5 Z"/></g>
<g><path style="opacity:1" fill="#000000" d="M 1914.5,2251.5 C 1949.5,2251.5 1984.5,2251.5 2019.5,2251.5C 2018.24,2484.5 2017.24,2717.5 2016.5,2950.5C 1980.47,2950.02 1944.47,2948.68 1908.5,2946.5C 1910.28,2714.83 1912.28,2483.16 1914.5,2251.5 Z"/></g>
<g><path style="opacity:1" fill="#504123" d="M 2384.5,2251.5 C 2283.17,2251.5 2181.83,2251.5 2080.5,2251.5C 2080.83,2279.34 2080.5,2307.01 2079.5,2334.5C 2079.5,2306.5 2079.5,2278.5 2079.5,2250.5C 2181.33,2250.17 2283,2250.5 2384.5,2251.5 Z"/></g>
<g><path style="opacity:1" fill="#000000" d="M 2384.5,2251.5 C 2385.27,2278.67 2385.94,2306.01 2386.5,2333.5C 2352.84,2334.38 2319.18,2334.72 2285.5,2334.5C 2288.12,2537.83 2290.45,2741.16 2292.5,2944.5C 2256.19,2946.69 2219.86,2948.36 2183.5,2949.5C 2183.39,2744.81 2182.39,2540.15 2180.5,2335.5C 2146.66,2335.83 2113,2335.5 2079.5,2334.5C 2080.5,2307.01 2080.83,2279.34 2080.5,2251.5C 2181.83,2251.5 2283.17,2251.5 2384.5,2251.5 Z"/></g>
<g><path style="opacity:1" fill="#010000" d="M 2445.5,2251.5 C 2531.83,2251.5 2618.17,2251.5 2704.5,2251.5C 2705.41,2276.82 2706.08,2302.16 2706.5,2327.5C 2654.84,2328.9 2603.17,2329.9 2551.5,2330.5C 2553.12,2397.5 2554.79,2464.5 2556.5,2531.5C 2602.54,2528.27 2648.54,2524.61 2694.5,2520.5C 2694.82,2543.68 2695.48,2566.84 2696.5,2590C 2696.47,2592.42 2696.14,2594.76 2695.5,2597C 2649.91,2602.63 2604.25,2607.46 2558.5,2611.5C 2560.01,2684.84 2561.67,2758.17 2563.5,2831.5C 2615.73,2823.8 2667.73,2814.8 2719.5,2804.5C 2719.82,2827.84 2720.48,2851.18 2721.5,2874.5C 2721.41,2876.96 2720.74,2879.13 2719.5,2881C 2633.29,2900.67 2546.29,2915.84 2458.5,2926.5C 2453.76,2701.51 2449.43,2476.51 2445.5,2251.5 Z"/></g>
<g><path style="opacity:1" fill="#000000" d="M 2797.5,2861.5 C 2796.83,2856.83 2796.17,2852.17 2795.5,2847.5C 2790.23,2648.84 2785.23,2450.17 2780.5,2251.5C 2849.17,2251.33 2917.83,2251.5 2986.5,2252C 3015.8,2253.24 3043.46,2260.57 3069.5,2274C 3093.17,2288.48 3106.34,2309.65 3109,2337.5C 3109.67,2455.5 3109.67,2573.5 3109,2691.5C 3106.99,2712.54 3098.99,2730.87 3085,2746.5C 3064.33,2767.76 3040.16,2783.93 3012.5,2795C 2942.05,2821.1 2870.38,2843.26 2797.5,2861.5 Z"/></g>
<g><path style="opacity:1" fill="#000000" d="M 3382.5,2251.5 C 3400.59,2287.24 3418.59,2323.07 3436.5,2359C 3475.56,2364.51 3514.56,2370.34 3553.5,2376.5C 3525.32,2404.51 3496.99,2432.34 3468.5,2460C 3475.17,2498 3481.83,2536 3488.5,2574C 3488.17,2574.83 3487.83,2575.67 3487.5,2576.5C 3452.73,2558.03 3417.9,2539.7 3383,2521.5C 3348.1,2539.7 3313.27,2558.03 3278.5,2576.5C 3283.74,2537.65 3290.08,2498.81 3297.5,2460C 3269.61,2431.72 3241.28,2403.89 3212.5,2376.5C 3251.83,2370.17 3291.17,2363.83 3330.5,2357.5C 3348.39,2322.39 3365.72,2287.06 3382.5,2251.5 Z"/></g>
<g><path style="opacity:1" fill="#000000" d="M 781.5,2252.5 C 782.376,2252.37 783.043,2252.7 783.5,2253.5C 800.704,2288.97 818.37,2324.14 836.5,2359C 875.527,2364.48 914.527,2370.15 953.5,2376C 925.333,2403.5 897.167,2431 869,2458.5C 875.334,2498.17 881.667,2537.83 888,2577.5C 852.913,2558.71 817.746,2540.04 782.5,2521.5C 747.746,2539.96 712.912,2558.29 678,2576.5C 683.018,2539.39 689.018,2502.39 696,2465.5C 696.667,2463.17 696.667,2460.83 696,2458.5C 667.833,2431 639.667,2403.5 611.5,2376C 650.926,2370.37 690.259,2364.37 729.5,2358C 747.516,2323.13 764.85,2287.97 781.5,2252.5 Z"/></g>
<g><path style="opacity:1" fill="#e0b662" d="M 2898.5,2762.5 C 2896.86,2757.41 2895.86,2752.08 2895.5,2746.5C 2892.73,2604.83 2889.73,2463.16 2886.5,2321.5C 2910.35,2320.86 2934.18,2319.86 2958,2318.5C 2971.11,2317.52 2983.27,2320.35 2994.5,2327C 3000.53,2332.56 3004.37,2339.4 3006,2347.5C 3008.12,2468.83 3009.78,2590.17 3011,2711.5C 3006.13,2724.71 2996.96,2733.54 2983.5,2738C 2955.35,2746.88 2927.02,2755.05 2898.5,2762.5 Z"/></g>
<g><path style="opacity:1" fill="#4f4023" d="M 2895.5,2746.5 C 2895.86,2752.08 2896.86,2757.41 2898.5,2762.5C 2897.79,2763.4 2896.79,2763.74 2895.5,2763.5C 2895.5,2757.83 2895.5,2752.17 2895.5,2746.5 Z"/></g>
<g><path style="opacity:1" fill="#493c20" d="M 2795.5,2847.5 C 2796.17,2852.17 2796.83,2856.83 2797.5,2861.5C 2797.44,2862.04 2797.11,2862.38 2796.5,2862.5C 2795.51,2857.54 2795.17,2852.54 2795.5,2847.5 Z"/></g>
<g><path style="opacity:1" fill="#46391f" d="M 1806.5,2914.5 C 1806.5,2922.5 1806.5,2930.5 1806.5,2938.5C 1804.26,2938.79 1802.26,2938.46 1800.5,2937.5C 1802.17,2937.5 1803.83,2937.5 1805.5,2937.5C 1805.17,2929.65 1805.51,2921.98 1806.5,2914.5 Z"/></g>
<g><path style="opacity:1" fill="#dfb562" d="M 2049.5,3016.5 C 2053.17,3016.5 2056.83,3016.5 2060.5,3016.5C 2060.5,3081.5 2060.5,3146.5 2060.5,3211.5C 2040.17,3211.5 2019.83,3211.5 1999.5,3211.5C 1993.94,3157.64 1974.61,3109.47 1941.5,3067C 1947.86,3060.65 1954.86,3054.98 1962.5,3050C 1989.43,3033.19 2018.43,3022.03 2049.5,3016.5 Z"/></g>
<g><path style="opacity:1" fill="#e0b662" d="M 2105.5,3016.5 C 2144.61,3020.2 2179.94,3033.53 2211.5,3056.5C 2178.32,3102.72 2161.32,3154.38 2160.5,3211.5C 2142.17,3211.5 2123.83,3211.5 2105.5,3211.5C 2105.5,3146.5 2105.5,3081.5 2105.5,3016.5 Z"/></g>
<g><path style="opacity:1" fill="#dfb562" d="M 2247.5,3090.5 C 2249.72,3091.2 2251.55,3092.54 2253,3094.5C 2280.99,3128.51 2297.49,3167.51 2302.5,3211.5C 2271.83,3211.5 2241.17,3211.5 2210.5,3211.5C 2211.37,3167.55 2223.71,3127.22 2247.5,3090.5 Z"/></g>
<g><path style="opacity:1" fill="#dfb562" d="M 1905.5,3103.5 C 1930.31,3135.16 1944.65,3171.16 1948.5,3211.5C 1920.17,3211.5 1891.83,3211.5 1863.5,3211.5C 1867.88,3171.67 1881.88,3135.67 1905.5,3103.5 Z"/></g>
<g><path style="opacity:1" fill="#e0b662" d="M 1555.5,3109.5 C 1601.38,3121.72 1647.71,3131.89 1694.5,3140C 1719.02,3144.5 1741.68,3153.5 1762.5,3167C 1774.8,3176.09 1783.3,3187.93 1788,3202.5C 1793.02,3230.31 1782.52,3249.48 1756.5,3260C 1776.14,3269.64 1790.31,3284.47 1799,3304.5C 1807.6,3340.82 1793.77,3362.98 1757.5,3371C 1743.2,3372.54 1728.87,3372.87 1714.5,3372C 1661.64,3363.76 1609.47,3352.6 1558,3338.5C 1556.8,3262.17 1555.97,3185.84 1555.5,3109.5 Z"/></g>
<g><path style="opacity:1" fill="#dfb662" d="M 2523.5,3125.5 C 2547.63,3122.97 2570.63,3126.8 2592.5,3137C 2598.74,3140.57 2604.4,3144.9 2609.5,3150C 2591.99,3169.01 2574.32,3187.84 2556.5,3206.5C 2536.63,3189.12 2514.29,3185.29 2489.5,3195C 2456.92,3208.65 2442.08,3233.15 2445,3268.5C 2450.39,3297.52 2467.89,3310.02 2497.5,3306C 2513.11,3303.69 2526.77,3297.36 2538.5,3287C 2545.04,3280.68 2551.2,3274.18 2557,3267.5C 2574.23,3277.53 2591.4,3287.7 2608.5,3298C 2576.38,3341.74 2533.05,3366.41 2478.5,3372C 2440.18,3376.34 2407.68,3364.84 2381,3337.5C 2362.48,3313.27 2355.48,3285.94 2360,3255.5C 2365.81,3223.05 2380.97,3195.88 2405.5,3174C 2439.81,3145.62 2479.14,3129.45 2523.5,3125.5 Z"/></g>
<g><path style="opacity:1" fill="#7e6738" d="M 1639.5,3183.5 C 1638.51,3194.32 1638.17,3205.32 1638.5,3216.5C 1637.18,3205.33 1637.18,3193.99 1638.5,3182.5C 1639.11,3182.62 1639.44,3182.96 1639.5,3183.5 Z"/></g>
<g><path style="opacity:1" fill="#020100" d="M 1639.5,3183.5 C 1656.59,3186.89 1673.59,3190.72 1690.5,3195C 1700.48,3198.8 1704.98,3205.97 1704,3216.5C 1700.92,3223.38 1695.58,3226.38 1688,3225.5C 1671.24,3223.71 1654.74,3220.71 1638.5,3216.5C 1638.17,3205.32 1638.51,3194.32 1639.5,3183.5 Z"/></g>
<g><path style="opacity:1" fill="#715c31" d="M 1862.5,3257.5 C 1891.33,3256.5 1920.33,3256.17 1949.5,3256.5C 1949.78,3258.41 1949.45,3260.08 1948.5,3261.5C 1948.5,3260.17 1948.5,3258.83 1948.5,3257.5C 1919.83,3257.5 1891.17,3257.5 1862.5,3257.5 Z"/></g>
<g><path style="opacity:1" fill="#6e5a30" d="M 2302.5,3260.5 C 2302.5,3259.5 2302.5,3258.5 2302.5,3257.5C 2273.33,3257.17 2244.33,3257.5 2215.5,3258.5C 2214.96,3258.44 2214.62,3258.11 2214.5,3257.5C 2244.16,3256.5 2273.83,3256.17 2303.5,3256.5C 2303.77,3258.1 2303.43,3259.43 2302.5,3260.5 Z"/></g>
<g><path style="opacity:1" fill="#e0b662" d="M 1862.5,3257.5 C 1891.17,3257.5 1919.83,3257.5 1948.5,3257.5C 1948.5,3258.83 1948.5,3260.17 1948.5,3261.5C 1944.02,3301.11 1929.86,3336.77 1906,3368.5C 1881.52,3335.51 1867.02,3298.51 1862.5,3257.5 Z"/></g>
<g><path style="opacity:1" fill="#e0b662" d="M 1999.5,3257.5 C 2019.5,3257.5 2039.5,3257.5 2059.5,3257.5C 2059.5,3323.5 2059.5,3389.5 2059.5,3455.5C 2016.6,3451.04 1978.27,3435.54 1944.5,3409C 1943.1,3407.94 1942.1,3406.61 1941.5,3405C 1975.23,3361.69 1994.56,3312.52 1999.5,3257.5 Z"/></g>
<g><path style="opacity:1" fill="#9d8046" d="M 1999.5,3257.5 C 2019.66,3256.5 2039.99,3256.17 2060.5,3256.5C 2060.83,3323 2060.5,3389.34 2059.5,3455.5C 2059.5,3389.5 2059.5,3323.5 2059.5,3257.5C 2039.5,3257.5 2019.5,3257.5 1999.5,3257.5 Z"/></g>
<g><path style="opacity:1" fill="#e0b662" d="M 2105.5,3256.5 C 2125.17,3256.5 2144.83,3256.5 2164.5,3256.5C 2173.27,3310.7 2195.94,3358.04 2232.5,3398.5C 2196.54,3431.3 2154.21,3450.3 2105.5,3455.5C 2105.5,3389.17 2105.5,3322.83 2105.5,3256.5 Z"/></g>
<g><path style="opacity:1" fill="#dfb662" d="M 2302.5,3260.5 C 2299,3290.16 2290.17,3318.16 2276,3344.5C 2272.98,3349.89 2269.48,3354.89 2265.5,3359.5C 2240.08,3330.32 2223.41,3296.65 2215.5,3258.5C 2244.33,3257.5 2273.33,3257.17 2302.5,3257.5C 2302.5,3258.5 2302.5,3259.5 2302.5,3260.5 Z"/></g>
<g><path style="opacity:1" fill="#030201" d="M 1638.5,3268.5 C 1659.95,3272.42 1681.28,3276.92 1702.5,3282C 1714.06,3286.95 1718.22,3295.45 1715,3307.5C 1714.22,3309.29 1713.05,3310.79 1711.5,3312C 1707.21,3313.89 1702.71,3314.72 1698,3314.5C 1678.03,3311.54 1658.2,3307.87 1638.5,3303.5C 1638.5,3291.83 1638.5,3280.17 1638.5,3268.5 Z"/></g>
</svg>
