<?xml version="1.0" encoding="UTF-8"?>
<!DOCTYPE svg PUBLIC "-//W3C//DTD SVG 1.1//EN" "http://www.w3.org/Graphics/SVG/1.1/DTD/svg11.dtd">
<svg xmlns="http://www.w3.org/2000/svg" version="1.1" width="270px" height="270px" style="shape-rendering:geometricPrecision; text-rendering:geometricPrecision; image-rendering:optimizeQuality; fill-rule:evenodd; clip-rule:evenodd" xmlns:xlink="http://www.w3.org/1999/xlink">
<g><path style="opacity:0.918" fill="#c57f7a" d="M 255.5,8.5 C 256.209,7.59603 257.209,7.26269 258.5,7.5C 259.226,11.6795 259.226,15.6795 258.5,19.5C 258.428,16.8067 258.095,14.1401 257.5,11.5C 257.36,9.97041 256.693,8.97041 255.5,8.5 Z"/></g>
<g><path style="opacity:0.173" fill="#c9b8b8" d="M 138.5,30.5 C 138.56,29.9569 138.893,29.6236 139.5,29.5C 140.8,32.3092 140.8,34.9759 139.5,37.5C 139.802,34.9407 139.468,32.6074 138.5,30.5 Z"/></g>
<g><path style="opacity:1" fill="#d2302d" d="M 255.5,8.5 C 256.693,8.97041 257.36,9.97041 257.5,11.5C 258.095,14.1401 258.428,16.8067 258.5,19.5C 257.923,23.9831 256.256,27.9831 253.5,31.5C 252.373,32.1217 251.373,32.955 250.5,34C 253.036,34.1862 255.369,34.6862 257.5,35.5C 256.927,42.9793 253.927,49.3127 248.5,54.5C 250.5,54.8333 252.5,55.1667 254.5,55.5C 252.667,59.1667 250.833,62.8333 249,66.5C 245.833,69.6667 242.667,72.8333 239.5,76C 241.109,84.1169 238.109,90.1169 230.5,94C 226.619,96.1072 222.619,97.9405 218.5,99.5C 217.305,107.697 212.638,112.697 204.5,114.5C 196.65,116.073 196.65,117.073 204.5,117.5C 201.475,123.858 196.475,127.525 189.5,128.5C 184.833,128.5 180.167,128.5 175.5,128.5C 175.579,129.93 175.246,131.264 174.5,132.5C 174.957,133.298 175.624,133.631 176.5,133.5C 183.026,135.426 189.359,137.926 195.5,141C 197.466,142.46 199.132,144.127 200.5,146C 199.24,149.594 196.907,152.261 193.5,154C 189.912,155.963 186.245,157.63 182.5,159C 179.937,160.079 177.271,160.579 174.5,160.5C 174.814,163.947 175.648,167.28 177,170.5C 188.09,169.347 199.257,169.18 210.5,170C 217.032,171.54 222.199,175.04 226,180.5C 232.089,191.677 237.922,203.01 243.5,214.5C 248.132,215.328 252.798,215.828 257.5,216C 248.304,230.675 238.97,245.175 229.5,259.5C 165.905,260.496 102.238,260.829 38.5,260.5C 29.5,246.5 20.5,232.5 11.5,218.5C 15.573,216.865 19.9063,215.865 24.5,215.5C 31.2458,205.686 38.2458,196.019 45.5,186.5C 41.3777,181.089 37.3777,175.589 33.5,170C 53.4065,169.174 73.2399,169.341 93,170.5C 94.8537,165.468 96.687,160.468 98.5,155.5C 95.1485,154.992 92.1485,153.658 89.5,151.5C 86.4412,154.876 82.7745,157.543 78.5,159.5C 75.3412,158.845 72.8412,157.178 71,154.5C 61.7524,157.207 55.7524,153.873 53,144.5C 52.3333,142.167 52.3333,139.833 53,137.5C 55.4538,133.378 57.4538,129.045 59,124.5C 63.2595,123.021 65.9262,120.021 67,115.5C 73.5064,107.163 82.0064,102.33 92.5,101C 95.3025,94.0969 95.1358,87.2636 92,80.5C 84.4391,73.9717 76.6058,67.8051 68.5,62C 92.1016,51.9716 115.435,41.4716 138.5,30.5C 139.468,32.6074 139.802,34.9407 139.5,37.5C 139.343,38.8734 139.51,40.2068 140,41.5C 148.86,35.6058 158.36,32.2725 168.5,31.5C 167.705,34.1444 167.038,36.8111 166.5,39.5C 165.399,40.8484 164.399,42.3484 163.5,44C 164.577,44.4696 165.577,44.3029 166.5,43.5C 168.137,42.7822 169.803,42.6155 171.5,43C 172.329,44.8161 173.163,46.6494 174,48.5C 200.866,34.4835 228.032,21.1502 255.5,8.5 Z"/></g>
<g><path style="opacity:1" fill="#253065" d="M 189.5,112.5 C 184.125,112.172 178.792,112.505 173.5,113.5C 173.624,114.107 173.957,114.44 174.5,114.5C 180.989,118.044 187.989,120.21 195.5,121C 190.976,123.928 185.976,125.095 180.5,124.5C 172.351,124.205 164.351,123.372 156.5,122C 160.726,125.28 165.393,127.78 170.5,129.5C 167.938,130.641 165.272,131.474 162.5,132C 169.302,135.381 176.302,138.381 183.5,141C 187.194,142.509 190.527,144.509 193.5,147C 189.269,151.71 183.936,153.71 177.5,153C 177.957,153.414 178.291,153.914 178.5,154.5C 173.868,155.328 169.202,155.828 164.5,156C 165.252,156.671 165.586,157.504 165.5,158.5C 164.883,158.611 164.383,158.944 164,159.5C 162.167,157.667 160.333,155.833 158.5,154C 157.563,153.308 156.897,153.475 156.5,154.5C 151.677,153.939 147.677,155.439 144.5,159C 145.056,159.383 145.389,159.883 145.5,160.5C 144.375,161.348 144.375,162.348 145.5,163.5C 144.957,163.56 144.624,163.893 144.5,164.5C 146.491,168.47 148.825,172.136 151.5,175.5C 150.883,175.389 150.383,175.056 150,174.5C 150.109,175.769 149.942,176.769 149.5,177.5C 145.704,173.511 142.871,168.845 141,163.5C 139.644,162.62 138.144,162.286 136.5,162.5C 138.219,161.978 139.552,160.978 140.5,159.5C 141.984,154.742 145.317,152.408 150.5,152.5C 150.5,151.5 150.5,150.5 150.5,149.5C 149.178,149.67 148.011,149.337 147,148.5C 145.333,150.167 143.667,151.833 142,153.5C 141,151.5 140,149.5 139,147.5C 138.329,146.748 137.496,146.414 136.5,146.5C 135.408,150.816 134.408,155.149 133.5,159.5C 133.5,157.167 133.5,154.833 133.5,152.5C 130.011,151.821 126.844,150.488 124,148.5C 121.774,149.033 119.607,149.7 117.5,150.5C 115.868,151.446 114.201,152.446 112.5,153.5C 112.167,153.333 111.833,153.167 111.5,153C 113.007,152.163 113.507,150.996 113,149.5C 107.99,154.805 107.49,154.472 111.5,148.5C 112.5,148.5 113.5,148.5 114.5,148.5C 113.097,143.866 110.764,139.699 107.5,136C 106.365,135.251 105.365,135.417 104.5,136.5C 107.593,139.305 110.259,142.472 112.5,146C 111.906,146.464 111.239,146.631 110.5,146.5C 109.263,148.774 107.929,151.107 106.5,153.5C 108.04,154.532 108.54,155.865 108,157.5C 106.745,158.211 105.579,159.044 104.5,160C 105.175,162.242 104.675,164.409 103,166.5C 102.329,165.748 101.496,165.414 100.5,165.5C 101.512,161.976 103.178,158.81 105.5,156C 105.095,155.055 104.428,154.388 103.5,154C 107.49,151.265 106.99,149.432 102,148.5C 98.7582,150.91 96.0916,150.577 94,147.5C 93.5017,144.183 93.335,140.85 93.5,137.5C 91.2776,137.178 89.4443,137.845 88,139.5C 87.538,146.114 84.3714,150.781 78.5,153.5C 77.5581,153.392 76.7247,153.059 76,152.5C 75.8265,148.459 75.3265,144.459 74.5,140.5C 73.2519,141.04 72.0852,141.707 71,142.5C 71.3513,144.886 71.1847,147.219 70.5,149.5C 61.0712,151.241 56.9046,147.241 58,137.5C 62.6371,130.854 67.3038,124.188 72,117.5C 75.7368,112.422 80.5701,108.922 86.5,107C 94.4518,105.838 102.118,104.005 109.5,101.5C 120.05,99.8917 129.716,96.0584 138.5,90C 145.868,82.7774 151.368,74.2774 155,64.5C 187.319,46.9235 220.152,30.2568 253.5,14.5C 254.614,15.723 254.781,17.0563 254,18.5C 248.976,30.8584 240.476,40.0251 228.5,46C 235.694,43.773 243.027,41.6063 250.5,39.5C 249.532,45.2104 246.532,50.0438 241.5,54C 235.79,57.8548 229.79,61.1881 223.5,64C 230.699,63.2033 237.866,62.0366 245,60.5C 245.315,61.9078 244.982,63.2411 244,64.5C 235.733,73.5527 225.567,79.3861 213.5,82C 220.464,81.7119 227.464,81.5452 234.5,81.5C 234.256,84.2626 232.923,86.4293 230.5,88C 226.71,90.3772 222.71,92.3772 218.5,94C 208.57,96.6493 198.57,98.9826 188.5,101C 196.621,101.013 204.621,101.847 212.5,103.5C 210.48,107.019 207.48,109.186 203.5,110C 198.955,111.542 194.289,112.376 189.5,112.5 Z"/></g>
<g><path style="opacity:0.443" fill="#bc9999" d="M 253.5,31.5 C 254.678,32.9986 256.345,33.9986 258.5,34.5C 258.376,35.1067 258.043,35.44 257.5,35.5C 255.369,34.6862 253.036,34.1862 250.5,34C 251.373,32.955 252.373,32.1217 253.5,31.5 Z"/></g>
<g><path style="opacity:1" fill="#253165" d="M 134.5,71.5 C 131.154,72.8964 127.821,74.3964 124.5,76C 128.541,75.9303 132.208,74.7636 135.5,72.5C 139.68,71.2737 143.846,69.9404 148,68.5C 149.543,69.5772 149.543,70.9106 148,72.5C 140.078,79.1489 131.245,84.3155 121.5,88C 127.327,87.9154 132.994,86.7488 138.5,84.5C 139.932,84.7332 140.432,85.3999 140,86.5C 135.418,90.5447 130.251,93.7114 124.5,96C 119.286,97.5678 114.286,99.4011 109.5,101.5C 105.802,101.552 102.135,101.886 98.5,102.5C 102.433,89.8158 99.4329,79.3158 89.5,71C 85.6732,68.6625 82.0066,66.1625 78.5,63.5C 96.9076,55.3626 115.241,47.0293 133.5,38.5C 133.845,40.3823 133.345,42.3823 132,44.5C 128.28,48.0331 125.113,51.3665 122.5,54.5C 134.619,49.2738 146.619,43.7738 158.5,38C 159.635,37.2506 160.635,37.4173 161.5,38.5C 159.454,43.0497 156.454,46.8831 152.5,50C 144.833,55.0837 136.666,59.2504 128,62.5C 126.743,62.8499 126.409,63.5165 127,64.5C 140.339,58.7469 153.839,53.4136 167.5,48.5C 165.497,53.3463 162.164,57.1796 157.5,60C 150.369,64.8988 142.702,68.7322 134.5,71.5 Z"/></g>
<g><path style="opacity:0.235" fill="#a2a5a7" d="M 166.5,39.5 C 166.5,40.8333 166.5,42.1667 166.5,43.5C 165.577,44.3029 164.577,44.4696 163.5,44C 164.399,42.3484 165.399,40.8484 166.5,39.5 Z"/></g>
<g><path style="opacity:1" fill="#db2124" d="M 214.5,39.5 C 215.552,39.3505 216.552,39.5172 217.5,40C 199.675,49.0786 182.008,58.4119 164.5,68C 157.888,79.2118 149.221,88.5451 138.5,96C 137.241,96.9819 135.908,97.3152 134.5,97C 145.769,89.6105 154.103,79.7772 159.5,67.5C 177.489,57.3395 195.822,48.0062 214.5,39.5 Z"/></g>
<g><path style="opacity:1" fill="#de2123" d="M 109.5,53.5 C 111.379,53.3932 111.712,53.8932 110.5,55C 105.162,57.6669 100.162,60.8336 95.5,64.5C 98.2503,68.3318 100.75,72.3318 103,76.5C 104.64,80.3797 105.307,84.3797 105,88.5C 103.117,77.9022 97.6172,69.7355 88.5,64C 95.6125,60.5831 102.613,57.0831 109.5,53.5 Z"/></g>
<g><path style="opacity:1" fill="#802a44" d="M 134.5,71.5 C 134.5,72.1667 134.833,72.5 135.5,72.5C 132.208,74.7636 128.541,75.9303 124.5,76C 127.821,74.3964 131.154,72.8964 134.5,71.5 Z"/></g>
<g><path style="opacity:1" fill="#d32127" d="M 150.5,109.5 C 154.833,108.833 159.167,108.167 163.5,107.5C 164.043,107.44 164.376,107.107 164.5,106.5C 162.46,104.823 160.46,103.156 158.5,101.5C 164.287,100.47 169.954,98.9699 175.5,97C 176.167,96.3333 176.833,95.6667 177.5,95C 165.882,93.0859 166.215,91.0859 178.5,89C 181.579,87.7523 184.246,85.9189 186.5,83.5C 181.882,83.9648 177.216,83.4648 172.5,82C 179.688,78.4086 185.688,73.4086 190.5,67C 183.619,68.8018 176.619,70.1351 169.5,71C 177.881,66.3656 186.548,62.199 195.5,58.5C 196.97,62.7381 196.47,66.7381 194,70.5C 191.833,73.3333 189.333,75.8333 186.5,78C 190.092,77.4979 193.759,77.4979 197.5,78C 194.061,83.439 189.395,87.439 183.5,90C 186.985,90.4927 187.485,91.9927 185,94.5C 180.529,98.6536 175.362,101.654 169.5,103.5C 171.475,104.275 172.309,105.609 172,107.5C 165.223,112.028 158.056,112.694 150.5,109.5 Z"/></g>
<g><path style="opacity:1" fill="#f5f5f4" d="M 101.5,105.5 C 100.438,106.575 100.438,107.575 101.5,108.5C 102.86,107.82 104.193,107.153 105.5,106.5C 110.463,105.504 115.463,105.337 120.5,106C 118.381,106.342 118.047,107.175 119.5,108.5C 118.833,108.5 118.167,108.5 117.5,108.5C 112.604,109.924 107.604,111.424 102.5,113C 100.668,113.748 99.0009,114.748 97.5,116C 99.8846,115.989 102.218,115.489 104.5,114.5C 109.514,115.419 114.514,116.419 119.5,117.5C 115.154,117.334 110.821,117.501 106.5,118C 105.167,118.667 105.167,119.333 106.5,120C 102.221,121.473 98.2211,123.473 94.5,126C 98.1206,125.595 101.787,125.595 105.5,126C 102.768,126.413 100.101,127.08 97.5,128C 98.3081,128.308 98.9747,128.808 99.5,129.5C 96.2972,129.982 93.6306,131.315 91.5,133.5C 90.5178,134.141 89.5178,134.807 88.5,135.5C 87.8076,134.975 87.3076,134.308 87,133.5C 84.2809,134.444 81.4475,134.777 78.5,134.5C 78.4386,132.408 77.4386,130.908 75.5,130C 77.2555,129.86 78.9222,130.36 80.5,131.5C 82.0691,130.286 82.9024,128.619 83,126.5C 84.353,125.315 85.5197,123.981 86.5,122.5C 86.1543,121.304 85.6543,121.304 85,122.5C 84.5828,119.716 85.7495,117.716 88.5,116.5C 88.3333,116.167 88.1667,115.833 88,115.5C 82.7979,119.67 77.9645,124.17 73.5,129C 71.5,129.667 69.5,129.667 67.5,129C 72.8566,122.645 78.5232,116.645 84.5,111C 90.1741,109.161 95.8408,107.328 101.5,105.5 Z"/></g>
<g><path style="opacity:1" fill="#ece75b" d="M 101.5,105.5 C 103.099,105.232 104.432,105.566 105.5,106.5C 104.193,107.153 102.86,107.82 101.5,108.5C 100.438,107.575 100.438,106.575 101.5,105.5 Z"/></g>
<g><path style="opacity:1" fill="#f9f454" d="M 117.5,108.5 C 112.186,108.761 111.686,108.094 116,106.5C 117.03,106.836 117.53,107.503 117.5,108.5 Z"/></g>
<g><path style="opacity:1" fill="#7c2a46" d="M 163.5,107.5 C 159.167,108.167 154.833,108.833 150.5,109.5C 149.711,109.217 149.044,108.717 148.5,108C 153.489,107.501 158.489,107.334 163.5,107.5 Z"/></g>
<g><path style="opacity:1" fill="#ece836" d="M 117.5,108.5 C 118.167,108.5 118.833,108.5 119.5,108.5C 121.103,108.312 122.437,108.812 123.5,110C 116.906,110.591 110.572,112.091 104.5,114.5C 102.218,115.489 99.8846,115.989 97.5,116C 99.0009,114.748 100.668,113.748 102.5,113C 107.604,111.424 112.604,109.924 117.5,108.5 Z"/></g>
<g><path style="opacity:1" fill="#852841" d="M 189.5,112.5 C 184.5,113.167 179.5,113.833 174.5,114.5C 173.957,114.44 173.624,114.107 173.5,113.5C 178.792,112.505 184.125,112.172 189.5,112.5 Z"/></g>
<g><path style="opacity:1" fill="#b08a8a" d="M 204.5,114.5 C 205.116,115.798 205.116,116.798 204.5,117.5C 196.65,117.073 196.65,116.073 204.5,114.5 Z"/></g>
<g><path style="opacity:1" fill="#eae534" d="M 119.5,117.5 C 120.376,117.369 121.043,117.702 121.5,118.5C 118.444,119.196 115.444,120.03 112.5,121C 113.308,121.308 113.975,121.808 114.5,122.5C 111.833,123.167 109.167,123.833 106.5,124.5C 113.377,127.739 113.044,129.573 105.5,130C 105.833,130.333 106.167,130.667 106.5,131C 101.387,131.289 96.3866,132.122 91.5,133.5C 93.6306,131.315 96.2972,129.982 99.5,129.5C 98.9747,128.808 98.3081,128.308 97.5,128C 100.101,127.08 102.768,126.413 105.5,126C 101.787,125.595 98.1206,125.595 94.5,126C 98.2211,123.473 102.221,121.473 106.5,120C 105.167,119.333 105.167,118.667 106.5,118C 110.821,117.501 115.154,117.334 119.5,117.5 Z"/></g>
<g><path style="opacity:0.777" fill="#b6706d" d="M 189.5,128.5 C 185.688,129.324 181.688,129.824 177.5,130C 176.663,131.011 176.33,132.178 176.5,133.5C 175.624,133.631 174.957,133.298 174.5,132.5C 175.246,131.264 175.579,129.93 175.5,128.5C 180.167,128.5 184.833,128.5 189.5,128.5 Z"/></g>
<g><path style="opacity:1" fill="#e8e52c" d="M 66.5,131.5 C 70.8191,130.799 74.4858,131.966 77.5,135C 80.4816,135.498 83.4816,135.665 86.5,135.5C 86.578,141.675 84.2446,146.675 79.5,150.5C 78.914,150.291 78.414,149.957 78,149.5C 77.3333,146.5 77.3333,143.5 78,140.5C 78.9497,143.191 79.6163,145.857 80,148.5C 85.2951,139.192 82.7951,135.692 72.5,138C 66.7237,139.363 65.3903,142.363 68.5,147C 65.083,147.876 62.583,146.709 61,143.5C 60.3333,141.5 60.3333,139.5 61,137.5C 63.0396,135.63 64.8729,133.63 66.5,131.5 Z"/></g>
<g><path style="opacity:1" fill="#5b4e60" d="M 70.5,132.5 C 72.337,132.639 72.6704,133.306 71.5,134.5C 70.7025,134.043 70.3691,133.376 70.5,132.5 Z"/></g>
<g><path style="opacity:1" fill="#d5d7e1" d="M 141.5,132.5 C 146.36,132.553 148.026,134.886 146.5,139.5C 143.557,134.073 141.057,134.406 139,140.5C 138.388,137.389 139.221,134.723 141.5,132.5 Z"/></g>
<g><path style="opacity:1" fill="#edeef2" d="M 152.5,133.5 C 156.677,132.842 158.177,134.508 157,138.5C 156.163,136.993 154.996,136.493 153.5,137C 151.959,138.579 150.792,140.413 150,142.5C 148.927,138.9 149.76,135.9 152.5,133.5 Z"/></g>
<g><path style="opacity:1" fill="#d7d9e4" d="M 130.5,134.5 C 135.494,134.329 137.328,136.662 136,141.5C 135.632,142.91 134.799,143.91 133.5,144.5C 132.692,142.577 132.192,140.577 132,138.5C 130.256,137.97 128.756,137.97 127.5,138.5C 128.524,137.148 129.524,135.815 130.5,134.5 Z"/></g>
<g><path style="opacity:1" fill="#efec29" d="M 141.5,138.5 C 142.496,138.414 143.329,138.748 144,139.5C 144.874,142.379 144.54,145.045 143,147.5C 140.416,144.834 139.916,141.834 141.5,138.5 Z"/></g>
<g><path style="opacity:1" fill="#c6c539" d="M 99.5,139.5 C 101.984,141.028 101.818,142.694 99,144.5C 98.3603,142.735 98.5269,141.068 99.5,139.5 Z"/></g>
<g><path style="opacity:1" fill="#c1c13e" d="M 104.5,138.5 C 105.94,140.42 105.607,142.087 103.5,143.5C 102.348,141.603 102.681,139.936 104.5,138.5 Z"/></g>
<g><path style="opacity:1" fill="#f3ef27" d="M 153.5,138.5 C 155.89,138.685 156.89,140.018 156.5,142.5C 155.016,148.562 153.683,148.728 152.5,143C 152.605,141.408 152.939,139.908 153.5,138.5 Z"/></g>
<g><path style="opacity:1" fill="#b9bc39" d="M 95.5,141.5 C 96.7759,142.386 96.7759,143.386 95.5,144.5C 94.4376,143.575 94.4376,142.575 95.5,141.5 Z"/></g>
<g><path style="opacity:1" fill="#e8e9ef" d="M 111.5,148.5 C 110.662,148.158 110.328,147.492 110.5,146.5C 111.239,146.631 111.906,146.464 112.5,146C 110.259,142.472 107.593,139.305 104.5,136.5C 105.365,135.417 106.365,135.251 107.5,136C 110.764,139.699 113.097,143.866 114.5,148.5C 113.5,148.5 112.5,148.5 111.5,148.5 Z"/></g>
<g><path style="opacity:1" fill="#eae92c" d="M 129.5,139.5 C 130.693,139.97 131.36,140.97 131.5,142.5C 131.308,144.577 130.808,146.577 130,148.5C 126.861,145.647 126.694,142.647 129.5,139.5 Z"/></g>
<g><path style="opacity:1" fill="#eb9a21" d="M 136.5,146.5 C 137.496,146.414 138.329,146.748 139,147.5C 140,149.5 141,151.5 142,153.5C 143.667,151.833 145.333,150.167 147,148.5C 148.011,149.337 149.178,149.67 150.5,149.5C 150.5,150.5 150.5,151.5 150.5,152.5C 145.317,152.408 141.984,154.742 140.5,159.5C 139.178,159.67 138.011,159.337 137,158.5C 136.501,154.514 136.334,150.514 136.5,146.5 Z"/></g>
<g><path style="opacity:1" fill="#272f65" d="M 110.5,146.5 C 110.328,147.492 110.662,148.158 111.5,148.5C 107.49,154.472 107.99,154.805 113,149.5C 113.507,150.996 113.007,152.163 111.5,153C 111.833,153.167 112.167,153.333 112.5,153.5C 114.201,152.446 115.868,151.446 117.5,150.5C 121.026,152.203 124.692,154.036 128.5,156C 129.337,157.011 129.67,158.178 129.5,159.5C 130.833,159.5 132.167,159.5 133.5,159.5C 134.408,155.149 135.408,150.816 136.5,146.5C 136.334,150.514 136.501,154.514 137,158.5C 138.011,159.337 139.178,159.67 140.5,159.5C 139.552,160.978 138.219,161.978 136.5,162.5C 136.5,167.833 136.5,173.167 136.5,178.5C 141.032,178.818 145.366,178.485 149.5,177.5C 149.942,176.769 150.109,175.769 150,174.5C 150.383,175.056 150.883,175.389 151.5,175.5C 155.664,178.613 160.331,179.28 165.5,177.5C 160.783,170.127 154.116,165.46 145.5,163.5C 144.375,162.348 144.375,161.348 145.5,160.5C 153.586,162.794 160.753,166.794 167,172.5C 166.36,164.893 162.86,158.893 156.5,154.5C 156.897,153.475 157.563,153.308 158.5,154C 160.333,155.833 162.167,157.667 164,159.5C 164.383,158.944 164.883,158.611 165.5,158.5C 170.011,163.207 172.011,168.873 171.5,175.5C 186.264,175.033 200.93,175.533 215.5,177C 218.372,179.537 220.872,182.37 223,185.5C 228.578,196.99 234.411,208.323 240.5,219.5C 243.167,220.167 245.833,220.833 248.5,221.5C 240.709,232.914 233.043,244.414 225.5,256C 164.167,256.667 102.833,256.667 41.5,256C 33.9693,244.634 26.636,233.134 19.5,221.5C 23.8142,221.4 27.3142,219.734 30,216.5C 37.3606,206.639 44.5272,196.639 51.5,186.5C 49.1414,183.149 46.8081,179.815 44.5,176.5C 62.1667,175.833 79.8333,175.167 97.5,174.5C 97.9281,171.215 98.9281,168.215 100.5,165.5C 101.496,165.414 102.329,165.748 103,166.5C 104.675,164.409 105.175,162.242 104.5,160C 105.579,159.044 106.745,158.211 108,157.5C 108.54,155.865 108.04,154.532 106.5,153.5C 107.929,151.107 109.263,148.774 110.5,146.5 Z"/></g>
<g><path style="opacity:1" fill="#f1981e" d="M 145.5,163.5 C 154.116,165.46 160.783,170.127 165.5,177.5C 160.331,179.28 155.664,178.613 151.5,175.5C 148.825,172.136 146.491,168.47 144.5,164.5C 144.624,163.893 144.957,163.56 145.5,163.5 Z"/></g>
<g><path style="opacity:1" fill="#f2981e" d="M 122.5,163.5 C 123.873,163.343 125.207,163.51 126.5,164C 123.359,168.641 120.026,173.141 116.5,177.5C 112.5,178.833 108.5,178.833 104.5,177.5C 109.12,170.88 115.12,166.213 122.5,163.5 Z"/></g>
<g><path style="opacity:1" fill="#f6991b" d="M 129.5,162.5 C 130.833,162.5 132.167,162.5 133.5,162.5C 133.5,167.833 133.5,173.167 133.5,178.5C 129.154,178.666 124.821,178.499 120.5,178C 125.178,173.811 128.178,168.644 129.5,162.5 Z"/></g>
<g><path style="opacity:1" fill="#ed9621" d="M 156.5,154.5 C 162.86,158.893 166.36,164.893 167,172.5C 160.753,166.794 153.586,162.794 145.5,160.5C 145.389,159.883 145.056,159.383 144.5,159C 147.677,155.439 151.677,153.939 156.5,154.5 Z"/></g>
<g><path style="opacity:1" fill="#ee9720" d="M 112.5,154.5 C 115.813,155.045 119.146,155.545 122.5,156C 123.91,156.368 124.91,157.201 125.5,158.5C 121.059,161.224 116.392,163.724 111.5,166C 108.688,167.977 106.022,170.144 103.5,172.5C 104.271,165.623 107.271,159.623 112.5,154.5 Z"/></g>
<g><path style="opacity:1" fill="#ef9620" d="M 133.5,159.5 C 132.167,159.5 130.833,159.5 129.5,159.5C 129.67,158.178 129.337,157.011 128.5,156C 124.692,154.036 121.026,152.203 117.5,150.5C 119.607,149.7 121.774,149.033 124,148.5C 126.844,150.488 130.011,151.821 133.5,152.5C 133.5,154.833 133.5,157.167 133.5,159.5 Z"/></g>
<g><path style="opacity:1" fill="#a02638" d="M 97.5,174.5 C 79.8333,175.167 62.1667,175.833 44.5,176.5C 43.9569,176.44 43.6236,176.107 43.5,175.5C 61.4877,174.5 79.4877,174.167 97.5,174.5 Z"/></g>
<g><path style="opacity:1" fill="#ed9821" d="M 136.5,162.5 C 138.144,162.286 139.644,162.62 141,163.5C 142.871,168.845 145.704,173.511 149.5,177.5C 145.366,178.485 141.032,178.818 136.5,178.5C 136.5,173.167 136.5,167.833 136.5,162.5 Z"/></g>
<g><path style="opacity:1" fill="#f6921d" d="M 99.5,181.5 C 95.8729,183.494 92.2062,185.494 88.5,187.5C 86.9254,185.886 86.2587,183.886 86.5,181.5C 90.8333,181.5 95.1667,181.5 99.5,181.5 Z"/></g>
<g><path style="opacity:1" fill="#f5ee27" d="M 144.5,221.5 C 142.302,219.902 139.969,218.569 137.5,217.5C 136.699,215.958 136.366,214.292 136.5,212.5C 136.427,209.05 134.594,207.717 131,208.5C 129.5,208.667 128,208.833 126.5,209C 125.748,209.671 125.414,210.504 125.5,211.5C 124.662,211.842 124.328,212.508 124.5,213.5C 123.094,213.973 122.427,214.973 122.5,216.5C 118.5,216.5 114.5,216.5 110.5,216.5C 110.833,215.833 111.167,215.167 111.5,214.5C 111.833,213.833 112.167,213.167 112.5,212.5C 117.167,204.5 121.833,196.5 126.5,188.5C 127.338,188.158 127.672,187.492 127.5,186.5C 127.938,186.565 128.272,186.399 128.5,186C 127.5,185 126.5,184 125.5,183C 128.817,182.502 132.15,182.335 135.5,182.5C 138.622,195.203 141.955,207.87 145.5,220.5C 145.376,221.107 145.043,221.44 144.5,221.5 Z"/></g>
<g><path style="opacity:1" fill="#f2eb29" d="M 176.5,181.5 C 179.64,193.059 182.306,204.725 184.5,216.5C 182.473,216.662 180.473,216.495 178.5,216C 173.942,210.367 169.275,204.867 164.5,199.5C 163.227,200.257 163.227,200.923 164.5,201.5C 164.786,207.259 164.452,212.925 163.5,218.5C 159.473,220.513 155.473,222.513 151.5,224.5C 152.217,212.18 152.551,199.847 152.5,187.5C 152.106,185.29 150.773,183.957 148.5,183.5C 147.957,183.44 147.624,183.107 147.5,182.5C 151.795,181.339 156.129,181.172 160.5,182C 164.667,186.833 168.833,191.667 173,196.5C 172.377,191.541 171.544,186.541 170.5,181.5C 172.5,181.5 174.5,181.5 176.5,181.5 Z"/></g>
<g><path style="opacity:1" fill="#f4eb27" d="M 220.5,194.5 C 216.833,194.5 213.167,194.5 209.5,194.5C 209.34,192.847 208.674,191.514 207.5,190.5C 207.126,188.05 205.626,187.05 203,187.5C 201.319,187.608 200.152,188.275 199.5,189.5C 201.463,195.076 203.796,200.409 206.5,205.5C 206.5,206.833 206.5,208.167 206.5,209.5C 209.5,209.5 212.5,209.5 215.5,209.5C 215.5,208.5 215.5,207.5 215.5,206.5C 212.57,205.16 209.57,203.826 206.5,202.5C 205.566,201.432 205.232,200.099 205.5,198.5C 209.634,197.515 213.968,197.182 218.5,197.5C 220.58,202.077 222.247,206.744 223.5,211.5C 214.167,211.5 204.833,211.5 195.5,211.5C 192.744,204.291 190.411,196.957 188.5,189.5C 187.522,186.522 185.522,184.522 182.5,183.5C 186.783,182.173 191.449,181.507 196.5,181.5C 208.856,178.361 216.856,182.695 220.5,194.5 Z"/></g>
<g><path style="opacity:1" fill="#f4ec28" d="M 99.5,181.5 C 100.239,181.369 100.906,181.536 101.5,182C 97.2026,190.435 93.8693,199.269 91.5,208.5C 91.1667,208.5 90.8333,208.5 90.5,208.5C 89.9569,208.56 89.6236,208.893 89.5,209.5C 95.1278,210.495 100.794,210.829 106.5,210.5C 100.709,212.097 95.0424,214.097 89.5,216.5C 84.6367,216.181 79.97,216.514 75.5,217.5C 75.1667,217.5 74.8333,217.5 74.5,217.5C 78.6329,207.235 83.2996,197.235 88.5,187.5C 92.2062,185.494 95.8729,183.494 99.5,181.5 Z"/></g>
<g><path style="opacity:1" fill="#d72c25" d="M 148.5,183.5 C 150.773,183.957 152.106,185.29 152.5,187.5C 150.167,187.167 148.833,185.833 148.5,183.5 Z"/></g>
<g><path style="opacity:1" fill="#d22426" d="M 182.5,183.5 C 185.522,184.522 187.522,186.522 188.5,189.5C 185.562,188.378 183.562,186.378 182.5,183.5 Z"/></g>
<g><path style="opacity:1" fill="#db3a25" d="M 84.5,183.5 C 83.7457,186.091 82.079,187.924 79.5,189C 76.1667,189.333 72.8333,189.667 69.5,190C 67.84,191.488 66.84,193.321 66.5,195.5C 65.6236,195.631 64.9569,195.298 64.5,194.5C 67.4233,188.168 72.4233,185.668 79.5,187C 80.8463,185.331 82.513,184.164 84.5,183.5 Z"/></g>
<g><path style="opacity:1" fill="#df3221" d="M 207.5,190.5 C 204.946,189.612 202.279,189.279 199.5,189.5C 200.152,188.275 201.319,187.608 203,187.5C 205.626,187.05 207.126,188.05 207.5,190.5 Z"/></g>
<g><path style="opacity:1" fill="#f6f027" d="M 66.5,181.5 C 72.9262,180.88 78.9262,181.547 84.5,183.5C 82.513,184.164 80.8463,185.331 79.5,187C 72.4233,185.668 67.4233,188.168 64.5,194.5C 64.9569,195.298 65.6236,195.631 66.5,195.5C 70.0122,194.945 73.0122,195.612 75.5,197.5C 71.1306,200.832 66.1306,202.332 60.5,202C 58.2567,204.488 56.2567,207.154 54.5,210C 55.0944,210.464 55.7611,210.631 56.5,210.5C 60.8461,210.334 65.1794,210.501 69.5,211C 70.4061,212.699 70.7394,214.533 70.5,216.5C 60.8276,216.666 51.1609,216.5 41.5,216C 50.2099,204.736 58.5432,193.236 66.5,181.5 Z"/></g>
<g><path style="opacity:1" fill="#3e2b62" d="M 199.5,189.5 C 202.279,189.279 204.946,189.612 207.5,190.5C 208.674,191.514 209.34,192.847 209.5,194.5C 209.5,195.167 209.5,195.833 209.5,196.5C 207.712,196.215 206.045,196.548 204.5,197.5C 204.624,198.107 204.957,198.44 205.5,198.5C 205.232,200.099 205.566,201.432 206.5,202.5C 206.5,203.5 206.5,204.5 206.5,205.5C 203.796,200.409 201.463,195.076 199.5,189.5 Z"/></g>
<g><path style="opacity:1" fill="#ba0c2e" d="M 209.5,194.5 C 213.167,194.5 216.833,194.5 220.5,194.5C 220.5,195.167 220.5,195.833 220.5,196.5C 216.833,196.5 213.167,196.5 209.5,196.5C 209.5,195.833 209.5,195.167 209.5,194.5 Z"/></g>
<g><path style="opacity:1" fill="#85714c" d="M 209.5,196.5 C 213.167,196.5 216.833,196.5 220.5,196.5C 221.167,196.5 221.5,196.833 221.5,197.5C 220.5,197.5 219.5,197.5 218.5,197.5C 213.968,197.182 209.634,197.515 205.5,198.5C 204.957,198.44 204.624,198.107 204.5,197.5C 206.045,196.548 207.712,196.215 209.5,196.5 Z"/></g>
<g><path style="opacity:1" fill="#211e6c" d="M 126.5,188.5 C 121.833,196.5 117.167,204.5 112.5,212.5C 111.833,212.5 111.5,212.167 111.5,211.5C 111.5,211.167 111.5,210.833 111.5,210.5C 104.5,209.833 97.5,209.167 90.5,208.5C 90.8333,208.5 91.1667,208.5 91.5,208.5C 98.8409,208.666 106.174,208.5 113.5,208C 117.333,201.5 121.167,195 125,188.5C 125.69,187.262 126.19,187.262 126.5,188.5 Z"/></g>
<g><path style="opacity:1" fill="#2e276b" d="M 131.5,197.5 C 133.185,198.184 134.185,199.517 134.5,201.5C 133.167,202.833 131.833,202.833 130.5,201.5C 131.246,200.264 131.579,198.93 131.5,197.5 Z"/></g>
<g><path style="opacity:1" fill="#ef9620" d="M 176.5,181.5 C 178.451,181.227 179.951,181.893 181,183.5C 183.351,194.566 185.851,205.566 188.5,216.5C 187.167,216.5 185.833,216.5 184.5,216.5C 182.306,204.725 179.64,193.059 176.5,181.5 Z"/></g>
<g><path style="opacity:1" fill="#dc2f24" d="M 75.5,197.5 C 74.2601,199.988 72.2601,201.821 69.5,203C 62.7285,201.676 58.3952,204.176 56.5,210.5C 55.7611,210.631 55.0944,210.464 54.5,210C 56.2567,207.154 58.2567,204.488 60.5,202C 66.1306,202.332 71.1306,200.832 75.5,197.5 Z"/></g>
<g><path style="opacity:1" fill="#e03f23" d="M 184.5,216.5 C 185.833,216.5 187.167,216.5 188.5,216.5C 187.306,217.777 185.64,218.444 183.5,218.5C 181.833,218.333 180.167,218.167 178.5,218C 173.593,212.602 168.927,207.102 164.5,201.5C 163.227,200.923 163.227,200.257 164.5,199.5C 169.275,204.867 173.942,210.367 178.5,216C 180.473,216.495 182.473,216.662 184.5,216.5 Z"/></g>
<g><path style="opacity:1" fill="#ef841f" d="M 66.5,181.5 C 58.5432,193.236 50.2099,204.736 41.5,216C 51.1609,216.5 60.8276,216.666 70.5,216.5C 70.5,217.167 70.5,217.833 70.5,218.5C 59.4187,218.81 48.4187,218.477 37.5,217.5C 44.2559,207.564 51.2559,197.731 58.5,188C 56.0807,186.491 55.0807,184.325 55.5,181.5C 59.1667,181.5 62.8333,181.5 66.5,181.5 Z"/></g>
<g><path style="opacity:1" fill="#e23122" d="M 206.5,202.5 C 209.57,203.826 212.57,205.16 215.5,206.5C 212.391,206.736 209.391,206.403 206.5,205.5C 206.5,204.5 206.5,203.5 206.5,202.5 Z"/></g>
<g><path style="opacity:1" fill="#3a2767" d="M 206.5,205.5 C 209.391,206.403 212.391,206.736 215.5,206.5C 215.5,207.5 215.5,208.5 215.5,209.5C 212.5,209.5 209.5,209.5 206.5,209.5C 206.5,208.167 206.5,206.833 206.5,205.5 Z"/></g>
<g><path style="opacity:1" fill="#918e44" d="M 90.5,208.5 C 97.5,209.167 104.5,209.833 111.5,210.5C 109.833,210.5 108.167,210.5 106.5,210.5C 100.794,210.829 95.1278,210.495 89.5,209.5C 89.6236,208.893 89.9569,208.56 90.5,208.5 Z"/></g>
<g><path style="opacity:1" fill="#e14422" d="M 136.5,212.5 C 133.087,210.232 129.42,209.898 125.5,211.5C 125.414,210.504 125.748,209.671 126.5,209C 128,208.833 129.5,208.667 131,208.5C 134.594,207.717 136.427,209.05 136.5,212.5 Z"/></g>
<g><path style="opacity:1" fill="#ed9421" d="M 150.5,224.5 C 148.181,224.008 146.181,223.008 144.5,221.5C 145.043,221.44 145.376,221.107 145.5,220.5C 141.955,207.87 138.622,195.203 135.5,182.5C 132.15,182.335 128.817,182.502 125.5,183C 126.5,184 127.5,185 128.5,186C 128.272,186.399 127.938,186.565 127.5,186.5C 125.241,185.656 124.241,183.989 124.5,181.5C 129.43,181.197 134.263,181.531 139,182.5C 143.149,196.442 146.982,210.442 150.5,224.5 Z"/></g>
<g><path style="opacity:1" fill="#f3991e" d="M 218.5,197.5 C 219.5,197.5 220.5,197.5 221.5,197.5C 225.26,202.684 228.26,208.35 230.5,214.5C 229.711,214.783 229.044,215.283 228.5,216C 218.833,216.667 209.167,216.667 199.5,216C 198.756,214.961 197.756,214.461 196.5,214.5C 195.596,213.791 195.263,212.791 195.5,211.5C 204.833,211.5 214.167,211.5 223.5,211.5C 222.247,206.744 220.58,202.077 218.5,197.5 Z"/></g>
<g><path style="opacity:1" fill="#f5a01c" d="M 106.5,210.5 C 108.167,210.5 109.833,210.5 111.5,210.5C 111.5,210.833 111.5,211.167 111.5,211.5C 104.946,216.08 97.6126,217.746 89.5,216.5C 95.0424,214.097 100.709,212.097 106.5,210.5 Z"/></g>
<g><path style="opacity:0.263" fill="#ddaeb0" d="M 24.5,215.5 C 19.9063,215.865 15.573,216.865 11.5,218.5C 10.596,217.791 10.2627,216.791 10.5,215.5C 15.1667,215.5 19.8333,215.5 24.5,215.5 Z"/></g>
<g><path style="opacity:1" fill="#db3626" d="M 124.5,213.5 C 124.573,215.027 123.906,216.027 122.5,216.5C 122.427,214.973 123.094,213.973 124.5,213.5 Z"/></g>
<g><path style="opacity:1" fill="#e23521" d="M 111.5,211.5 C 111.5,212.167 111.833,212.5 112.5,212.5C 112.167,213.167 111.833,213.833 111.5,214.5C 108.378,215.561 105.378,216.895 102.5,218.5C 93.3178,218.827 84.3178,218.493 75.5,217.5C 79.97,216.514 84.6367,216.181 89.5,216.5C 97.6126,217.746 104.946,216.08 111.5,211.5 Z"/></g>
<g><path style="opacity:1" fill="#e43920" d="M 110.5,216.5 C 114.5,216.5 118.5,216.5 122.5,216.5C 120.952,217.794 118.952,218.461 116.5,218.5C 114.048,218.461 112.048,217.794 110.5,216.5 Z"/></g>
<g><path style="opacity:1" fill="#e13021" d="M 196.5,214.5 C 197.756,214.461 198.756,214.961 199.5,216C 209.167,216.667 218.833,216.667 228.5,216C 229.044,215.283 229.711,214.783 230.5,214.5C 230.64,216.124 229.973,217.29 228.5,218C 218.833,218.667 209.167,218.667 199.5,218C 197.574,217.578 196.574,216.411 196.5,214.5 Z"/></g>
<g><path style="opacity:1" fill="#7b2845" d="M 37.5,217.5 C 48.4187,218.477 59.4187,218.81 70.5,218.5C 65.1771,219.166 59.6771,219.499 54,219.5C 48.1238,219.495 42.6238,218.829 37.5,217.5 Z"/></g>
<g><path style="opacity:1" fill="#7a2845" d="M 74.5,217.5 C 74.8333,217.5 75.1667,217.5 75.5,217.5C 84.3178,218.493 93.3178,218.827 102.5,218.5C 98.0124,219.166 93.3457,219.499 88.5,219.5C 83.4492,219.493 78.7825,218.827 74.5,217.5 Z"/></g>
<g><path style="opacity:1" fill="#d52a26" d="M 137.5,217.5 C 139.969,218.569 142.302,219.902 144.5,221.5C 146.181,223.008 148.181,224.008 150.5,224.5C 150.157,226.225 149.157,226.725 147.5,226C 144.672,223.752 141.672,221.752 138.5,220C 137.748,219.329 137.414,218.496 137.5,217.5 Z"/></g>
<g><path style="opacity:1" fill="#d52525" d="M 163.5,218.5 C 163.586,219.496 163.252,220.329 162.5,221C 159.294,223.034 155.96,224.867 152.5,226.5C 151.702,226.043 151.369,225.376 151.5,224.5C 155.473,222.513 159.473,220.513 163.5,218.5 Z"/></g>
<g><path style="opacity:1" fill="#86864f" d="M 179.5,231.5 C 175.498,231.036 171.831,231.702 168.5,233.5C 168.5,232.5 168.5,231.5 168.5,230.5C 172.371,230.185 176.038,230.518 179.5,231.5 Z"/></g>
<g><path style="opacity:1" fill="#f5ee27" d="M 58.5,238.5 C 56.7376,240.7 54.4042,241.867 51.5,242C 50.7476,242.671 50.4142,243.504 50.5,244.5C 49.0236,246.432 47.3569,246.765 45.5,245.5C 47.2974,241.008 48.6307,236.342 49.5,231.5C 52.5184,231.335 55.5184,231.502 58.5,232C 59.768,234.163 59.768,236.33 58.5,238.5 Z"/></g>
<g><path style="opacity:1" fill="#f3ee27" d="M 207.5,232.5 C 206.692,234.22 205.692,235.887 204.5,237.5C 203.527,238.791 202.527,238.791 201.5,237.5C 200.702,237.957 200.369,238.624 200.5,239.5C 198.645,240.69 196.812,242.023 195,243.5C 194.601,243.272 194.435,242.938 194.5,242.5C 196.489,239.194 198.489,235.861 200.5,232.5C 202.973,231.203 205.307,231.203 207.5,232.5 Z"/></g>
<g><path style="opacity:1" fill="#f5e827" d="M 220.5,247.5 C 218.833,247.5 217.167,247.5 215.5,247.5C 216.125,239.82 215.125,239.82 212.5,247.5C 210.833,247.5 209.167,247.5 207.5,247.5C 209.167,242.166 210.834,236.833 212.5,231.5C 216.167,231.5 219.833,231.5 223.5,231.5C 223.93,234.862 222.93,237.695 220.5,240C 220.892,242.354 220.892,244.854 220.5,247.5 Z"/></g>
<g><path style="opacity:1" fill="#b72b35" d="M 108.5,232.5 C 107.8,235.2 106.134,236.867 103.5,237.5C 101.972,237.483 101.472,236.816 102,235.5C 104.375,234.871 106.541,233.871 108.5,232.5 Z"/></g>
<g><path style="opacity:1" fill="#f0e32a" d="M 111.5,244.5 C 110.596,245.209 110.263,246.209 110.5,247.5C 108.833,247.5 107.167,247.5 105.5,247.5C 107.167,242.166 108.834,236.833 110.5,231.5C 112.527,231.338 114.527,231.505 116.5,232C 114.406,236.018 112.739,240.185 111.5,244.5 Z"/></g>
<g><path style="opacity:1" fill="#8d3444" d="M 179.5,232.5 C 177.609,234.892 176.109,237.558 175,240.5C 173.89,242.037 172.39,242.703 170.5,242.5C 171.588,241 172.921,239.667 174.5,238.5C 173.189,237.742 172.689,236.742 173,235.5C 175.375,234.871 177.541,233.871 179.5,232.5 Z"/></g>
<g><path style="opacity:1" fill="#f3ec29" d="M 108.5,232.5 C 106.541,233.871 104.375,234.871 102,235.5C 101.472,236.816 101.972,237.483 103.5,237.5C 104.167,237.5 104.5,237.833 104.5,238.5C 102.089,239.517 100.422,241.184 99.5,243.5C 99.5,243.833 99.5,244.167 99.5,244.5C 98.596,245.209 98.2627,246.209 98.5,247.5C 96.8333,247.5 95.1667,247.5 93.5,247.5C 94.9613,242.45 96.6279,237.45 98.5,232.5C 101.98,231.194 105.313,231.194 108.5,232.5 Z"/></g>
<g><path style="opacity:1" fill="#eee22c" d="M 128.5,237.5 C 126.833,237.5 125.167,237.5 123.5,237.5C 123.19,236.262 122.69,236.262 122,237.5C 120.691,239.747 120.025,242.08 120,244.5C 121.577,241.801 123.743,241.134 126.5,242.5C 125.82,243.86 125.153,245.193 124.5,246.5C 121.133,247.747 117.799,247.747 114.5,246.5C 114.196,245.85 113.863,245.183 113.5,244.5C 114.667,241.5 115.833,238.5 117,235.5C 119.314,231.014 122.814,229.681 127.5,231.5C 129.706,233.227 130.039,235.227 128.5,237.5 Z"/></g>
<g><path style="opacity:1" fill="#f0e82b" d="M 149.5,236.5 C 147.958,237.301 146.292,237.634 144.5,237.5C 143.754,233.69 142.754,233.69 141.5,237.5C 140.677,239.455 140.51,241.455 141,243.5C 142.77,241.582 144.937,241.082 147.5,242C 146.748,242.671 146.414,243.504 146.5,244.5C 142.935,247.539 138.935,248.205 134.5,246.5C 134.413,240.992 136.08,236.159 139.5,232C 143.121,229.91 146.621,230.077 150,232.5C 150.579,233.928 150.412,235.262 149.5,236.5 Z"/></g>
<g><path style="opacity:1" fill="#9c6840" d="M 207.5,232.5 C 207.662,234.527 207.495,236.527 207,238.5C 206.329,237.748 205.496,237.414 204.5,237.5C 205.692,235.887 206.692,234.22 207.5,232.5 Z"/></g>
<g><path style="opacity:1" fill="#4e3b62" d="M 217.5,235.5 C 218.713,236.497 218.546,237.497 217,238.5C 216.53,237.423 216.697,236.423 217.5,235.5 Z"/></g>
<g><path style="opacity:1" fill="#9b4443" d="M 53.5,234.5 C 54.2389,234.369 54.9056,234.536 55.5,235C 52.856,239.838 52.1893,239.672 53.5,234.5 Z"/></g>
<g><path style="opacity:1" fill="#f1db29" d="M 179.5,231.5 C 179.5,231.833 179.5,232.167 179.5,232.5C 177.541,233.871 175.375,234.871 173,235.5C 172.689,236.742 173.189,237.742 174.5,238.5C 172.921,239.667 171.588,241 170.5,242.5C 171.568,243.434 172.901,243.768 174.5,243.5C 174.714,245.144 174.38,246.644 173.5,248C 170.183,248.498 166.85,248.665 163.5,248.5C 164.572,243.285 166.238,238.285 168.5,233.5C 171.831,231.702 175.498,231.036 179.5,231.5 Z"/></g>
<g><path style="opacity:1" fill="#8e2c45" d="M 193.5,236.5 C 192.9,237.9 191.9,238.9 190.5,239.5C 189.185,238.524 187.852,237.524 186.5,236.5C 188.655,236.162 190.989,236.162 193.5,236.5 Z"/></g>
<g><path style="opacity:1" fill="#ab1d36" d="M 123.5,237.5 C 125.167,237.5 126.833,237.5 128.5,237.5C 128.209,238.649 127.376,239.316 126,239.5C 124.624,239.316 123.791,238.649 123.5,237.5 Z"/></g>
<g><path style="opacity:1" fill="#9c353e" d="M 149.5,236.5 C 149.586,237.496 149.252,238.329 148.5,239C 146.866,239.494 145.199,239.66 143.5,239.5C 143.869,237.007 143.203,236.34 141.5,237.5C 142.754,233.69 143.754,233.69 144.5,237.5C 146.292,237.634 147.958,237.301 149.5,236.5 Z"/></g>
<g><path style="opacity:1" fill="#c17337" d="M 204.5,237.5 C 205.968,238.806 207.301,240.306 208.5,242C 205.756,243.723 204.422,246.223 204.5,249.5C 202.179,249.771 200.179,249.104 198.5,247.5C 196.368,249.117 194.035,249.617 191.5,249C 192.244,247.961 193.244,247.461 194.5,247.5C 197.407,245.601 200.407,244.935 203.5,245.5C 203.357,243.738 203.691,242.071 204.5,240.5C 203.369,239.396 202.535,239.729 202,241.5C 201.722,240.584 201.222,239.918 200.5,239.5C 200.369,238.624 200.702,237.957 201.5,237.5C 202.527,238.791 203.527,238.791 204.5,237.5 Z"/></g>
<g><path style="opacity:1" fill="#bf3431" d="M 104.5,238.5 C 103.856,241.144 102.189,242.811 99.5,243.5C 100.422,241.184 102.089,239.517 104.5,238.5 Z"/></g>
<g><path style="opacity:1" fill="#f3e428" d="M 160.5,246.5 C 158.43,246.551 156.597,245.885 155,244.5C 153.97,244.836 153.47,245.503 153.5,246.5C 152.365,248.213 150.698,248.88 148.5,248.5C 151.167,242.5 153.833,236.5 156.5,230.5C 158.924,230.192 161.257,230.526 163.5,231.5C 162.582,236.64 161.582,241.64 160.5,246.5 Z"/></g>
<g><path style="opacity:1" fill="#d13229" d="M 58.5,238.5 C 57.2907,242.369 54.624,244.369 50.5,244.5C 50.4142,243.504 50.7476,242.671 51.5,242C 54.4042,241.867 56.7376,240.7 58.5,238.5 Z"/></g>
<g><path style="opacity:1" fill="#a47346" d="M 181.5,239.5 C 184.297,239.967 185.631,241.633 185.5,244.5C 183.263,243.551 180.929,242.884 178.5,242.5C 179.609,241.71 180.942,241.21 182.5,241C 181.944,240.617 181.611,240.117 181.5,239.5 Z"/></g>
<g><path style="opacity:1" fill="#f0e12b" d="M 90.5,247.5 C 88.5,247.5 86.5,247.5 84.5,247.5C 86.2076,242.413 88.2076,237.413 90.5,232.5C 92.0745,231.369 93.7412,231.202 95.5,232C 93.6887,237.122 92.022,242.289 90.5,247.5 Z"/></g>
<g><path style="opacity:1" fill="#765a50" d="M 200.5,239.5 C 201.222,239.918 201.722,240.584 202,241.5C 202.535,239.729 203.369,239.396 204.5,240.5C 203.691,242.071 203.357,243.738 203.5,245.5C 200.407,244.935 197.407,245.601 194.5,247.5C 193.28,245.716 193.28,244.05 194.5,242.5C 194.435,242.938 194.601,243.272 195,243.5C 196.812,242.023 198.645,240.69 200.5,239.5 Z"/></g>
<g><path style="opacity:1" fill="#f2e62a" d="M 68.5,247.5 C 66.8333,247.5 65.1667,247.5 63.5,247.5C 63.1583,246.662 62.4916,246.328 61.5,246.5C 59.9582,247.301 58.2915,247.634 56.5,247.5C 58.8869,242.395 61.5536,237.395 64.5,232.5C 66.396,231.534 68.396,231.201 70.5,231.5C 70.4815,236.923 69.8149,242.256 68.5,247.5 Z"/></g>
<g><path style="opacity:1" fill="#f3e829" d="M 193.5,236.5 C 190.989,236.162 188.655,236.162 186.5,236.5C 187.852,237.524 189.185,238.524 190.5,239.5C 191.878,241.97 191.545,244.304 189.5,246.5C 185.5,247.833 181.5,247.833 177.5,246.5C 176.529,245.038 176.862,243.705 178.5,242.5C 180.929,242.884 183.263,243.551 185.5,244.5C 185.631,241.633 184.297,239.967 181.5,239.5C 179.747,235.375 181.08,232.541 185.5,231C 188.303,230.245 190.97,230.578 193.5,232C 194.413,233.414 194.413,234.914 193.5,236.5 Z"/></g>
<g><path style="opacity:1" fill="#f2e82a" d="M 81.5,246.5 C 78.1328,247.747 74.7995,247.747 71.5,246.5C 71.1961,245.85 70.8627,245.183 70.5,244.5C 72.2275,241.713 73.3942,238.713 74,235.5C 76.1109,231.713 79.2776,230.213 83.5,231C 87.4819,233.409 87.3152,235.576 83,237.5C 80.6962,237.682 80.1962,237.016 81.5,235.5C 80.9984,234.479 80.3317,234.312 79.5,235C 78.2313,238.125 77.398,241.292 77,244.5C 78.5082,242.162 80.6748,241.162 83.5,241.5C 83.6085,243.514 82.9418,245.18 81.5,246.5 Z"/></g>
<g><path style="opacity:1" fill="#e69429" d="M 50.5,244.5 C 50.2407,248.068 48.2407,249.401 44.5,248.5C 44.2627,247.209 44.596,246.209 45.5,245.5C 47.3569,246.765 49.0236,246.432 50.5,244.5 Z"/></g>
<g><path style="opacity:1" fill="#eb8324" d="M 160.5,246.5 C 160.209,247.649 159.376,248.316 158,248.5C 156.393,247.926 154.893,247.26 153.5,246.5C 153.47,245.503 153.97,244.836 155,244.5C 156.597,245.885 158.43,246.551 160.5,246.5 Z"/></g>
<g><path style="opacity:1" fill="#d72426" d="M 71.5,246.5 C 74.7995,247.747 78.1328,247.747 81.5,246.5C 79.1421,249.236 76.1421,250.07 72.5,249C 71.7476,248.329 71.4142,247.496 71.5,246.5 Z"/></g>
<g><path style="opacity:1" fill="#a23c3c" d="M 111.5,244.5 C 112.17,247.59 111.003,249.257 108,249.5C 106.624,249.316 105.791,248.649 105.5,247.5C 107.167,247.5 108.833,247.5 110.5,247.5C 110.263,246.209 110.596,245.209 111.5,244.5 Z"/></g>
<g><path style="opacity:1" fill="#da2925" d="M 114.5,246.5 C 117.799,247.747 121.133,247.747 124.5,246.5C 122.142,249.236 119.142,250.07 115.5,249C 114.748,248.329 114.414,247.496 114.5,246.5 Z"/></g>
<g><path style="opacity:1" fill="#d22929" d="M 146.5,244.5 C 144.597,248.855 141.264,250.355 136.5,249C 135.619,248.292 134.953,247.458 134.5,246.5C 138.935,248.205 142.935,247.539 146.5,244.5 Z"/></g>
<g><path style="opacity:1" fill="#d82d27" d="M 177.5,246.5 C 181.5,247.833 185.5,247.833 189.5,246.5C 186.796,249.303 183.463,250.137 179.5,249C 178.619,248.292 177.953,247.458 177.5,246.5 Z"/></g>
<g><path style="opacity:1" fill="#97263d" d="M 61.5,246.5 C 61.516,248.484 60.516,249.484 58.5,249.5C 57.2867,249.253 56.62,248.586 56.5,247.5C 58.2915,247.634 59.9582,247.301 61.5,246.5 Z"/></g>
<g><path style="opacity:1" fill="#9d203a" d="M 63.5,247.5 C 65.1667,247.5 66.8333,247.5 68.5,247.5C 68.2089,248.649 67.3756,249.316 66,249.5C 64.6244,249.316 63.7911,248.649 63.5,247.5 Z"/></g>
<g><path style="opacity:1" fill="#9c213b" d="M 84.5,247.5 C 86.5,247.5 88.5,247.5 90.5,247.5C 90.0296,248.693 89.0296,249.36 87.5,249.5C 85.9704,249.36 84.9704,248.693 84.5,247.5 Z"/></g>
<g><path style="opacity:1" fill="#9b2d3d" d="M 99.5,244.5 C 99.5324,249.213 97.1991,250.713 92.5,249C 93.056,248.617 93.3893,248.117 93.5,247.5C 95.1667,247.5 96.8333,247.5 98.5,247.5C 98.2627,246.209 98.596,245.209 99.5,244.5 Z"/></g>
<g><path style="opacity:1" fill="#9a223c" d="M 207.5,247.5 C 209.167,247.5 210.833,247.5 212.5,247.5C 212.03,248.693 211.03,249.36 209.5,249.5C 207.024,249.767 206.357,249.101 207.5,247.5 Z"/></g>
<g><path style="opacity:1" fill="#9b223c" d="M 215.5,247.5 C 217.167,247.5 218.833,247.5 220.5,247.5C 220.209,248.649 219.376,249.316 218,249.5C 216.624,249.316 215.791,248.649 215.5,247.5 Z"/></g>
<g><path style="opacity:0.837" fill="#b9716f" d="M 229.5,259.5 C 227.603,260.805 225.269,261.471 222.5,261.5C 213.176,262.055 203.843,262.389 194.5,262.5C 152.913,262.514 111.247,262.348 69.5,262C 58.9919,261.83 48.6585,261.33 38.5,260.5C 102.238,260.829 165.905,260.496 229.5,259.5 Z"/></g>
</svg>
