<?xml version="1.0" encoding="UTF-8"?>
<!DOCTYPE svg PUBLIC "-//W3C//DTD SVG 1.1//EN" "http://www.w3.org/Graphics/SVG/1.1/DTD/svg11.dtd">
<svg xmlns="http://www.w3.org/2000/svg" version="1.1" width="1080px" height="1080px" style="shape-rendering:geometricPrecision; text-rendering:geometricPrecision; image-rendering:optimizeQuality; fill-rule:evenodd; clip-rule:evenodd" xmlns:xlink="http://www.w3.org/1999/xlink">
<g><path style="opacity:0.959" fill="#0c262e" d="M 854.5,97.5 C 863.751,97.1822 872.917,97.5155 882,98.5C 893.985,152.747 903.485,207.413 910.5,262.5C 919.163,260.835 927.829,259.168 936.5,257.5C 935.731,289.782 929.898,321.115 919,351.5C 919.38,373.482 919.547,395.482 919.5,417.5C 945.873,422.986 972.54,425.986 999.5,426.5C 989.458,461.925 972.624,493.592 949,521.5C 937.128,532.708 924.128,542.375 910,550.5C 904.887,585.179 898.054,619.513 889.5,653.5C 893.859,685.086 897.692,716.753 901,748.5C 904.183,754.531 906.517,760.864 908,767.5C 910.569,786.12 912.736,804.786 914.5,823.5C 912.875,850.297 898.875,866.464 872.5,872C 851.854,877.995 831.021,883.161 810,887.5C 808.893,887.415 807.893,887.081 807,886.5C 792.984,918.045 778.484,949.379 763.5,980.5C 762.667,980.833 761.833,981.167 761,981.5C 713.311,971.27 666.644,957.603 621,940.5C 579.098,951.6 537.265,962.934 495.5,974.5C 491.933,952.965 489.267,931.299 487.5,909.5C 464.199,911.809 440.865,913.976 417.5,916C 406.697,917.904 397.03,922.237 388.5,929C 371.431,935.866 358.264,931.366 349,915.5C 345.51,904.783 343.51,893.783 343,882.5C 332.427,872.963 329.594,861.463 334.5,848C 327.529,828.919 325.695,809.419 329,789.5C 316.216,780.384 303.716,770.884 291.5,761C 289.17,759.477 286.836,758.977 284.5,759.5C 289.108,769.048 293.441,778.715 297.5,788.5C 265.283,786.817 236.283,776.317 210.5,757C 205.466,752.301 200.8,747.301 196.5,742C 173.357,731.193 154.857,715.026 141,693.5C 130.797,687.634 122.131,679.968 115,670.5C 115.031,644.648 119.698,619.648 129,595.5C 129.667,593.833 129.667,592.167 129,590.5C 111.054,564.283 94.8872,536.95 80.5,508.5C 154.859,382.641 255.526,283.474 382.5,211C 391.343,206.078 400.343,201.412 409.5,197C 430.756,171.737 455.089,150.07 482.5,132C 497.587,122.812 513.92,118.479 531.5,119C 534.178,127.584 535.511,136.417 535.5,145.5C 605.109,124.898 676.109,111.398 748.5,105C 783.948,101.893 819.281,99.393 854.5,97.5 Z"/></g>
<g><path style="opacity:1" fill="#152c40" d="M 834.5,112.5 C 846.171,112.333 857.838,112.5 869.5,113C 882.191,168.262 891.858,224.096 898.5,280.5C 905.895,279.088 913.228,277.421 920.5,275.5C 920.833,276.333 921.167,277.167 921.5,278C 919.379,301.984 913.879,325.15 905,347.5C 905.338,374.822 905.505,402.155 905.5,429.5C 929.804,435.544 954.471,438.877 979.5,439.5C 969.777,473.367 951.444,501.534 924.5,524C 916.631,529.768 908.298,534.768 899.5,539C 897.785,539.777 896.785,541.11 896.5,543C 890.962,580.021 883.629,616.688 874.5,653C 875.538,656.448 876.371,659.948 877,663.5C 880.549,690.779 883.215,718.113 885,745.5C 874.748,738.958 864.581,732.291 854.5,725.5C 852.912,727.113 851.912,729.113 851.5,731.5C 863.114,740.314 875.114,748.647 887.5,756.5C 889.499,758.493 890.999,760.827 892,763.5C 893.922,770.37 895.255,777.37 896,784.5C 897.717,797.108 898.884,809.775 899.5,822.5C 900.3,838.507 893.3,849.341 878.5,855C 855.671,861.781 832.671,867.615 809.5,872.5C 805.67,872.633 802.004,871.966 798.5,870.5C 784.154,902.518 769.321,934.185 754,965.5C 708.829,954.326 664.329,940.993 620.5,925.5C 582.526,935.826 544.526,945.826 506.5,955.5C 504.581,933.067 501.914,910.733 498.5,888.5C 491.732,892.714 484.399,895.547 476.5,897C 463.185,898.012 449.852,898.678 436.5,899C 415.57,899.2 396.57,905.2 379.5,917C 371.256,919.082 365.423,916.249 362,908.5C 358.976,897.38 357.81,886.046 358.5,874.5C 350.865,872.521 346.865,867.521 346.5,859.5C 346.953,855.638 348.286,852.138 350.5,849C 343.423,833.2 340.59,816.7 342,799.5C 343.996,793.893 344.83,788.226 344.5,782.5C 329.143,771.821 314.143,760.654 299.5,749C 285.276,743.221 271.609,736.388 258.5,728.5C 257.831,732.209 258.331,735.875 260,739.5C 264.414,750.164 269.248,760.664 274.5,771C 246.012,766.501 223.012,752.834 205.5,730C 182.549,719.388 164.215,703.388 150.5,682C 142.816,677.986 135.983,672.819 130,666.5C 129.971,640.285 135.471,615.285 146.5,591.5C 127.655,564.798 111.155,536.798 97,507.5C 138.584,440.547 188.418,380.047 246.5,326C 298.119,279.34 355.119,240.34 417.5,209C 440.159,182.993 465.826,160.66 494.5,142C 502.418,136.697 511.084,134.364 520.5,135C 521.012,145.249 521.845,155.416 523,165.5C 597.017,141.229 672.85,125.396 750.5,118C 778.603,115.358 806.603,113.524 834.5,112.5 Z"/></g>
<g><path style="opacity:1" fill="#fbfbfb" d="M 829.5,133.5 C 837.5,133.5 845.5,133.5 853.5,133.5C 863.666,183.16 871.666,233.16 877.5,283.5C 870.658,285.585 863.658,286.918 856.5,287.5C 851.291,243.913 844.458,200.58 836,157.5C 834.302,156.267 832.302,155.6 830,155.5C 825.511,156.04 821.011,156.374 816.5,156.5C 815.111,148.999 813.111,141.665 810.5,134.5C 817.022,134.823 823.355,134.49 829.5,133.5 Z"/></g>
<g><path style="opacity:1" fill="#f8f8f9" d="M 763.5,137.5 C 768.844,137.334 774.177,137.501 779.5,138C 765.998,146.252 752.331,154.252 738.5,162C 724.872,164.223 711.206,166.056 697.5,167.5C 697.5,164.5 697.5,161.5 697.5,158.5C 641.32,166.065 586.153,178.065 532,194.5C 530.931,191.792 529.764,189.125 528.5,186.5C 582.742,167.523 638.409,154.023 695.5,146C 718.353,143.463 741.02,140.629 763.5,137.5 Z"/></g>
<g><path style="opacity:1" fill="#fdfdfd" d="M 629.5,616.5 C 629.44,615.957 629.107,615.624 628.5,615.5C 627.526,617.743 627.192,620.076 627.5,622.5C 626.416,655.433 622.916,688.1 617,720.5C 615.667,715.833 614.333,711.167 613,706.5C 612.481,705.484 611.647,704.818 610.5,704.5C 601.311,707.429 591.978,709.762 582.5,711.5C 585.755,669.869 577.921,630.535 559,593.5C 554.285,585.898 549.452,578.398 544.5,571C 555.534,540.695 563.034,509.528 567,477.5C 569.473,454.402 568.807,431.402 565,408.5C 564.085,401.908 562.419,395.575 560,389.5C 552.44,432.408 541.44,474.408 527,515.5C 520.278,534.946 510.945,552.946 499,569.5C 495.623,572.708 492.456,576.042 489.5,579.5C 514.283,601.164 535.783,625.497 554,652.5C 565.605,671.487 573.772,691.821 578.5,713.5C 555.044,719.53 531.711,725.863 508.5,732.5C 504.599,701.355 489.932,676.688 464.5,658.5C 463.167,657.067 461.667,655.733 460,654.5C 460.077,656.772 461.243,658.438 463.5,659.5C 473.1,671.686 480.934,685.02 487,699.5C 487.667,700.5 487.667,701.5 487,702.5C 478.5,691.333 468.667,681.5 457.5,673C 420.651,645.577 379.984,625.577 335.5,613C 326.208,611.176 316.874,609.676 307.5,608.5C 302.023,607.22 296.356,606.72 290.5,607C 294.145,607.995 297.812,608.828 301.5,609.5C 311.681,612.06 321.348,615.893 330.5,621C 316.825,625.335 304.492,632.001 293.5,641C 274.684,658.802 258.517,678.635 245,700.5C 243.363,702.81 241.196,704.31 238.5,705C 229.019,707.324 219.685,706.991 210.5,704C 196.893,696.393 186.726,685.56 180,671.5C 179.823,663.532 182.323,656.532 187.5,650.5C 191.051,655.947 194.218,655.614 197,649.5C 204.398,632.212 210.398,614.546 215,596.5C 200.254,619.582 180.754,637.415 156.5,650C 153.607,651.149 150.607,651.649 147.5,651.5C 150.913,624.327 159.746,598.994 174,575.5C 187.591,554.234 203.091,534.401 220.5,516C 225.167,513.667 229.833,511.333 234.5,509C 231.5,507.167 228.5,505.333 225.5,503.5C 224.058,500.213 224.725,497.38 227.5,495C 231.29,492.623 235.29,490.623 239.5,489C 237.63,487.634 235.63,486.467 233.5,485.5C 232.767,475.748 234.6,466.415 239,457.5C 253.072,429.004 269.405,402.004 288,376.5C 293.038,369.752 298.538,363.419 304.5,357.5C 310.938,362.61 318.271,364.944 326.5,364.5C 344.172,362.249 361.505,358.416 378.5,353C 364.856,351.814 351.523,349.147 338.5,345C 337.5,344.167 336.5,343.333 335.5,342.5C 333.993,337.109 332.993,331.609 332.5,326C 338.232,317.595 344.732,309.761 352,302.5C 351.417,307.606 353.25,311.439 357.5,314C 365.901,317.068 374.568,319.068 383.5,320C 405.851,320.79 428.184,320.457 450.5,319C 426.249,317.227 408.249,305.893 396.5,285C 401.529,278.304 407.529,272.638 414.5,268C 423.762,261.353 433.428,255.686 443.5,251C 439.516,257.858 439.682,264.691 444,271.5C 455.68,282.746 469.513,290.246 485.5,294C 496.401,296.915 507.401,298.915 518.5,300C 503.906,293.968 491.406,285.135 481,273.5C 474.013,261.051 473.68,248.385 480,235.5C 517.124,220.46 555.291,208.626 594.5,200C 620.203,193.991 645.87,187.824 671.5,181.5C 672.167,181.833 672.833,182.167 673.5,182.5C 664.284,199.221 652.951,214.387 639.5,228C 690.995,210.256 740.328,187.589 787.5,160C 788.5,159.333 789.5,159.333 790.5,160C 799.57,199.111 796.404,237.278 781,274.5C 775.306,287.84 767.64,299.84 758,310.5C 762.314,291.57 766.814,272.57 771.5,253.5C 771.167,252.5 770.833,251.5 770.5,250.5C 766.022,253.81 761.689,257.31 757.5,261C 756.668,261.688 756.002,261.521 755.5,260.5C 762.38,243.307 767.213,225.64 770,207.5C 736.75,236.754 701.25,262.921 663.5,286C 685.372,295.624 708.039,302.624 731.5,307C 720.03,317.741 706.696,325.407 691.5,330C 719.697,335.188 748.03,335.855 776.5,332C 812.08,326.617 847.413,319.951 882.5,312C 884.579,311.192 886.579,311.359 888.5,312.5C 878.888,338.724 866.388,363.391 851,386.5C 845.866,392.635 840.366,398.469 834.5,404C 816.488,403.906 798.488,403.573 780.5,403C 820.175,426.666 862.508,443.999 907.5,455C 918.373,457.354 929.373,458.521 940.5,458.5C 938.059,465.379 934.559,471.712 930,477.5C 910.662,501.774 885.829,517.941 855.5,526C 838.244,530.647 820.911,534.981 803.5,539C 813.593,557.87 818.759,578.036 819,599.5C 819.667,608.5 819.667,617.5 819,626.5C 795.1,599.266 769.267,574.099 741.5,551C 725.936,538.289 708.936,527.789 690.5,519.5C 721.299,564.219 738.299,614.219 741.5,669.5C 738.404,669.935 735.404,670.435 732.5,671C 716.23,652.393 698.396,635.56 679,620.5C 681.938,637.634 683.272,654.967 683,672.5C 665.692,653.358 647.859,634.692 629.5,616.5 Z"/></g>
<g><path style="opacity:1" fill="#fafbfb" d="M 502.5,159.5 C 503.5,159.5 504.5,159.5 505.5,159.5C 505.334,168.506 505.5,177.506 506,186.5C 507.61,191.331 509.61,195.997 512,200.5C 512.543,203.868 512.376,207.201 511.5,210.5C 503.855,212.985 496.188,215.485 488.5,218C 479.845,220.501 475.845,217.334 476.5,208.5C 476.577,204.344 477.077,200.344 478,196.5C 471.888,200.279 466.055,204.445 460.5,209C 445.571,222.717 430.738,236.551 416,250.5C 416.295,245.942 417.628,241.609 420,237.5C 423,232.833 426,228.167 429,223.5C 438.333,212.833 447.667,202.167 457,191.5C 471.095,179.212 486.261,168.545 502.5,159.5 Z"/></g>
<g><path style="opacity:1" fill="#172d41" d="M 621.5,233.5 C 623.857,233.337 626.19,233.503 628.5,234C 620.569,239.263 614.402,246.096 610,254.5C 607.935,261.061 608.602,267.395 612,273.5C 623.988,296.281 639.488,316.447 658.5,334C 628.879,323.098 603.046,306.265 581,283.5C 574.339,275.871 572.006,267.205 574,257.5C 579.66,248.903 587.494,243.069 597.5,240C 605.526,237.496 613.526,235.329 621.5,233.5 Z"/></g>
<g><path style="opacity:1" fill="#fbfbfb" d="M 372.5,257.5 C 373.239,257.369 373.906,257.536 374.5,258C 341.631,285.202 311.798,315.369 285,348.5C 231.645,396.662 185.479,450.662 146.5,510.5C 153.93,523.702 161.597,536.702 169.5,549.5C 166.57,554.94 163.403,560.274 160,565.5C 159.28,567.255 158.113,568.089 156.5,568C 143.953,549.079 132.286,529.579 121.5,509.5C 177.463,420.032 248.463,344.532 334.5,283C 347.405,274.725 360.071,266.225 372.5,257.5 Z"/></g>
<g><path style="opacity:1" fill="#192f42" d="M 521.5,354.5 C 522.5,354.5 523.5,354.5 524.5,354.5C 508.372,394.459 484.872,429.459 454,459.5C 453.333,458.833 453.333,458.167 454,457.5C 465.786,440.937 475.786,423.271 484,404.5C 487.034,397.089 488.034,389.422 487,381.5C 485.52,378.337 483.02,376.504 479.5,376C 474.757,375.457 470.09,375.457 465.5,376C 471.888,372.139 478.554,368.806 485.5,366C 497.56,361.839 509.56,358.006 521.5,354.5 Z"/></g>
<g><path style="opacity:1" fill="#172e42" d="M 450.5,376.5 C 451.552,376.351 452.552,376.517 453.5,377C 440.404,387.425 427.904,398.592 416,410.5C 413.999,431.665 408.832,451.998 400.5,471.5C 402.485,479.108 404.318,486.775 406,494.5C 406.561,496.725 407.561,498.725 409,500.5C 423.5,517.667 439.333,533.5 456.5,548C 430.075,541.293 405.075,530.96 381.5,517C 376.924,511.108 372.424,505.274 368,499.5C 353.723,505.289 338.89,508.789 323.5,510C 336.208,519.431 350.542,523.764 366.5,523C 362.323,525.059 357.99,526.726 353.5,528C 340.484,528.923 327.484,529.923 314.5,531C 308.137,532.866 302.137,535.199 296.5,538C 300.553,531.109 305.553,524.942 311.5,519.5C 308.436,516.751 304.77,515.251 300.5,515C 282.613,514.36 268.78,521.527 259,536.5C 256.299,541.853 253.632,547.186 251,552.5C 252.48,537.726 256.98,523.893 264.5,511C 260.277,508.301 256.11,505.467 252,502.5C 250.241,496.113 250.574,489.78 253,483.5C 261.834,460.823 273.501,439.823 288,420.5C 281.397,433.941 275.731,447.941 271,462.5C 267.848,471.598 266.848,480.931 268,490.5C 277.616,496.939 287.45,497.106 297.5,491C 309.041,482.459 318.875,472.293 327,460.5C 340.969,445.191 356.136,431.357 372.5,419C 396.897,401.967 422.897,387.8 450.5,376.5 Z"/></g>
<g><path style="opacity:1" fill="#152c40" d="M 605.5,582.5 C 604.549,581.081 604.216,579.415 604.5,577.5C 606.359,542.504 608.192,507.504 610,472.5C 612.509,443.545 607.009,416.212 593.5,390.5C 613.746,398.846 630.579,412.179 644,430.5C 644.414,435.53 644.081,440.53 643,445.5C 641,456.167 639,466.833 637,477.5C 627.272,512.749 616.772,547.749 605.5,582.5 Z"/></g>
<g><path style="opacity:1" fill="#162d40" d="M 653.5,396.5 C 674.387,395.043 694.053,399.543 712.5,410C 724.588,420.664 732.755,433.831 737,449.5C 742.133,463.214 745.8,477.214 748,491.5C 736.907,477.737 725.074,464.57 712.5,452C 699.578,440.407 686.078,429.574 672,419.5C 666.294,411.398 660.128,403.731 653.5,396.5 Z"/></g>
<g><path style="opacity:1" fill="#f5f6f7" d="M 883.5,392.5 C 884.494,402.319 884.827,412.319 884.5,422.5C 879.22,421.694 874.22,420.028 869.5,417.5C 874.951,409.597 879.618,401.264 883.5,392.5 Z"/></g>
<g><path style="opacity:1" fill="#74bde6" d="M 398.5,415.5 C 399.805,417.397 400.471,419.731 400.5,422.5C 398.701,439.695 394.701,456.362 388.5,472.5C 391.764,482.458 394.93,492.458 398,502.5C 406.457,512.991 415.957,522.491 426.5,531C 412.871,525.013 399.871,517.679 387.5,509C 382.043,501.925 377.21,494.425 373,486.5C 356.299,495.625 338.466,499.792 319.5,499C 316.681,498.426 314.348,497.093 312.5,495C 335.593,462.318 364.26,435.818 398.5,415.5 Z"/></g>
<g><path style="opacity:1" fill="#1d3245" d="M 239.5,528.5 C 240.873,528.343 242.207,528.51 243.5,529C 232.583,539.661 225.416,552.494 222,567.5C 221.877,557.13 222.544,546.797 224,536.5C 224.833,535.667 225.667,534.833 226.5,534C 230.893,532.044 235.226,530.211 239.5,528.5 Z"/></g>
<g><path style="opacity:1" fill="#fafafb" d="M 872.5,550.5 C 873.139,551.097 873.472,551.93 873.5,553C 868.788,582.393 863.121,611.56 856.5,640.5C 852.833,640.5 849.167,640.5 845.5,640.5C 846.268,627.509 846.935,614.509 847.5,601.5C 845.454,586.862 846.788,572.529 851.5,558.5C 858.699,556.056 865.699,553.389 872.5,550.5 Z"/></g>
<g><path style="opacity:1" fill="#61707e" d="M 604.5,577.5 C 604.216,579.415 604.549,581.081 605.5,582.5C 604.91,583.766 604.41,585.099 604,586.5C 603.195,583.304 603.362,580.304 604.5,577.5 Z"/></g>
<g><path style="opacity:1" fill="#1a3043" d="M 363.5,584.5 C 368.511,584.334 373.511,584.501 378.5,585C 384.61,587.221 390.277,590.221 395.5,594C 411.765,606.93 426.765,621.263 440.5,637C 427.686,629.911 415.019,622.244 402.5,614C 393.833,609.333 385.167,604.667 376.5,600C 364.81,596.246 352.81,594.079 340.5,593.5C 347.889,589.487 355.556,586.487 363.5,584.5 Z"/></g>
<g><path style="opacity:1" fill="#1c3245" d="M 264.5,599.5 C 265.239,599.369 265.906,599.536 266.5,600C 257.294,616.548 245.794,631.381 232,644.5C 231.333,643.833 231.333,643.167 232,642.5C 237.411,636.016 242.078,629.016 246,621.5C 248.786,616.591 247.953,612.591 243.5,609.5C 250.682,606.408 257.682,603.075 264.5,599.5 Z"/></g>
<g><path style="opacity:1" fill="#4b5b6b" d="M 307.5,608.5 C 305.265,608.205 303.265,608.539 301.5,609.5C 297.812,608.828 294.145,607.995 290.5,607C 296.356,606.72 302.023,607.22 307.5,608.5 Z"/></g>
<g><path style="opacity:1" fill="#23374a" d="M 284.5,618.5 C 285.525,618.897 285.692,619.563 285,620.5C 275.909,632.926 265.409,644.093 253.5,654C 252.833,654.667 252.167,654.667 251.5,654C 256.378,648.791 260.878,643.291 265,637.5C 267.391,633.387 269.224,629.054 270.5,624.5C 275.514,623.06 280.181,621.06 284.5,618.5 Z"/></g>
<g><path style="opacity:1" fill="#828e99" d="M 629.5,616.5 C 628.833,618.5 628.167,620.5 627.5,622.5C 627.192,620.076 627.526,617.743 628.5,615.5C 629.107,615.624 629.44,615.957 629.5,616.5 Z"/></g>
<g><path style="opacity:1" fill="#f5f6f6" d="M 318.5,634.5 C 319.496,634.414 320.329,634.748 321,635.5C 322.045,642.821 320.212,649.321 315.5,655C 310.113,654.307 305.447,651.973 301.5,648C 306.154,642.175 311.82,637.675 318.5,634.5 Z"/></g>
<g><path style="opacity:1" fill="#f7f8f8" d="M 295.5,650.5 C 299.539,652.921 301.206,656.587 300.5,661.5C 300.563,666.916 299.23,671.916 296.5,676.5C 290.428,674.81 285.428,671.643 281.5,667C 284.922,660.414 289.589,654.914 295.5,650.5 Z"/></g>
<g><path style="opacity:1" fill="#74bde7" d="M 843.5,655.5 C 847.514,655.334 851.514,655.501 855.5,656C 858.333,657.5 860.5,659.667 862,662.5C 864.316,679.132 866.482,695.799 868.5,712.5C 868.167,713.833 867.833,715.167 867.5,716.5C 858.034,710.865 848.7,705.031 839.5,699C 837.763,693.677 837.096,688.177 837.5,682.5C 827.917,685.216 818.25,687.55 808.5,689.5C 809.094,701.252 810.427,712.919 812.5,724.5C 832.833,737.333 853.167,750.167 873.5,763C 876.106,764.938 877.939,767.438 879,770.5C 882.153,790.393 884.153,810.393 885,830.5C 883.037,836.731 878.87,840.564 872.5,842C 851.682,847.72 830.849,853.22 810,858.5C 804.573,857.747 800.906,854.747 799,849.5C 796.446,831.189 794.446,812.856 793,794.5C 802.372,800.034 811.872,805.367 821.5,810.5C 822.472,817.29 823.806,823.957 825.5,830.5C 835.407,827.365 845.407,824.531 855.5,822C 856.428,821.612 857.095,820.945 857.5,820C 855.995,808.135 854.328,796.302 852.5,784.5C 831.199,771.03 810.032,757.364 789,743.5C 786.164,737.498 784.498,731.165 784,724.5C 781.734,709.907 780.734,695.241 781,680.5C 782.779,676.388 785.612,673.222 789.5,671C 807.618,665.808 825.618,660.642 843.5,655.5 Z"/></g>
<g><path style="opacity:1" fill="#62717f" d="M 464.5,658.5 C 463.833,658.5 463.5,658.833 463.5,659.5C 461.243,658.438 460.077,656.772 460,654.5C 461.667,655.733 463.167,657.067 464.5,658.5 Z"/></g>
<g><path style="opacity:1" fill="#fbfbfb" d="M 274.5,672.5 C 288.185,695.359 301.519,718.526 314.5,742C 291.988,733.323 271.488,721.157 253,705.5C 252.333,704.5 252.333,703.5 253,702.5C 259.931,692.294 267.098,682.294 274.5,672.5 Z"/></g>
<g><path style="opacity:1" fill="#74bde7" d="M 439.5,672.5 C 452.619,676.637 463.119,684.303 471,695.5C 470.22,704.519 468.887,713.519 467,722.5C 464.308,719.308 461.808,715.975 459.5,712.5C 459.244,740.292 453.077,766.626 441,791.5C 429.138,783.977 418.138,775.31 408,765.5C 405.331,772.178 404.165,779.178 404.5,786.5C 404.638,795.102 405.638,803.602 407.5,812C 407.167,812.833 406.833,813.667 406.5,814.5C 391.953,810.127 383.787,800.461 382,785.5C 380.878,765.595 382.545,745.928 387,726.5C 389.3,710.9 396.133,697.733 407.5,687C 409.025,685.991 410.692,685.491 412.5,685.5C 409.174,710.056 407.674,734.723 408,759.5C 411.556,735.276 418.223,711.942 428,689.5C 431.843,683.805 435.677,678.138 439.5,672.5 Z"/></g>
<g><path style="opacity:1" fill="#75bde7" d="M 751.5,680.5 C 760.639,678.983 766.472,682.65 769,691.5C 774.639,742.198 780.639,792.864 787,843.5C 789.616,854.422 786.116,862.589 776.5,868C 756.079,873.521 735.745,879.187 715.5,885C 711.167,885.667 706.833,885.667 702.5,885C 700.622,883.457 699.122,881.624 698,879.5C 696.617,874.92 695.617,870.253 695,865.5C 688.851,813.853 683.184,762.186 678,710.5C 679.436,704.13 683.269,699.963 689.5,698C 710.333,692.397 730.999,686.563 751.5,680.5 Z"/></g>
<g><path style="opacity:1" fill="#f0f1f2" d="M 163.5,674.5 C 174.884,687.854 187.884,699.354 202.5,709C 205.35,711.682 208.016,714.516 210.5,717.5C 208.813,718.568 207.146,718.401 205.5,717C 187.264,706.931 173.264,692.765 163.5,674.5 Z"/></g>
<g><path style="opacity:1" fill="#74bde6" d="M 638.5,857.5 C 638.461,858.756 638.961,859.756 640,860.5C 640.5,852.173 640.666,843.84 640.5,835.5C 641.074,793.818 642.241,752.151 644,710.5C 652.679,707.622 661.512,705.288 670.5,703.5C 666.877,769.437 662.544,835.27 657.5,901C 649.484,903.103 641.484,905.27 633.5,907.5C 632.558,907.392 631.725,907.059 631,906.5C 612.318,847.436 593.485,788.436 574.5,729.5C 583.613,726.222 592.946,723.888 602.5,722.5C 614.642,767.397 626.642,812.397 638.5,857.5 Z"/></g>
<g><path style="opacity:1" fill="#f4f5f6" d="M 246.5,708.5 C 247.158,709.793 247.492,711.293 247.5,713C 247.431,714.986 246.765,716.486 245.5,717.5C 241.203,716.854 237.203,715.354 233.5,713C 238.468,713.176 242.801,711.676 246.5,708.5 Z"/></g>
<g><path style="opacity:1" fill="#fafbfb" d="M 313.5,709.5 C 313.56,708.957 313.893,708.624 314.5,708.5C 316.385,709.609 318.385,710.443 320.5,711C 335.383,722.884 350.549,734.384 366,745.5C 364.812,752.918 362.979,760.251 360.5,767.5C 350.194,760.36 340.027,753.027 330,745.5C 325.155,733.102 319.655,721.102 313.5,709.5 Z"/></g>
<g><path style="opacity:1" fill="#142c40" d="M 740.5,708.5 C 741.5,708.5 742.5,708.5 743.5,708.5C 748.74,755.139 753.74,801.805 758.5,848.5C 746.404,851.191 734.404,854.191 722.5,857.5C 716.84,813.064 711.507,768.564 706.5,724C 706.178,720.561 707.512,718.228 710.5,717C 720.711,714.468 730.711,711.634 740.5,708.5 Z"/></g>
<g><path style="opacity:1" fill="#8f9aa4" d="M 225.5,714.5 C 222.941,714.198 220.607,714.532 218.5,715.5C 217.957,715.44 217.624,715.107 217.5,714.5C 220.309,713.2 222.976,713.2 225.5,714.5 Z"/></g>
<g><path style="opacity:1" fill="#f7f8f9" d="M 225.5,714.5 C 228.206,714.575 230.873,714.908 233.5,715.5C 233.5,718.167 233.5,720.833 233.5,723.5C 226.862,723.684 221.862,721.017 218.5,715.5C 220.607,714.532 222.941,714.198 225.5,714.5 Z"/></g>
<g><path style="opacity:1" fill="#72808c" d="M 246.5,708.5 C 246.56,707.957 246.893,707.624 247.5,707.5C 248.489,711.107 248.823,714.774 248.5,718.5C 247.209,718.737 246.209,718.404 245.5,717.5C 246.765,716.486 247.431,714.986 247.5,713C 247.492,711.293 247.158,709.793 246.5,708.5 Z"/></g>
<g><path style="opacity:1" fill="#f4f5f6" d="M 238.5,720.5 C 239.376,720.369 240.043,720.702 240.5,721.5C 245.601,732.308 250.601,743.142 255.5,754C 250.188,751.831 245.188,748.831 240.5,745C 234,738.5 227.5,732 221,725.5C 220.333,724.833 220.333,724.167 221,723.5C 225.923,727.085 231.423,728.752 237.5,728.5C 237.833,725.833 238.167,723.167 238.5,720.5 Z"/></g>
<g><path style="opacity:1" fill="#74bde6" d="M 567.5,730.5 C 569.167,730.5 570.833,730.5 572.5,730.5C 572.755,738.869 573.421,747.202 574.5,755.5C 558.464,758.757 542.797,763.091 527.5,768.5C 529.799,786.45 531.799,804.45 533.5,822.5C 547.099,818.635 560.766,814.968 574.5,811.5C 575.419,819.848 576.419,828.182 577.5,836.5C 564.331,839.042 551.331,842.376 538.5,846.5C 538.167,848.5 537.833,850.5 537.5,852.5C 539.099,870.291 541.432,887.958 544.5,905.5C 560.315,900.588 576.148,896.588 592,893.5C 592.338,900.56 593.172,907.56 594.5,914.5C 594.167,915.5 593.833,916.5 593.5,917.5C 568.875,924.489 544.208,931.155 519.5,937.5C 512.107,874.838 504.773,812.171 497.5,749.5C 521.142,743.912 544.476,737.579 567.5,730.5 Z"/></g>
<g><path style="opacity:1" fill="#ebedee" d="M 466.5,775.5 C 469.216,775.678 471.883,776.178 474.5,777C 471.662,781.33 468.662,785.496 465.5,789.5C 462.547,784.489 462.881,779.823 466.5,775.5 Z"/></g>
<g><path style="opacity:1" fill="#fafbfb" d="M 411.5,777.5 C 422.869,789.533 435.202,800.533 448.5,810.5C 442.662,817.837 436.328,824.67 429.5,831C 427.299,831.825 425.466,831.325 424,829.5C 415.205,813.281 411.038,795.948 411.5,777.5 Z"/></g>
<g><path style="opacity:1" fill="#fcfdfd" d="M 452.5,834.5 C 453.289,834.217 453.956,833.717 454.5,833C 451.961,832.204 449.628,832.371 447.5,833.5C 445.143,833.663 442.81,833.497 440.5,833C 458.243,816.929 473.41,798.762 486,778.5C 489.043,802.143 491.877,825.81 494.5,849.5C 494.167,851.5 493.833,853.5 493.5,855.5C 488.325,858.588 482.992,861.421 477.5,864C 483.856,864.594 490.189,864.427 496.5,863.5C 496.98,866.685 496.314,869.519 494.5,872C 489.725,875.721 484.391,878.388 478.5,880C 462.198,881.229 445.864,882.229 429.5,883C 409.595,884.136 391.262,889.969 374.5,900.5C 371.962,892.344 371.129,884.011 372,875.5C 375.789,869.377 380.622,864.21 386.5,860C 380.772,859.265 375.439,860.431 370.5,863.5C 366.681,861.186 366.681,858.686 370.5,856C 378.386,851.945 386.719,849.278 395.5,848C 406.167,847.667 416.833,847.333 427.5,847C 436.139,843.347 444.472,839.181 452.5,834.5 Z"/></g>
<g><path style="opacity:1" fill="#f5f6f6" d="M 449.5,788.5 C 455.263,787.448 459.93,789.115 463.5,793.5C 459.856,798.312 456.022,802.979 452,807.5C 447.72,801.45 446.886,795.117 449.5,788.5 Z"/></g>
<g><path style="opacity:1" fill="#fafafa" d="M 353.5,799.5 C 359.644,808.417 367.144,816.084 376,822.5C 375.273,829.493 375.439,836.493 376.5,843.5C 373.557,850.958 369.723,851.292 365,844.5C 355.867,830.886 352.033,815.886 353.5,799.5 Z"/></g>
<g><path style="opacity:1" fill="#f7f8f8" d="M 406.5,821.5 C 414.673,823.503 419.507,828.503 421,836.5C 418.519,841.389 414.686,842.722 409.5,840.5C 406.828,834.472 405.828,828.139 406.5,821.5 Z"/></g>
<g><path style="opacity:1" fill="#eff1f2" d="M 381.5,825.5 C 388.104,830.019 390.437,836.353 388.5,844.5C 386.453,844.511 384.453,844.844 382.5,845.5C 379.647,843.308 378.314,840.308 378.5,836.5C 378.728,832.583 379.728,828.916 381.5,825.5 Z"/></g>
<g><path style="opacity:1" fill="#f4f5f6" d="M 393.5,825.5 C 400.607,828.945 404.607,834.612 405.5,842.5C 400.926,843.33 396.426,843.33 392,842.5C 390.99,836.62 391.49,830.954 393.5,825.5 Z"/></g>
<g><path style="opacity:1" fill="#86929c" d="M 447.5,833.5 C 449.628,832.371 451.961,832.204 454.5,833C 453.956,833.717 453.289,834.217 452.5,834.5C 451.081,833.549 449.415,833.216 447.5,833.5 Z"/></g>
<g><path style="opacity:1" fill="#427190" d="M 640.5,835.5 C 640.666,843.84 640.5,852.173 640,860.5C 638.961,859.756 638.461,858.756 638.5,857.5C 639.167,850.167 639.833,842.833 640.5,835.5 Z"/></g>
<g><path style="opacity:1" fill="#fafafb" d="M 764.5,885.5 C 765.873,885.343 767.207,885.51 768.5,886C 760.871,902.091 753.371,918.258 746,934.5C 745.205,937.115 743.705,939.115 741.5,940.5C 727.194,936.605 712.86,932.771 698.5,929C 684.843,925.115 671.51,920.448 658.5,915C 670.279,911.597 682.112,908.43 694,905.5C 705.99,908.829 717.99,912.163 730,915.5C 734.266,907.805 738.433,899.972 742.5,892C 750.042,890.12 757.376,887.953 764.5,885.5 Z"/></g>
</svg>
