<?xml version="1.0" encoding="UTF-8"?>
<!DOCTYPE svg PUBLIC "-//W3C//DTD SVG 1.1//EN" "http://www.w3.org/Graphics/SVG/1.1/DTD/svg11.dtd">
<svg xmlns="http://www.w3.org/2000/svg" version="1.1" width="474px" height="513px" style="shape-rendering:geometricPrecision; text-rendering:geometricPrecision; image-rendering:optimizeQuality; fill-rule:evenodd; clip-rule:evenodd" xmlns:xlink="http://www.w3.org/1999/xlink">
<g><path style="opacity:1" fill="#e9a33b" d="M 33.5,-0.5 C 164.167,-0.5 294.833,-0.5 425.5,-0.5C 437.228,0.78255 446.728,6.11588 454,15.5C 455.732,19.3634 457.066,23.3634 458,27.5C 458.667,99.5 458.667,171.5 458,243.5C 440.476,360.136 378.976,444.303 273.5,496C 260.192,501.829 246.858,507.329 233.5,512.5C 230.833,512.5 228.167,512.5 225.5,512.5C 150.725,487.88 91.5588,442.88 48,377.5C 21.5601,334.677 5.39347,288.344 -0.5,238.5C -0.5,169.5 -0.5,100.5 -0.5,31.5C 2.61864,12.2494 13.952,1.58269 33.5,-0.5 Z"/></g>
<g><path style="opacity:1" fill="#fefcfa" d="M 445.5,218.5 C 428.796,207.483 410.796,199.15 391.5,193.5C 385.415,191.862 379.248,190.529 373,189.5C 331.963,200.219 297.963,221.886 271,254.5C 259.265,268.965 248.765,284.299 239.5,300.5C 241.995,302.843 244.995,304.343 248.5,305C 270.04,310.597 291.707,310.93 313.5,306C 336.051,298.649 358.717,291.815 381.5,285.5C 400.052,279.898 419.052,277.565 438.5,278.5C 438.416,281.327 437.75,283.994 436.5,286.5C 417.032,286.121 398.032,288.788 379.5,294.5C 360.356,299.825 341.356,305.659 322.5,312C 300.042,317.981 277.375,318.981 254.5,315C 248.117,313.428 241.951,311.261 236,308.5C 228.386,321.509 222.219,335.175 217.5,349.5C 217.833,350.167 218.167,350.833 218.5,351.5C 255.962,374.729 295.628,393.396 337.5,407.5C 345.216,410.739 353.216,413.405 361.5,415.5C 362.009,419.043 360.342,421.376 356.5,422.5C 348.285,420.428 340.285,417.762 332.5,414.5C 291.267,400.483 252.101,382.15 215,359.5C 214.5,359.833 214,360.167 213.5,360.5C 208.835,374.489 206.335,388.823 206,403.5C 232.387,426.386 256.553,451.386 278.5,478.5C 276.75,480.398 274.584,481.731 272,482.5C 251.403,457.235 228.736,433.901 204,412.5C 201.991,434.181 202.324,455.848 205,477.5C 210.801,484.302 216.968,490.802 223.5,497C 117.864,460.026 50.0302,387.526 20,279.5C 17.1527,267.263 14.8194,254.93 13,242.5C 12.3333,171.167 12.3333,99.8333 13,28.5C 15.5987,20.2343 21.0987,15.0677 29.5,13C 162.5,12.3333 295.5,12.3333 428.5,13C 437.011,14.4919 442.511,19.3253 445,27.5C 445.5,91.1658 445.667,154.832 445.5,218.5 Z"/></g>
<g><path style="opacity:1" fill="#ec3237" d="M 434.5,25.5 C 434.832,79.3359 434.499,133.003 433.5,186.5C 369.802,163.193 307.802,167.026 247.5,198C 193.386,232.184 160.553,281.017 149,344.5C 145.019,371.017 146.019,397.351 152,423.5C 155.1,436.452 158.767,449.119 163,461.5C 100.995,424.135 58.9946,370.802 37,301.5C 30.1259,281.336 25.4592,260.67 23,239.5C 22.3333,167.833 22.3333,96.1667 23,24.5C 23.5,23.3333 24.3333,22.5 25.5,22C 160.5,21.3333 295.5,21.3333 430.5,22C 432.91,22.0572 434.244,23.2239 434.5,25.5 Z"/></g>
<g><path style="opacity:1" fill="#b76470" d="M 434.5,25.5 C 435.831,79.3349 435.831,133.335 434.5,187.5C 433.893,187.376 433.56,187.043 433.5,186.5C 434.499,133.003 434.832,79.3359 434.5,25.5 Z"/></g>
<g><path style="opacity:1" fill="#fefffe" d="M 54.5,53.5 C 61.5,53.5 68.5,53.5 75.5,53.5C 75.5,87.8333 75.5,122.167 75.5,156.5C 68.5,156.5 61.5,156.5 54.5,156.5C 54.5,122.167 54.5,87.8333 54.5,53.5 Z"/></g>
<g><path style="opacity:1" fill="#f9b0b2" d="M 54.5,53.5 C 61.6476,52.5084 68.9809,52.175 76.5,52.5C 76.5,87.5 76.5,122.5 76.5,157.5C 68.9809,157.825 61.6476,157.492 54.5,156.5C 61.5,156.5 68.5,156.5 75.5,156.5C 75.5,122.167 75.5,87.8333 75.5,53.5C 68.5,53.5 61.5,53.5 54.5,53.5 Z"/></g>
<g><path style="opacity:1" fill="#fefdfd" d="M 99.5,53.5 C 121.169,53.3334 142.836,53.5 164.5,54C 173.658,56.4912 179.491,62.3246 182,71.5C 183.439,80.9244 182.106,89.9244 178,98.5C 176.167,100.333 174.333,102.167 172.5,104C 180.892,109.957 184.559,118.124 183.5,128.5C 184.089,137.23 181.756,145.063 176.5,152C 173.714,154.726 170.381,156.393 166.5,157C 144.5,157.667 122.5,157.667 100.5,157C 96,155.167 92.8333,152 91,147.5C 90.3333,119.167 90.3333,90.8333 91,62.5C 92.6878,58.3148 95.5212,55.3148 99.5,53.5 Z"/></g>
<g><path style="opacity:1" fill="#fffdfd" d="M 195.5,53.5 C 202.833,53.5 210.167,53.5 217.5,53.5C 217.333,81.502 217.5,109.502 218,137.5C 218.5,138 219,138.5 219.5,139C 239.497,139.5 259.497,139.667 279.5,139.5C 279.5,145.5 279.5,151.5 279.5,157.5C 254.498,157.667 229.498,157.5 204.5,157C 200.32,155.998 197.486,153.498 196,149.5C 195.5,117.502 195.333,85.5017 195.5,53.5 Z"/></g>
<g><path style="opacity:1" fill="#ed3237" d="M 113.5,71.5 C 126.837,71.3334 140.171,71.5001 153.5,72C 158.034,73.8572 160.034,77.1906 159.5,82C 159.675,85.7457 158.842,89.2457 157,92.5C 155.829,93.8932 154.329,94.7265 152.5,95C 139.171,95.4999 125.837,95.6666 112.5,95.5C 112.199,87.4144 112.533,79.4144 113.5,71.5 Z"/></g>
<g><path style="opacity:1" fill="#ed363a" d="M 112.5,114.5 C 126.504,114.333 140.504,114.5 154.5,115C 161.435,119.55 163.268,125.717 160,133.5C 158.74,136.428 156.573,138.261 153.5,139C 140.5,139.667 127.5,139.667 114.5,139C 114,138.5 113.5,138 113,137.5C 112.5,129.841 112.334,122.174 112.5,114.5 Z"/></g>
<g><path style="opacity:1" fill="#f3aa3e" d="M 325.5,186.5 C 332.508,186.334 339.508,186.5 346.5,187C 311.071,201.641 281.571,224.141 258,254.5C 247.882,267.956 238.549,281.956 230,296.5C 212.561,285.122 207.228,269.455 214,249.5C 217.788,242.088 221.955,234.921 226.5,228C 254.881,203.142 287.881,189.309 325.5,186.5 Z"/></g>
<g><path style="opacity:1" fill="#f4aa3d" d="M 391.5,193.5 C 390.727,224.455 387.394,255.121 381.5,285.5C 358.717,291.815 336.051,298.649 313.5,306C 291.707,310.93 270.04,310.597 248.5,305C 244.995,304.343 241.995,302.843 239.5,300.5C 248.765,284.299 259.265,268.965 271,254.5C 297.963,221.886 331.963,200.219 373,189.5C 379.248,190.529 385.415,191.862 391.5,193.5 Z"/></g>
<g><path style="opacity:1" fill="#f5923d" d="M 391.5,193.5 C 410.796,199.15 428.796,207.483 445.5,218.5C 446.885,239.108 444.552,259.108 438.5,278.5C 419.052,277.565 400.052,279.898 381.5,285.5C 387.394,255.121 390.727,224.455 391.5,193.5 Z"/></g>
<g><path style="opacity:1" fill="#f3aa3f" d="M 204.5,250.5 C 199.454,273.261 206.787,291.095 226.5,304C 219.657,317.187 213.49,330.687 208,344.5C 198.551,338.052 189.384,331.218 180.5,324C 176.784,320.621 173.451,316.954 170.5,313C 178.604,290.283 189.938,269.45 204.5,250.5 Z"/></g>
<g><path style="opacity:1" fill="#f6923d" d="M 436.5,286.5 C 423.254,335.506 399.254,378.339 364.5,415C 363.552,415.483 362.552,415.649 361.5,415.5C 353.216,413.405 345.216,410.739 337.5,407.5C 356.64,371.747 370.64,334.08 379.5,294.5C 398.032,288.788 417.032,286.121 436.5,286.5 Z"/></g>
<g><path style="opacity:1" fill="#f4aa3d" d="M 379.5,294.5 C 370.64,334.08 356.64,371.747 337.5,407.5C 295.628,393.396 255.962,374.729 218.5,351.5C 218.167,350.833 217.833,350.167 217.5,349.5C 222.219,335.175 228.386,321.509 236,308.5C 241.951,311.261 248.117,313.428 254.5,315C 277.375,318.981 300.042,317.981 322.5,312C 341.356,305.659 360.356,299.825 379.5,294.5 Z"/></g>
<g><path style="opacity:1" fill="#f3aa3e" d="M 167.5,323.5 C 179.719,333.883 192.386,343.716 205.5,353C 200.92,367.246 197.253,381.746 194.5,396.5C 185.002,390.584 174.669,387.917 163.5,388.5C 161.144,366.56 162.478,344.893 167.5,323.5 Z"/></g>
<g><path style="opacity:1" fill="#f4aa3d" d="M 332.5,414.5 C 318.153,438.494 300.486,459.828 279.5,478.5C 279.167,478.5 278.833,478.5 278.5,478.5C 256.553,451.386 232.387,426.386 206,403.5C 206.335,388.823 208.835,374.489 213.5,360.5C 214,360.167 214.5,359.833 215,359.5C 252.101,382.15 291.267,400.483 332.5,414.5 Z"/></g>
<g><path style="opacity:1" fill="#f3aa3e" d="M 165.5,396.5 C 176.355,396.673 186.021,400.006 194.5,406.5C 192.863,424.094 192.029,441.761 192,459.5C 178.766,440.363 169.932,419.363 165.5,396.5 Z"/></g>
<g><path style="opacity:1" fill="#f6923d" d="M 332.5,414.5 C 340.285,417.762 348.285,420.428 356.5,422.5C 334.265,445.712 308.599,464.379 279.5,478.5C 300.486,459.828 318.153,438.494 332.5,414.5 Z"/></g>
</svg>
