<?xml version="1.0" encoding="UTF-8"?>
<!DOCTYPE svg PUBLIC "-//W3C//DTD SVG 1.1//EN" "http://www.w3.org/Graphics/SVG/1.1/DTD/svg11.dtd">
<svg xmlns="http://www.w3.org/2000/svg" version="1.1" width="1000px" height="1000px" style="shape-rendering:geometricPrecision; text-rendering:geometricPrecision; image-rendering:optimizeQuality; fill-rule:evenodd; clip-rule:evenodd" xmlns:xlink="http://www.w3.org/1999/xlink">
<g><path style="opacity:0.888" fill="#f5f5f5" d="M 500.5,127.5 C 504.85,126.925 508.017,128.592 510,132.5C 524.5,153 539,173.5 553.5,194C 569.839,196.251 586.173,198.251 602.5,200C 607.589,192.49 612.922,185.156 618.5,178C 620.167,177.333 621.833,177.333 623.5,178C 631.36,188.36 639.027,198.86 646.5,209.5C 690.55,219.787 731.717,236.787 770,260.5C 771.323,303.416 771.989,346.416 772,389.5C 780.421,402.008 789.087,414.342 798,426.5C 798.667,480.833 798.667,535.167 798,589.5C 780.981,604.686 763.815,619.686 746.5,634.5C 722.343,688.158 684.01,728.325 631.5,755C 599.004,770.72 566.337,786.053 533.5,801C 519.057,808.966 505.224,817.799 492,827.5C 478.108,817.465 463.608,808.298 448.5,800C 415.592,785.213 382.925,769.88 350.5,754C 308.298,732.129 274.798,700.963 250,660.5C 245.139,652.112 240.806,643.446 237,634.5C 220.315,619.647 203.481,604.98 186.5,590.5C 185.338,535.874 185.171,481.208 186,426.5C 194.419,413.328 203.085,400.328 212,387.5C 212.333,345.5 212.667,303.5 213,261.5C 229.525,250.319 247.025,240.819 265.5,233C 287.09,224.47 309.09,217.137 331.5,211C 340.833,197.667 350.167,184.333 359.5,171C 363.26,169.824 366.093,170.99 368,174.5C 374.045,182.756 380.212,190.923 386.5,199C 408.74,196.41 431.074,194.41 453.5,193C 469.765,171.654 485.431,149.82 500.5,127.5 Z"/></g>
<g><path style="opacity:1" fill="#010101" d="M 502.5,132.5 C 504.74,133.568 506.574,135.234 508,137.5C 522.5,158 537,178.5 551.5,199C 569.255,200.684 586.922,202.684 604.5,205C 609.877,197.079 615.377,189.246 621,181.5C 628.711,192.422 636.544,203.255 644.5,214C 681.116,222.65 716.116,235.65 749.5,253C 755.085,256.375 760.585,259.875 766,263.5C 766.333,305.833 766.667,348.167 767,390.5C 775.913,402.658 784.579,414.992 793,427.5C 793.667,481.167 793.667,534.833 793,588.5C 776,603.167 759,617.833 742,632.5C 720.367,683.133 685.201,721.299 636.5,747C 627.657,751.922 618.657,756.588 609.5,761C 581.927,773.12 554.593,785.786 527.5,799C 515.049,805.97 503.216,813.804 492,822.5C 480.115,813.469 467.615,805.302 454.5,798C 421.081,782.526 387.748,766.86 354.5,751C 312.076,729.911 278.576,699.078 254,658.5C 249.561,649.955 245.394,641.289 241.5,632.5C 224.185,617.686 207.019,602.686 190,587.5C 189.333,534.5 189.333,481.5 190,428.5C 198.915,415.672 207.581,402.672 216,389.5C 216.167,347.496 216.667,305.496 217.5,263.5C 253.802,241.005 292.802,224.839 334.5,215C 343.79,201.587 352.957,188.087 362,174.5C 369.621,184.243 377.121,194.077 384.5,204C 408.694,200.709 433.027,198.376 457.5,197C 472.387,175.384 487.387,153.884 502.5,132.5 Z"/></g>
<g><path style="opacity:1" fill="#fab014" d="M 503.5,167.5 C 505.474,169.428 506.974,171.761 508,174.5C 517.18,197.521 526.346,220.521 535.5,243.5C 534.833,243.5 534.5,243.833 534.5,244.5C 518.517,253.159 502.517,261.825 486.5,270.5C 475.162,260.161 464.495,249.161 454.5,237.5C 470.859,214.149 487.192,190.815 503.5,167.5 Z"/></g>
<g><path style="opacity:1" fill="#ed6c20" d="M 503.5,167.5 C 503.56,166.957 503.893,166.624 504.5,166.5C 528.192,199.851 551.858,233.185 575.5,266.5C 575.565,266.938 575.399,267.272 575,267.5C 561.861,259.352 548.694,251.352 535.5,243.5C 526.346,220.521 517.18,197.521 508,174.5C 506.974,171.761 505.474,169.428 503.5,167.5 Z"/></g>
<g><path style="opacity:1" fill="#f9b014" d="M 363.5,208.5 C 371.169,224.505 378.836,240.505 386.5,256.5C 371.029,265.404 355.696,274.57 340.5,284C 339.5,284.667 338.5,284.667 337.5,284C 333.811,276.121 329.977,268.287 326,260.5C 325.333,259.167 325.333,257.833 326,256.5C 337.934,239.618 350.101,222.951 362.5,206.5C 363.298,206.957 363.631,207.624 363.5,208.5 Z"/></g>
<g><path style="opacity:1" fill="#ec6b20" d="M 363.5,208.5 C 379.731,229.282 395.731,250.282 411.5,271.5C 403.029,266.763 394.695,261.763 386.5,256.5C 378.836,240.505 371.169,224.505 363.5,208.5 Z"/></g>
<g><path style="opacity:1" fill="#f5f2f1" d="M 440.5,220.5 C 427.067,220.881 413.734,222.215 400.5,224.5C 396.918,222.542 396.418,220.542 399,218.5C 414.46,216.304 429.96,214.804 445.5,214C 443.97,216.352 442.303,218.519 440.5,220.5 Z"/></g>
<g><path style="opacity:1" fill="#f9af14" d="M 623.5,216.5 C 630.088,228.007 636.421,239.674 642.5,251.5C 635.353,256.245 628.353,261.245 621.5,266.5C 613.059,260.229 605.059,253.395 597.5,246C 604.953,234.721 612.953,223.887 621.5,213.5C 622.425,214.357 623.092,215.357 623.5,216.5 Z"/></g>
<g><path style="opacity:1" fill="#f8f6f3" d="M 589.5,225.5 C 582.87,224.505 576.203,223.838 569.5,223.5C 567.376,221.941 565.709,219.941 564.5,217.5C 574.274,216.929 583.941,217.929 593.5,220.5C 592.388,222.419 591.054,224.086 589.5,225.5 Z"/></g>
<g><path style="opacity:1" fill="#f06e23" d="M 440.5,220.5 C 437.522,225.469 434.189,230.135 430.5,234.5C 424.176,235.296 417.842,236.129 411.5,237C 410.944,237.383 410.611,237.883 410.5,238.5C 406.786,234.117 403.453,229.45 400.5,224.5C 413.734,222.215 427.067,220.881 440.5,220.5 Z"/></g>
<g><path style="opacity:1" fill="#f3ac19" d="M 569.5,223.5 C 576.203,223.838 582.87,224.505 589.5,225.5C 586.601,230.282 583.434,234.949 580,239.5C 576.231,234.281 572.731,228.947 569.5,223.5 Z"/></g>
<g><path style="opacity:1" fill="#e56a1f" d="M 623.5,216.5 C 632.522,228.197 641.189,240.197 649.5,252.5C 647.5,252.167 645.5,251.833 643.5,251.5C 643.167,251.5 642.833,251.5 642.5,251.5C 636.421,239.674 630.088,228.007 623.5,216.5 Z"/></g>
<g><path style="opacity:1" fill="#f2a914" d="M 430.5,234.5 C 427.347,240.123 423.68,245.457 419.5,250.5C 416.476,246.482 413.476,242.482 410.5,238.5C 410.611,237.883 410.944,237.383 411.5,237C 417.842,236.129 424.176,235.296 430.5,234.5 Z"/></g>
<g><path style="opacity:1" fill="#f8f7f6" d="M 745.5,358.5 C 745.833,332.491 745.5,306.491 744.5,280.5C 719.988,264.656 693.654,252.656 665.5,244.5C 663.31,241.312 660.976,238.145 658.5,235C 691.81,243.82 723.144,257.32 752.5,275.5C 753.667,306.828 753.833,338.161 753,369.5C 749.985,366.122 747.485,362.456 745.5,358.5 Z"/></g>
<g><path style="opacity:1" fill="#faf9f8" d="M 314.5,244.5 C 287.198,253.043 261.531,265.043 237.5,280.5C 236.5,306.491 236.167,332.491 236.5,358.5C 235.191,361.778 233.358,364.778 231,367.5C 230.167,336.828 230.333,306.161 231.5,275.5C 258.385,258.727 287.052,245.727 317.5,236.5C 318.167,236.833 318.833,237.167 319.5,237.5C 318.069,240.039 316.403,242.372 314.5,244.5 Z"/></g>
<g><path style="opacity:1" fill="#f26f24" d="M 314.5,244.5 C 309.401,252.379 304.067,260.045 298.5,267.5C 282.391,273.804 267.224,281.804 253,291.5C 252.5,306.163 252.333,320.83 252.5,335.5C 247.893,343.728 242.56,351.394 236.5,358.5C 236.167,332.491 236.5,306.491 237.5,280.5C 261.531,265.043 287.198,253.043 314.5,244.5 Z"/></g>
<g><path style="opacity:1" fill="#1c1d1c" d="M 534.5,244.5 C 534.5,243.833 534.833,243.5 535.5,243.5C 548.694,251.352 561.861,259.352 575,267.5C 575.399,267.272 575.565,266.938 575.5,266.5C 607.432,312.163 639.765,357.663 672.5,403C 676.848,403.573 681.181,404.24 685.5,405C 687.312,406.627 687.479,408.127 686,409.5C 557.723,391.359 429.39,391.026 301,408.5C 295.415,408.089 295.249,406.589 300.5,404C 351.362,398.323 402.362,394.489 453.5,392.5C 431.14,347.114 408.806,301.78 386.5,256.5C 394.695,261.763 403.029,266.763 411.5,271.5C 441.934,311.509 472.268,351.675 502.5,392C 534.834,393.42 567.167,394.754 599.5,396C 578.602,345.81 557.602,295.643 536.5,245.5C 536.043,244.702 535.376,244.369 534.5,244.5 Z"/></g>
<g><path style="opacity:1" fill="#fbb31e" d="M 665.5,244.5 C 693.654,252.656 719.988,264.656 744.5,280.5C 745.5,306.491 745.833,332.491 745.5,358.5C 740.344,352.192 735.677,345.525 731.5,338.5C 731.667,322.83 731.5,307.163 731,291.5C 715.226,280.862 698.392,272.196 680.5,265.5C 675.144,258.802 670.144,251.802 665.5,244.5 Z"/></g>
<g><path style="opacity:1" fill="#1c1d1c" d="M 643.5,251.5 C 645.5,251.833 647.5,252.167 649.5,252.5C 690.479,309.099 731.479,365.766 772.5,422.5C 771.833,422.833 771.167,423.167 770.5,423.5C 759.586,421.351 748.753,419.018 738,416.5C 706.488,361.473 674.988,306.473 643.5,251.5 Z"/></g>
<g><path style="opacity:1" fill="#f06e20" d="M 680.5,265.5 C 698.392,272.196 715.226,280.862 731,291.5C 731.5,307.163 731.667,322.83 731.5,338.5C 727.354,332.901 723.188,327.234 719,321.5C 718.667,315.833 718.333,310.167 718,304.5C 711.504,299.918 704.837,295.584 698,291.5C 691.919,282.934 686.086,274.267 680.5,265.5 Z"/></g>
<g><path style="opacity:1" fill="#f8af14" d="M 298.5,267.5 C 292.688,276.443 286.854,285.443 281,294.5C 276.083,297.375 271.249,300.375 266.5,303.5C 265.672,308.132 265.172,312.798 265,317.5C 261.057,323.741 256.891,329.741 252.5,335.5C 252.333,320.83 252.5,306.163 253,291.5C 267.224,281.804 282.391,273.804 298.5,267.5 Z"/></g>
<g><path style="opacity:1" fill="#fbfbfb" d="M 472.5,486.5 C 471.506,496.653 471.172,506.986 471.5,517.5C 467.833,517.5 464.167,517.5 460.5,517.5C 460.5,491.833 460.5,466.167 460.5,440.5C 461.137,436.732 463.137,433.899 466.5,432C 473.753,430.443 481.086,430.11 488.5,431C 492.667,432.5 495.5,435.333 497,439.5C 497.5,465.831 497.667,492.165 497.5,518.5C 493.5,518.5 489.5,518.5 485.5,518.5C 485.5,507.833 485.5,497.167 485.5,486.5C 481.167,486.5 476.833,486.5 472.5,486.5 Z"/></g>
<g><path style="opacity:1" fill="#fcfcfc" d="M 430.5,519.5 C 430.5,493.833 430.5,468.167 430.5,442.5C 428.833,442.5 427.167,442.5 425.5,442.5C 423.5,442.5 421.5,442.5 419.5,442.5C 419.5,439.167 419.5,435.833 419.5,432.5C 430.817,431.741 442.15,431.407 453.5,431.5C 453.5,435.167 453.5,438.833 453.5,442.5C 449.833,442.5 446.167,442.5 442.5,442.5C 442.667,467.836 442.5,493.169 442,518.5C 438.27,519.46 434.437,519.793 430.5,519.5 Z"/></g>
<g><path style="opacity:1" fill="#7e7e7e" d="M 508.5,430.5 C 508.5,430.833 508.5,431.167 508.5,431.5C 508.5,460.167 508.5,488.833 508.5,517.5C 509.5,517.5 510.5,517.5 511.5,517.5C 511.5,517.833 511.5,518.167 511.5,518.5C 510.167,518.5 508.833,518.5 507.5,518.5C 507.169,488.995 507.502,459.662 508.5,430.5 Z"/></g>
<g><path style="opacity:1" fill="#fefffe" d="M 508.5,431.5 C 512.167,431.5 515.833,431.5 519.5,431.5C 519.5,460.167 519.5,488.833 519.5,517.5C 516.833,517.5 514.167,517.5 511.5,517.5C 510.5,517.5 509.5,517.5 508.5,517.5C 508.5,488.833 508.5,460.167 508.5,431.5 Z"/></g>
<g><path style="opacity:1" fill="#bebebe" d="M 508.5,431.5 C 508.5,431.167 508.5,430.833 508.5,430.5C 512.5,430.5 516.5,430.5 520.5,430.5C 520.5,459.833 520.5,489.167 520.5,518.5C 517.5,518.5 514.5,518.5 511.5,518.5C 511.5,518.167 511.5,517.833 511.5,517.5C 514.167,517.5 516.833,517.5 519.5,517.5C 519.5,488.833 519.5,460.167 519.5,431.5C 515.833,431.5 512.167,431.5 508.5,431.5 Z"/></g>
<g><path style="opacity:1" fill="#7a7a7a" d="M 540.5,431.5 C 537.5,431.5 534.5,431.5 531.5,431.5C 531.5,460.5 531.5,489.5 531.5,518.5C 530.502,489.338 530.169,460.005 530.5,430.5C 534.042,430.187 537.375,430.521 540.5,431.5 Z"/></g>
<g><path style="opacity:1" fill="#fdfdfd" d="M 540.5,431.5 C 542.124,431.36 543.29,432.027 544,433.5C 547.815,445.429 551.315,457.429 554.5,469.5C 554.461,470.756 554.961,471.756 556,472.5C 556.5,459.171 556.667,445.837 556.5,432.5C 560.167,432.5 563.833,432.5 567.5,432.5C 567.5,461.5 567.5,490.5 567.5,519.5C 565.167,519.5 562.833,519.5 560.5,519.5C 558.833,519.5 557.167,519.5 555.5,519.5C 555.666,512.825 555.5,506.158 555,499.5C 551.393,488.179 547.893,476.846 544.5,465.5C 544.631,464.624 544.298,463.957 543.5,463.5C 542.5,481.821 542.167,500.155 542.5,518.5C 538.833,518.5 535.167,518.5 531.5,518.5C 531.5,489.5 531.5,460.5 531.5,431.5C 534.5,431.5 537.5,431.5 540.5,431.5 Z"/></g>
<g><path style="opacity:1" fill="#aeaeae" d="M 419.5,432.5 C 419.5,435.833 419.5,439.167 419.5,442.5C 421.5,442.5 423.5,442.5 425.5,442.5C 425.5,442.833 425.5,443.167 425.5,443.5C 423.167,443.5 420.833,443.5 418.5,443.5C 418.185,439.629 418.518,435.962 419.5,432.5 Z"/></g>
<g><path style="opacity:1" fill="#bcbcbc" d="M 556.5,432.5 C 556.667,445.837 556.5,459.171 556,472.5C 554.961,471.756 554.461,470.756 554.5,469.5C 555.167,457.167 555.833,444.833 556.5,432.5 Z"/></g>
<g><path style="opacity:1" fill="#7c7c7c" d="M 567.5,432.5 C 568.498,461.662 568.831,490.995 568.5,520.5C 565.615,520.806 562.948,520.473 560.5,519.5C 562.833,519.5 565.167,519.5 567.5,519.5C 567.5,490.5 567.5,461.5 567.5,432.5 Z"/></g>
<g><path style="opacity:1" fill="#414141" d="M 400.5,433.5 C 400.667,446.837 400.5,460.171 400,473.5C 399.209,472.255 398.709,470.922 398.5,469.5C 399.167,457.5 399.833,445.5 400.5,433.5 Z"/></g>
<g><path style="opacity:1" fill="#fdfdfd" d="M 400.5,433.5 C 400.833,433.5 401.167,433.5 401.5,433.5C 404.833,433.5 408.167,433.5 411.5,433.5C 412.146,462.725 411.479,491.725 409.5,520.5C 406.5,520.5 403.5,520.5 400.5,520.5C 400.666,514.491 400.499,508.491 400,502.5C 396.393,491.847 392.893,481.18 389.5,470.5C 389.291,469.078 388.791,467.745 388,466.5C 387.5,484.83 387.333,503.164 387.5,521.5C 383.936,522.423 380.269,522.756 376.5,522.5C 376.5,493.5 376.5,464.5 376.5,435.5C 378.099,435.768 379.432,435.434 380.5,434.5C 383.167,434.5 385.833,434.5 388.5,434.5C 391.678,446.211 395.011,457.877 398.5,469.5C 398.709,470.922 399.209,472.255 400,473.5C 400.5,460.171 400.667,446.837 400.5,433.5 Z"/></g>
<g><path style="opacity:1" fill="#b7b7b7" d="M 401.5,433.5 C 404.962,432.518 408.629,432.185 412.5,432.5C 412.5,461.833 412.5,491.167 412.5,520.5C 411.5,520.5 410.5,520.5 409.5,520.5C 411.479,491.725 412.146,462.725 411.5,433.5C 408.167,433.5 404.833,433.5 401.5,433.5 Z"/></g>
<g><path style="opacity:1" fill="#bababa" d="M 380.5,434.5 C 379.432,435.434 378.099,435.768 376.5,435.5C 376.5,464.5 376.5,493.5 376.5,522.5C 375.502,493.338 375.169,464.005 375.5,434.5C 377.167,434.5 378.833,434.5 380.5,434.5 Z"/></g>
<g><path style="opacity:1" fill="#f3f3f3" d="M 634.5,482.5 C 634.5,496.5 634.5,510.5 634.5,524.5C 632.833,524.5 631.167,524.5 629.5,524.5C 622.844,523.953 616.177,523.453 609.5,523C 604.319,522.169 600.819,519.336 599,514.5C 597.375,491.217 597.041,467.883 598,444.5C 599.089,440.814 601.255,437.981 604.5,436C 613.549,435.047 622.215,436.38 630.5,440C 631.667,441.833 632.833,443.667 634,445.5C 634.499,451.157 634.666,456.824 634.5,462.5C 630.519,461.979 626.519,461.646 622.5,461.5C 622.666,457.486 622.499,453.486 622,449.5C 618.61,445.968 614.943,445.634 611,448.5C 610.333,469.167 610.333,489.833 611,510.5C 611.5,511 612,511.5 612.5,512C 615.817,512.498 619.15,512.665 622.5,512.5C 622.5,505.5 622.5,498.5 622.5,491.5C 620.5,491.5 618.5,491.5 616.5,491.5C 616.5,487.833 616.5,484.167 616.5,480.5C 622.5,481.167 628.5,481.833 634.5,482.5 Z"/></g>
<g><path style="opacity:1" fill="#fafafa" d="M 354.5,436.5 C 357.833,436.5 361.167,436.5 364.5,436.5C 364.667,462.835 364.5,489.169 364,515.5C 362.5,519.667 359.667,522.5 355.5,524C 349.854,524.973 344.187,525.807 338.5,526.5C 331.93,525.764 328.096,522.098 327,515.5C 326.5,490.169 326.333,464.836 326.5,439.5C 330.437,439.793 334.27,439.46 338,438.5C 338.333,463.167 338.667,487.833 339,512.5C 340.525,513.72 342.359,514.387 344.5,514.5C 347.682,514.954 350.182,513.954 352,511.5C 351.856,486.274 352.69,461.274 354.5,436.5 Z"/></g>
<g><path style="opacity:1" fill="#fbfbfb" d="M 649.5,440.5 C 657.961,440.199 666.295,441.033 674.5,443C 678.058,444.892 680.558,447.725 682,451.5C 682.667,474.833 682.667,498.167 682,521.5C 680.923,524.913 678.756,527.413 675.5,529C 668.098,529.319 660.765,528.653 653.5,527C 649,525.167 645.833,522 644,517.5C 643.333,494.167 643.333,470.833 644,447.5C 644.967,444.379 646.8,442.046 649.5,440.5 Z"/></g>
<g><path style="opacity:1" fill="#040404" d="M 474.5,441.5 C 477.518,441.335 480.518,441.502 483.5,442C 484,442.5 484.5,443 485,443.5C 485.5,454.161 485.667,464.828 485.5,475.5C 481.167,475.5 476.833,475.5 472.5,475.5C 472.333,464.828 472.5,454.161 473,443.5C 473.717,442.956 474.217,442.289 474.5,441.5 Z"/></g>
<g><path style="opacity:1" fill="#f9f9f9" d="M 295.5,443.5 C 300.511,443.334 305.511,443.501 310.5,444C 313.381,445.251 315.214,447.417 316,450.5C 316.667,473.5 316.667,496.5 316,519.5C 314.594,524.573 311.428,528.073 306.5,530C 300.693,531.02 294.86,531.853 289,532.5C 283.391,532.564 279.724,529.897 278,524.5C 277.333,501.833 277.333,479.167 278,456.5C 280.901,448.14 286.735,443.807 295.5,443.5 Z"/></g>
<g><path style="opacity:1" fill="#404040" d="M 425.5,443.5 C 425.5,443.167 425.5,442.833 425.5,442.5C 427.167,442.5 428.833,442.5 430.5,442.5C 430.5,468.167 430.5,493.833 430.5,519.5C 429.502,494.339 429.169,469.005 429.5,443.5C 428.167,443.5 426.833,443.5 425.5,443.5 Z"/></g>
<g><path style="opacity:1" fill="#aeaeae" d="M 460.5,440.5 C 460.5,466.167 460.5,491.833 460.5,517.5C 464.167,517.5 467.833,517.5 471.5,517.5C 471.172,506.986 471.506,496.653 472.5,486.5C 472.5,497.167 472.5,507.833 472.5,518.5C 468.167,518.5 463.833,518.5 459.5,518.5C 459.169,492.328 459.502,466.328 460.5,440.5 Z"/></g>
<g><path style="opacity:1" fill="#fafafa" d="M 719.5,525.5 C 719.5,528.833 719.5,532.167 719.5,535.5C 718.5,535.5 717.5,535.5 716.5,535.5C 708.454,534.791 700.454,533.791 692.5,532.5C 692.333,503.165 692.5,473.831 693,444.5C 696.745,445.488 700.578,446.155 704.5,446.5C 704.5,472.167 704.5,497.833 704.5,523.5C 709.516,524.058 714.516,524.725 719.5,525.5 Z"/></g>
<g><path style="opacity:1" fill="#f6f6f6" d="M 256.5,509.5 C 257.657,501.01 257.824,492.343 257,483.5C 256.56,485.866 256.06,488.199 255.5,490.5C 253.5,501.499 251.5,512.499 249.5,523.5C 246.262,524.395 243.095,524.395 240,523.5C 237.667,512.172 235.334,500.838 233,489.5C 232.43,507.174 232.597,524.841 233.5,542.5C 230.455,542.508 227.455,542.841 224.5,543.5C 222.508,514.853 221.841,485.853 222.5,456.5C 226.412,454.848 230.412,454.515 234.5,455.5C 238.104,470.479 241.604,485.479 245,500.5C 248.118,483.789 251.452,467.123 255,450.5C 259.362,449.139 263.862,448.472 268.5,448.5C 268.667,477.502 268.5,506.502 268,535.5C 264.281,536.648 260.448,537.314 256.5,537.5C 256.5,528.167 256.5,518.833 256.5,509.5 Z"/></g>
<g><path style="opacity:1" fill="#fdfdfd" d="M 726.5,450.5 C 734.96,451.263 743.293,452.763 751.5,455C 755,457.167 757.833,460 760,463.5C 761.637,487.77 761.971,512.104 761,536.5C 760.215,538.286 759.049,539.786 757.5,541C 747.28,541.685 737.28,540.519 727.5,537.5C 726.5,508.508 726.167,479.508 726.5,450.5 Z"/></g>
<g><path style="opacity:1" fill="#010101" d="M 656.5,451.5 C 659.85,451.335 663.183,451.502 666.5,452C 667.931,452.465 669.097,453.299 670,454.5C 670.826,475.406 670.66,496.24 669.5,517C 665.833,517.667 662.167,517.667 658.5,517C 657.667,516.167 656.833,515.333 656,514.5C 655.179,493.427 655.346,472.427 656.5,451.5 Z"/></g>
<g><path style="opacity:1" fill="#010101" d="M 294.5,454.5 C 297.777,454.216 300.943,454.549 304,455.5C 304.667,476.167 304.667,496.833 304,517.5C 301.959,519.974 299.292,520.974 296,520.5C 293.906,520.464 291.906,520.131 290,519.5C 289.333,498.833 289.333,478.167 290,457.5C 291.409,456.219 292.909,455.219 294.5,454.5 Z"/></g>
<g><path style="opacity:1" fill="#7e7e7e" d="M 222.5,456.5 C 221.841,485.853 222.508,514.853 224.5,543.5C 223.791,544.404 222.791,544.737 221.5,544.5C 221.169,514.995 221.502,485.662 222.5,456.5 Z"/></g>
<g><path style="opacity:1" fill="#bdbdbd" d="M 544.5,465.5 C 543.833,483.167 543.167,500.833 542.5,518.5C 542.167,500.155 542.5,481.821 543.5,463.5C 544.298,463.957 544.631,464.624 544.5,465.5 Z"/></g>
<g><path style="opacity:1" fill="#0e0e0e" d="M 737.5,463.5 C 740.874,463.674 744.207,464.174 747.5,465C 748.701,465.903 749.535,467.069 750,468.5C 750.667,488.5 750.667,508.5 750,528.5C 749.044,529.894 747.711,530.561 746,530.5C 743.237,530.082 740.57,529.416 738,528.5C 737.5,506.836 737.333,485.169 737.5,463.5 Z"/></g>
<g><path style="opacity:1" fill="#424242" d="M 389.5,470.5 C 388.833,487.5 388.167,504.5 387.5,521.5C 387.333,503.164 387.5,484.83 388,466.5C 388.791,467.745 389.291,469.078 389.5,470.5 Z"/></g>
<g><path style="opacity:1" fill="#434343" d="M 634.5,482.5 C 635.496,496.657 635.829,510.99 635.5,525.5C 633.265,525.795 631.265,525.461 629.5,524.5C 631.167,524.5 632.833,524.5 634.5,524.5C 634.5,510.5 634.5,496.5 634.5,482.5 Z"/></g>
<g><path style="opacity:1" fill="#595959" d="M 256.5,509.5 C 256.823,502.978 256.49,496.645 255.5,490.5C 256.06,488.199 256.56,485.866 257,483.5C 257.824,492.343 257.657,501.01 256.5,509.5 Z"/></g>
<g><path style="opacity:1" fill="#868686" d="M 719.5,525.5 C 720.482,528.962 720.815,532.629 720.5,536.5C 718.901,536.768 717.568,536.434 716.5,535.5C 717.5,535.5 718.5,535.5 719.5,535.5C 719.5,532.167 719.5,528.833 719.5,525.5 Z"/></g>
<g><path style="opacity:1" fill="#1c1d1c" d="M 465.5,547.5 C 534.946,547.426 603.946,552.926 672.5,564C 675.71,565.201 678.377,567.201 680.5,570C 617.949,560.102 554.949,554.269 491.5,552.5C 428.314,553.786 365.647,559.619 303.5,570C 305.623,567.201 308.29,565.201 311.5,564C 362.69,555.801 414.023,550.301 465.5,547.5 Z"/></g>
<g><path style="opacity:1" fill="#ef6d20" d="M 725.5,573.5 C 724.25,573.577 723.417,574.244 723,575.5C 708.676,643.37 670.843,693.203 609.5,725C 580.864,738.651 552.197,752.317 523.5,766C 512.452,772.385 501.952,779.552 492,787.5C 491.501,782.845 491.334,778.179 491.5,773.5C 502.431,765.024 514.097,757.524 526.5,751C 555.261,738.119 583.595,724.452 611.5,710C 666.223,679.1 699.223,632.6 710.5,570.5C 715.696,571.139 720.696,572.139 725.5,573.5 Z"/></g>
<g><path style="opacity:1" fill="#f36f22" d="M 260.5,572.5 C 273.618,641.09 310.951,691.59 372.5,724C 395.592,735.546 418.925,746.546 442.5,757C 459.592,764.955 475.425,774.788 490,786.5C 490.499,791.155 490.666,795.821 490.5,800.5C 479.382,791.433 467.382,783.6 454.5,777C 420.787,761.764 387.454,745.764 354.5,729C 294.473,694.821 258.14,643.654 245.5,575.5C 250.445,574.378 255.445,573.378 260.5,572.5 Z"/></g>
<g><path style="opacity:1" fill="#fab117" d="M 491.5,773.5 C 491.334,778.179 491.501,782.845 492,787.5C 501.952,779.552 512.452,772.385 523.5,766C 552.197,752.317 580.864,738.651 609.5,725C 670.843,693.203 708.676,643.37 723,575.5C 723.417,574.244 724.25,573.577 725.5,573.5C 729.319,573.414 732.985,574.081 736.5,575.5C 723.581,643.542 687.248,694.709 627.5,729C 596.048,745.392 564.048,760.725 531.5,775C 516.897,782.927 503.231,791.427 490.5,800.5C 490.666,795.821 490.499,791.155 490,786.5C 475.425,774.788 459.592,764.955 442.5,757C 418.925,746.546 395.592,735.546 372.5,724C 310.951,691.59 273.618,641.09 260.5,572.5C 264.662,571.024 268.828,570.691 273,571.5C 285.355,635.488 320.189,682.655 377.5,713C 407.32,727.077 436.986,741.41 466.5,756C 475.212,761.351 483.546,767.184 491.5,773.5 Z"/></g>
<g><path style="opacity:1" fill="#f9f6f4" d="M 245.5,575.5 C 258.14,643.654 294.473,694.821 354.5,729C 387.454,745.764 420.787,761.764 454.5,777C 467.382,783.6 479.382,791.433 490.5,800.5C 503.231,791.427 516.897,782.927 531.5,775C 564.048,760.725 596.048,745.392 627.5,729C 687.248,694.709 723.581,643.542 736.5,575.5C 739.127,576.092 741.794,576.425 744.5,576.5C 730.944,646.519 693.277,699.019 631.5,734C 595.108,752.196 558.441,769.862 521.5,787C 511.056,792.971 501.223,799.804 492,807.5C 473.328,792.546 452.828,780.379 430.5,771C 394.814,756.824 360.814,739.491 328.5,719C 279.157,683.831 249.824,636.331 240.5,576.5C 242.071,575.691 243.738,575.357 245.5,575.5 Z"/></g>
<g><path style="opacity:1" fill="#f4f4f4" d="M 222.5,579.5 C 223.5,579.5 224.5,579.5 225.5,579.5C 228.548,593.36 232.048,607.027 236,620.5C 222.686,609.354 209.519,598.02 196.5,586.5C 205.192,583.901 213.858,581.568 222.5,579.5 Z"/></g>
<g><path style="opacity:1" fill="#f6f6f6" d="M 758.5,580.5 C 768.279,581.686 777.946,583.519 787.5,586C 773.704,597.461 760.204,609.294 747,621.5C 750.91,607.927 754.743,594.261 758.5,580.5 Z"/></g>
<g><path style="opacity:1" fill="#fbfbfb" d="M 444.5,588.5 C 442.833,588.5 441.167,588.5 439.5,588.5C 439.5,600.167 439.5,611.833 439.5,623.5C 437.833,623.5 436.167,623.5 434.5,623.5C 434.5,611.833 434.5,600.167 434.5,588.5C 432.833,588.5 431.167,588.5 429.5,588.5C 429.5,586.833 429.5,585.167 429.5,583.5C 434.5,583.5 439.5,583.5 444.5,583.5C 444.5,585.167 444.5,586.833 444.5,588.5 Z"/></g>
<g><path style="opacity:1" fill="#a9a9a9" d="M 456.5,623.5 C 456.5,610.5 456.5,597.5 456.5,584.5C 455.167,584.5 453.833,584.5 452.5,584.5C 452.5,597.5 452.5,610.5 452.5,623.5C 451.504,610.344 451.171,597.01 451.5,583.5C 453.5,583.5 455.5,583.5 457.5,583.5C 457.829,597.01 457.496,610.344 456.5,623.5 Z"/></g>
<g><path style="opacity:1" fill="#fefffe" d="M 456.5,623.5 C 455.167,623.5 453.833,623.5 452.5,623.5C 452.5,610.5 452.5,597.5 452.5,584.5C 453.833,584.5 455.167,584.5 456.5,584.5C 456.5,597.5 456.5,610.5 456.5,623.5 Z"/></g>
<g><path style="opacity:1" fill="#f4f4f4" d="M 481.5,585.5 C 483.379,584.659 485.379,584.325 487.5,584.5C 487.5,597.5 487.5,610.5 487.5,623.5C 485.833,623.5 484.167,623.5 482.5,623.5C 482.5,621.167 482.5,618.833 482.5,616.5C 483.652,611.015 483.818,605.349 483,599.5C 482.392,601.154 481.892,602.821 481.5,604.5C 481.042,608.538 480.376,612.538 479.5,616.5C 477.833,616.5 476.167,616.5 474.5,616.5C 474.119,611.763 473.286,607.096 472,602.5C 471.5,609.492 471.334,616.492 471.5,623.5C 469.833,623.5 468.167,623.5 466.5,623.5C 466.5,610.167 466.5,596.833 466.5,583.5C 469.079,583.083 471.246,583.75 473,585.5C 474.494,592.474 475.827,599.474 477,606.5C 478.567,599.5 480.067,592.5 481.5,585.5 Z"/></g>
<g><path style="opacity:1" fill="#858585" d="M 487.5,623.5 C 487.5,610.5 487.5,597.5 487.5,584.5C 485.379,584.325 483.379,584.659 481.5,585.5C 483.279,583.656 485.612,582.99 488.5,583.5C 488.829,597.01 488.496,610.344 487.5,623.5 Z"/></g>
<g><path style="opacity:1" fill="#a9a9a9" d="M 501.5,623.5 C 501.5,610.5 501.5,597.5 501.5,584.5C 500.167,584.5 498.833,584.5 497.5,584.5C 497.5,597.5 497.5,610.5 497.5,623.5C 496.504,610.344 496.171,597.01 496.5,583.5C 498.5,583.5 500.5,583.5 502.5,583.5C 502.829,597.01 502.496,610.344 501.5,623.5 Z"/></g>
<g><path style="opacity:1" fill="#fefffe" d="M 501.5,623.5 C 500.167,623.5 498.833,623.5 497.5,623.5C 497.5,610.5 497.5,597.5 497.5,584.5C 498.833,584.5 500.167,584.5 501.5,584.5C 501.5,597.5 501.5,610.5 501.5,623.5 Z"/></g>
<g><path style="opacity:1" fill="#f2f2f2" d="M 516.5,583.5 C 516.334,590.175 516.5,596.842 517,603.5C 517.41,602.099 517.91,600.766 518.5,599.5C 519.522,594.077 520.856,588.744 522.5,583.5C 524.167,583.5 525.833,583.5 527.5,583.5C 525.899,590.004 524.232,596.504 522.5,603C 524.6,609.801 526.6,616.634 528.5,623.5C 526.833,623.5 525.167,623.5 523.5,623.5C 521.837,618.178 520.171,612.845 518.5,607.5C 518.013,606.527 517.513,605.527 517,604.5C 516.5,610.825 516.334,617.158 516.5,623.5C 514.833,623.5 513.167,623.5 511.5,623.5C 511.5,610.167 511.5,596.833 511.5,583.5C 513.167,583.5 514.833,583.5 516.5,583.5 Z"/></g>
<g><path style="opacity:1" fill="#424242" d="M 516.5,583.5 C 517.167,588.833 517.833,594.167 518.5,599.5C 517.91,600.766 517.41,602.099 517,603.5C 516.5,596.842 516.334,590.175 516.5,583.5 Z"/></g>
<g><path style="opacity:1" fill="#eeeeee" d="M 547.5,623.5 C 547.5,618.5 547.5,613.5 547.5,608.5C 545.265,608.205 543.265,608.539 541.5,609.5C 541.5,614.167 541.5,618.833 541.5,623.5C 539.5,623.5 537.5,623.5 535.5,623.5C 535.333,611.495 535.5,599.495 536,587.5C 539.66,583.633 544.16,582.466 549.5,584C 550.333,584.833 551.167,585.667 552,586.5C 552.5,598.829 552.667,611.162 552.5,623.5C 550.833,623.5 549.167,623.5 547.5,623.5 Z"/></g>
<g><path style="opacity:1" fill="#404040" d="M 444.5,588.5 C 443.432,589.434 442.099,589.768 440.5,589.5C 440.828,601.012 440.495,612.346 439.5,623.5C 439.5,611.833 439.5,600.167 439.5,588.5C 441.167,588.5 442.833,588.5 444.5,588.5 Z"/></g>
<g><path style="opacity:1" fill="#050505" d="M 546.5,589.5 C 546.5,594.167 546.5,598.833 546.5,603.5C 544.833,603.5 543.167,603.5 541.5,603.5C 541.334,598.821 541.501,594.155 542,589.5C 543.616,588.199 545.116,588.199 546.5,589.5 Z"/></g>
<g><path style="opacity:1" fill="#434343" d="M 546.5,589.5 C 547.487,594.305 547.821,599.305 547.5,604.5C 545.265,604.795 543.265,604.461 541.5,603.5C 543.167,603.5 544.833,603.5 546.5,603.5C 546.5,598.833 546.5,594.167 546.5,589.5 Z"/></g>
<g><path style="opacity:1" fill="#e4e4e4" d="M 422.5,598.5 C 422.5,599.5 422.5,600.5 422.5,601.5C 416.974,601.179 411.64,601.512 406.5,602.5C 397.829,602.738 389.162,603.072 380.5,603.5C 378.265,603.795 376.265,603.461 374.5,602.5C 390.517,601.347 406.517,600.014 422.5,598.5 Z"/></g>
<g><path style="opacity:1" fill="#e6e6e6" d="M 609.5,602.5 C 607.735,603.461 605.735,603.795 603.5,603.5C 600.833,603.5 598.167,603.5 595.5,603.5C 584.022,602.214 572.355,601.547 560.5,601.5C 560.5,600.5 560.5,599.5 560.5,598.5C 576.831,599.881 593.164,601.214 609.5,602.5 Z"/></g>
<g><path style="opacity:1" fill="#575757" d="M 422.5,598.5 C 423.833,600.5 423.833,602.5 422.5,604.5C 421.306,603.223 419.64,602.556 417.5,602.5C 414.159,602.836 410.825,603.169 407.5,603.5C 407.5,602.833 407.167,602.5 406.5,602.5C 411.64,601.512 416.974,601.179 422.5,601.5C 422.5,600.5 422.5,599.5 422.5,598.5 Z"/></g>
<g><path style="opacity:1" fill="#878787" d="M 374.5,602.5 C 376.265,603.461 378.265,603.795 380.5,603.5C 376.03,604.486 371.363,604.819 366.5,604.5C 365.833,604.5 365.5,604.167 365.5,603.5C 368.518,603.296 371.518,602.963 374.5,602.5 Z"/></g>
<g><path style="opacity:1" fill="#ebebeb" d="M 422.5,604.5 C 422.167,604.5 421.833,604.5 421.5,604.5C 418.941,604.198 416.607,604.532 414.5,605.5C 409.167,605.5 403.833,605.5 398.5,605.5C 396.265,605.795 394.265,605.461 392.5,604.5C 397.482,603.947 402.482,603.613 407.5,603.5C 410.825,603.169 414.159,602.836 417.5,602.5C 419.64,602.556 421.306,603.223 422.5,604.5 Z"/></g>
<g><path style="opacity:1" fill="#efefef" d="M 560.5,602.5 C 569.524,602.891 578.524,603.558 587.5,604.5C 588.5,604.5 589.5,604.5 590.5,604.5C 589.081,605.451 587.415,605.784 585.5,605.5C 580.167,605.5 574.833,605.5 569.5,605.5C 567.393,604.532 565.059,604.198 562.5,604.5C 561.167,604.5 560.5,603.833 560.5,602.5 Z"/></g>
<g><path style="opacity:1" fill="#4a4a4a" d="M 560.5,602.5 C 560.5,602.167 560.5,601.833 560.5,601.5C 572.355,601.547 584.022,602.214 595.5,603.5C 592.615,603.194 589.948,603.527 587.5,604.5C 578.524,603.558 569.524,602.891 560.5,602.5 Z"/></g>
<g><path style="opacity:1" fill="#828282" d="M 414.5,605.5 C 416.607,604.532 418.941,604.198 421.5,604.5C 422.278,605.156 422.944,605.989 423.5,607C 423.43,607.765 423.097,608.265 422.5,608.5C 421.082,606.692 419.082,606.025 416.5,606.5C 416.158,605.662 415.492,605.328 414.5,605.5 Z"/></g>
<g><path style="opacity:1" fill="#9c9c9c" d="M 590.5,604.5 C 601.185,605.456 611.852,606.623 622.5,608C 610.003,607.664 597.67,606.831 585.5,605.5C 587.415,605.784 589.081,605.451 590.5,604.5 Z"/></g>
<g><path style="opacity:1" fill="#777777" d="M 609.5,602.5 C 618.188,603.336 626.855,604.503 635.5,606C 624.659,605.818 613.992,604.985 603.5,603.5C 605.735,603.795 607.735,603.461 609.5,602.5 Z"/></g>
<g><path style="opacity:1" fill="#656565" d="M 365.5,603.5 C 365.5,604.167 365.833,604.5 366.5,604.5C 360.673,605.652 354.673,606.152 348.5,606C 354.139,604.92 359.805,604.087 365.5,603.5 Z"/></g>
<g><path style="opacity:1" fill="#727272" d="M 482.5,616.5 C 482.817,612.298 482.483,608.298 481.5,604.5C 481.892,602.821 482.392,601.154 483,599.5C 483.818,605.349 483.652,611.015 482.5,616.5 Z"/></g>
<g><path style="opacity:1" fill="#434343" d="M 518.5,607.5 C 517.833,612.833 517.167,618.167 516.5,623.5C 516.334,617.158 516.5,610.825 517,604.5C 517.513,605.527 518.013,606.527 518.5,607.5 Z"/></g>
<g><path style="opacity:1" fill="#919191" d="M 392.5,604.5 C 394.265,605.461 396.265,605.795 398.5,605.5C 386.352,607.143 374.019,607.977 361.5,608C 371.793,606.43 382.126,605.264 392.5,604.5 Z"/></g>
<g><path style="opacity:1" fill="#ececec" d="M 416.5,606.5 C 419.082,606.025 421.082,606.692 422.5,608.5C 416.833,608.5 411.167,608.5 405.5,608.5C 403.265,608.795 401.265,608.461 399.5,607.5C 405.138,606.78 410.804,606.447 416.5,606.5 Z"/></g>
<g><path style="opacity:1" fill="#9f9f9f" d="M 562.5,604.5 C 565.059,604.198 567.393,604.532 569.5,605.5C 569.5,605.833 569.5,606.167 569.5,606.5C 566.813,606.336 564.146,606.503 561.5,607C 563.058,607.21 564.391,607.71 565.5,608.5C 563.833,608.5 562.167,608.5 560.5,608.5C 560.527,606.801 561.194,605.467 562.5,604.5 Z"/></g>
<g><path style="opacity:1" fill="#cacaca" d="M 569.5,606.5 C 582.522,607.293 595.522,608.46 608.5,610C 594.161,609.94 579.828,609.44 565.5,608.5C 564.391,607.71 563.058,607.21 561.5,607C 564.146,606.503 566.813,606.336 569.5,606.5 Z"/></g>
<g><path style="opacity:1" fill="#939393" d="M 399.5,607.5 C 401.265,608.461 403.265,608.795 405.5,608.5C 395.36,610.028 385.026,610.528 374.5,610C 382.799,608.77 391.132,607.937 399.5,607.5 Z"/></g>
<g><path style="opacity:1" fill="#4e4e4e" d="M 541.5,609.5 C 543.265,608.539 545.265,608.205 547.5,608.5C 547.5,613.5 547.5,618.5 547.5,623.5C 546.514,619.03 546.181,614.363 546.5,609.5C 544.833,609.5 543.167,609.5 541.5,609.5 Z"/></g>
<g><path style="opacity:1" fill="#e3e3e3" d="M 482.5,645.5 C 515.813,643.708 532.979,659.375 534,692.5C 527.508,720.306 510.008,732.473 481.5,729C 458.029,720.845 447.529,704.345 450,679.5C 454.612,662.058 465.445,650.725 482.5,645.5 Z"/></g>
<g><path style="opacity:1" fill="#150d08" d="M 484.5,648.5 C 508.482,646.903 523.982,657.57 531,680.5C 531.196,713 515.029,728.167 482.5,726C 460.447,718.417 450.613,702.917 453,679.5C 457.488,662.844 467.988,652.511 484.5,648.5 Z"/></g>
<g><path style="opacity:1" fill="#ee6c20" d="M 486.5,651.5 C 487.833,651.5 489.167,651.5 490.5,651.5C 490.5,659.5 490.5,667.5 490.5,675.5C 490.5,682.833 490.5,690.167 490.5,697.5C 488.167,697.5 485.833,697.5 483.5,697.5C 483.839,692.07 483.339,686.736 482,681.5C 479.059,676.228 475.726,671.228 472,666.5C 468.883,660.533 470.383,656.366 476.5,654C 479.72,652.648 483.053,651.814 486.5,651.5 Z"/></g>
<g><path style="opacity:1" fill="#ea6a1f" d="M 500.5,686.5 C 499.521,689.625 499.187,692.958 499.5,696.5C 497.585,696.216 495.919,696.549 494.5,697.5C 493.677,694.023 493.177,690.356 493,686.5C 492.5,674.838 492.333,663.171 492.5,651.5C 499.842,651.281 506.509,653.281 512.5,657.5C 512.833,658.5 513.167,659.5 513.5,660.5C 508.649,668.869 504.316,677.535 500.5,686.5 Z"/></g>
<g><path style="opacity:1" fill="#ec6b20" d="M 515.5,660.5 C 523.049,665.93 526.549,673.263 526,682.5C 520.674,690.583 513.174,695.25 503.5,696.5C 503.248,691.615 503.581,686.781 504.5,682C 508.456,674.906 512.123,667.74 515.5,660.5 Z"/></g>
<g><path style="opacity:1" fill="#ea6a1f" d="M 467.5,659.5 C 468.264,661.74 469.098,664.073 470,666.5C 477.76,675.017 481.26,685.017 480.5,696.5C 470.265,695.14 462.432,690.14 457,681.5C 457.521,672.79 461.021,665.456 467.5,659.5 Z"/></g>
<g><path style="opacity:1" fill="#4d230c" d="M 486.5,651.5 C 487.919,650.549 489.585,650.216 491.5,650.5C 491.826,659.017 491.493,667.35 490.5,675.5C 490.5,667.5 490.5,659.5 490.5,651.5C 489.167,651.5 487.833,651.5 486.5,651.5 Z"/></g>
<g><path style="opacity:1" fill="#8d4013" d="M 500.5,686.5 C 500.5,690.167 500.5,693.833 500.5,697.5C 498.5,697.5 496.5,697.5 494.5,697.5C 495.919,696.549 497.585,696.216 499.5,696.5C 499.187,692.958 499.521,689.625 500.5,686.5 Z"/></g>
<g><path style="opacity:1" fill="#ea6a1f" d="M 458.5,689.5 C 465.289,693.059 472.289,696.393 479.5,699.5C 476.199,708.117 470.199,710.784 461.5,707.5C 458.311,702.268 456.311,696.601 455.5,690.5C 456.791,690.737 457.791,690.404 458.5,689.5 Z"/></g>
<g><path style="opacity:1" fill="#eb6a20" d="M 522.5,689.5 C 524.117,690.038 525.784,690.371 527.5,690.5C 527.396,696.978 525.396,702.811 521.5,708C 513.098,710.466 507.432,707.633 504.5,699.5C 511.144,697.182 517.144,693.848 522.5,689.5 Z"/></g>
<g><path style="opacity:1" fill="#eb6a20" d="M 482.5,699.5 C 485.096,700.265 487.763,700.599 490.5,700.5C 490.596,708.179 490.93,715.846 491.5,723.5C 480.874,723.521 471.874,719.688 464.5,712C 473.875,712.493 479.875,708.327 482.5,699.5 Z"/></g>
<g><path style="opacity:1" fill="#e9691f" d="M 497.5,699.5 C 498.833,699.5 500.167,699.5 501.5,699.5C 503.882,708.04 509.549,712.207 518.5,712C 511.666,719.916 503,723.749 492.5,723.5C 492.5,715.833 492.5,708.167 492.5,700.5C 494.415,700.784 496.081,700.451 497.5,699.5 Z"/></g>
</svg>
