<?xml version="1.0" encoding="UTF-8"?>
<!DOCTYPE svg PUBLIC "-//W3C//DTD SVG 1.1//EN" "http://www.w3.org/Graphics/SVG/1.1/DTD/svg11.dtd">
<svg xmlns="http://www.w3.org/2000/svg" version="1.1" width="1080px" height="1080px" style="shape-rendering:geometricPrecision; text-rendering:geometricPrecision; image-rendering:optimizeQuality; fill-rule:evenodd; clip-rule:evenodd" xmlns:xlink="http://www.w3.org/1999/xlink">
<g><path style="opacity:0.98" fill="#fdfdfd" d="M 519.5,83.5 C 604.776,82.3793 687.776,95.546 768.5,123C 793.027,131.764 816.694,142.43 839.5,155C 843.667,159.167 847.833,163.333 852,167.5C 858.586,178.337 864.919,189.337 871,200.5C 874.927,316.457 848.26,424.791 791,525.5C 738.597,612.2 666.93,677.866 576,722.5C 533.775,701.984 493.608,678.318 455.5,651.5C 452.88,656.524 450.546,661.69 448.5,667C 375.164,667.833 301.831,667.667 228.5,666.5C 252.833,597.833 277.167,529.167 301.5,460.5C 264.198,380.58 242.198,296.58 235.5,208.5C 202.993,186.413 170.659,164.08 138.5,141.5C 181.496,140.667 224.496,140.167 267.5,140C 308.97,124.177 351.303,111.177 394.5,101C 435.914,92.2838 477.58,86.4505 519.5,83.5 Z"/></g>
<g><path style="opacity:1" fill="#023399" d="M 585.5,137.5 C 501.5,136.833 417.5,136.167 333.5,135.5C 408.198,111.376 484.865,99.8759 563.5,101C 642.607,105.287 718.94,121.953 792.5,151C 806.358,157.179 819.858,164.012 833,171.5C 833.372,226.445 826.372,280.445 812,333.5C 800.297,257.533 761.797,199.7 696.5,160C 661.945,140.718 624.945,133.218 585.5,137.5 Z"/></g>
<g><path style="opacity:1" fill="#5f7ebe" d="M 333.5,135.5 C 417.5,136.167 501.5,136.833 585.5,137.5C 500.166,137.667 414.833,137.5 329.5,137C 330.745,136.209 332.078,135.709 333.5,135.5 Z"/></g>
<g><path style="opacity:1" fill="#345cad" d="M 608.5,158.5 C 469.666,158.167 330.999,158.5 192.5,159.5C 191.711,159.217 191.044,158.717 190.5,158C 330.001,157.167 469.334,157.334 608.5,158.5 Z"/></g>
<g><path style="opacity:1" fill="#023399" d="M 192.5,159.5 C 330.999,158.5 469.666,158.167 608.5,158.5C 644.278,158.482 676.611,168.982 705.5,190C 768.434,238.715 796.934,302.882 791,382.5C 781.148,451.599 746.648,504.099 687.5,540C 660.417,555.044 631.417,563.377 600.5,565C 557.163,565.167 513.829,565.667 470.5,566.5C 459.5,594.5 448.5,622.5 437.5,650.5C 375.503,651.667 313.503,651.833 251.5,651C 294.161,530.35 336.828,409.683 379.5,289C 317.619,245.303 255.286,202.137 192.5,159.5 Z"/></g>
<g><path style="opacity:1" fill="#8c9179" d="M 564.5,186.5 C 470.665,186.167 376.999,186.501 283.5,187.5C 282.711,187.217 282.044,186.717 281.5,186C 376.001,185.168 470.334,185.334 564.5,186.5 Z"/></g>
<g><path style="opacity:1" fill="#fecb03" d="M 283.5,187.5 C 376.999,186.501 470.665,186.167 564.5,186.5C 587.683,186.737 610.683,188.904 633.5,193C 684.503,205.337 722.003,234.837 746,281.5C 770.506,333.744 770.506,386.077 746,438.5C 714.557,498.896 664.723,531.729 596.5,537C 526.763,537.165 457.763,537.665 389.5,538.5C 402.792,555.401 416.792,571.734 431.5,587.5C 426.971,599.085 422.638,610.751 418.5,622.5C 376.33,622.832 334.33,622.499 292.5,621.5C 294.774,613.678 297.44,606.012 300.5,598.5C 314.528,568.279 333.861,541.779 358.5,519C 377.259,502.703 398.759,491.536 423,485.5C 421.156,494.54 419.156,503.54 417,512.5C 441.826,492.669 469.659,478.503 500.5,470C 514.153,468.505 527.486,469.838 540.5,474C 551.876,478.523 558.543,486.69 560.5,498.5C 559.626,501.789 558.959,505.123 558.5,508.5C 576.176,511.393 593.176,509.227 609.5,502C 630.76,487.411 639.76,467.245 636.5,441.5C 629.889,448.608 622.056,453.941 613,457.5C 597.396,447.965 589.896,433.965 590.5,415.5C 590.343,404.801 592.677,394.801 597.5,385.5C 605.174,385.334 612.841,385.5 620.5,386C 636.551,387.506 652.551,389.34 668.5,391.5C 668.634,400.077 666.968,408.244 663.5,416C 669.139,414.35 674.472,411.85 679.5,408.5C 690.484,404.004 700.151,397.504 708.5,389C 720.948,384.552 729.448,376.052 734,363.5C 735.936,357.859 737.769,352.192 739.5,346.5C 731.565,325.915 718.065,310.248 699,299.5C 689.38,283.547 676.713,270.547 661,260.5C 659.554,255.105 656.721,250.605 652.5,247C 641.377,243.479 630.043,240.812 618.5,239C 590.143,235.081 561.81,231.081 533.5,227C 501.096,219.691 468.929,211.524 437,202.5C 436.333,213.332 439.167,223.165 445.5,232C 414.533,234.165 383.533,235.165 352.5,235C 329.471,219.157 306.471,203.323 283.5,187.5 Z"/></g>
<g><path style="opacity:1" fill="#ff9f0a" d="M 849.5,189.5 C 851.795,194.548 853.629,199.882 855,205.5C 857.474,314.604 832.474,416.938 780,512.5C 730.758,596.408 662.758,660.408 576,704.5C 570.103,701.468 564.269,698.301 558.5,695C 675.571,633.591 757.737,541.091 805,417.5C 832.856,344.054 847.689,268.054 849.5,189.5 Z"/></g>
<g><path style="opacity:1" fill="#013399" d="M 254.5,227.5 C 287.012,249.837 319.679,272.003 352.5,294C 353.574,294.739 354.241,295.739 354.5,297C 338.667,341.833 322.833,386.667 307,431.5C 278.554,366.386 261.054,298.386 254.5,227.5 Z"/></g>
<g><path style="opacity:1" fill="#f4f6fa" d="M 604.5,275.5 C 616.133,276.1 626.799,279.6 636.5,286C 637.687,287.019 638.687,288.186 639.5,289.5C 626.228,292.907 615.061,289.574 606,279.5C 605.209,278.255 604.709,276.922 604.5,275.5 Z"/></g>
<g><path style="opacity:1" fill="#fb9d05" d="M 679.5,408.5 C 674.472,411.85 669.139,414.35 663.5,416C 666.968,408.244 668.634,400.077 668.5,391.5C 652.551,389.34 636.551,387.506 620.5,386C 612.841,385.5 605.174,385.334 597.5,385.5C 598.42,382.492 599.754,379.659 601.5,377C 629.011,377.001 656.344,379.167 683.5,383.5C 683.607,392.069 682.274,400.402 679.5,408.5 Z"/></g>
<g><path style="opacity:1" fill="#fb9d06" d="M 560.5,498.5 C 558.543,486.69 551.876,478.523 540.5,474C 527.486,469.838 514.153,468.505 500.5,470C 469.659,478.503 441.826,492.669 417,512.5C 419.156,503.54 421.156,494.54 423,485.5C 398.759,491.536 377.259,502.703 358.5,519C 333.861,541.779 314.528,568.279 300.5,598.5C 312.903,550.825 339.236,512.991 379.5,485C 397.67,473.582 417.337,466.082 438.5,462.5C 437.23,469.081 435.563,475.581 433.5,482C 433.833,482.5 434.167,483 434.5,483.5C 455.85,469.717 479.184,461.717 504.5,459.5C 524.976,458.662 542.142,465.662 556,480.5C 560.551,485.941 562.051,491.941 560.5,498.5 Z"/></g>
<g><path style="opacity:1" fill="#f99c07" d="M 389.5,538.5 C 405.342,550.169 421.342,561.669 437.5,573C 435.399,577.805 433.399,582.638 431.5,587.5C 416.792,571.734 402.792,555.401 389.5,538.5 Z"/></g>
<g><path style="opacity:1" fill="#023399" d="M 705.5,552.5 C 706.525,552.897 706.692,553.563 706,554.5C 660.811,610.205 606.311,654.205 542.5,686.5C 515.4,672.877 489.9,656.877 466,638.5C 465.516,636.087 465.85,633.754 467,631.5C 472.735,616.794 478.569,602.127 484.5,587.5C 523.496,586.667 562.496,586.167 601.5,586C 636.257,583.415 668.923,573.748 699.5,557C 701.747,555.723 703.747,554.223 705.5,552.5 Z"/></g>
<g><path style="opacity:1" fill="#bdab4b" d="M 292.5,621.5 C 334.33,622.499 376.33,622.832 418.5,622.5C 376.331,623.831 333.998,623.831 291.5,622.5C 291.624,621.893 291.957,621.56 292.5,621.5 Z"/></g>
<g><path style="opacity:0.96" fill="#fafbfd" d="M 391.5,768.5 C 422.203,768.047 452.87,768.547 483.5,770C 493.902,772.735 500.736,779.235 504,789.5C 507.038,782.591 510.205,775.758 513.5,769C 532.164,768.5 550.83,768.333 569.5,768.5C 571.227,802.496 572.894,836.496 574.5,870.5C 558.833,870.5 543.167,870.5 527.5,870.5C 527.5,866.167 527.5,861.833 527.5,857.5C 524.753,857.187 522.086,857.52 519.5,858.5C 518.027,862.251 516.36,865.917 514.5,869.5C 464.833,870.833 415.167,870.833 365.5,869.5C 367.128,863.528 368.295,857.528 369,851.5C 365.689,857.954 362.523,864.454 359.5,871C 316.835,871.5 274.168,871.667 231.5,871.5C 231.5,867.167 231.5,862.833 231.5,858.5C 228.753,858.187 226.086,858.52 223.5,859.5C 221.559,863.048 219.893,866.714 218.5,870.5C 180.171,871.667 141.838,871.833 103.5,871C 105.903,863.317 107.403,855.484 108,847.5C 105.07,849.255 101.903,850.422 98.5,851C 92.1754,851.5 85.8421,851.666 79.5,851.5C 78.3254,858.531 76.9921,865.531 75.5,872.5C 60.5,872.5 45.5,872.5 30.5,872.5C 35.5747,846.794 40.908,821.127 46.5,795.5C 45.4411,792.932 43.7744,790.765 41.5,789C 34.2055,783.374 27.2055,777.374 20.5,771C 50.8333,770.333 81.1667,770.333 111.5,771C 116.205,771.677 120.372,773.51 124,776.5C 124.662,774.187 125.162,771.854 125.5,769.5C 146.207,769.072 166.873,769.572 187.5,771C 197.515,773.514 204.182,779.681 207.5,789.5C 211.232,783.203 214.565,776.703 217.5,770C 247.832,769.5 278.165,769.333 308.5,769.5C 308.173,774.214 308.507,778.88 309.5,783.5C 312.231,779.204 314.565,774.704 316.5,770C 328.162,769.5 339.829,769.333 351.5,769.5C 351.334,774.844 351.501,780.177 352,785.5C 354.099,780.135 356.599,774.968 359.5,770C 370.341,769.83 381.008,769.33 391.5,768.5 Z"/></g>
<g><path style="opacity:0.959" fill="#fbfbfd" d="M 594.5,768.5 C 637.5,768.5 680.5,768.5 723.5,768.5C 721.998,774.495 720.831,780.495 720,786.5C 722.977,780.712 725.811,774.879 728.5,769C 747.497,768.5 766.497,768.333 785.5,768.5C 785.472,778.192 785.972,787.859 787,797.5C 789.029,787.853 790.863,778.187 792.5,768.5C 812.169,768.333 831.836,768.5 851.5,769C 856.929,769.753 861.929,771.587 866.5,774.5C 868.086,772.827 868.753,770.827 868.5,768.5C 909.172,768.167 949.839,768.5 990.5,769.5C 992.667,775.167 994.833,780.833 997,786.5C 1002.17,780.667 1007.33,774.833 1012.5,769C 1028.18,768.167 1043.84,768.334 1059.5,769.5C 1050.18,803.433 1041.18,837.433 1032.5,871.5C 1016.49,871.833 1000.49,871.499 984.5,870.5C 985.605,866.239 986.939,862.073 988.5,858C 983.845,857.501 979.179,857.334 974.5,857.5C 974.649,856.448 974.483,855.448 974,854.5C 972.802,859.926 971.302,865.259 969.5,870.5C 953.848,871.499 938.181,871.833 922.5,871.5C 923.231,869.401 923.231,867.401 922.5,865.5C 907.178,872.46 891.511,873.293 875.5,868C 872.582,866.291 869.748,864.458 867,862.5C 867.158,865.502 867.658,868.502 868.5,871.5C 826.832,872.679 785.165,872.679 743.5,871.5C 742.8,867.202 742.467,862.869 742.5,858.5C 739.753,858.187 737.086,858.52 734.5,859.5C 732.356,863.621 730.356,867.788 728.5,872C 685.143,872.95 641.81,872.617 598.5,871C 605.833,844.667 613.167,818.333 620.5,792C 612.833,785.667 605.167,779.333 597.5,773C 595.859,771.871 594.859,770.371 594.5,768.5 Z"/></g>
<g><path style="opacity:1" fill="#6987c2" d="M 475.5,779.5 C 460.089,779.183 444.755,779.517 429.5,780.5C 436.803,779.169 444.47,778.502 452.5,778.5C 460.341,778.5 468.007,778.834 475.5,779.5 Z"/></g>
<g><path style="opacity:1" fill="#456ab4" d="M 660.5,779.5 C 647.656,779.171 634.989,779.505 622.5,780.5C 621.957,780.44 621.624,780.107 621.5,779.5C 634.661,778.175 647.661,778.175 660.5,779.5 Z"/></g>
<g><path style="opacity:1" fill="#033499" d="M 306.5,860.5 C 296.833,860.5 287.167,860.5 277.5,860.5C 277.784,858.585 277.451,856.919 276.5,855.5C 275.5,830.167 274.5,804.834 273.5,779.5C 281.833,779.5 290.167,779.5 298.5,779.5C 299.273,795.165 300.106,810.831 301,826.5C 308.333,811.167 315.667,795.833 323,780.5C 329.076,779.524 335.242,779.19 341.5,779.5C 342.412,794.821 343.246,810.155 344,825.5C 351.256,810.578 358.423,795.578 365.5,780.5C 373.807,779.502 382.14,779.169 390.5,779.5C 378.731,806.374 366.398,833.041 353.5,859.5C 343.522,860.499 333.522,860.832 323.5,860.5C 323.709,849.467 323.209,838.467 322,827.5C 316.353,838.277 311.186,849.277 306.5,860.5 Z"/></g>
<g><path style="opacity:1" fill="#043499" d="M 395.5,779.5 C 403.528,779.169 411.528,779.502 419.5,780.5C 413.516,807.103 407.849,833.769 402.5,860.5C 394.5,860.5 386.5,860.5 378.5,860.5C 384.038,833.478 389.704,806.478 395.5,779.5 Z"/></g>
<g><path style="opacity:1" fill="#033499" d="M 563.5,859.5 C 555.167,859.5 546.833,859.5 538.5,859.5C 538.5,855.167 538.5,850.833 538.5,846.5C 529.983,846.174 521.65,846.507 513.5,847.5C 511.328,851.308 509.328,855.308 507.5,859.5C 490.179,860.5 472.846,860.833 455.5,860.5C 454.156,852.104 452.489,843.77 450.5,835.5C 447.5,835.5 444.5,835.5 441.5,835.5C 440.272,843.865 438.939,852.198 437.5,860.5C 429.5,860.5 421.5,860.5 413.5,860.5C 418.196,833.687 423.529,807.021 429.5,780.5C 444.755,779.517 460.089,779.183 475.5,779.5C 490.753,780.953 496.586,789.287 493,804.5C 491.732,817.562 485.565,827.395 474.5,834C 477.066,841.865 479.733,849.698 482.5,857.5C 495.257,831.653 507.757,805.653 520,779.5C 533.421,778.51 546.921,778.177 560.5,778.5C 561.167,805.513 562.167,832.513 563.5,859.5 Z"/></g>
<g><path style="opacity:1" fill="#053499" d="M 622.5,780.5 C 634.989,779.505 647.656,779.171 660.5,779.5C 657.84,788.804 655.173,798.138 652.5,807.5C 660.5,808.833 668.5,808.833 676.5,807.5C 678.749,797.849 681.416,788.349 684.5,779C 693.186,778.168 701.853,778.335 710.5,779.5C 702.868,806.428 695.534,833.428 688.5,860.5C 679.859,861.498 671.192,861.831 662.5,861.5C 665.085,851.58 667.418,841.58 669.5,831.5C 661.826,831.334 654.159,831.5 646.5,832C 643.45,841.699 640.783,851.532 638.5,861.5C 629.833,861.5 621.167,861.5 612.5,861.5C 618.894,837.367 625.228,813.201 631.5,789C 628.695,786.031 625.695,783.197 622.5,780.5 Z"/></g>
<g><path style="opacity:1" fill="#053499" d="M 778.5,846.5 C 778.5,851.5 778.5,856.5 778.5,861.5C 770.167,861.5 761.833,861.5 753.5,861.5C 752.515,857.366 752.182,853.032 752.5,848.5C 744.14,848.169 735.807,848.502 727.5,849.5C 725.559,853.048 723.893,856.714 722.5,860.5C 713.833,861.833 705.167,861.833 696.5,860.5C 709.731,833.374 722.398,806.041 734.5,778.5C 748.167,778.5 761.833,778.5 775.5,778.5C 776.801,801.152 777.801,823.819 778.5,846.5 Z"/></g>
<g><path style="opacity:1" fill="#06349a" d="M 808.5,861.5 C 800.097,862.134 792.097,861.467 784.5,859.5C 790.04,832.465 795.707,805.465 801.5,778.5C 817.837,778.333 834.17,778.5 850.5,779C 860.845,780.672 866.178,786.672 866.5,797C 866.031,807.712 862.864,817.545 857,826.5C 853.642,829.358 850.142,832.025 846.5,834.5C 849.979,843.27 852.646,852.27 854.5,861.5C 845.5,861.5 836.5,861.5 827.5,861.5C 825.99,853.127 824.323,844.794 822.5,836.5C 819.5,836.5 816.5,836.5 813.5,836.5C 811.706,844.805 810.039,853.139 808.5,861.5 Z"/></g>
<g><path style="opacity:1" fill="#06359a" d="M 877.5,778.5 C 885.833,778.5 894.167,778.5 902.5,778.5C 898.654,795.397 895.321,812.397 892.5,829.5C 891.273,835.742 893.773,838.742 900,838.5C 906.909,838.543 911.242,835.209 913,828.5C 916.197,811.75 919.697,795.084 923.5,778.5C 931.833,778.5 940.167,778.5 948.5,778.5C 945.733,792.834 942.9,807.167 940,821.5C 934.115,850.706 916.282,863.872 886.5,861C 875.991,858.491 869.491,851.991 867,841.5C 866.333,836.167 866.333,830.833 867,825.5C 870.569,809.82 874.069,794.154 877.5,778.5 Z"/></g>
<g><path style="opacity:1" fill="#06349a" d="M 957.5,778.5 C 966.167,778.5 974.833,778.5 983.5,778.5C 986.242,788.059 989.575,797.392 993.5,806.5C 1001.69,797.481 1009.69,788.315 1017.5,779C 1027.18,778.168 1036.85,778.335 1046.5,779.5C 1038.24,806.547 1030.9,833.88 1024.5,861.5C 1015.83,861.5 1007.17,861.5 998.5,861.5C 1001.66,848.86 1004.49,836.193 1007,823.5C 999.63,831.868 991.963,839.868 984,847.5C 983.228,847.355 982.561,847.022 982,846.5C 978.853,838.053 975.52,829.72 972,821.5C 968.537,834.486 965.204,847.486 962,860.5C 953.226,861.816 944.393,861.816 935.5,860.5C 943.213,833.272 950.546,805.938 957.5,778.5 Z"/></g>
<g><path style="opacity:1" fill="#033499" d="M 67.5,861.5 C 59.0968,862.134 51.0968,861.467 43.5,859.5C 48.1115,837.001 52.7781,814.501 57.5,792C 55.2899,787.45 51.9566,783.783 47.5,781C 68.1667,780.333 88.8333,780.333 109.5,781C 116.482,781.986 120.982,785.819 123,792.5C 125.408,829.426 108.241,845.926 71.5,842C 69.9,848.43 68.5667,854.93 67.5,861.5 Z"/></g>
<g><path style="opacity:1" fill="#053499" d="M 223.5,779.5 C 237.167,779.5 250.833,779.5 264.5,779.5C 265.072,806.851 266.072,834.184 267.5,861.5C 258.833,861.5 250.167,861.5 241.5,861.5C 241.5,856.833 241.5,852.167 241.5,847.5C 233.167,847.5 224.833,847.5 216.5,847.5C 215.131,851.912 213.464,856.246 211.5,860.5C 194.179,861.5 176.846,861.833 159.5,861.5C 157.959,853.131 156.293,844.797 154.5,836.5C 151.5,836.5 148.5,836.5 145.5,836.5C 144.477,844.639 142.81,852.639 140.5,860.5C 132.5,861.833 124.5,861.833 116.5,860.5C 122.167,833.833 127.833,807.167 133.5,780.5C 150.837,780.333 168.17,780.5 185.5,781C 194.074,783.735 198.074,789.568 197.5,798.5C 197.826,814.355 191.492,826.522 178.5,835C 181.233,843.097 183.733,851.264 186,859.5C 199.321,833.193 211.821,806.526 223.5,779.5 Z"/></g>
<g><path style="opacity:1" fill="#f1f3f9" d="M 450.5,797.5 C 456.105,796.908 461.439,797.741 466.5,800C 468.306,815.013 461.64,820.846 446.5,817.5C 447.198,810.677 448.531,804.011 450.5,797.5 Z"/></g>
<g><path style="opacity:1" fill="#f9fafc" d="M 821.5,798.5 C 826.511,798.334 831.511,798.501 836.5,799C 838.646,799.479 839.646,800.812 839.5,803C 838.57,816.157 831.57,820.99 818.5,817.5C 819.176,811.112 820.176,804.778 821.5,798.5 Z"/></g>
<g><path style="opacity:1" fill="#f8f9fc" d="M 80.5,799.5 C 84.8461,799.334 89.1794,799.501 93.5,800C 94.9308,800.465 96.0975,801.299 97,802.5C 96.9278,808.36 95.7611,814.027 93.5,819.5C 92.3349,820.584 91.0016,821.417 89.5,822C 84.798,822.828 80.1313,822.662 75.5,821.5C 76.9162,814.082 78.5828,806.749 80.5,799.5 Z"/></g>
<g><path style="opacity:1" fill="#f5f6fa" d="M 154.5,798.5 C 171.181,796.501 175.181,802.667 166.5,817C 161.264,818.339 155.93,818.839 150.5,818.5C 150.942,811.623 152.275,804.957 154.5,798.5 Z"/></g>
<g><path style="opacity:1" fill="#fafbfd" d="M 533.5,802.5 C 534.5,802.5 535.5,802.5 536.5,802.5C 536.5,810.833 536.5,819.167 536.5,827.5C 531.637,827.819 526.97,827.486 522.5,826.5C 525.656,818.192 529.323,810.192 533.5,802.5 Z"/></g>
<g><path style="opacity:1" fill="#fafbfd" d="M 751.5,802.5 C 751.5,811.167 751.5,819.833 751.5,828.5C 746.637,828.819 741.97,828.486 737.5,827.5C 741.117,819.269 744.45,810.935 747.5,802.5C 748.833,802.5 750.167,802.5 751.5,802.5 Z"/></g>
<g><path style="opacity:1" fill="#f5f7fb" d="M 236.5,803.5 C 237.833,803.5 239.167,803.5 240.5,803.5C 240.5,812.167 240.5,820.833 240.5,829.5C 235.456,829.827 230.456,829.494 225.5,828.5C 229.454,820.263 233.12,811.929 236.5,803.5 Z"/></g>
<g><path style="opacity:1" fill="#879ece" d="M 533.5,802.5 C 534.568,801.566 535.901,801.232 537.5,801.5C 537.5,810.5 537.5,819.5 537.5,828.5C 532.125,828.828 526.792,828.495 521.5,827.5C 521.624,826.893 521.957,826.56 522.5,826.5C 526.97,827.486 531.637,827.819 536.5,827.5C 536.5,819.167 536.5,810.833 536.5,802.5C 535.5,802.5 534.5,802.5 533.5,802.5 Z"/></g>
<g><path style="opacity:1" fill="#a0b2d9" d="M 751.5,802.5 C 752.493,811.318 752.827,820.318 752.5,829.5C 747.125,829.828 741.792,829.495 736.5,828.5C 736.624,827.893 736.957,827.56 737.5,827.5C 741.97,828.486 746.637,828.819 751.5,828.5C 751.5,819.833 751.5,811.167 751.5,802.5 Z"/></g>
<g><path style="opacity:1" fill="#637fc0" d="M 513.5,847.5 C 521.65,846.507 529.983,846.174 538.5,846.5C 538.5,850.833 538.5,855.167 538.5,859.5C 546.833,859.5 555.167,859.5 563.5,859.5C 555.016,860.493 546.349,860.826 537.5,860.5C 537.5,856.167 537.5,851.833 537.5,847.5C 529.5,847.5 521.5,847.5 513.5,847.5 Z"/></g>
<g><path style="opacity:1" fill="#5e7dbe" d="M 276.5,855.5 C 277.451,856.919 277.784,858.585 277.5,860.5C 287.167,860.5 296.833,860.5 306.5,860.5C 296.681,861.494 286.681,861.827 276.5,861.5C 276.5,859.5 276.5,857.5 276.5,855.5 Z"/></g>
<g><path style="opacity:1" fill="#869ece" d="M 43.5,859.5 C 51.0968,861.467 59.0968,862.134 67.5,861.5C 59.3501,862.493 51.0168,862.826 42.5,862.5C 42.2627,861.209 42.596,860.209 43.5,859.5 Z"/></g>
<g><path style="opacity:1" fill="#afbede" d="M 778.5,846.5 C 779.488,851.64 779.821,856.974 779.5,862.5C 770.651,862.826 761.984,862.493 753.5,861.5C 761.833,861.5 770.167,861.5 778.5,861.5C 778.5,856.5 778.5,851.5 778.5,846.5 Z"/></g>
<g><path style="opacity:1" fill="#8aa1d0" d="M 784.5,859.5 C 792.097,861.467 800.097,862.134 808.5,861.5C 800.35,862.493 792.017,862.826 783.5,862.5C 783.263,861.209 783.596,860.209 784.5,859.5 Z"/></g>
<g><path style="opacity:0.956" fill="#fbfbfd" d="M 244.5,891.5 C 270.502,891.333 296.502,891.5 322.5,892C 341.214,891.909 351.38,901.076 353,919.5C 356.561,911.378 360.394,903.378 364.5,895.5C 383.155,894.5 401.821,894.167 420.5,894.5C 420.104,902.253 420.604,909.92 422,917.5C 423.663,909.851 425.163,902.185 426.5,894.5C 437.497,893.825 448.497,893.658 459.5,894C 463.207,900.582 467.041,907.082 471,913.5C 472.311,907.112 473.811,900.779 475.5,894.5C 502.16,893.333 528.827,893.167 555.5,894C 566.649,895.322 575.815,900.155 583,908.5C 584.638,903.614 585.805,898.614 586.5,893.5C 623.506,893.167 660.506,893.5 697.5,894.5C 701.2,900.37 704.7,906.37 708,912.5C 709.693,905.867 711.193,899.2 712.5,892.5C 727.167,892.5 741.833,892.5 756.5,892.5C 756.027,895.697 755.361,898.863 754.5,902C 754.833,902.5 755.167,903 755.5,903.5C 773.924,891.405 793.59,888.905 814.5,896C 824.438,900.506 831.271,907.672 835,917.5C 831.833,920.667 828.667,923.833 825.5,927C 826.448,927.483 827.448,927.649 828.5,927.5C 824.837,944.819 821.171,962.153 817.5,979.5C 811.089,985.71 803.422,989.877 794.5,992C 776.552,996.897 759.886,994.231 744.5,984C 742.291,982.127 740.458,979.96 739,977.5C 737.512,982.773 736.346,988.107 735.5,993.5C 723.814,993.832 712.148,993.499 700.5,992.5C 697.333,986.833 694.167,981.167 691,975.5C 689.253,981.399 688.087,987.399 687.5,993.5C 673.137,993.2 658.804,993.533 644.5,994.5C 643.833,994.167 643.167,993.833 642.5,993.5C 643.466,990.843 643.966,988.176 644,985.5C 631.751,993.935 618.251,996.768 603.5,994C 591.534,991.694 582.701,985.194 577,974.5C 566.795,985.362 554.295,991.862 539.5,994C 514.16,994.833 488.827,994.666 463.5,993.5C 460.333,987.833 457.167,982.167 454,976.5C 452.371,982.318 450.871,988.151 449.5,994C 425.845,995.091 402.179,995.591 378.5,995.5C 378.5,991.167 378.5,986.833 378.5,982.5C 375.833,982.5 373.167,982.5 370.5,982.5C 369.259,986.819 367.592,990.985 365.5,995C 357.5,995.167 349.5,995.333 341.5,995.5C 333.1,995.484 324.934,994.817 317,993.5C 315.266,994.249 313.433,994.749 311.5,995C 292.158,995.833 272.825,995.666 253.5,994.5C 259.51,968.949 264.677,943.283 269,917.5C 260.241,909.245 252.074,900.579 244.5,891.5 Z"/></g>
<g><path style="opacity:1" fill="#a0b3d9" d="M 321.5,902.5 C 303.659,902.17 285.992,902.503 268.5,903.5C 267.957,903.44 267.624,903.107 267.5,902.5C 285.662,901.173 303.662,901.173 321.5,902.5 Z"/></g>
<g><path style="opacity:1" fill="#033499" d="M 268.5,903.5 C 285.992,902.503 303.659,902.17 321.5,902.5C 337.775,903.932 344.275,912.599 341,928.5C 339.741,934.854 336.574,940.021 331.5,944C 336.784,950.364 337.95,957.531 335,965.5C 331.418,977.079 323.585,983.579 311.5,985C 296.504,985.5 281.504,985.667 266.5,985.5C 271.102,962.658 275.768,939.825 280.5,917C 280.333,915.833 280.167,914.667 280,913.5C 276.229,910.041 272.395,906.708 268.5,903.5 Z"/></g>
<g><path style="opacity:1" fill="#8aa1d0" d="M 720.5,903.5 C 728.343,902.18 736.343,902.18 744.5,903.5C 744.376,904.107 744.043,904.44 743.5,904.5C 736.018,903.508 728.352,903.175 720.5,903.5 Z"/></g>
<g><path style="opacity:1" fill="#07359a" d="M 782.5,902.5 C 794.66,900.829 805.993,902.996 816.5,909C 818.774,910.765 820.441,912.932 821.5,915.5C 816.917,921.588 811.75,927.255 806,932.5C 797.8,924.147 788.3,922.314 777.5,927C 767.295,935.603 764.461,946.103 769,958.5C 771.869,961.886 775.536,963.219 780,962.5C 782.167,962.333 784.333,962.167 786.5,962C 787.337,960.989 787.67,959.822 787.5,958.5C 784.167,958.5 780.833,958.5 777.5,958.5C 778.941,951.519 780.275,944.519 781.5,937.5C 792.833,937.5 804.167,937.5 815.5,937.5C 813.431,949.916 810.931,962.249 808,974.5C 791.262,985.513 773.762,987.013 755.5,979C 742.756,969.643 738.256,957.143 742,941.5C 747.895,920.436 761.395,907.436 782.5,902.5 Z"/></g>
<g><path style="opacity:1" fill="#043499" d="M 594.5,903.5 C 602.833,903.5 611.167,903.5 619.5,903.5C 616.329,920.52 612.996,937.52 609.5,954.5C 611.135,962.519 615.802,964.686 623.5,961C 625.917,959.337 627.75,957.171 629,954.5C 633.263,937.585 637.096,920.585 640.5,903.5C 648.86,903.169 657.193,903.502 665.5,904.5C 661.525,922.543 657.358,940.543 653,958.5C 642.031,980.23 624.531,988.397 600.5,983C 587.536,976.485 582.369,965.985 585,951.5C 588.238,935.479 591.404,919.479 594.5,903.5 Z"/></g>
<g><path style="opacity:1" fill="#033499" d="M 720.5,903.5 C 728.352,903.175 736.018,903.508 743.5,904.5C 737.845,930.765 732.511,957.098 727.5,983.5C 720.825,983.666 714.158,983.5 707.5,983C 700.54,970.914 693.707,958.748 687,946.5C 683.604,958.638 680.771,970.971 678.5,983.5C 670.833,983.5 663.167,983.5 655.5,983.5C 661.165,956.84 666.832,930.173 672.5,903.5C 678.868,903.17 685.202,903.504 691.5,904.5C 698.333,916.167 705.167,927.833 712,939.5C 715.779,927.782 718.612,915.782 720.5,903.5 Z"/></g>
<g><path style="opacity:1" fill="#053499" d="M 483.5,903.5 C 491.167,903.5 498.833,903.5 506.5,903.5C 500.704,930.48 495.037,957.48 489.5,984.5C 483.158,984.666 476.825,984.5 470.5,984C 463.626,971.752 456.626,959.585 449.5,947.5C 446.512,959.762 443.845,972.095 441.5,984.5C 433.833,984.5 426.167,984.5 418.5,984.5C 424.218,957.912 429.551,931.245 434.5,904.5C 440.842,904.334 447.175,904.5 453.5,905C 460.667,916.833 467.833,928.667 475,940.5C 478.152,928.24 480.985,915.906 483.5,903.5 Z"/></g>
<g><path style="opacity:1" fill="#05349a" d="M 515.5,903.5 C 529.551,903.091 543.551,903.591 557.5,905C 577.448,910.704 585.281,923.87 581,944.5C 574.868,966.298 560.701,979.465 538.5,984C 525.154,984.833 511.821,984.666 498.5,983.5C 504.677,956.947 510.344,930.281 515.5,903.5 Z"/></g>
<g><path style="opacity:1" fill="#08359a" d="M 413.5,975.5 C 413.5,978.5 413.5,981.5 413.5,984.5C 405.167,984.5 396.833,984.5 388.5,984.5C 388.5,980.5 388.5,976.5 388.5,972.5C 380.167,972.5 371.833,972.5 363.5,972.5C 362.259,976.819 360.592,980.985 358.5,985C 350.147,985.832 341.813,985.665 333.5,984.5C 346,958.167 358.5,931.833 371,905.5C 384.087,904.511 397.254,904.177 410.5,904.5C 411.848,928.149 412.848,951.816 413.5,975.5 Z"/></g>
<g><path style="opacity:1" fill="#f8f9fc" d="M 300.5,922.5 C 306.509,922.334 312.509,922.501 318.5,923C 320.736,928.858 319.07,933.191 313.5,936C 308.177,936.499 302.844,936.666 297.5,936.5C 298.245,931.773 299.245,927.106 300.5,922.5 Z"/></g>
<g><path style="opacity:1" fill="#f7f8fb" d="M 536.5,924.5 C 542.611,923.838 548.278,925.005 553.5,928C 558.003,938.884 556.336,948.884 548.5,958C 542.552,962.321 535.885,964.155 528.5,963.5C 530.658,950.378 533.324,937.378 536.5,924.5 Z"/></g>
<g><path style="opacity:1" fill="#f8f9fc" d="M 383.5,927.5 C 384.833,927.5 386.167,927.5 387.5,927.5C 387.5,936.167 387.5,944.833 387.5,953.5C 382.489,953.666 377.489,953.499 372.5,953C 376.655,944.699 380.322,936.199 383.5,927.5 Z"/></g>
<g><path style="opacity:1" fill="#f9fafc" d="M 307.5,967.5 C 301.974,967.821 296.64,967.488 291.5,966.5C 292.007,962.14 292.673,957.807 293.5,953.5C 300.284,953.08 306.95,953.58 313.5,955C 315.88,961.404 313.88,965.571 307.5,967.5 Z"/></g>
<g><path style="opacity:1" fill="#92a7d3" d="M 291.5,966.5 C 296.64,967.488 301.974,967.821 307.5,967.5C 301.987,968.816 296.32,968.816 290.5,967.5C 290.624,966.893 290.957,966.56 291.5,966.5 Z"/></g>
<g><path style="opacity:1" fill="#6885c2" d="M 413.5,975.5 C 414.479,978.625 414.813,981.958 414.5,985.5C 405.651,985.826 396.984,985.493 388.5,984.5C 396.833,984.5 405.167,984.5 413.5,984.5C 413.5,981.5 413.5,978.5 413.5,975.5 Z"/></g>
</svg>
