<?xml version="1.0" encoding="UTF-8"?>
<!DOCTYPE svg PUBLIC "-//W3C//DTD SVG 1.1//EN" "http://www.w3.org/Graphics/SVG/1.1/DTD/svg11.dtd">
<svg xmlns="http://www.w3.org/2000/svg" version="1.1" width="691px" height="691px" style="shape-rendering:geometricPrecision; text-rendering:geometricPrecision; image-rendering:optimizeQuality; fill-rule:evenodd; clip-rule:evenodd" xmlns:xlink="http://www.w3.org/1999/xlink">
<g><path style="opacity:0.946" fill="#2b1669" d="M 320.5,12.5 C 441.514,8.32166 539.014,53.9883 613,149.5C 672.376,234.725 690.043,328.059 666,429.5C 634.212,539.282 565.378,615.449 459.5,658C 349.733,695.547 246.733,682.214 150.5,618C 44.0752,537.263 -1.75815,430.096 13,296.5C 33.637,180.001 96.8037,95.501 202.5,43C 240.166,25.9178 279.499,15.7511 320.5,12.5 Z"/></g>
<g><path style="opacity:1" fill="#f97405" d="M 317.5,23.5 C 424.154,17.9712 513.321,54.3045 585,132.5C 663.066,227.505 683.399,333.839 646,451.5C 611.594,542.572 549.428,606.739 459.5,644C 353.311,681.969 253.311,669.969 159.5,608C 59.8029,533.401 14.6362,433.568 24,308.5C 39.2351,200.113 93.7351,118.28 187.5,63C 228.172,40.6055 271.505,27.4388 317.5,23.5 Z"/></g>
<g><path style="opacity:1" fill="#2a1668" d="M 323.5,34.5 C 437.944,31.3114 529.111,75.3114 597,166.5C 658.025,259.053 669.025,357.386 630,461.5C 592.056,549.777 527.556,609.277 436.5,640C 325.912,670.752 226.578,649.752 138.5,577C 54.1536,497.634 20.987,400.467 39,285.5C 59.4416,192.777 110.275,122.277 191.5,74C 232.752,51.1897 276.752,38.023 323.5,34.5 Z"/></g>
<g><path style="opacity:1" fill="#f5f4f8" d="M 331.5,48.5 C 336.5,48.5 341.5,48.5 346.5,48.5C 346.701,51.7281 346.367,54.8948 345.5,58C 349.507,70.1788 353.174,82.3454 356.5,94.5C 351.833,94.5 347.167,94.5 342.5,94.5C 342.458,90.9913 343.124,87.658 344.5,84.5C 341.833,84.5 339.167,84.5 336.5,84.5C 337.953,87.9863 338.619,91.653 338.5,95.5C 333.833,95.5 329.167,95.5 324.5,95.5C 324.5,92.8333 324.5,90.1667 324.5,87.5C 325.5,87.5 326.5,87.5 327.5,87.5C 328.787,77.4848 330.787,67.6515 333.5,58C 331.656,55.1963 330.989,52.0297 331.5,48.5 Z"/></g>
<g><path style="opacity:1" fill="#f4f3f7" d="M 300.5,51.5 C 303.167,51.5 305.833,51.5 308.5,51.5C 309.2,55.7978 309.533,60.1311 309.5,64.5C 307.08,64.2924 304.747,64.6258 302.5,65.5C 301.548,63.9547 301.215,62.288 301.5,60.5C 300.022,60.238 298.689,60.5713 297.5,61.5C 299.553,71.0968 301.219,80.7635 302.5,90.5C 303.833,90.5 305.167,90.5 306.5,90.5C 306.833,93.1667 307.167,95.8333 307.5,98.5C 301.812,99.0056 296.145,99.6723 290.5,100.5C 289.908,97.8728 289.575,95.2062 289.5,92.5C 290.5,92.5 291.5,92.5 292.5,92.5C 291.001,83.1834 289.501,73.8501 288,64.5C 287.29,63.0267 286.124,62.3601 284.5,62.5C 284.5,64.5 284.5,66.5 284.5,68.5C 281.873,69.0916 279.206,69.4249 276.5,69.5C 276.67,65.3556 276.003,61.3556 274.5,57.5C 283.181,55.0602 291.848,53.0602 300.5,51.5 Z"/></g>
<g><path style="opacity:1" fill="#f6f6f9" d="M 417.5,57.5 C 423.233,58.6878 428.9,60.1878 434.5,62C 433.729,64.577 432.729,67.077 431.5,69.5C 429.844,67.9776 428.677,68.311 428,70.5C 425.41,80.8077 422.577,90.9744 419.5,101C 417.487,102.257 415.321,103.091 413,103.5C 407.326,102.33 401.826,100.664 396.5,98.5C 392.601,93.5326 392.601,88.5326 396.5,83.5C 399.333,84.9332 402.333,85.5999 405.5,85.5C 404.833,88.1667 404.167,90.8333 403.5,93.5C 406.127,94.0916 408.794,94.4249 411.5,94.5C 413.987,84.8846 416.32,75.218 418.5,65.5C 417.325,65.719 416.325,65.3857 415.5,64.5C 416.325,62.1987 416.992,59.8654 417.5,57.5 Z"/></g>
<g><path style="opacity:1" fill="#f7f6f9" d="M 258.5,60.5 C 262.117,63.7502 262.117,66.9168 258.5,70C 261.562,79.1401 264.562,88.3068 267.5,97.5C 268.391,98.5896 269.391,98.5896 270.5,97.5C 272.054,99.9329 272.72,102.6 272.5,105.5C 267.541,106.319 262.708,107.652 258,109.5C 254.219,106.284 254.052,103.117 257.5,100C 254.141,91.0387 251.474,81.8721 249.5,72.5C 247.799,72.9662 246.299,72.9662 245,72.5C 243.961,70.0991 243.794,67.7657 244.5,65.5C 249.276,63.7995 253.943,62.1328 258.5,60.5 Z"/></g>
<g><path style="opacity:1" fill="#f7f7fa" d="M 457.5,70.5 C 462.586,72.2098 467.253,74.7098 471.5,78C 470.029,81.1183 468.196,83.9516 466,86.5C 465.045,95.5918 463.545,104.592 461.5,113.5C 462.921,116.916 462.255,119.916 459.5,122.5C 455.377,120.685 451.377,118.685 447.5,116.5C 448.333,114.833 449.167,113.167 450,111.5C 451.011,110.663 452.178,110.33 453.5,110.5C 453.719,109.325 453.386,108.325 452.5,107.5C 450.587,106.627 448.753,105.627 447,104.5C 445.256,105.649 445.089,106.983 446.5,108.5C 445.649,110.882 444.316,112.882 442.5,114.5C 438.607,112.724 434.94,110.724 431.5,108.5C 439.665,98.7706 447.998,88.9373 456.5,79C 455.692,78.6924 455.025,78.1924 454.5,77.5C 455.788,75.2612 456.788,72.9279 457.5,70.5 Z"/></g>
<g><path style="opacity:1" fill="#301f75" d="M 339.5,71.5 C 340.864,73.22 341.864,75.22 342.5,77.5C 341.311,78.4287 339.978,78.762 338.5,78.5C 338.448,76.0971 338.781,73.7638 339.5,71.5 Z"/></g>
<g><path style="opacity:1" fill="#f7f6f9" d="M 210.5,78.5 C 211.552,78.3505 212.552,78.5172 213.5,79C 216.805,82.0494 216.805,84.7161 213.5,87C 217.966,96.0996 222.3,105.266 226.5,114.5C 229.409,112.644 232.409,110.977 235.5,109.5C 233.844,107.588 233.511,105.588 234.5,103.5C 236.751,102.305 239.085,101.305 241.5,100.5C 243.484,104.469 245.484,108.469 247.5,112.5C 238.32,117.256 228.986,121.756 219.5,126C 218.365,126.749 217.365,126.583 216.5,125.5C 215.696,124.059 215.029,122.559 214.5,121C 216.029,119.418 216.529,117.585 216,115.5C 212.257,107.014 208.257,98.6807 204,90.5C 203.311,91.3567 202.478,92.0233 201.5,92.5C 199.914,90.3295 198.58,87.9962 197.5,85.5C 202.045,83.3966 206.379,81.0633 210.5,78.5 Z"/></g>
<g><path style="opacity:1" fill="#f7f6f9" d="M 495.5,91.5 C 500.122,93.1504 504.122,95.8171 507.5,99.5C 506.559,101.772 505.226,103.772 503.5,105.5C 502.914,105.291 502.414,104.957 502,104.5C 497.37,113.261 498.87,114.594 506.5,108.5C 506.167,107.833 505.833,107.167 505.5,106.5C 507.192,104.641 508.692,102.641 510,100.5C 513.922,103.211 517.756,106.045 521.5,109C 519.787,110.378 518.453,112.045 517.5,114C 506.361,116.782 497.695,123.282 491.5,133.5C 491.977,134.478 492.643,135.311 493.5,136C 492,138.167 490.5,140.333 489,142.5C 484.359,139.359 479.859,136.026 475.5,132.5C 476.711,130.578 478.044,128.745 479.5,127C 480.833,127 482.167,127 483.5,127C 485.211,124.411 487.045,121.911 489,119.5C 490.251,112.577 491.751,105.743 493.5,99C 492.978,98.4387 492.645,97.772 492.5,97C 493.632,95.2355 494.632,93.4021 495.5,91.5 Z"/></g>
<g><path style="opacity:1" fill="#f7f7f9" d="M 181.5,94.5 C 183.74,95.5676 185.574,97.2342 187,99.5C 188.751,101.212 189.418,103.212 189,105.5C 186.966,107.032 184.799,108.365 182.5,109.5C 181.335,108.509 180.168,107.509 179,106.5C 175.928,107.953 173.095,109.787 170.5,112C 172.674,115.004 175.008,117.837 177.5,120.5C 179.422,119.289 181.255,117.956 183,116.5C 184.743,118.321 186.243,120.321 187.5,122.5C 185.909,124.633 183.909,126.299 181.5,127.5C 183.482,130.81 185.815,133.81 188.5,136.5C 191.473,134.853 194.14,132.853 196.5,130.5C 195.376,129.086 194.376,127.586 193.5,126C 195.911,124.045 198.411,122.211 201,120.5C 203.994,123.82 206.494,127.487 208.5,131.5C 200.063,138.559 191.063,144.892 181.5,150.5C 179.493,148.992 177.826,147.158 176.5,145C 178.255,144.28 179.089,143.113 179,141.5C 173.722,133.222 168.055,125.222 162,117.5C 161.163,119.007 159.996,119.507 158.5,119C 157.36,117.027 156.027,115.193 154.5,113.5C 163.742,107.391 172.742,101.057 181.5,94.5 Z"/></g>
<g><path style="opacity:1" fill="#1d0e6a" d="M 454.5,94.5 C 455.239,94.369 455.906,94.5357 456.5,95C 455.277,97.0521 454.277,99.2188 453.5,101.5C 452.5,101.167 451.833,100.5 451.5,99.5C 452.952,98.0603 453.952,96.3936 454.5,94.5 Z"/></g>
<g><path style="opacity:1" fill="#fa7304" d="M 322.5,105.5 C 417.363,101.35 491.53,138.017 545,215.5C 585.592,282.166 593.259,352.499 568,426.5C 537.372,504.06 481.872,553.893 401.5,576C 303.879,596.349 222.379,569.182 157,494.5C 106.969,428.677 92.6353,355.677 114,275.5C 143.886,187.307 204.053,132.14 294.5,110C 303.99,108.584 313.323,107.084 322.5,105.5 Z"/></g>
<g><path style="opacity:1" fill="#2a1668" d="M 323.5,119.5 C 400.874,115.881 465.04,142.881 516,200.5C 569.656,269.825 581.323,345.825 551,428.5C 520.692,498.071 468.859,542.571 395.5,562C 306.481,579.881 231.647,555.381 171,488.5C 121.145,425.574 106.811,355.24 128,277.5C 154.088,202.412 204.921,152.578 280.5,128C 294.834,124.46 309.167,121.626 323.5,119.5 Z"/></g>
<g><path style="opacity:1" fill="#faf9fb" d="M 538.5,124.5 C 542.298,127.796 545.964,131.296 549.5,135C 547.311,137.944 544.811,139.777 542,140.5C 537.42,149.328 532.587,157.995 527.5,166.5C 528.119,169.631 526.785,171.964 523.5,173.5C 519.967,170.801 516.967,167.634 514.5,164C 515.538,160.738 517.538,159.571 520.5,160.5C 521.598,156.859 520.264,154.192 516.5,152.5C 515.692,152.808 515.025,153.308 514.5,154C 514.898,156.857 513.565,159.024 510.5,160.5C 507.167,157.833 504.167,154.833 501.5,151.5C 502.976,148.435 505.143,147.102 508,147.5C 516.418,142.374 524.918,137.374 533.5,132.5C 534.59,131.609 534.59,130.609 533.5,129.5C 535.521,128.145 537.188,126.479 538.5,124.5 Z"/></g>
<g><path style="opacity:1" fill="#fafafb" d="M 138.5,127.5 C 140.527,127.338 142.527,127.505 144.5,128C 148.617,131.15 152.451,134.65 156,138.5C 156.667,141.5 156.667,144.5 156,147.5C 153.115,150.048 150.615,152.882 148.5,156C 150.767,158.267 153.1,160.6 155.5,163C 156.996,163.507 158.163,163.007 159,161.5C 160.833,163.333 162.667,165.167 164.5,167C 160.333,171.167 156.167,175.333 152,179.5C 150.167,177.667 148.333,175.833 146.5,174C 148.007,173.163 148.507,171.996 148,170.5C 141.5,164 135,157.5 128.5,151C 126.953,150.667 125.62,151.167 124.5,152.5C 122.5,151.167 120.833,149.5 119.5,147.5C 125.855,140.813 132.188,134.146 138.5,127.5 Z"/></g>
<g><path style="opacity:1" fill="#fbfafb" d="M 470.5,250.5 C 470.217,249.711 469.717,249.044 469,248.5C 468.501,254.491 468.334,260.491 468.5,266.5C 468.167,266.5 467.833,266.5 467.5,266.5C 463.833,266.5 460.167,266.5 456.5,266.5C 456.168,300.671 456.502,334.671 457.5,368.5C 467.833,368.5 478.167,368.5 488.5,368.5C 488.333,350.83 488.5,333.164 489,315.5C 496,325.167 504.333,333.5 514,340.5C 513.892,356.539 511.392,372.206 506.5,387.5C 506,387.833 505.5,388.167 505,388.5C 489.52,383.973 474.02,379.64 458.5,375.5C 458.44,374.957 458.107,374.624 457.5,374.5C 456.5,394.155 456.167,413.822 456.5,433.5C 444.485,446.182 432.818,459.182 421.5,472.5C 394.84,473.667 368.173,473.833 341.5,473C 330,459.5 318.5,446 307,432.5C 306.5,424.173 306.334,415.84 306.5,407.5C 306.832,396.147 306.499,384.814 305.5,373.5C 304.893,373.624 304.56,373.957 304.5,374.5C 283.5,374.5 262.5,374.5 241.5,374.5C 241.5,389.5 241.5,404.5 241.5,419.5C 246.167,419.5 250.833,419.5 255.5,419.5C 255.5,437.5 255.5,455.5 255.5,473.5C 227.167,473.5 198.833,473.5 170.5,473.5C 170.5,455.5 170.5,437.5 170.5,419.5C 175.167,419.5 179.833,419.5 184.5,419.5C 184.233,368.833 183.9,318.166 183.5,267.5C 179.03,266.514 174.363,266.181 169.5,266.5C 169.5,260.833 169.5,255.167 169.5,249.5C 169.5,238.167 169.5,226.833 169.5,215.5C 214.835,215.333 260.168,215.5 305.5,216C 317.701,228.533 329.535,241.366 341,254.5C 341.667,280.833 341.667,307.167 341,333.5C 329.981,345.685 319.147,358.018 308.5,370.5C 326.488,371.5 344.488,371.833 362.5,371.5C 363.267,384.162 364.1,396.828 365,409.5C 367.029,412.029 368.862,414.696 370.5,417.5C 377.142,418.664 383.808,418.831 390.5,418C 392.667,415.167 394.833,412.333 397,409.5C 397.5,362.168 397.667,314.835 397.5,267.5C 393.833,267.5 390.167,267.5 386.5,267.5C 383.833,267.5 381.167,267.5 378.5,267.5C 378.5,249.5 378.5,231.5 378.5,213.5C 407.74,213.171 436.907,213.505 466,214.5C 466.667,213.833 466.667,213.167 466,212.5C 441.218,180.094 409.051,158.261 369.5,147C 355.023,143.142 340.357,140.142 325.5,138C 370.071,135.37 411.738,145.037 450.5,167C 498.275,196.85 520.275,240.184 516.5,297C 516.333,304.833 516.167,312.667 516,320.5C 515.144,326.229 512.81,326.896 509,322.5C 492.789,300.417 479.956,276.417 470.5,250.5 Z"/></g>
<g><path style="opacity:1" fill="#251574" d="M 138.5,138.5 C 141.744,140.071 144.411,142.405 146.5,145.5C 145.185,147.316 143.685,148.983 142,150.5C 139.5,148 137,145.5 134.5,143C 136.041,141.629 137.375,140.129 138.5,138.5 Z"/></g>
<g><path style="opacity:1" fill="#2c2072" d="M 527.5,145.5 C 528.239,145.369 528.906,145.536 529.5,146C 527.877,148.08 526.377,150.246 525,152.5C 523.978,151.646 523.145,150.646 522.5,149.5C 524.419,148.388 526.086,147.054 527.5,145.5 Z"/></g>
<g><path style="opacity:1" fill="#281665" d="M 467.5,218.5 C 468.077,217.227 468.743,217.227 469.5,218.5C 475.254,228.339 480.754,238.339 486,248.5C 486.667,249.833 486.667,251.167 486,252.5C 481.448,247.391 475.782,244.391 469,243.5C 468.829,234.99 468.329,226.657 467.5,218.5 Z"/></g>
<g><path style="opacity:1" fill="#ff7203" d="M 389.5,223.5 C 412.167,223.5 434.833,223.5 457.5,223.5C 457.5,235.167 457.5,246.833 457.5,258.5C 453.833,258.5 450.167,258.5 446.5,258.5C 446.667,316.168 446.5,373.834 446,431.5C 435.833,442.333 425.667,453.167 415.5,464C 392.833,464.667 370.167,464.667 347.5,464C 337.697,453.196 327.53,442.696 317,432.5C 316.5,415.17 316.333,397.837 316.5,380.5C 328.5,380.5 340.5,380.5 352.5,380.5C 352.628,391.515 353.128,402.515 354,413.5C 358.8,419.302 363.967,424.802 369.5,430C 378.167,430.667 386.833,430.667 395.5,430C 400.424,426.287 405.258,422.454 410,418.5C 410.5,381.502 410.667,344.502 410.5,307.5C 410.5,291.167 410.5,274.833 410.5,258.5C 403.5,258.5 396.5,258.5 389.5,258.5C 389.5,246.833 389.5,235.167 389.5,223.5 Z"/></g>
<g><path style="opacity:1" fill="#ff7202" d="M 262.5,225.5 C 274.505,225.333 286.505,225.5 298.5,226C 308.703,236.534 318.536,247.368 328,258.5C 328.667,282.5 328.667,306.5 328,330.5C 318.5,340.667 309,350.833 299.5,361C 276.497,361.458 253.497,361.958 230.5,362.5C 230.5,385.167 230.5,407.833 230.5,430.5C 235.5,430.5 240.5,430.5 245.5,430.5C 245.5,442.167 245.5,453.833 245.5,465.5C 223.5,465.5 201.5,465.5 179.5,465.5C 179.5,454.167 179.5,442.833 179.5,431.5C 184.167,431.5 188.833,431.5 193.5,431.5C 193.831,404.328 193.498,377.328 192.5,350.5C 192.5,319.833 192.5,289.167 192.5,258.5C 187.833,258.5 183.167,258.5 178.5,258.5C 178.5,247.833 178.5,237.167 178.5,226.5C 206.672,226.831 234.672,226.498 262.5,225.5 Z"/></g>
<g><path style="opacity:1" fill="#ff9b58" d="M 262.5,225.5 C 234.672,226.498 206.672,226.831 178.5,226.5C 178.5,237.167 178.5,247.833 178.5,258.5C 177.505,247.679 177.172,236.679 177.5,225.5C 205.833,225.5 234.167,225.5 262.5,225.5 Z"/></g>
<g><path style="opacity:1" fill="#f8f7fa" d="M 518.5,240.5 C 519.077,239.227 519.743,239.227 520.5,240.5C 530.912,258.907 539.078,278.24 545,298.5C 547.251,310.74 544.084,321.24 535.5,330C 532.978,331.341 530.311,332.174 527.5,332.5C 528.453,321.514 528.619,310.514 528,299.5C 526.558,288.513 525.224,277.513 524,266.5C 522.648,257.59 520.815,248.924 518.5,240.5 Z"/></g>
<g><path style="opacity:1" fill="#7d73a3" d="M 378.5,213.5 C 378.5,231.5 378.5,249.5 378.5,267.5C 381.167,267.5 383.833,267.5 386.5,267.5C 383.713,268.477 380.713,268.81 377.5,268.5C 377.17,249.992 377.503,231.659 378.5,213.5 Z"/></g>
<g><path style="opacity:1" fill="#ffcaa8" d="M 389.5,223.5 C 389.5,235.167 389.5,246.833 389.5,258.5C 396.5,258.5 403.5,258.5 410.5,258.5C 410.5,274.833 410.5,291.167 410.5,307.5C 409.504,291.675 409.17,275.675 409.5,259.5C 402.5,259.5 395.5,259.5 388.5,259.5C 388.172,247.322 388.505,235.322 389.5,223.5 Z"/></g>
<g><path style="opacity:1" fill="#fcfbfc" d="M 280.5,329.5 C 264.167,329.5 247.833,329.5 231.5,329.5C 231.83,311.326 231.497,293.326 230.5,275.5C 230.5,269.833 230.5,264.167 230.5,258.5C 247.17,258.333 263.837,258.5 280.5,259C 285.333,265.167 290.167,271.333 295,277.5C 295.667,288.833 295.667,300.167 295,311.5C 290.303,317.688 285.469,323.688 280.5,329.5 Z"/></g>
<g><path style="opacity:1" fill="#695b94" d="M 169.5,249.5 C 169.5,255.167 169.5,260.833 169.5,266.5C 174.363,266.181 179.03,266.514 183.5,267.5C 178.5,267.5 173.5,267.5 168.5,267.5C 168.177,261.31 168.51,255.31 169.5,249.5 Z"/></g>
<g><path style="opacity:1" fill="#a39cbe" d="M 470.5,250.5 C 469.833,255.833 469.167,261.167 468.5,266.5C 468.334,260.491 468.501,254.491 469,248.5C 469.717,249.044 470.217,249.711 470.5,250.5 Z"/></g>
<g><path style="opacity:1" fill="#544685" d="M 467.5,266.5 C 464.375,267.479 461.042,267.813 457.5,267.5C 457.5,301.167 457.5,334.833 457.5,368.5C 456.502,334.671 456.168,300.671 456.5,266.5C 460.167,266.5 463.833,266.5 467.5,266.5 Z"/></g>
<g><path style="opacity:1" fill="#2a1768" d="M 241.5,268.5 C 252.505,268.333 263.505,268.5 274.5,269C 277.453,272.408 280.287,275.908 283,279.5C 283.667,289.5 283.667,299.5 283,309.5C 280.167,312.333 277.333,315.167 274.5,318C 263.505,318.5 252.505,318.667 241.5,318.5C 241.5,301.833 241.5,285.167 241.5,268.5 Z"/></g>
<g><path style="opacity:1" fill="#ffc39e" d="M 230.5,275.5 C 231.497,293.326 231.83,311.326 231.5,329.5C 247.833,329.5 264.167,329.5 280.5,329.5C 264.008,330.497 247.342,330.83 230.5,330.5C 230.5,312.167 230.5,293.833 230.5,275.5 Z"/></g>
<g><path style="opacity:1" fill="#faf9fb" d="M 546.5,334.5 C 548.558,353.335 547.058,372.002 542,390.5C 541.06,393.442 539.06,394.775 536,394.5C 530.149,393.789 524.315,392.956 518.5,392C 517.376,391.161 516.709,389.994 516.5,388.5C 518.602,374.825 520.768,361.158 523,347.5C 528.892,345.755 534.725,343.588 540.5,341C 542.706,338.963 544.706,336.797 546.5,334.5 Z"/></g>
<g><path style="opacity:1" fill="#fafafb" d="M 480.5,395.5 C 487.997,396.185 495.33,397.518 502.5,399.5C 497.765,412.872 492.932,426.205 488,439.5C 487.167,440.333 486.333,441.167 485.5,442C 473.42,444.689 461.42,447.356 449.5,450C 457.303,443.198 464.803,436.031 472,428.5C 475.311,417.587 478.145,406.587 480.5,395.5 Z"/></g>
<g><path style="opacity:1" fill="#fafafb" d="M 513.5,403.5 C 522.208,404.674 530.875,406.174 539.5,408C 530.914,426.004 521.914,443.838 512.5,461.5C 507.586,454.838 503.586,447.671 500.5,440C 504.703,427.766 509.036,415.6 513.5,403.5 Z"/></g>
<g><path style="opacity:1" fill="#75699d" d="M 304.5,374.5 C 304.56,373.957 304.893,373.624 305.5,373.5C 306.499,384.814 306.832,396.147 306.5,407.5C 305.833,396.5 305.167,385.5 304.5,374.5 Z"/></g>
<g><path style="opacity:1" fill="#ffab75" d="M 192.5,350.5 C 193.498,377.328 193.831,404.328 193.5,431.5C 188.833,431.5 184.167,431.5 179.5,431.5C 179.5,442.833 179.5,454.167 179.5,465.5C 178.505,454.012 178.172,442.345 178.5,430.5C 183.167,430.5 187.833,430.5 192.5,430.5C 192.5,403.833 192.5,377.167 192.5,350.5 Z"/></g>
<g><path style="opacity:1" fill="#897fab" d="M 458.5,375.5 C 457.833,394.833 457.167,414.167 456.5,433.5C 456.167,413.822 456.5,394.155 457.5,374.5C 458.107,374.624 458.44,374.957 458.5,375.5 Z"/></g>
<g><path style="opacity:1" fill="#f6f6f9" d="M 475.5,450.5 C 477.857,450.337 480.19,450.503 482.5,451C 468.299,482.537 448.633,510.204 423.5,534C 422.833,534.667 422.167,534.667 421.5,534C 438.498,508.842 452.498,482.008 463.5,453.5C 467.673,452.679 471.673,451.679 475.5,450.5 Z"/></g>
<g><path style="opacity:1" fill="#f7f6f9" d="M 494.5,452.5 C 497.786,458.255 500.453,464.422 502.5,471C 489.45,492.396 471.784,508.396 449.5,519C 464.16,501.341 477.66,482.841 490,463.5C 491.513,459.812 493.013,456.145 494.5,452.5 Z"/></g>
<g><path style="opacity:1" fill="#f8f8fa" d="M 560.5,473.5 C 564.809,474.485 568.809,476.319 572.5,479C 574.621,481.198 576.288,483.698 577.5,486.5C 579.098,485.515 580.765,485.349 582.5,486C 586.753,488.71 590.92,491.543 595,494.5C 595.667,497.167 595.667,499.833 595,502.5C 590.167,509.5 585.333,516.5 580.5,523.5C 578.587,522.627 576.753,521.627 575,520.5C 575.698,518.236 575.198,516.403 573.5,515C 566.328,510.581 559.328,505.915 552.5,501C 550.536,500.376 548.869,500.876 547.5,502.5C 545.321,501.243 543.321,499.743 541.5,498C 546.705,491.092 551.538,483.926 556,476.5C 557.409,475.219 558.909,474.219 560.5,473.5 Z"/></g>
<g><path style="opacity:1" fill="#f8f8fa" d="M 128.5,473.5 C 130.193,474.475 131.693,475.808 133,477.5C 136.276,483.108 139.943,488.442 144,493.5C 145.457,496.366 145.79,499.366 145,502.5C 140.149,507.512 134.315,510.179 127.5,510.5C 127.657,511.873 127.49,513.207 127,514.5C 123.078,517.211 119.244,520.045 115.5,523C 113.167,523.667 110.833,523.667 108.5,523C 102.64,515.306 96.9731,507.473 91.5,499.5C 93.2279,497.774 95.2279,496.441 97.5,495.5C 98.4776,495.977 99.3109,496.643 100,497.5C 108.328,491.996 116.494,486.329 124.5,480.5C 123.674,479.549 123.508,478.549 124,477.5C 125.667,476.267 127.167,474.933 128.5,473.5 Z"/></g>
<g><path style="opacity:1" fill="#271475" d="M 560.5,484.5 C 570.762,486.604 571.928,490.937 564,497.5C 560.928,496.047 558.095,494.213 555.5,492C 557.389,489.618 559.055,487.118 560.5,484.5 Z"/></g>
<g><path style="opacity:1" fill="#f87307" d="M 232.5,487.5 C 234.642,489.765 236.309,492.432 237.5,495.5C 240.747,496.65 244.08,497.483 247.5,498C 245.667,499.833 243.833,501.667 242,503.5C 241.785,507.285 241.619,510.952 241.5,514.5C 238.833,513.167 236.167,511.833 233.5,510.5C 230.833,511.833 228.167,513.167 225.5,514.5C 227.046,507.765 225.046,502.265 219.5,498C 222.377,496.873 225.377,496.206 228.5,496C 230.246,493.341 231.58,490.508 232.5,487.5 Z"/></g>
<g><path style="opacity:1" fill="#271475" d="M 129.5,488.5 C 131.829,490.841 133.829,493.508 135.5,496.5C 133.14,498.853 130.473,500.853 127.5,502.5C 125.512,499.872 123.512,497.205 121.5,494.5C 124.492,492.829 127.159,490.829 129.5,488.5 Z"/></g>
<g><path style="opacity:1" fill="#271376" d="M 576.5,494.5 C 580.061,496.048 583.394,498.048 586.5,500.5C 584.975,503.563 582.975,506.23 580.5,508.5C 577.36,506.527 574.36,504.36 571.5,502C 573.389,499.618 575.055,497.118 576.5,494.5 Z"/></g>
<g><path style="opacity:1" fill="#261375" d="M 113.5,499.5 C 114.496,499.414 115.329,499.748 116,500.5C 117.377,502.754 118.877,504.92 120.5,507C 117.64,509.36 114.64,511.527 111.5,513.5C 109.025,511.23 107.025,508.563 105.5,505.5C 108.235,503.479 110.901,501.479 113.5,499.5 Z"/></g>
<g><path style="opacity:1" fill="#f6f6f9" d="M 537.5,502.5 C 541.827,503.307 543.993,505.64 544,509.5C 551.704,516.873 559.704,523.873 568,530.5C 568.667,533.167 568.667,535.833 568,538.5C 565.537,541.965 562.704,545.131 559.5,548C 556.779,548.568 554.112,548.901 551.5,549C 543.204,542.373 535.204,535.373 527.5,528C 524.277,529.494 521.611,528.328 519.5,524.5C 521.597,519.88 524.93,517.047 529.5,516C 532.27,517.66 533.437,519.827 533,522.5C 540.52,528.597 547.853,534.93 555,541.5C 556.715,539.241 558.548,537.074 560.5,535C 553.274,527.937 545.607,521.437 537.5,515.5C 536.914,515.709 536.414,516.043 536,516.5C 534.333,515.167 532.667,513.833 531,512.5C 530.333,511.833 530.333,511.167 531,510.5C 533.782,508.229 535.949,505.563 537.5,502.5 Z"/></g>
<g><path style="opacity:1" fill="#f97207" d="M 375.5,503.5 C 378.645,507.778 381.312,512.445 383.5,517.5C 389.07,519.075 394.736,520.409 400.5,521.5C 397.481,525.353 393.981,528.687 390,531.5C 389.326,536.767 389.826,541.934 391.5,547C 391.167,547.833 390.833,548.667 390.5,549.5C 385.906,547.287 381.406,544.953 377,542.5C 372.075,544.713 367.241,547.046 362.5,549.5C 362.167,548.333 361.833,547.167 361.5,546C 362.392,541.495 362.892,536.995 363,532.5C 359.29,528.958 355.79,525.292 352.5,521.5C 357.695,519.8 363.028,518.633 368.5,518C 371.245,513.343 373.579,508.51 375.5,503.5 Z"/></g>
<g><path style="opacity:1" fill="#f8f7fa" d="M 154.5,509.5 C 158.57,512.06 162.236,515.227 165.5,519C 162.627,521.982 159.461,524.482 156,526.5C 151.333,533.833 146.667,541.167 142,548.5C 142.437,551.173 141.27,553.34 138.5,555C 137.5,555.667 136.5,555.667 135.5,555C 132.931,552.521 130.598,549.854 128.5,547C 131.561,543.939 134.061,541.439 136,539.5C 134.667,538.167 133.333,536.833 132,535.5C 131.135,538.604 128.969,541.271 125.5,543.5C 122.349,540.85 119.349,538.016 116.5,535C 118.167,533.333 119.833,531.667 121.5,530C 122.549,529.508 123.549,529.674 124.5,530.5C 132.833,525.833 141.167,521.167 149.5,516.5C 150.453,513.57 152.12,511.237 154.5,509.5 Z"/></g>
<g><path style="opacity:1" fill="#f87208" d="M 296.5,507.5 C 299.533,510.528 301.866,514.195 303.5,518.5C 307.81,519.592 312.143,520.592 316.5,521.5C 313.806,524.86 310.806,527.86 307.5,530.5C 308.247,534.138 308.914,537.805 309.5,541.5C 309.167,542.167 308.833,542.833 308.5,543.5C 304.947,541.557 301.281,539.89 297.5,538.5C 293.719,539.89 290.053,541.557 286.5,543.5C 286.167,543 285.833,542.5 285.5,542C 286.096,538.282 286.762,534.616 287.5,531C 285.021,527.687 282.355,524.52 279.5,521.5C 283.38,520.017 287.38,518.85 291.5,518C 293.579,514.676 295.246,511.176 296.5,507.5 Z"/></g>
<g><path style="opacity:1" fill="#f7f6f9" d="M 171.5,530.5 C 173.527,530.338 175.527,530.505 177.5,531C 182.941,534.807 188.108,538.973 193,543.5C 195.514,549.152 194.014,553.485 188.5,556.5C 185.804,555.149 183.47,553.316 181.5,551C 182.687,549.981 183.687,548.814 184.5,547.5C 182.208,545.343 179.875,543.176 177.5,541C 174.03,542.118 171.363,544.452 169.5,548C 173.667,551.5 177.833,555 182,558.5C 182.667,560.833 182.667,563.167 182,565.5C 178.667,569.5 175.333,573.5 172,577.5C 169.503,579.478 166.669,579.978 163.5,579C 158.979,574.978 154.312,571.144 149.5,567.5C 146.153,561.538 147.486,556.871 153.5,553.5C 155.833,555.167 157.833,557.167 159.5,559.5C 158.687,560.814 157.687,561.981 156.5,563C 159.646,565.312 162.646,567.812 165.5,570.5C 168.215,567.786 170.549,564.786 172.5,561.5C 169.017,558.261 165.35,555.261 161.5,552.5C 160.527,550.608 159.86,548.608 159.5,546.5C 163.106,540.891 167.106,535.557 171.5,530.5 Z"/></g>
<g><path style="opacity:1" fill="#281d6e" d="M 142.5,529.5 C 143.239,529.369 143.906,529.536 144.5,530C 143.12,531.925 141.62,533.759 140,535.5C 139.167,534.667 138.333,533.833 137.5,533C 139.233,531.811 140.9,530.644 142.5,529.5 Z"/></g>
<g><path style="opacity:1" fill="#f8f7fa" d="M 502.5,537.5 C 507.383,539.254 508.883,542.254 507,546.5C 513.686,553.685 520.186,561.018 526.5,568.5C 528.984,566.517 531.317,564.35 533.5,562C 529.303,557.586 530.303,554.419 536.5,552.5C 539.838,555.338 542.838,558.505 545.5,562C 537.941,569.395 529.941,576.229 521.5,582.5C 520.018,580.517 518.351,578.684 516.5,577C 518.211,575.867 518.711,574.367 518,572.5C 511.667,565.5 505.333,558.5 499,551.5C 498.311,552.357 497.478,553.023 496.5,553.5C 494.96,551.613 493.293,549.78 491.5,548C 495.624,544.945 499.291,541.445 502.5,537.5 Z"/></g>
<g><path style="opacity:1" fill="#f6f6f9" d="M 199.5,549.5 C 204.605,551.887 209.605,554.554 214.5,557.5C 213.248,559.001 212.248,560.668 211.5,562.5C 209.784,562.997 208.117,563.331 206.5,563.5C 205.543,565.918 204.209,568.084 202.5,570C 206.267,569.466 209.934,568.3 213.5,566.5C 212.725,563.348 213.725,560.682 216.5,558.5C 221.001,560.916 225.334,563.583 229.5,566.5C 228.289,568.422 226.956,570.255 225.5,572C 219.566,572.751 213.733,574.585 208,577.5C 207.333,584.167 207.333,590.833 208,597.5C 208.692,598.025 209.192,598.692 209.5,599.5C 208.559,601.772 207.226,603.772 205.5,605.5C 200.999,603.084 196.666,600.417 192.5,597.5C 193.833,595.5 195.167,593.5 196.5,591.5C 197.086,591.709 197.586,592.043 198,592.5C 198.207,588.911 198.707,585.411 199.5,582C 195.75,582.066 193.417,584.066 192.5,588C 193.022,588.95 193.689,589.784 194.5,590.5C 193.559,592.772 192.226,594.772 190.5,596.5C 185.795,594.153 181.462,591.32 177.5,588C 178.432,583.857 180.765,582.024 184.5,582.5C 189.3,574.399 193.967,566.232 198.5,558C 197.978,557.05 197.311,556.216 196.5,555.5C 197.559,553.466 198.559,551.466 199.5,549.5 Z"/></g>
<g><path style="opacity:1" fill="#f6f6f9" d="M 483.5,552.5 C 485.854,552.838 488.187,553.338 490.5,554C 492.032,556.034 493.365,558.201 494.5,560.5C 492.343,562.412 490.009,564.079 487.5,565.5C 486.335,564.509 485.168,563.509 484,562.5C 480.707,563.892 477.874,565.892 475.5,568.5C 480.35,576.881 485.684,584.881 491.5,592.5C 495.054,591.231 498.054,589.231 500.5,586.5C 498.774,584.772 497.441,582.772 496.5,580.5C 499.086,578.957 501.586,577.291 504,575.5C 506.416,578.663 508.582,581.996 510.5,585.5C 509.959,587.535 509.292,589.535 508.5,591.5C 502.425,595.427 496.259,599.093 490,602.5C 487.594,602.297 485.594,601.297 484,599.5C 477.5,589.167 471,578.833 464.5,568.5C 465.015,566.775 465.682,565.108 466.5,563.5C 472.402,560.058 478.068,556.392 483.5,552.5 Z"/></g>
<g><path style="opacity:1" fill="#f8f7fa" d="M 231.5,567.5 C 241.511,571.173 251.511,574.84 261.5,578.5C 260.815,583.261 258.815,587.261 255.5,590.5C 250.561,590.254 248.894,587.921 250.5,583.5C 247.617,582.262 244.783,580.928 242,579.5C 239.425,582.726 237.925,586.393 237.5,590.5C 244.419,591.355 245.419,594.355 240.5,599.5C 238.189,598.039 235.856,597.706 233.5,598.5C 231.905,601.68 230.905,605.013 230.5,608.5C 233.425,609.639 236.425,610.139 239.5,610C 240.147,608.391 240.98,606.891 242,605.5C 244.022,606.786 246.189,607.786 248.5,608.5C 248.833,609 249.167,609.5 249.5,610C 247.465,613.606 246.132,617.439 245.5,621.5C 234.911,618.586 224.911,614.419 215.5,609C 215.611,605.056 217.611,602.89 221.5,602.5C 225.167,593.833 228.833,585.167 232.5,576.5C 231.675,575.614 230.675,575.281 229.5,575.5C 229.963,572.779 230.629,570.112 231.5,567.5 Z"/></g>
<g><path style="opacity:1" fill="#f5f4f7" d="M 265.5,580.5 C 275.845,583.168 286.178,585.835 296.5,588.5C 295.56,592.374 294.56,596.208 293.5,600C 287.846,601.498 285.513,599.331 286.5,593.5C 284.876,593.36 283.71,594.027 283,595.5C 280.788,603.559 278.954,611.726 277.5,620C 278.167,621.667 278.833,623.333 279.5,625C 279.057,626.825 278.723,628.658 278.5,630.5C 273.216,629.286 267.882,628.286 262.5,627.5C 263.092,624.873 263.425,622.206 263.5,619.5C 264.833,619.5 266.167,619.5 267.5,619.5C 269.535,610.027 271.868,600.694 274.5,591.5C 273.311,590.571 271.978,590.238 270.5,590.5C 270.5,592.167 270.5,593.833 270.5,595.5C 267.525,595.287 264.858,594.287 262.5,592.5C 263.756,588.552 264.756,584.552 265.5,580.5 Z"/></g>
<g><path style="opacity:1" fill="#f6f5f8" d="M 420.5,581.5 C 424.522,581.018 426.522,582.852 426.5,587C 425.728,588.221 424.728,589.221 423.5,590C 426.937,599.477 430.27,608.977 433.5,618.5C 435.751,617.305 438.085,616.305 440.5,615.5C 440.734,613.339 441.067,611.172 441.5,609C 444.063,607.921 446.729,607.421 449.5,607.5C 450.707,611.786 451.707,616.12 452.5,620.5C 442.786,623.293 433.119,626.293 423.5,629.5C 422.308,627.258 421.308,624.925 420.5,622.5C 421.325,621.614 422.325,621.281 423.5,621.5C 421.111,611.665 418.111,601.998 414.5,592.5C 413.264,593.246 411.93,593.579 410.5,593.5C 410.613,590.951 409.946,588.618 408.5,586.5C 412.591,584.81 416.591,583.144 420.5,581.5 Z"/></g>
<g><path style="opacity:1" fill="#f6f6f9" d="M 300.5,588.5 C 310.101,589.788 319.768,590.622 329.5,591C 330.667,592.167 331.833,593.333 333,594.5C 333.667,599.5 333.667,604.5 333,609.5C 331.649,611.019 330.149,612.352 328.5,613.5C 330.402,615.063 331.402,617.063 331.5,619.5C 330.868,623.817 330.368,628.15 330,632.5C 328.833,633.667 327.667,634.833 326.5,636C 316.458,636.385 306.458,635.885 296.5,634.5C 296.575,631.794 296.908,629.127 297.5,626.5C 298.833,626.5 300.167,626.5 301.5,626.5C 302.072,616.493 302.739,606.493 303.5,596.5C 302.5,596.5 301.5,596.5 300.5,596.5C 300.5,593.833 300.5,591.167 300.5,588.5 Z"/></g>
<g><path style="opacity:1" fill="#f3f2f7" d="M 384.5,589.5 C 386.5,589.5 388.5,589.5 390.5,589.5C 390.471,593.105 389.805,596.605 388.5,600C 389.871,608.838 391.204,617.672 392.5,626.5C 395.518,626.296 398.518,625.963 401.5,625.5C 401.244,623.208 401.577,621.041 402.5,619C 405.146,618.503 407.813,618.336 410.5,618.5C 411.26,623.15 411.926,627.817 412.5,632.5C 401.748,633.184 391.081,634.517 380.5,636.5C 380.167,633.833 379.833,631.167 379.5,628.5C 380.978,628.762 382.311,628.429 383.5,627.5C 381.247,618.308 379.914,608.975 379.5,599.5C 377.833,599.5 376.167,599.5 374.5,599.5C 374.187,596.753 374.52,594.086 375.5,591.5C 378.64,590.911 381.64,590.244 384.5,589.5 Z"/></g>
<g><path style="opacity:1" fill="#f6f5f9" d="M 352.5,630.5 C 352.5,632.833 352.5,635.167 352.5,637.5C 348.5,637.5 344.5,637.5 340.5,637.5C 343.225,625.714 345.891,613.881 348.5,602C 346.956,598.661 346.29,595.161 346.5,591.5C 351.5,591.5 356.5,591.5 361.5,591.5C 361.927,594.788 361.26,597.788 359.5,600.5C 363.565,612.915 367.232,625.249 370.5,637.5C 366.167,637.5 361.833,637.5 357.5,637.5C 357.458,633.991 358.124,630.658 359.5,627.5C 356.833,627.5 354.167,627.5 351.5,627.5C 351.263,628.791 351.596,629.791 352.5,630.5 Z"/></g>
<g><path style="opacity:1" fill="#291378" d="M 313.5,598.5 C 316.833,598.5 320.167,598.5 323.5,598.5C 323.54,601.881 323.207,605.214 322.5,608.5C 319.167,608.5 315.833,608.5 312.5,608.5C 312.616,605.14 312.949,601.807 313.5,598.5 Z"/></g>
<g><path style="opacity:1" fill="#281377" d="M 311.5,616.5 C 314.881,616.46 318.214,616.793 321.5,617.5C 321.276,621.179 320.942,624.846 320.5,628.5C 317.167,628.5 313.833,628.5 310.5,628.5C 311.021,624.519 311.354,620.519 311.5,616.5 Z"/></g>
<g><path style="opacity:1" fill="#3d2e7d" d="M 353.5,614.5 C 355.821,616.09 356.821,618.423 356.5,621.5C 355.022,621.762 353.689,621.429 352.5,620.5C 353.348,618.591 353.682,616.591 353.5,614.5 Z"/></g>
<g><path style="opacity:1" fill="#8074a5" d="M 352.5,630.5 C 353.473,632.948 353.806,635.615 353.5,638.5C 348.968,638.818 344.634,638.485 340.5,637.5C 344.5,637.5 348.5,637.5 352.5,637.5C 352.5,635.167 352.5,632.833 352.5,630.5 Z"/></g>
</svg>
