<?xml version="1.0" encoding="UTF-8"?>
<!DOCTYPE svg PUBLIC "-//W3C//DTD SVG 1.1//EN" "http://www.w3.org/Graphics/SVG/1.1/DTD/svg11.dtd">
<svg xmlns="http://www.w3.org/2000/svg" version="1.1" width="4500px" height="4500px" style="shape-rendering:geometricPrecision; text-rendering:geometricPrecision; image-rendering:optimizeQuality; fill-rule:evenodd; clip-rule:evenodd" xmlns:xlink="http://www.w3.org/1999/xlink">
<g><path style="opacity:0.997" fill="#fefefe" d="M 2180.5,-0.5 C 2226.5,-0.5 2272.5,-0.5 2318.5,-0.5C 2744.3,14.7201 3134.96,138.553 3490.5,371C 3816.34,589.142 4069.84,871.642 4251,1218.5C 4405.52,1520.59 4488.36,1841.26 4499.5,2180.5C 4499.5,2226.5 4499.5,2272.5 4499.5,2318.5C 4484.28,2744.3 4360.45,3134.96 4128,3490.5C 3909.86,3816.34 3627.36,4069.84 3280.5,4251C 2978.41,4405.52 2657.74,4488.36 2318.5,4499.5C 2272.5,4499.5 2226.5,4499.5 2180.5,4499.5C 1723.32,4482.72 1308.99,4342.56 937.5,4079C 610.613,3841.81 363.447,3539.64 196,3172.5C 74.4817,2900.74 8.98167,2616.08 -0.5,2318.5C -0.5,2272.5 -0.5,2226.5 -0.5,2180.5C 14.7201,1754.7 138.553,1364.04 371,1008.5C 589.142,682.661 871.642,429.161 1218.5,248C 1520.59,93.4759 1841.26,10.6425 2180.5,-0.5 Z"/></g>
<g><path style="opacity:1" fill="#2b1654" d="M 2184.5,164.5 C 2610.12,154.219 3003.12,261.386 3363.5,486C 3680.75,689.24 3926.92,957.407 4102,1290.5C 4281.77,1642.05 4357.44,2015.05 4329,2409.5C 4293.68,2831.9 4146.35,3209.23 3887,3541.5C 3603,3896.22 3241.5,4136.05 2802.5,4261C 2479.36,4347.93 2153.7,4358.26 1825.5,4292C 1472.79,4216.81 1160.46,4062.81 888.5,3830C 570.413,3552.9 353.58,3210.4 238,2802.5C 151.069,2479.36 140.736,2153.7 207,1825.5C 282.194,1472.79 436.194,1160.46 669,888.5C 936.61,581.337 1266.11,368.171 1657.5,249C 1829.65,198.53 2005.32,170.363 2184.5,164.5 Z"/></g>
<g><path style="opacity:1" fill="#fefdfe" d="M 2225.5,358.5 C 2243.16,359.211 2260.82,359.545 2278.5,359.5C 2277.01,425.49 2276.01,491.49 2275.5,557.5C 2257.83,557.5 2240.17,557.5 2222.5,557.5C 2223.15,491.159 2224.15,424.826 2225.5,358.5 Z"/></g>
<g><path style="opacity:1" fill="#fdfdfd" d="M 2384.5,361.5 C 2402.14,363.746 2419.8,365.746 2437.5,367.5C 2434.91,393.223 2431.91,418.89 2428.5,444.5C 2437.85,445.503 2447.18,446.336 2456.5,447C 2478.5,424.333 2500.5,401.667 2522.5,379C 2543.24,380.342 2563.91,382.676 2584.5,386C 2555.32,415.681 2526.32,445.515 2497.5,475.5C 2521.04,511.419 2544.71,547.252 2568.5,583C 2548.04,581.734 2527.7,579.4 2507.5,576C 2489.08,547.828 2470.41,519.828 2451.5,492C 2441.85,490.614 2432.19,489.447 2422.5,488.5C 2420,513.857 2417.33,539.19 2414.5,564.5C 2396.74,563.325 2379.07,561.325 2361.5,558.5C 2369.44,492.868 2377.11,427.201 2384.5,361.5 Z"/></g>
<g><path style="opacity:1" fill="#fdfdfe" d="M 2085.5,364.5 C 2103.86,363.092 2117.36,370.425 2126,386.5C 2127.2,389.774 2128.2,393.107 2129,396.5C 2130.96,415.692 2133.13,434.858 2135.5,454C 2134.11,472.387 2124.77,484.72 2107.5,491C 2068.83,495.9 2030.17,500.733 1991.5,505.5C 1994.07,528.843 1996.74,552.177 1999.5,575.5C 1981.88,577.911 1964.22,579.911 1946.5,581.5C 1938.72,515.841 1931.06,450.174 1923.5,384.5C 1977.62,377.718 2031.62,371.051 2085.5,364.5 Z"/></g>
<g><path style="opacity:1" fill="#2d1855" d="M 2063.5,411.5 C 2069.9,410.053 2074.73,412.053 2078,417.5C 2078.95,425.32 2079.79,433.154 2080.5,441C 2080.62,443.59 2079.96,445.923 2078.5,448C 2075.43,449.846 2072.1,450.846 2068.5,451C 2040.84,454.299 2013.17,457.466 1985.5,460.5C 1983.51,447.907 1982.18,435.24 1981.5,422.5C 2009.07,419.472 2036.4,415.806 2063.5,411.5 Z"/></g>
<g><path style="opacity:1" fill="#fefefe" d="M 2723.5,484.5 C 3101.03,588.749 3414.19,791.082 3663,1091.5C 3922.39,1412.86 4060.06,1781.19 4076,2196.5C 4083.42,2545.5 4000.09,2870.84 3826,3172.5C 3768.14,3270.03 3702.14,3361.7 3628,3447.5C 3609.84,3432.18 3592.01,3416.51 3574.5,3400.5C 3811.93,3124.16 3952.1,2803.82 3995,2439.5C 4034.32,2051.16 3955.65,1688.83 3759,1352.5C 3558.97,1021.15 3280.8,779.647 2924.5,628C 2853.49,598.553 2780.83,573.886 2706.5,554C 2705.94,553.275 2705.61,552.442 2705.5,551.5C 2711.34,529.125 2717.34,506.792 2723.5,484.5 Z"/></g>
<g><path style="opacity:1" fill="#fefefe" d="M 1767.5,486.5 C 1769.47,486.261 1771.3,486.594 1773,487.5C 1779.15,510.115 1784.99,532.782 1790.5,555.5C 1723.35,572.826 1657.69,594.659 1593.5,621C 1300.21,742.374 1055.71,927.874 860,1177.5C 608.676,1507.5 487.342,1880.83 496,2297.5C 510.306,2680.8 633.306,3023.8 865,3326.5C 885.489,3351.63 905.822,3376.63 926,3401.5C 908.038,3416.46 890.371,3431.79 873,3447.5C 655.454,3196.37 515.788,2906.37 454,2577.5C 403.083,2291.65 417.749,2009.32 498,1730.5C 601.884,1389.04 787.717,1101.54 1055.5,868C 1263.87,688.951 1501.2,561.784 1767.5,486.5 Z"/></g>
<g><path style="opacity:1" fill="#fefefe" d="M 2213.5,721.5 C 2548.83,716.462 2853.83,808.962 3128.5,999C 3378.18,1177.38 3560.02,1409.21 3674,1694.5C 3775.38,1960 3802.38,2233 3755,2513.5C 3693.4,2847.28 3540.57,3130.45 3296.5,3363C 3039.02,3601.68 2734.35,3738.02 2382.5,3772C 2012.29,3800.79 1674.96,3710.13 1370.5,3500C 1122.67,3323.48 941.833,3093.98 828,2811.5C 724.08,2543.69 696.08,2268.02 744,1984.5C 803.092,1665.1 946.592,1391.27 1174.5,1163C 1416.32,926.766 1705.65,784.099 2042.5,735C 2099.44,727.659 2156.44,723.159 2213.5,721.5 Z"/></g>
<g><path style="opacity:1" fill="#01c6f3" d="M 2159.5,857.5 C 2159.83,1032.33 2159.5,1207 2158.5,1381.5C 2111.26,1342.89 2057.92,1331.39 1998.5,1347C 1961.06,1358.54 1930.39,1379.7 1906.5,1410.5C 1869.66,1368.75 1823.33,1345.58 1767.5,1341C 1686.17,1340.67 1604.83,1340.33 1523.5,1340C 1475.61,1279.6 1422.95,1223.44 1365.5,1171.5C 1569.73,1003.83 1803.73,901.998 2067.5,866C 2098.06,861.911 2128.72,859.078 2159.5,857.5 Z"/></g>
<g><path style="opacity:1" fill="#bef0fb" d="M 2159.5,857.5 C 2160.83,1032.33 2160.83,1207.33 2159.5,1382.5C 2158.89,1382.38 2158.56,1382.04 2158.5,1381.5C 2159.5,1207 2159.83,1032.33 2159.5,857.5 Z"/></g>
<g><path style="opacity:1" fill="#01c6f3" d="M 2340.5,857.5 C 2645.46,879.575 2914.46,987.908 3147.5,1182.5C 3095.36,1230.46 3047.36,1281.96 3003.5,1337C 2915.5,1337.33 2827.5,1337.67 2739.5,1338C 2712.13,1339.68 2686.3,1346.85 2662,1359.5C 2603.34,1326.38 2548.17,1331.22 2496.5,1374C 2480.18,1390.13 2468.02,1408.96 2460,1430.5C 2438.43,1409.59 2416.27,1389.43 2393.5,1370C 2377.67,1358.59 2360.34,1350.09 2341.5,1344.5C 2340.5,1182.17 2340.17,1019.83 2340.5,857.5 Z"/></g>
<g><path style="opacity:1" fill="#03c6f3" d="M 1232.5,1294.5 C 1233.55,1294.35 1234.55,1294.52 1235.5,1295C 1273.98,1328.32 1309.98,1364.15 1343.5,1402.5C 1330.24,1422.09 1322.41,1443.76 1320,1467.5C 1319.33,1552.5 1319.33,1637.5 1320,1722.5C 1326.96,1779.12 1356.46,1818.95 1408.5,1842C 1460.56,1859.79 1507.89,1851.45 1550.5,1817C 1556.03,1811.8 1561.2,1806.3 1566,1800.5C 1584.19,1856.93 1597.19,1914.6 1605,1973.5C 1607.6,1991.43 1609.44,2009.43 1610.5,2027.5C 1395.83,2027.33 1181.17,2027.5 966.5,2028C 931.653,2063.01 896.653,2097.85 861.5,2132.5C 880.536,1900.89 952.702,1687.56 1078,1492.5C 1123.99,1422.33 1175.49,1356.33 1232.5,1294.5 Z"/></g>
<g><path style="opacity:1" fill="#02c6f3" d="M 3275.5,1306.5 C 3278.06,1307.54 3280.22,1309.21 3282,1311.5C 3484.2,1537 3602.2,1801.34 3636,2104.5C 3637,2113.15 3637.33,2121.82 3637,2130.5C 3602.83,2096.33 3568.67,2062.17 3534.5,2028C 3327.83,2027.5 3121.17,2027.33 2914.5,2027.5C 2918.98,1967.97 2928.64,1909.31 2943.5,1851.5C 2969.22,1852.07 2994.89,1851.23 3020.5,1849C 3091.41,1835.75 3140.41,1795.75 3167.5,1729C 3187.92,1667.89 3180.59,1610.39 3145.5,1556.5C 3175.73,1520.9 3185.56,1480.24 3175,1434.5C 3173.32,1428.64 3171.16,1422.97 3168.5,1417.5C 3201.75,1378.25 3237.42,1341.25 3275.5,1306.5 Z"/></g>
<g><path style="opacity:1" fill="#2b1654" d="M 2541.5,1626.5 C 2541.56,1627.04 2541.89,1627.38 2542.5,1627.5C 2543.5,1574.84 2543.83,1522.17 2543.5,1469.5C 2546.74,1443.75 2561.24,1429.75 2587,1427.5C 2611.95,1428.45 2627.28,1441.11 2633,1465.5C 2633.33,1531.5 2633.67,1597.5 2634,1663.5C 2636.83,1671.67 2642.33,1677.17 2650.5,1680C 2759.17,1680.67 2867.83,1680.67 2976.5,1680C 2992.79,1673.92 2998.96,1662.42 2995,1645.5C 2991.56,1637.06 2985.4,1631.89 2976.5,1630C 2896.2,1628.68 2815.87,1628.01 2735.5,1628C 2696.42,1621.25 2669.58,1599.42 2655,1562.5C 2640.37,1511.39 2654.87,1470.89 2698.5,1441C 2708.05,1435.82 2718.05,1431.82 2728.5,1429C 2784.14,1427.85 2839.81,1427.35 2895.5,1427.5C 2948.83,1427.67 3002.17,1427.83 3055.5,1428C 3077,1433 3088.67,1446.5 3090.5,1468.5C 3089.13,1491.04 3077.46,1504.87 3055.5,1510C 2956.83,1510.33 2858.17,1510.67 2759.5,1511C 2742.87,1515.98 2735.37,1527.14 2737,1544.5C 2740.28,1556.11 2747.78,1563.28 2759.5,1566C 2841.5,1566.33 2923.5,1566.67 3005.5,1567C 3057.98,1577.97 3085.98,1610.14 3089.5,1663.5C 3087.01,1713.64 3061.68,1745.81 3013.5,1760C 3009.15,1760.57 3004.82,1761.24 3000.5,1762C 2892.17,1762.67 2783.83,1762.67 2675.5,1762C 2580.03,1724.6 2488.69,1679.26 2401.5,1626C 2390.5,1617 2379.5,1608 2368.5,1599C 2348.35,1591.38 2334.18,1597.55 2326,1617.5C 2325.67,1662.5 2325.33,1707.5 2325,1752.5C 2323.93,1757.24 2321.1,1760.4 2316.5,1762C 2280.17,1762.67 2243.83,1762.67 2207.5,1762C 2203.79,1761.06 2200.63,1759.23 2198,1756.5C 2192.09,1748.34 2186.42,1740.01 2181,1731.5C 2161.04,1667.45 2155.38,1602.12 2164,1535.5C 2183.78,1563.61 2203.95,1591.45 2224.5,1619C 2229.27,1620.36 2232.77,1618.86 2235,1614.5C 2235.33,1564.5 2235.67,1514.5 2236,1464.5C 2240.09,1447.41 2250.25,1435.58 2266.5,1429C 2282.88,1426.81 2299.21,1427.14 2315.5,1430C 2325.73,1432.91 2335.07,1437.58 2343.5,1444C 2409.67,1504.67 2475.67,1565.5 2541.5,1626.5 Z"/></g>
<g><path style="opacity:1" fill="#2b1654" d="M 1450.5,1429.5 C 1555.5,1429.33 1660.5,1429.5 1765.5,1430C 1818.5,1439 1851.66,1469.5 1865,1521.5C 1871.42,1572.3 1853.25,1611.47 1810.5,1639C 1796.3,1646.4 1781.3,1651.4 1765.5,1654C 1776.83,1664 1788.17,1674 1799.5,1684C 1808.51,1688.18 1816.67,1687.02 1824,1680.5C 1874.67,1609.17 1925.33,1537.83 1976,1466.5C 2002.51,1432.89 2036.35,1422.39 2077.5,1435C 2088.69,1439.85 2098.52,1446.69 2107,1455.5C 2123.69,1478.69 2140.19,1502.03 2156.5,1525.5C 2153.88,1536.02 2152.04,1546.69 2151,1557.5C 2149.99,1573.82 2149.16,1590.16 2148.5,1606.5C 2149.32,1635.24 2150.82,1663.91 2153,1692.5C 2126,1654.83 2099,1617.17 2072,1579.5C 2057.23,1566.69 2041.4,1565.19 2024.5,1575C 2021.67,1577.83 2018.83,1580.67 2016,1583.5C 1977,1638.5 1938,1693.5 1899,1748.5C 1894.93,1755.29 1889.09,1759.79 1881.5,1762C 1842.79,1762.98 1804.12,1762.64 1765.5,1761C 1762.37,1759.6 1759.37,1757.93 1756.5,1756C 1829.32,1722.12 1896.99,1680.45 1959.5,1631C 1922.35,1650.92 1885.01,1670.92 1847.5,1691C 1812.61,1708.86 1777.44,1726.03 1742,1742.5C 1715.55,1720.39 1689.38,1697.89 1663.5,1675C 1641.5,1674.67 1619.5,1674.33 1597.5,1674C 1571.13,1665.1 1560.96,1646.93 1567,1619.5C 1572.75,1606.09 1582.58,1597.25 1596.5,1593C 1638.83,1592.67 1681.17,1592.33 1723.5,1592C 1749.02,1585.82 1760.52,1569.65 1758,1543.5C 1752.97,1527.13 1742.13,1516.97 1725.5,1513C 1659.17,1512.33 1592.83,1512.33 1526.5,1513C 1518.36,1515.81 1512.86,1521.31 1510,1529.5C 1509.98,1594.53 1509.31,1659.53 1508,1724.5C 1495.86,1755.99 1473.36,1767.49 1440.5,1759C 1422.43,1750.93 1411.93,1737.09 1409,1717.5C 1408.33,1636.5 1408.33,1555.5 1409,1474.5C 1413.71,1450.96 1427.54,1435.96 1450.5,1429.5 Z"/></g>
<g><path style="opacity:1" fill="#c9c4d3" d="M 2543.5,1469.5 C 2543.83,1522.17 2543.5,1574.84 2542.5,1627.5C 2541.89,1627.38 2541.56,1627.04 2541.5,1626.5C 2542.17,1574.17 2542.83,1521.83 2543.5,1469.5 Z"/></g>
<g><path style="opacity:1" fill="#2d1855" d="M 2623.5,1760.5 C 2604.67,1761.5 2585.67,1761.83 2566.5,1761.5C 2560.53,1760.35 2555.2,1757.85 2550.5,1754C 2507.8,1716.29 2464.8,1678.96 2421.5,1642C 2473.93,1675.35 2527.26,1707.68 2581.5,1739C 2595.4,1746.45 2609.4,1753.62 2623.5,1760.5 Z"/></g>
<g><path style="opacity:1" fill="#01c6f3" d="M 2159.5,1838.5 C 2159.5,1901.17 2159.5,1963.83 2159.5,2026.5C 2036.5,2026.5 1913.5,2026.5 1790.5,2026.5C 1790.77,2024.9 1790.43,2023.57 1789.5,2022.5C 1784.92,1964.95 1776.59,1907.95 1764.5,1851.5C 1805.17,1851.67 1845.83,1851.5 1886.5,1851C 1917.85,1847.91 1943.69,1834.41 1964,1810.5C 1990.92,1772.32 2018.09,1734.32 2045.5,1696.5C 2058.23,1713.62 2070.73,1730.95 2083,1748.5C 2087.33,1754.17 2092.33,1759.17 2098,1763.5C 2100.2,1770.23 2103.2,1776.56 2107,1782.5C 2116.69,1797.19 2127.52,1811.03 2139.5,1824C 2145.79,1829.47 2152.46,1834.3 2159.5,1838.5 Z"/></g>
<g><path style="opacity:1" fill="#04c6f3" d="M 2414.5,1753.5 C 2443,1778.5 2471.67,1803.33 2500.5,1828C 2518.53,1840.68 2538.53,1848.35 2560.5,1851C 2585.17,1851.67 2609.83,1851.67 2634.5,1851C 2640.08,1850.22 2645.58,1849.05 2651,1847.5C 2656.67,1849.43 2662.51,1850.6 2668.5,1851C 2699.16,1851.5 2729.83,1851.67 2760.5,1851.5C 2748.13,1909.49 2739.47,1967.99 2734.5,2027C 2603.17,2027.5 2471.83,2027.67 2340.5,2027.5C 2340.33,1967.5 2340.5,1907.5 2341,1847.5C 2385.81,1832.18 2410.31,1800.84 2414.5,1753.5 Z"/></g>
<g><path style="opacity:1" fill="#635581" d="M 2623.5,1760.5 C 2624.47,1760.99 2625.47,1761.49 2626.5,1762C 2606.33,1762.83 2586.33,1762.66 2566.5,1761.5C 2585.67,1761.83 2604.67,1761.5 2623.5,1760.5 Z"/></g>
<g><path style="opacity:1" fill="#90e5f9" d="M 2159.5,1838.5 C 2160.5,1901.33 2160.83,1964.33 2160.5,2027.5C 2036.83,2027.5 1913.17,2027.5 1789.5,2027.5C 1789.5,2025.83 1789.5,2024.17 1789.5,2022.5C 1790.43,2023.57 1790.77,2024.9 1790.5,2026.5C 1913.5,2026.5 2036.5,2026.5 2159.5,2026.5C 2159.5,1963.83 2159.5,1901.17 2159.5,1838.5 Z"/></g>
<g><path style="opacity:1" fill="#2b1654" d="M 2104.5,2291.5 C 2105.04,2291.44 2105.38,2291.11 2105.5,2290.5C 2071,2289.83 2036.67,2289.17 2002.5,2288.5C 2016.56,2260.71 2031.39,2233.38 2047,2206.5C 2070.79,2176.18 2101.95,2158.68 2140.5,2154C 2283.17,2153.33 2425.83,2153.33 2568.5,2154C 2558.77,2164.4 2548.44,2174.07 2537.5,2183C 2529.67,2187.22 2521.34,2189.72 2512.5,2190.5C 2450.83,2190.17 2389.16,2190.5 2327.5,2191.5C 2327.62,2192.11 2327.96,2192.44 2328.5,2192.5C 2331.57,2198.3 2334.9,2203.97 2338.5,2209.5C 2396.16,2210.33 2453.83,2210.83 2511.5,2211C 2503.5,2220.33 2494.83,2229 2485.5,2237C 2476.76,2243.03 2467.09,2246.69 2456.5,2248C 2425.17,2248.33 2393.83,2248.67 2362.5,2249C 2399.21,2309.58 2436.04,2370.08 2473,2430.5C 2565.17,2338.33 2657.33,2246.17 2749.5,2154C 2992.83,2153.33 3236.17,2153.33 3479.5,2154C 3533.33,2207.83 3587.17,2261.67 3641,2315.5C 3638.39,2385.32 3629.72,2454.32 3615,2522.5C 3546.17,2453.67 3477.33,2384.83 3408.5,2316C 3212.83,2315.33 3017.17,2315.33 2821.5,2316C 2631.32,2506.35 2440.99,2696.51 2250.5,2886.5C 2060.01,2696.51 1869.68,2506.35 1679.5,2316C 1483.83,2315.33 1288.17,2315.33 1092.5,2316C 1023,2385.5 953.5,2455 884,2524.5C 869.671,2455.86 861.005,2386.53 858,2316.5C 912.167,2262.33 966.333,2208.17 1020.5,2154C 1263.83,2153.33 1507.17,2153.33 1750.5,2154C 1841.68,2244.68 1933.01,2335.18 2024.5,2425.5C 2051.67,2381.17 2078.33,2336.51 2104.5,2291.5 Z"/></g>
<g><path style="opacity:1" fill="#c9c4d3" d="M 2512.5,2190.5 C 2451.17,2191.17 2389.83,2191.83 2328.5,2192.5C 2327.96,2192.44 2327.62,2192.11 2327.5,2191.5C 2389.16,2190.5 2450.83,2190.17 2512.5,2190.5 Z"/></g>
<g><path style="opacity:1" fill="#faf9fb" d="M 2101.5,2209.5 C 2117.28,2209.42 2122.78,2216.75 2118,2231.5C 2113.38,2237.05 2107.55,2238.89 2100.5,2237C 2092.9,2232.6 2090.4,2226.1 2093,2217.5C 2095.07,2213.92 2097.91,2211.26 2101.5,2209.5 Z"/></g>
<g><path style="opacity:1" fill="#60517f" d="M 2002.5,2288.5 C 2036.67,2289.17 2071,2289.83 2105.5,2290.5C 2105.38,2291.11 2105.04,2291.44 2104.5,2291.5C 2070.33,2290.83 2036,2290.17 2001.5,2289.5C 2001.62,2288.89 2001.96,2288.56 2002.5,2288.5 Z"/></g>
<g><path style="opacity:1" fill="#fefefe" d="M 2247.5,2376.5 C 2248.38,2376.37 2249.04,2376.7 2249.5,2377.5C 2279.65,2438.97 2309.65,2500.47 2339.5,2562C 2309.4,2592.1 2279.23,2622.27 2249,2652.5C 2219.14,2622.64 2189.31,2592.81 2159.5,2563C 2189.25,2500.99 2218.59,2438.83 2247.5,2376.5 Z"/></g>
<g><path style="opacity:1" fill="#2b1654" d="M 1150.5,2437.5 C 1307.17,2437.33 1463.83,2437.5 1620.5,2438C 1830.35,2648.01 2040.35,2857.85 2250.5,3067.5C 2460.65,2857.85 2670.65,2648.01 2880.5,2438C 3036.83,2437.33 3193.17,2437.33 3349.5,2438C 3425.67,2514.17 3501.83,2590.33 3578,2666.5C 3560.75,2724.09 3539.25,2780.09 3513.5,2834.5C 3434.01,2755.51 3354.68,2676.35 3275.5,2597C 3168.5,2596.33 3061.5,2596.33 2954.5,2597C 2749.67,2801.83 2544.83,3006.67 2340,3211.5C 2339.5,3353.83 2339.33,3496.17 2339.5,3638.5C 2279.83,3642.49 2220.16,3642.49 2160.5,3638.5C 2160.67,3496.17 2160.5,3353.83 2160,3211.5C 1955.17,3006.67 1750.33,2801.83 1545.5,2597C 1438.5,2596.33 1331.5,2596.33 1224.5,2597C 1145.86,2676.64 1066.86,2755.97 987.5,2835C 986.551,2835.62 985.718,2835.45 985,2834.5C 959.886,2780.14 938.553,2724.47 921,2667.5C 997.701,2590.97 1074.2,2514.3 1150.5,2437.5 Z"/></g>
<g><path style="opacity:1" fill="#f97fc5" d="M 3213.5,2718.5 C 3171.66,2718.17 3130,2718.5 3088.5,2719.5C 3087.96,2719.44 3087.62,2719.11 3087.5,2718.5C 3129.66,2717.17 3171.66,2717.17 3213.5,2718.5 Z"/></g>
<g><path style="opacity:1" fill="#f4038b" d="M 1286.5,2717.5 C 1336.5,2717.5 1386.5,2717.5 1436.5,2717.5C 1436.65,2718.55 1436.48,2719.55 1436,2720.5C 1349.06,2852.1 1239.06,2960.1 1106,3044.5C 1085.65,3015.81 1066.49,2986.31 1048.5,2956C 1128.03,2876.63 1207.37,2797.13 1286.5,2717.5 Z"/></g>
<g><path style="opacity:1" fill="#f4028b" d="M 3213.5,2718.5 C 3292.47,2796.97 3371.3,2875.63 3450,2954.5C 3435.24,2981.32 3418.91,3007.32 3401,3032.5C 3275.29,2949.62 3171.12,2845.29 3088.5,2719.5C 3130,2718.5 3171.66,2718.17 3213.5,2718.5 Z"/></g>
<g><path style="opacity:1" fill="#f4018b" d="M 2460.5,3625.5 C 2458.5,3509.17 2457.84,3392.5 2458.5,3275.5C 2615.15,3118.19 2772.15,2961.19 2929.5,2804.5C 3025.44,2951.44 3145.77,3074.78 3290.5,3174.5C 3082.02,3405.8 2824.35,3552.97 2517.5,3616C 2498.57,3619.6 2479.57,3622.77 2460.5,3625.5 Z"/></g>
<g><path style="opacity:1" fill="#f4018b" d="M 1584.5,2819.5 C 1737.08,2970.58 1889.25,3122.25 2041,3274.5C 2041.5,3391.5 2041.67,3508.5 2041.5,3625.5C 1826.07,3593.22 1629.4,3515.05 1451.5,3391C 1366.28,3331.15 1288.28,3262.48 1217.5,3185C 1364.62,3088.04 1486.96,2966.21 1584.5,2819.5 Z"/></g>
<g><path style="opacity:1" fill="#f97fc5" d="M 2458.5,3275.5 C 2457.84,3392.5 2458.5,3509.17 2460.5,3625.5C 2459.79,3626.4 2458.79,3626.74 2457.5,3626.5C 2457.17,3509.33 2457.5,3392.33 2458.5,3275.5 Z"/></g>
<g><path style="opacity:1" fill="#fdfdfe" d="M 1101.5,3497.5 C 1102.55,3497.35 1103.55,3497.52 1104.5,3498C 1142.17,3529 1179.83,3560 1217.5,3591C 1232.96,3603.26 1237.46,3618.76 1231,3637.5C 1229.59,3640.66 1227.92,3643.66 1226,3646.5C 1219.67,3654.17 1213.33,3661.83 1207,3669.5C 1196.92,3678.81 1185.09,3682.81 1171.5,3681.5C 1178.96,3696.25 1177.8,3710.25 1168,3723.5C 1160.5,3732.33 1153,3741.17 1145.5,3750C 1130,3760.75 1114.33,3761.08 1098.5,3751C 1057.83,3717.33 1017.17,3683.67 976.5,3650C 1018.06,3599.04 1059.72,3548.21 1101.5,3497.5 Z"/></g>
<g><path style="opacity:1" fill="#fdfdfe" d="M 3319.5,3559.5 C 3321.37,3559.86 3322.87,3560.86 3324,3562.5C 3355.46,3601.1 3387.63,3639.1 3420.5,3676.5C 3448.65,3652.6 3476.98,3628.93 3505.5,3605.5C 3515.04,3616.72 3524.71,3627.89 3534.5,3639C 3492.33,3674.5 3450.17,3710 3408,3745.5C 3365.31,3694.98 3322.81,3644.31 3280.5,3593.5C 3293.52,3582.14 3306.52,3570.81 3319.5,3559.5 Z"/></g>
<g><path style="opacity:1" fill="#2c1755" d="M 1114.5,3565.5 C 1116.26,3566.07 1117.92,3566.91 1119.5,3568C 1138.43,3583.71 1157.26,3599.55 1176,3615.5C 1176.79,3618.63 1176.46,3621.63 1175,3624.5C 1170.83,3629.33 1166.67,3634.17 1162.5,3639C 1158.47,3640.04 1154.8,3639.37 1151.5,3637C 1132.5,3621.33 1113.5,3605.67 1094.5,3590C 1101.38,3581.96 1108.05,3573.79 1114.5,3565.5 Z"/></g>
<g><path style="opacity:1" fill="#2c1855" d="M 1065.5,3624.5 C 1087.42,3641.58 1108.92,3659.24 1130,3677.5C 1130.82,3680.96 1130.48,3684.3 1129,3687.5C 1124.81,3692.69 1120.31,3697.52 1115.5,3702C 1113.5,3702.67 1111.5,3702.67 1109.5,3702C 1088.57,3684.95 1067.74,3667.79 1047,3650.5C 1046.33,3649.5 1046.33,3648.5 1047,3647.5C 1053.38,3639.96 1059.55,3632.29 1065.5,3624.5 Z"/></g>
<g><path style="opacity:1" fill="#fdfdfd" d="M 3129.5,3694.5 C 3130.68,3694.28 3131.68,3694.61 3132.5,3695.5C 3159.38,3738.08 3186.38,3780.58 3213.5,3823C 3245.23,3804.2 3276.73,3784.7 3308,3764.5C 3316.75,3776.69 3324.41,3789.35 3331,3802.5C 3285.15,3831.76 3239.15,3860.76 3193,3889.5C 3157.13,3833.95 3121.63,3778.12 3086.5,3722C 3100.9,3712.81 3115.23,3703.64 3129.5,3694.5 Z"/></g>
<g><path style="opacity:1" fill="#fdfdfe" d="M 1373.5,3698.5 C 1391.39,3707.78 1409.06,3717.62 1426.5,3728C 1428.21,3728.78 1429.21,3730.11 1429.5,3732C 1421.55,3803.21 1413.21,3874.38 1404.5,3945.5C 1389.75,3936.71 1374.92,3928.04 1360,3919.5C 1360.47,3906.13 1361.63,3892.8 1363.5,3879.5C 1363.33,3878.17 1363.17,3876.83 1363,3875.5C 1335.83,3859.25 1308.5,3843.25 1281,3827.5C 1269.33,3836.17 1257.67,3844.83 1246,3853.5C 1230.59,3844.88 1215.42,3835.88 1200.5,3826.5C 1258.21,3783.78 1315.88,3741.11 1373.5,3698.5 Z"/></g>
<g><path style="opacity:1" fill="#2d1855" d="M 1376.5,3756.5 C 1377.1,3756.74 1377.43,3757.24 1377.5,3758C 1374.95,3780.88 1372.11,3803.71 1369,3826.5C 1352.92,3817.54 1337.09,3808.21 1321.5,3798.5C 1339.85,3784.48 1358.19,3770.48 1376.5,3756.5 Z"/></g>
<g><path style="opacity:1" fill="#fdfdfd" d="M 2950.5,3789.5 C 2951.92,3789.71 2953.26,3790.21 2954.5,3791C 3006.5,3839.67 3058.5,3888.33 3110.5,3937C 3094.61,3944.11 3078.61,3950.95 3062.5,3957.5C 3051.23,3948.24 3040.23,3938.57 3029.5,3928.5C 3000.71,3941.31 2971.88,3953.98 2943,3966.5C 2942.83,3981.18 2942.33,3995.84 2941.5,4010.5C 2925.59,4017.37 2909.76,4024.37 2894,4031.5C 2893.17,3959.16 2893.33,3886.83 2894.5,3814.5C 2913.27,3806.14 2931.93,3797.81 2950.5,3789.5 Z"/></g>
<g><path style="opacity:1" fill="#fdfdfd" d="M 1575.5,3808.5 C 1581.24,3808.21 1586.91,3808.71 1592.5,3810C 1639.41,3827.91 1686.08,3846.07 1732.5,3864.5C 1727.39,3877.06 1722.56,3889.72 1718,3902.5C 1717.48,3903.52 1716.65,3904.18 1715.5,3904.5C 1677.16,3890.11 1638.82,3875.61 1600.5,3861C 1596.1,3859.62 1592.6,3860.79 1590,3864.5C 1587.25,3870.65 1585.09,3876.99 1583.5,3883.5C 1583.56,3886.11 1584.56,3888.28 1586.5,3890C 1616.72,3901.94 1647.06,3913.61 1677.5,3925C 1694.49,3935.15 1700.99,3949.98 1697,3969.5C 1690.3,3988.6 1682.63,4007.27 1674,4025.5C 1663.6,4036.75 1650.76,4041.25 1635.5,4039C 1587.21,4020.68 1538.88,4002.51 1490.5,3984.5C 1494.75,3969.91 1500.25,3955.91 1507,3942.5C 1545.79,3957.48 1584.62,3972.31 1623.5,3987C 1628.73,3988.72 1632.56,3987.22 1635,3982.5C 1637.59,3976.48 1639.76,3970.31 1641.5,3964C 1641.39,3962.1 1640.72,3960.44 1639.5,3959C 1610.3,3947.27 1580.97,3935.93 1551.5,3925C 1533.41,3916.66 1525.24,3902.5 1527,3882.5C 1533.44,3861.84 1541.44,3841.84 1551,3822.5C 1557.86,3815.33 1566.02,3810.66 1575.5,3808.5 Z"/></g>
<g><path style="opacity:1" fill="#2c1755" d="M 2942.5,3847.5 C 2959.78,3862.78 2976.78,3878.44 2993.5,3894.5C 2976.97,3902.63 2960.13,3910.3 2943,3917.5C 2942.5,3894.17 2942.33,3870.84 2942.5,3847.5 Z"/></g>
<g><path style="opacity:1" fill="#fdfdfd" d="M 2719.5,3875.5 C 2741.64,3874.17 2756.47,3883.83 2764,3904.5C 2767.14,3915.71 2769.64,3927.04 2771.5,3938.5C 2771.51,3950.31 2767.18,3960.14 2758.5,3968C 2776.36,3970.86 2787.53,3981.03 2792,3998.5C 2794,4006.5 2796,4014.5 2798,4022.5C 2800.9,4046.21 2791.07,4061.71 2768.5,4069C 2718.41,4081.19 2668.41,4093.69 2618.5,4106.5C 2601.71,4042.35 2585.71,3978.02 2570.5,3913.5C 2620.3,3900.97 2669.96,3888.3 2719.5,3875.5 Z"/></g>
<g><path style="opacity:1" fill="#fdfdfd" d="M 1809.5,3886.5 C 1826.8,3890.11 1844.13,3893.45 1861.5,3896.5C 1856.82,3922.22 1851.82,3947.89 1846.5,3973.5C 1855.55,3975.14 1864.55,3976.64 1873.5,3978C 1897.5,3957.33 1921.5,3936.67 1945.5,3916C 1949.53,3915.67 1953.53,3916 1957.5,3917C 1973.68,3920.25 1989.68,3923.91 2005.5,3928C 1974.33,3955.01 1943.33,3982.18 1912.5,4009.5C 1932.91,4047.33 1953.58,4084.99 1974.5,4122.5C 1973.83,4122.83 1973.17,4123.17 1972.5,4123.5C 1953.15,4119.38 1933.81,4115.21 1914.5,4111C 1898.37,4081.91 1882.37,4052.75 1866.5,4023.5C 1856.93,4020.79 1847.27,4018.45 1837.5,4016.5C 1832.29,4041.47 1827.29,4066.47 1822.5,4091.5C 1805.73,4088.91 1789.06,4085.75 1772.5,4082C 1771.42,4081.33 1770.75,4080.33 1770.5,4079C 1783.44,4014.79 1796.44,3950.63 1809.5,3886.5 Z"/></g>
<g><path style="opacity:1" fill="#fdfdfd" d="M 2495.5,3925.5 C 2499.03,3924.99 2502.2,3925.66 2505,3927.5C 2506.7,3941.46 2507.87,3955.46 2508.5,3969.5C 2485.18,3971.66 2461.85,3973.66 2438.5,3975.5C 2443.83,4026.77 2448.49,4078.1 2452.5,4129.5C 2434.83,4131.11 2417.16,4132.77 2399.5,4134.5C 2395.09,4083.83 2390.59,4033.17 2386,3982.5C 2383.93,3981.87 2381.76,3981.53 2379.5,3981.5C 2358.13,3983.17 2336.79,3985.17 2315.5,3987.5C 2313.92,3972.52 2312.59,3957.52 2311.5,3942.5C 2373.02,3937.31 2434.36,3931.64 2495.5,3925.5 Z"/></g>
<g><path style="opacity:1" fill="#2d1855" d="M 2703.5,3925.5 C 2709.2,3924.44 2713.37,3926.44 2716,3931.5C 2717.56,3936.92 2718.73,3942.42 2719.5,3948C 2719.97,3952.74 2717.97,3955.74 2713.5,3957C 2689.12,3963.01 2664.79,3969.18 2640.5,3975.5C 2637.21,3964.99 2634.54,3954.32 2632.5,3943.5C 2656.39,3937.94 2680.06,3931.94 2703.5,3925.5 Z"/></g>
<g><path style="opacity:1" fill="#fdfdfe" d="M 2100.5,3936.5 C 2150.5,3938.76 2200.5,3941.1 2250.5,3943.5C 2249.64,3958.49 2248.97,3973.49 2248.5,3988.5C 2208.53,3985.88 2168.53,3984.05 2128.5,3983C 2124.65,3984.52 2122.81,3987.35 2123,3991.5C 2122.5,3999.16 2122.33,4006.83 2122.5,4014.5C 2158.17,4016.08 2193.84,4017.75 2229.5,4019.5C 2228.64,4034.49 2227.97,4049.49 2227.5,4064.5C 2191.51,4062.61 2155.51,4060.61 2119.5,4058.5C 2118.7,4067.82 2118.54,4077.16 2119,4086.5C 2119.83,4088.67 2121.33,4090.17 2123.5,4091C 2163.14,4093.78 2202.8,4095.95 2242.5,4097.5C 2241.61,4112.15 2240.95,4126.82 2240.5,4141.5C 2191.48,4139.58 2142.48,4137.08 2093.5,4134C 2073.84,4127.19 2064.18,4113.36 2064.5,4092.5C 2067.14,4051.53 2069.3,4010.53 2071,3969.5C 2074.39,3952.62 2084.22,3941.62 2100.5,3936.5 Z"/></g>
<g><path style="opacity:1" fill="#2d1855" d="M 2725.5,3999.5 C 2731.69,3997.99 2736.19,3999.99 2739,4005.5C 2741.46,4012.32 2742.46,4019.32 2742,4026.5C 2741.17,4027.5 2740.33,4028.5 2739.5,4029.5C 2714.26,4036.31 2688.92,4042.81 2663.5,4049C 2661.74,4049.8 2660.07,4049.63 2658.5,4048.5C 2656.18,4040.22 2654.01,4031.88 2652,4023.5C 2651.2,4021.74 2651.37,4020.07 2652.5,4018.5C 2676.99,4012.3 2701.32,4005.96 2725.5,3999.5 Z"/></g>
</svg>
