<?xml version="1.0" encoding="UTF-8"?>
<!DOCTYPE svg PUBLIC "-//W3C//DTD SVG 1.1//EN" "http://www.w3.org/Graphics/SVG/1.1/DTD/svg11.dtd">
<svg xmlns="http://www.w3.org/2000/svg" version="1.1" width="1241px" height="1241px" style="shape-rendering:geometricPrecision; text-rendering:geometricPrecision; image-rendering:optimizeQuality; fill-rule:evenodd; clip-rule:evenodd" xmlns:xlink="http://www.w3.org/1999/xlink">
<g><path style="opacity:0.998" fill="#4fc4e8" d="M 771.5,162.5 C 772.54,167.337 773.873,172.004 775.5,176.5C 775.5,183.833 775.5,191.167 775.5,198.5C 774.566,199.568 774.232,200.901 774.5,202.5C 781.12,203.603 787.786,204.27 794.5,204.5C 798.567,206.054 802.9,206.72 807.5,206.5C 812.272,206.705 816.938,207.372 821.5,208.5C 825.545,210.177 829.878,210.844 834.5,210.5C 845.079,211.43 855.412,213.097 865.5,215.5C 874.395,218.844 883.729,220.511 893.5,220.5C 956.749,231.976 1018.75,247.809 1079.5,268C 1080.16,276.258 1080.49,284.591 1080.5,293C 1080.02,330.07 1079.35,367.07 1078.5,404C 1115.21,423.02 1151.55,442.52 1187.5,462.5C 1190.03,465.782 1193.36,468.116 1197.5,469.5C 1198.61,470.265 1199.28,471.265 1199.5,472.5C 1196.5,474.833 1193.83,477.5 1191.5,480.5C 1191.5,481.833 1190.83,482.5 1189.5,482.5C 1180.17,491.167 1171.17,500.167 1162.5,509.5C 1161.17,511.5 1159.5,513.167 1157.5,514.5C 1154.5,516.833 1151.83,519.5 1149.5,522.5C 1142.83,529.833 1135.83,536.833 1128.5,543.5C 1127.88,543.611 1127.38,543.944 1127,544.5C 1126.5,610.166 1126.33,675.832 1126.5,741.5C 1121.2,742.598 1116.2,744.265 1111.5,746.5C 1106.82,747.061 1102.49,748.394 1098.5,750.5C 1093.82,751.061 1089.49,752.394 1085.5,754.5C 1082.85,754.41 1080.51,755.076 1078.5,756.5C 1069.16,758.394 1060.16,761.06 1051.5,764.5C 1049.49,765.924 1047.15,766.59 1044.5,766.5C 1034.52,768.409 1024.85,771.076 1015.5,774.5C 1010.12,775.344 1004.78,776.511 999.5,778C 998.748,778.671 998.414,779.504 998.5,780.5C 992.051,791.389 986.051,802.722 980.5,814.5C 979.534,816.396 979.201,818.396 979.5,820.5C 979.245,822.967 978.245,824.967 976.5,826.5C 975.5,826.5 974.5,826.5 973.5,826.5C 973.5,827.833 973.5,829.167 973.5,830.5C 970.465,830.479 968.132,829.146 966.5,826.5C 965.833,827.167 965.167,827.833 964.5,828.5C 963.735,827.388 962.735,826.721 961.5,826.5C 970.906,807.521 979.906,788.354 988.5,769C 1030.38,757.54 1071.71,744.374 1112.5,729.5C 1113.33,665.503 1113.83,601.503 1114,537.5C 1135.01,516.653 1155.85,495.653 1176.5,474.5C 1139.11,453.801 1101.44,433.468 1063.5,413.5C 1063.17,412.333 1062.83,411.167 1062.5,410C 1065.68,366.894 1067.01,323.728 1066.5,280.5C 960.891,247.1 852.891,225.433 742.5,215.5C 756.479,203.378 760.646,188.378 755,170.5C 747.076,150.41 733.909,134.744 715.5,123.5C 714.375,126.454 713.375,129.454 712.5,132.5C 684.97,110.023 653.304,99.3559 617.5,100.5C 590.86,100.051 565.86,106.217 542.5,119C 536.689,123.31 531.023,127.81 525.5,132.5C 524.608,129.192 523.274,126.192 521.5,123.5C 501.386,136.114 487.886,153.78 481,176.5C 477.464,192.723 482.297,205.723 495.5,215.5C 385.732,225.445 278.399,247.112 173.5,280.5C 173.761,323.706 175.094,366.872 177.5,410C 177.167,411.167 176.833,412.333 176.5,413.5C 139.041,433.132 101.708,452.965 64.5,473C 63.9781,473.561 63.6448,474.228 63.5,475C 84.3116,495.812 105.145,516.645 126,537.5C 126.333,601.5 126.667,665.5 127,729.5C 167.244,743.435 208.078,755.269 249.5,765C 256.974,780.78 264.307,796.613 271.5,812.5C 269.583,811.594 267.917,810.261 266.5,808.5C 265.167,809.833 263.833,811.167 262.5,812.5C 261.167,809.833 259.833,809.833 258.5,812.5C 257.735,811.388 256.735,810.721 255.5,810.5C 255.799,808.396 255.466,806.396 254.5,804.5C 251.285,797.388 247.618,790.721 243.5,784.5C 242.31,782.645 240.977,780.812 239.5,779C 231.754,776.981 224.087,774.815 216.5,772.5C 212.206,770.184 207.54,768.85 202.5,768.5C 172.268,760.812 142.435,751.812 113,741.5C 113.661,675.839 113.327,610.172 112,544.5C 87.2652,519.932 62.7652,495.266 38.5,470.5C 78.8475,447.992 119.514,425.992 160.5,404.5C 161.429,403.311 161.762,401.978 161.5,400.5C 161.5,389.167 161.5,377.833 161.5,366.5C 161.5,333.833 161.5,301.167 161.5,268.5C 165.104,268.951 168.104,267.951 170.5,265.5C 238.988,242.712 308.988,225.545 380.5,214C 408.533,209.83 436.533,205.663 464.5,201.5C 462.173,188.045 463.673,175.045 469,162.5C 483.806,133.527 505.973,112.194 535.5,98.5C 537.422,100.003 538.588,102.003 539,104.5C 565.025,90.5353 592.859,83.5353 622.5,83.5C 651.784,83.6958 679.284,90.6958 705,104.5C 705.712,102.153 706.879,100.153 708.5,98.5C 732.166,109.338 750.999,125.671 765,147.5C 767.735,152.299 769.902,157.299 771.5,162.5 Z M 503.5,180.5 C 504.782,181.708 504.782,183.042 503.5,184.5C 502.374,183.192 502.374,181.858 503.5,180.5 Z"/></g>
<g><path style="opacity:1" fill="#010109" d="M 961.5,826.5 C 881.755,972.411 767.922,1083.41 620,1159.5C 466.683,1081.02 350.516,965.35 271.5,812.5C 264.307,796.613 256.974,780.78 249.5,765C 208.078,755.269 167.244,743.435 127,729.5C 126.667,665.5 126.333,601.5 126,537.5C 105.145,516.645 84.3116,495.812 63.5,475C 63.6448,474.228 63.9781,473.561 64.5,473C 101.708,452.965 139.041,433.132 176.5,413.5C 176.833,412.333 177.167,411.167 177.5,410C 175.094,366.872 173.761,323.706 173.5,280.5C 278.399,247.112 385.732,225.445 495.5,215.5C 482.297,205.723 477.464,192.723 481,176.5C 487.886,153.78 501.386,136.114 521.5,123.5C 523.274,126.192 524.608,129.192 525.5,132.5C 531.023,127.81 536.689,123.31 542.5,119C 565.86,106.217 590.86,100.051 617.5,100.5C 653.304,99.3559 684.97,110.023 712.5,132.5C 713.375,129.454 714.375,126.454 715.5,123.5C 733.909,134.744 747.076,150.41 755,170.5C 760.646,188.378 756.479,203.378 742.5,215.5C 852.891,225.433 960.891,247.1 1066.5,280.5C 1067.01,323.728 1065.68,366.894 1062.5,410C 1062.83,411.167 1063.17,412.333 1063.5,413.5C 1101.44,433.468 1139.11,453.801 1176.5,474.5C 1155.85,495.653 1135.01,516.653 1114,537.5C 1113.83,601.503 1113.33,665.503 1112.5,729.5C 1071.71,744.374 1030.38,757.54 988.5,769C 979.906,788.354 970.906,807.521 961.5,826.5 Z M 503.5,180.5 C 502.374,181.858 502.374,183.192 503.5,184.5C 504.782,183.042 504.782,181.708 503.5,180.5 Z"/></g>
<g><path style="opacity:1" fill="#95539f" d="M 588.5,116.5 C 602.812,115.42 616.812,116.92 630.5,121C 638.013,124.54 641.513,130.373 641,138.5C 635.587,147.915 627.42,151.748 616.5,150C 607.785,147.8 603.451,142.3 603.5,133.5C 582.014,134.773 577.847,143.773 591,160.5C 600.706,168.841 611.039,176.174 622,182.5C 629.73,178.119 637.23,173.286 644.5,168C 651.473,162.698 656.973,156.198 661,148.5C 661.913,142.958 661.246,137.625 659,132.5C 655.246,126.742 650.746,121.575 645.5,117C 658.284,117.697 670.284,121.197 681.5,127.5C 696.739,140.3 698.572,154.966 687,171.5C 674.558,182.298 661.058,191.465 646.5,199C 638.324,205.512 630.157,212.012 622,218.5C 604.523,204.224 586.023,191.391 566.5,180C 554.081,171.331 548.581,159.497 550,144.5C 553.631,134.863 560.131,127.696 569.5,123C 575.744,120.193 582.077,118.026 588.5,116.5 Z"/></g>
<g><path style="opacity:1" fill="#48c2e7" d="M 730.5,164.5 C 733.652,163.959 736.152,164.959 738,167.5C 743.232,173.616 745.232,180.616 744,188.5C 742.257,193.91 738.757,197.744 733.5,200C 725.437,203.434 717.104,206.101 708.5,208C 689.678,210.853 671.012,214.52 652.5,219C 646.884,220.758 641.551,223.092 636.5,226C 635.365,226.749 634.365,226.583 633.5,225.5C 639.054,218.45 645.72,212.616 653.5,208C 668.366,200.233 683.7,193.566 699.5,188C 709.737,183.746 718.904,177.912 727,170.5C 728.394,168.612 729.56,166.612 730.5,164.5 Z"/></g>
<g><path style="opacity:0.99" fill="#48c1e6" d="M 507.5,164.5 C 508.873,164.343 510.207,164.51 511.5,165C 516.59,172.092 522.924,177.759 530.5,182C 550.584,190.806 570.584,199.806 590.5,209C 597.927,212.926 603.927,218.426 608.5,225.5C 608,225.833 607.5,226.167 607,226.5C 598.358,221.952 589.191,218.785 579.5,217C 561.056,213.844 542.722,210.178 524.5,206C 514.783,204.227 506.616,199.727 500,192.5C 498.524,187.924 498.19,183.257 499,178.5C 501.091,173.306 503.924,168.639 507.5,164.5 Z M 503.5,180.5 C 502.374,181.858 502.374,183.192 503.5,184.5C 504.782,183.042 504.782,181.708 503.5,180.5 Z"/></g>
<g><path style="opacity:0.467" fill="#c3edf6" d="M 771.5,162.5 C 774.056,166.712 775.39,171.378 775.5,176.5C 773.873,172.004 772.54,167.337 771.5,162.5 Z"/></g>
<g><path style="opacity:0.404" fill="#d3f0f7" d="M 775.5,176.5 C 778.167,183.833 778.167,191.167 775.5,198.5C 775.5,191.167 775.5,183.833 775.5,176.5 Z"/></g>
<g><path style="opacity:0.012" fill="#daf8fa" d="M 775.5,198.5 C 775.5,199.5 775.5,200.5 775.5,201.5C 782.036,202.051 788.369,203.051 794.5,204.5C 787.786,204.27 781.12,203.603 774.5,202.5C 774.232,200.901 774.566,199.568 775.5,198.5 Z"/></g>
<g><path style="opacity:0.157" fill="#cceef3" d="M 794.5,204.5 C 799.076,204.438 803.409,205.105 807.5,206.5C 802.9,206.72 798.567,206.054 794.5,204.5 Z"/></g>
<g><path style="opacity:0.173" fill="#cfeaee" d="M 821.5,208.5 C 826.049,208.624 830.382,209.291 834.5,210.5C 829.878,210.844 825.545,210.177 821.5,208.5 Z"/></g>
<g><path style="opacity:0.971" fill="#9cdaec" d="M 865.5,215.5 C 875.137,216.163 884.47,217.83 893.5,220.5C 883.729,220.511 874.395,218.844 865.5,215.5 Z"/></g>
<g><path style="opacity:1" fill="#95539f" d="M 681.5,242.5 C 690.44,244.472 699.773,245.139 709.5,244.5C 788.488,249.456 866.488,260.956 943.5,279C 972.979,286.867 1002.31,294.701 1031.5,302.5C 1031.74,333.178 1031.41,363.845 1030.5,394.5C 1016.83,387.914 1003.33,380.914 990,373.5C 989.559,364.496 989.725,355.496 990.5,346.5C 990.453,342.733 989.786,339.233 988.5,336C 898.941,310.667 807.608,294.833 714.5,288.5C 713.391,287.71 712.058,287.21 710.5,287C 704.843,286.501 699.176,286.334 693.5,286.5C 542.692,278.314 395.025,294.981 250.5,336.5C 249.501,349.149 249.168,361.816 249.5,374.5C 236.167,381.167 222.833,387.833 209.5,394.5C 209.5,384.5 209.5,374.5 209.5,364.5C 209.167,344.489 209.5,324.489 210.5,304.5C 211.167,328.5 211.833,352.5 212.5,376.5C 213.5,351.842 213.833,327.176 213.5,302.5C 215.781,302.923 217.448,302.256 218.5,300.5C 369.317,254.985 523.65,235.651 681.5,242.5 Z"/></g>
<g><path style="opacity:1" fill="#744a7e" d="M 681.5,242.5 C 691.019,242.677 700.352,243.344 709.5,244.5C 699.773,245.139 690.44,244.472 681.5,242.5 Z"/></g>
<g><path style="opacity:1" fill="#66476f" d="M 693.5,286.5 C 699.176,286.334 704.843,286.501 710.5,287C 712.058,287.21 713.391,287.71 714.5,288.5C 707.317,288.232 700.317,287.565 693.5,286.5 Z"/></g>
<g><path style="opacity:0.994" fill="#85c6da" d="M 170.5,265.5 C 168.104,267.951 165.104,268.951 161.5,268.5C 161.5,301.167 161.5,333.833 161.5,366.5C 160.502,342.006 160.169,317.339 160.5,292.5C 159.667,284.512 159.501,276.512 160,268.5C 163.293,266.792 166.793,265.792 170.5,265.5 Z"/></g>
<g><path style="opacity:1" fill="#8e5597" d="M 218.5,300.5 C 217.448,302.256 215.781,302.923 213.5,302.5C 213.833,327.176 213.5,351.842 212.5,376.5C 211.833,352.5 211.167,328.5 210.5,304.5C 209.5,324.489 209.167,344.489 209.5,364.5C 208.503,344.007 208.169,323.34 208.5,302.5C 211.877,302.041 215.211,301.374 218.5,300.5 Z"/></g>
<g><path style="opacity:0.008" fill="#ecfdfd" d="M 160.5,292.5 C 160.169,317.339 160.502,342.006 161.5,366.5C 161.5,377.833 161.5,389.167 161.5,400.5C 160.033,378.518 159.367,356.352 159.5,334C 159.5,319.996 159.833,306.163 160.5,292.5 Z"/></g>
<g><path style="opacity:1" fill="#c1c1c2" d="M 827.5,334.5 C 830.85,334.335 834.183,334.502 837.5,335C 839.329,335.273 840.829,336.107 842,337.5C 842.333,345.167 842.667,352.833 843,360.5C 845.408,358.044 848.241,356.211 851.5,355C 859.498,353.709 867.164,354.709 874.5,358C 878.257,361.421 880.757,365.588 882,370.5C 882.5,386.83 882.667,403.163 882.5,419.5C 878.818,419.665 875.152,419.499 871.5,419C 870.584,418.626 869.75,418.126 869,417.5C 868.667,402.833 868.333,388.167 868,373.5C 866.932,366.263 862.765,362.93 855.5,363.5C 848.831,363.666 844.664,366.999 843,373.5C 842.5,388.83 842.333,404.163 842.5,419.5C 838.818,419.665 835.152,419.499 831.5,419C 829.667,418.5 828.5,417.333 828,415.5C 827.5,388.502 827.333,361.502 827.5,334.5 Z"/></g>
<g><path style="opacity:1" fill="#bfbfbf" d="M 790.5,336.5 C 792.833,336.5 795.167,336.5 797.5,336.5C 797.5,341.5 797.5,346.5 797.5,351.5C 802.5,351.5 807.5,351.5 812.5,351.5C 812.5,354.833 812.5,358.167 812.5,361.5C 807.5,361.5 802.5,361.5 797.5,361.5C 797.333,375.837 797.5,390.171 798,404.5C 799.396,407.784 801.896,409.451 805.5,409.5C 809.243,409.142 812.576,407.809 815.5,405.5C 816.674,410.455 815.008,414.288 810.5,417C 803.14,420.286 795.807,420.286 788.5,417C 785.193,414.222 783.026,410.722 782,406.5C 781.5,391.504 781.333,376.504 781.5,361.5C 778.833,361.5 776.167,361.5 773.5,361.5C 773.337,359.143 773.503,356.81 774,354.5C 782.139,350.863 787.639,344.863 790.5,336.5 Z"/></g>
<g><path style="opacity:1" fill="#c1c1c1" d="M 391.5,353.5 C 403.5,353.5 415.5,353.5 427.5,353.5C 427.667,368.17 427.5,382.837 427,397.5C 423.756,410.41 415.589,418.243 402.5,421C 379.274,424.424 366.941,414.591 365.5,391.5C 371.833,391.5 378.167,391.5 384.5,391.5C 383.733,399.989 387.566,404.322 396,404.5C 402.579,404.919 406.579,401.919 408,395.5C 408.5,386.84 408.666,378.173 408.5,369.5C 402.833,369.5 397.167,369.5 391.5,369.5C 391.5,364.167 391.5,358.833 391.5,353.5 Z"/></g>
<g><path style="opacity:1" fill="#c1c1c1" d="M 508.5,380.5 C 513.5,380.5 518.5,380.5 523.5,380.5C 523.813,376.958 523.479,373.625 522.5,370.5C 521.405,367.265 519.072,365.432 515.5,365C 510.833,364.333 506.167,364.333 501.5,365C 497.896,366.154 494.229,366.987 490.5,367.5C 491.905,360.26 496.238,355.76 503.5,354C 509.5,353.333 515.5,353.333 521.5,354C 529.903,355.099 535.403,359.599 538,367.5C 538.001,384.237 538.834,400.904 540.5,417.5C 537.138,417.93 534.305,416.93 532,414.5C 528.795,416.686 525.295,418.186 521.5,419C 512.658,420.126 503.992,419.459 495.5,417C 484.9,409.854 482.733,400.687 489,389.5C 494.191,383.712 500.691,380.712 508.5,380.5 Z"/></g>
<g><path style="opacity:1" fill="#c0c0c0" d="M 676.5,353.5 C 683.906,353.152 691.239,353.652 698.5,355C 705.07,357.238 709.237,361.738 711,368.5C 711.333,382.833 711.667,397.167 712,411.5C 714.851,416.587 713.351,418.421 707.5,417C 706.646,415.978 705.646,415.145 704.5,414.5C 701.779,416.527 698.779,418.027 695.5,419C 688.5,419.667 681.5,419.667 674.5,419C 661.618,415.738 656.451,407.571 659,394.5C 663.495,385.827 670.662,380.994 680.5,380C 685.489,379.501 690.489,379.334 695.5,379.5C 697.833,368.333 693.333,363.333 682,364.5C 675.682,364.803 669.516,365.803 663.5,367.5C 663.547,364.072 664.713,361.072 667,358.5C 670.181,356.662 673.347,354.995 676.5,353.5 Z"/></g>
<g><path style="opacity:1" fill="#c2c2c2" d="M 302.5,353.5 C 316.171,353.333 329.837,353.5 343.5,354C 358.652,359.471 363.819,369.971 359,385.5C 356.198,390.168 352.365,393.835 347.5,396.5C 352.802,404.269 358.469,411.769 364.5,419C 357.144,419.831 349.811,419.665 342.5,418.5C 337.956,411.912 333.289,405.412 328.5,399C 326.19,398.503 323.857,398.337 321.5,398.5C 321.5,405.5 321.5,412.5 321.5,419.5C 315.167,419.5 308.833,419.5 302.5,419.5C 302.5,397.5 302.5,375.5 302.5,353.5 Z"/></g>
<g><path style="opacity:1" fill="#c2c2c2" d="M 571.5,354.5 C 583.088,352.559 593.088,355.559 601.5,363.5C 612.097,353.634 624.097,351.8 637.5,358C 642.234,361.301 645.067,365.801 646,371.5C 646.5,387.497 646.667,403.497 646.5,419.5C 642.486,419.666 638.486,419.499 634.5,419C 633.667,418.167 632.833,417.333 632,416.5C 631.667,401.5 631.333,386.5 631,371.5C 627.345,364.93 621.845,362.763 614.5,365C 611.527,366.765 609.36,369.265 608,372.5C 607.5,388.163 607.333,403.83 607.5,419.5C 603.486,419.666 599.486,419.499 595.5,419C 594.667,418.167 593.833,417.333 593,416.5C 592.667,401.833 592.333,387.167 592,372.5C 587.949,364.626 581.782,362.459 573.5,366C 571.641,367.558 570.141,369.391 569,371.5C 568.5,387.83 568.333,404.163 568.5,420.5C 562.961,421.362 558.128,420.028 554,416.5C 553.667,398.5 553.333,380.5 553,362.5C 552.55,360.481 551.717,358.648 550.5,357C 554.63,356.328 558.63,356.828 562.5,358.5C 565.703,357.394 568.703,356.061 571.5,354.5 Z"/></g>
<g><path style="opacity:1" fill="#bebebf" d="M 741.5,354.5 C 746.179,354.334 750.845,354.501 755.5,355C 760.924,357.017 762.758,360.85 761,366.5C 756.82,363.998 752.32,363.164 747.5,364C 745,365.167 743.167,367 742,369.5C 741.5,386.163 741.333,402.83 741.5,419.5C 737.486,419.666 733.486,419.499 729.5,419C 728.692,418.692 728.025,418.192 727.5,417.5C 726.349,401.878 726.183,386.211 727,370.5C 728.919,362.419 733.753,357.085 741.5,354.5 Z"/></g>
<g><path style="opacity:1" fill="#c1c1c1" d="M 917.5,380.5 C 922.5,380.5 927.5,380.5 932.5,380.5C 932.813,376.958 932.479,373.625 931.5,370.5C 930.405,367.265 928.072,365.432 924.5,365C 919.833,364.333 915.167,364.333 910.5,365C 906.896,366.154 903.229,366.987 899.5,367.5C 900.905,360.26 905.238,355.76 912.5,354C 918.5,353.333 924.5,353.333 930.5,354C 938.903,355.099 944.403,359.599 947,367.5C 947.333,382.167 947.667,396.833 948,411.5C 948.813,413.436 949.313,415.436 949.5,417.5C 946.138,417.93 943.305,416.93 941,414.5C 937.795,416.686 934.295,418.186 930.5,419C 921.658,420.126 912.992,419.459 904.5,417C 893.9,409.854 891.733,400.687 898,389.5C 903.191,383.712 909.691,380.712 917.5,380.5 Z"/></g>
<g><path style="opacity:1" fill="#06060d" d="M 321.5,368.5 C 327.176,368.334 332.843,368.501 338.5,369C 344.08,374.486 343.747,379.486 337.5,384C 332.177,384.499 326.844,384.666 321.5,384.5C 321.5,379.167 321.5,373.833 321.5,368.5 Z"/></g>
<g><path style="opacity:1" fill="#74757a" d="M 522.5,370.5 C 523.479,373.625 523.813,376.958 523.5,380.5C 518.5,380.5 513.5,380.5 508.5,380.5C 512.97,379.514 517.637,379.181 522.5,379.5C 522.5,376.5 522.5,373.5 522.5,370.5 Z"/></g>
<g><path style="opacity:1" fill="#75767a" d="M 931.5,370.5 C 932.479,373.625 932.813,376.958 932.5,380.5C 927.5,380.5 922.5,380.5 917.5,380.5C 921.97,379.514 926.637,379.181 931.5,379.5C 931.5,376.5 931.5,373.5 931.5,370.5 Z"/></g>
<g><path style="opacity:1" fill="#c4c4c5" d="M 448.5,380.5 C 453.833,380.5 459.167,380.5 464.5,380.5C 464.5,385.833 464.5,391.167 464.5,396.5C 459.167,396.5 453.833,396.5 448.5,396.5C 448.5,391.167 448.5,385.833 448.5,380.5 Z"/></g>
<g><path style="opacity:1" fill="#05050d" d="M 510.5,388.5 C 514.833,388.5 519.167,388.5 523.5,388.5C 524.081,395.061 523.248,401.395 521,407.5C 518.521,409.917 515.521,410.917 512,410.5C 502.317,409.438 498.984,404.105 502,394.5C 504.322,391.605 507.155,389.605 510.5,388.5 Z"/></g>
<g><path style="opacity:1" fill="#08080f" d="M 683.5,388.5 C 687.833,388.5 692.167,388.5 696.5,388.5C 697.081,395.061 696.248,401.395 694,407.5C 691.521,409.917 688.521,410.917 685,410.5C 677.474,410.809 673.641,407.143 673.5,399.5C 674.515,393.672 677.848,390.006 683.5,388.5 Z"/></g>
<g><path style="opacity:1" fill="#05050d" d="M 919.5,388.5 C 923.833,388.5 928.167,388.5 932.5,388.5C 933.081,395.061 932.248,401.395 930,407.5C 927.521,409.917 924.521,410.917 921,410.5C 913.833,410.667 910.333,407.167 910.5,400C 910.684,393.981 913.684,390.147 919.5,388.5 Z"/></g>
<g><path style="opacity:1" fill="#87c33e" d="M 1103.5,472.5 C 1101.36,474.369 1098.7,475.036 1095.5,474.5C 1094.16,472.965 1092.49,471.632 1090.5,470.5C 933.973,471.832 777.306,472.499 620.5,472.5C 464.167,472.167 307.833,471.833 151.5,471.5C 147.5,470.167 147.5,468.833 151.5,467.5C 150.675,466.614 149.675,466.281 148.5,466.5C 181.542,448.163 214.876,430.163 248.5,412.5C 249.521,413.002 249.688,413.668 249,414.5C 244.254,419.679 239.754,425.012 235.5,430.5C 232.46,433.539 229.794,436.873 227.5,440.5C 227.167,440.5 226.833,440.5 226.5,440.5C 225.046,441.52 224.713,442.687 225.5,444C 488.834,444.833 752.167,444.667 1015.5,443.5C 1015.14,442.478 1014.48,441.811 1013.5,441.5C 1013.5,441.167 1013.5,440.833 1013.5,440.5C 1012.5,438.833 1011.17,437.5 1009.5,436.5C 1003.27,428.098 996.441,420.098 989,412.5C 988.333,411.833 988.333,411.167 989,410.5C 1027.02,431.59 1065.18,452.256 1103.5,472.5 Z"/></g>
<g><path style="opacity:1" fill="#000105" d="M 235.5,430.5 C 237.176,431.183 237.843,432.517 237.5,434.5C 490.834,434.167 744.168,434.5 997.5,435.5C 743.598,436.833 489.765,436.833 236,435.5C 235.075,436.047 234.242,436.713 233.5,437.5C 362.833,437.833 492.167,438.167 621.5,438.5C 751.168,438.5 880.502,437.833 1009.5,436.5C 1011.17,437.5 1012.5,438.833 1013.5,440.5C 751.678,440.503 489.678,440.503 227.5,440.5C 229.794,436.873 232.46,433.539 235.5,430.5 Z"/></g>
<g><path style="opacity:1" fill="#01000f" d="M 226.5,440.5 C 226.833,440.5 227.167,440.5 227.5,440.5C 489.678,440.503 751.678,440.503 1013.5,440.5C 1013.5,440.833 1013.5,441.167 1013.5,441.5C 882.5,442.167 751.334,442.5 620,442.5C 488.498,442.5 357.332,441.833 226.5,440.5 Z"/></g>
<g><path style="opacity:1" fill="#212c1c" d="M 226.5,440.5 C 357.332,441.833 488.498,442.5 620,442.5C 751.334,442.5 882.5,442.167 1013.5,441.5C 1014.48,441.811 1015.14,442.478 1015.5,443.5C 752.167,444.667 488.834,444.833 225.5,444C 224.713,442.687 225.046,441.52 226.5,440.5 Z"/></g>
<g><path style="opacity:1" fill="#86c539" d="M 148.5,466.5 C 149.675,466.281 150.675,466.614 151.5,467.5C 147.5,468.833 147.5,470.167 151.5,471.5C 307.833,471.833 464.167,472.167 620.5,472.5C 777.306,472.499 933.973,471.832 1090.5,470.5C 1092.49,471.632 1094.16,472.965 1095.5,474.5C 775.498,475.166 455.832,474.499 136.5,472.5C 140.292,470.032 144.292,468.032 148.5,466.5 Z"/></g>
<g><path style="opacity:0.973" fill="#9cd9e9" d="M 1187.5,462.5 C 1191.78,464.64 1196.11,466.807 1200.5,469C 1201.98,470.756 1201.65,471.923 1199.5,472.5C 1199.28,471.265 1198.61,470.265 1197.5,469.5C 1193.36,468.116 1190.03,465.782 1187.5,462.5 Z"/></g>
<g><path style="opacity:1" fill="#8dbc56" d="M 136.5,472.5 C 455.832,474.499 775.498,475.166 1095.5,474.5C 1098.7,475.036 1101.36,474.369 1103.5,472.5C 1104.6,473.6 1105.94,474.267 1107.5,474.5C 782.5,475.833 457.5,475.833 132.5,474.5C 133.833,473.833 135.167,473.167 136.5,472.5 Z"/></g>
<g><path style="opacity:1" fill="#4f7d18" d="M 132.5,474.5 C 457.5,475.833 782.5,475.833 1107.5,474.5C 1108.29,474.783 1108.96,475.283 1109.5,476C 783.167,476.667 456.833,476.667 130.5,476C 131.044,475.283 131.711,474.783 132.5,474.5 Z"/></g>
<g><path style="opacity:0.141" fill="#d7f5fa" d="M 1199.5,472.5 C 1197.83,476.167 1195.17,478.833 1191.5,480.5C 1193.83,477.5 1196.5,474.833 1199.5,472.5 Z"/></g>
<g><path style="opacity:0.122" fill="#e0f9fb" d="M 1189.5,482.5 C 1181.76,491.746 1173.43,500.579 1164.5,509C 1163.91,509.464 1163.24,509.631 1162.5,509.5C 1171.17,500.167 1180.17,491.167 1189.5,482.5 Z"/></g>
<g><path style="opacity:1" fill="#fdfdfd" d="M 150.5,510.5 C 167.659,509.503 184.992,509.17 202.5,509.5C 202.5,538.167 202.5,566.833 202.5,595.5C 208.884,595.757 215.218,596.423 221.5,597.5C 221.5,568.167 221.5,538.833 221.5,509.5C 233.833,509.5 246.167,509.5 258.5,509.5C 258.5,583.167 258.5,656.833 258.5,730.5C 246.208,727.344 233.875,724.344 221.5,721.5C 221.5,691.833 221.5,662.167 221.5,632.5C 210.092,631.158 198.758,629.658 187.5,628C 192.7,632.865 197.533,638.032 202,643.5C 202.833,667.507 202.666,691.507 201.5,715.5C 189.608,711.424 177.608,707.758 165.5,704.5C 165.667,644.166 165.5,583.832 165,523.5C 160.418,518.808 155.584,514.474 150.5,510.5 Z"/></g>
<g><path style="opacity:1" fill="#fcfcfc" d="M 372.5,526.5 C 373.164,602.841 372.497,678.841 370.5,754.5C 358.803,752.659 347.137,750.659 335.5,748.5C 335.667,719.831 335.5,691.165 335,662.5C 329.332,655.335 323.499,648.335 317.5,641.5C 317.44,640.957 317.107,640.624 316.5,640.5C 316.163,675.176 315.163,709.51 313.5,743.5C 301.856,741.405 290.356,738.738 279,735.5C 278.667,665.167 278.333,594.833 278,524.5C 273.133,519.968 268.633,515.134 264.5,510C 295.5,509.333 326.5,509.333 357.5,510C 362.4,515.668 367.4,521.168 372.5,526.5 Z"/></g>
<g><path style="opacity:1" fill="#fcfcfd" d="M 466.5,608.5 C 466.987,609.473 467.487,610.473 468,611.5C 468.5,577.502 468.667,543.502 468.5,509.5C 480.833,509.5 493.167,509.5 505.5,509.5C 505.5,596.833 505.5,684.167 505.5,771.5C 493.146,770.737 480.813,769.737 468.5,768.5C 468.667,749.497 468.5,730.497 468,711.5C 455.813,677.135 443.646,642.802 431.5,608.5C 431.44,607.957 431.107,607.624 430.5,607.5C 429.5,659.496 429.167,711.496 429.5,763.5C 417.414,762.392 405.414,760.726 393.5,758.5C 392.667,681.169 392.167,603.835 392,526.5C 387.167,521 382.333,515.5 377.5,510C 395.176,509.167 412.843,509.334 430.5,510.5C 442.704,543.113 454.704,575.78 466.5,608.5 Z"/></g>
<g><path style="opacity:1" fill="#fbfbfb" d="M 619.5,509.5 C 619.832,547.004 619.498,584.337 618.5,621.5C 606.675,607.197 594.841,592.864 583,578.5C 582.5,570.507 582.334,562.507 582.5,554.5C 576.167,554.5 569.833,554.5 563.5,554.5C 558.456,554.173 553.456,554.506 548.5,555.5C 548.624,556.107 548.957,556.44 549.5,556.5C 554.107,559.768 558.441,563.435 562.5,567.5C 563.5,621.496 563.833,675.496 563.5,729.5C 569.833,729.5 576.167,729.5 582.5,729.5C 582.667,712.83 582.5,696.163 582,679.5C 578.761,676.017 575.761,672.35 573,668.5C 572.333,651.167 572.333,633.833 573,616.5C 588,634.5 603,652.5 618,670.5C 619.487,705.413 619.987,740.413 619.5,775.5C 593.498,775.182 567.498,774.682 541.5,774C 536.333,767.5 531.167,761 526,754.5C 525.667,678.833 525.333,603.167 525,527.5C 520.524,521.39 515.691,515.557 510.5,510C 546.832,509.5 583.165,509.333 619.5,509.5 Z"/></g>
<g><path style="opacity:1" fill="#1a1b22" d="M 619.5,509.5 C 620.83,547.002 620.83,584.669 619.5,622.5C 618.893,622.376 618.56,622.043 618.5,621.5C 619.498,584.337 619.832,547.004 619.5,509.5 Z"/></g>
<g><path style="opacity:1" fill="#fefefe" d="M 712.5,553.5 C 705.137,553.169 697.803,553.503 690.5,554.5C 690.624,555.107 690.957,555.44 691.5,555.5C 695.988,558.921 700.321,562.588 704.5,566.5C 705.5,635.163 705.833,703.83 705.5,772.5C 695.822,772.575 686.156,772.908 676.5,773.5C 673.833,773.5 671.167,773.5 668.5,773.5C 668.833,700.331 668.499,627.331 667.5,554.5C 658.167,554.5 648.833,554.5 639.5,554.5C 639.666,545.494 639.5,536.494 639,527.5C 634.047,521.759 629.214,515.926 624.5,510C 660.832,509.5 697.165,509.333 733.5,509.5C 733.5,524.167 733.5,538.833 733.5,553.5C 726.5,553.5 719.5,553.5 712.5,553.5 Z"/></g>
<g><path style="opacity:1" fill="#fbfbfb" d="M 738.5,510.5 C 755.659,509.503 772.992,509.17 790.5,509.5C 790.5,579.833 790.5,650.167 790.5,720.5C 796.844,719.888 803.177,719.221 809.5,718.5C 809.5,648.833 809.5,579.167 809.5,509.5C 822.167,509.5 834.833,509.5 847.5,509.5C 847.667,585.834 847.5,662.167 847,738.5C 841.833,745 836.667,751.5 831.5,758C 811.276,760.414 791.109,763.248 771,766.5C 770.167,766.333 769.333,766.167 768.5,766C 764.033,760.532 759.2,755.365 754,750.5C 753.667,676.167 753.333,601.833 753,527.5C 748.623,521.39 743.789,515.723 738.5,510.5 Z"/></g>
<g><path style="opacity:1" fill="#fdfdfd" d="M 926.5,739.5 C 924.836,712.349 923.836,685.015 923.5,657.5C 918.13,652.128 912.463,647.128 906.5,642.5C 906.217,641.711 905.717,641.044 905,640.5C 904.5,675.165 904.333,709.832 904.5,744.5C 892.346,747.099 880.013,749.433 867.5,751.5C 867.667,676.499 867.5,601.499 867,526.5C 862.167,521 857.333,515.5 852.5,510C 883.833,509.333 915.167,509.333 946.5,510C 951.376,514.708 956.043,519.541 960.5,524.5C 961.667,593.498 961.833,662.498 961,731.5C 949.641,734.715 938.141,737.381 926.5,739.5 Z"/></g>
<g><path style="opacity:1" fill="#fcfcfc" d="M 1018.5,509.5 C 1018.5,538.167 1018.5,566.833 1018.5,595.5C 1019.79,595.737 1020.79,595.404 1021.5,594.5C 1026.82,594.02 1032.16,593.687 1037.5,593.5C 1037.5,565.5 1037.5,537.5 1037.5,509.5C 1054.5,509.333 1071.5,509.5 1088.5,510C 1084.33,514.167 1080.17,518.333 1076,522.5C 1075.5,581.499 1075.33,640.499 1075.5,699.5C 1063.42,702.52 1051.42,705.854 1039.5,709.5C 1038.5,682.005 1038.17,654.338 1038.5,626.5C 1036.9,626.232 1035.57,626.566 1034.5,627.5C 1024.14,629.116 1013.81,630.949 1003.5,633C 1008.33,636.5 1013.17,640 1018,643.5C 1018.5,667.831 1018.67,692.164 1018.5,716.5C 1006.81,719.34 995.141,722.34 983.5,725.5C 981.834,658.673 980.834,591.673 980.5,524.5C 976.037,519.535 971.37,514.702 966.5,510C 983.83,509.5 1001.16,509.333 1018.5,509.5 Z"/></g>
<g><path style="opacity:1" fill="#28272d" d="M 1018.5,509.5 C 1018.84,538.015 1019.84,566.348 1021.5,594.5C 1020.79,595.404 1019.79,595.737 1018.5,595.5C 1018.5,566.833 1018.5,538.167 1018.5,509.5 Z"/></g>
<g><path style="opacity:1" fill="#343338" d="M 468.5,509.5 C 468.667,543.502 468.5,577.502 468,611.5C 467.487,610.473 466.987,609.473 466.5,608.5C 467.167,575.5 467.833,542.5 468.5,509.5 Z"/></g>
<g><path style="opacity:0.09" fill="#e8fcfd" d="M 1157.5,514.5 C 1155.83,518.167 1153.17,520.833 1149.5,522.5C 1151.83,519.5 1154.5,516.833 1157.5,514.5 Z"/></g>
<g><path style="opacity:1" fill="#3d3e43" d="M 980.5,524.5 C 980.834,591.673 981.834,658.673 983.5,725.5C 982.791,726.404 981.791,726.737 980.5,726.5C 980.5,659.167 980.5,591.833 980.5,524.5 Z"/></g>
<g><path style="opacity:1" fill="#4b4a4f" d="M 372.5,526.5 C 373.499,602.665 373.833,678.998 373.5,755.5C 372.209,755.737 371.209,755.404 370.5,754.5C 372.497,678.841 373.164,602.841 372.5,526.5 Z"/></g>
<g><path style="opacity:0.147" fill="#bcf5fe" d="M 1128.5,543.5 C 1127.84,609.627 1127.17,675.627 1126.5,741.5C 1126.33,675.832 1126.5,610.166 1127,544.5C 1127.38,543.944 1127.88,543.611 1128.5,543.5 Z"/></g>
<g><path style="opacity:1" fill="#04040c" d="M 906.5,549.5 C 912.167,549.5 917.833,549.5 923.5,549.5C 923.83,570.007 923.497,590.34 922.5,610.5C 916.562,605.064 910.729,599.397 905,593.5C 904.667,583.167 904.333,572.833 904,562.5C 899.167,558.333 894.333,554.167 889.5,550C 895.157,549.501 900.824,549.334 906.5,549.5 Z"/></g>
<g><path style="opacity:1" fill="#919193" d="M 906.5,549.5 C 912.31,548.51 918.31,548.177 924.5,548.5C 924.833,569.511 924.5,590.511 923.5,611.5C 922.893,611.376 922.56,611.043 922.5,610.5C 923.497,590.34 923.83,570.007 923.5,549.5C 917.833,549.5 912.167,549.5 906.5,549.5 Z"/></g>
<g><path style="opacity:1" fill="#03030b" d="M 302.5,550.5 C 313.321,549.505 324.321,549.172 335.5,549.5C 335.667,571.169 335.5,592.836 335,614.5C 329,607.833 323,601.167 317,594.5C 316.667,583.833 316.333,573.167 316,562.5C 311.331,558.663 306.831,554.663 302.5,550.5 Z"/></g>
<g><path style="opacity:1" fill="#8e8e90" d="M 712.5,553.5 C 705.5,554.167 698.5,554.833 691.5,555.5C 690.957,555.44 690.624,555.107 690.5,554.5C 697.803,553.503 705.137,553.169 712.5,553.5 Z"/></g>
<g><path style="opacity:1" fill="#44444a" d="M 563.5,554.5 C 558.833,555.167 554.167,555.833 549.5,556.5C 548.957,556.44 548.624,556.107 548.5,555.5C 553.456,554.506 558.456,554.173 563.5,554.5 Z"/></g>
<g><path style="opacity:1" fill="#676769" d="M 667.5,554.5 C 668.499,627.331 668.833,700.331 668.5,773.5C 671.167,773.5 673.833,773.5 676.5,773.5C 673.713,774.477 670.713,774.81 667.5,774.5C 667.5,701.167 667.5,627.833 667.5,554.5 Z"/></g>
<g><path style="opacity:1" fill="#c5c5c5" d="M 171.5,595.5 C 198.209,602.886 225.042,609.886 252,616.5C 252.5,651.832 252.667,687.165 252.5,722.5C 244.167,720.5 235.833,718.5 227.5,716.5C 227.5,686.833 227.5,657.167 227.5,627.5C 208.845,624.74 190.178,622.073 171.5,619.5C 171.5,611.5 171.5,603.5 171.5,595.5 Z"/></g>
<g><path style="opacity:1" fill="#c6c6c6" d="M 1067.5,595.5 C 1068.83,611.653 1069.5,628.153 1069.5,645C 1069.17,661.5 1068.83,678 1068.5,694.5C 1060.78,696.629 1053.11,698.963 1045.5,701.5C 1044.5,674.175 1044.17,646.841 1044.5,619.5C 1025.48,622.392 1006.48,625.392 987.5,628.5C 986.989,624.97 987.656,621.804 989.5,619C 1016.04,612.602 1042.04,604.768 1067.5,595.5 Z"/></g>
<g><path style="opacity:1" fill="#abacaf" d="M 431.5,608.5 C 430.833,660.167 430.167,711.833 429.5,763.5C 429.167,711.496 429.5,659.496 430.5,607.5C 431.107,607.624 431.44,607.957 431.5,608.5 Z"/></g>
<g><path style="opacity:1" fill="#c5c5c5" d="M 171.5,621.5 C 179.437,629.938 187.604,638.272 196,646.5C 196.5,666.497 196.667,686.497 196.5,706.5C 188.401,704.579 180.401,702.246 172.5,699.5C 171.5,673.509 171.167,647.509 171.5,621.5 Z"/></g>
<g><path style="opacity:1" fill="#c5c5c5" d="M 309.5,628.5 C 309.5,664.167 309.5,699.833 309.5,735.5C 308.5,735.5 307.5,735.5 306.5,735.5C 299.587,733.752 292.587,732.419 285.5,731.5C 285.5,695.833 285.5,660.167 285.5,624.5C 293.514,625.836 301.514,627.169 309.5,628.5 Z"/></g>
<g><path style="opacity:1" fill="#c7c7c7" d="M 1034.5,627.5 C 1035.57,626.566 1036.9,626.232 1038.5,626.5C 1038.17,654.338 1038.5,682.005 1039.5,709.5C 1039.44,710.043 1039.11,710.376 1038.5,710.5C 1037.5,682.841 1037.17,655.175 1037.5,627.5C 1036.5,627.5 1035.5,627.5 1034.5,627.5 Z"/></g>
<g><path style="opacity:1" fill="#c6c6c6" d="M 952.5,627.5 C 953.5,627.5 954.5,627.5 955.5,627.5C 955.667,660.502 955.5,693.502 955,726.5C 947.004,728.884 938.838,730.551 930.5,731.5C 930.667,706.164 930.5,680.831 930,655.5C 923.802,648.968 917.302,642.801 910.5,637C 924.797,634.511 938.797,631.344 952.5,627.5 Z"/></g>
<g><path style="opacity:1" fill="#dddddd" d="M 309.5,628.5 C 310.498,664.329 310.832,700.329 310.5,736.5C 308.901,736.768 307.568,736.434 306.5,735.5C 307.5,735.5 308.5,735.5 309.5,735.5C 309.5,699.833 309.5,664.167 309.5,628.5 Z"/></g>
<g><path style="opacity:1" fill="#c5c5c5" d="M 316.5,631.5 C 316.56,630.957 316.893,630.624 317.5,630.5C 333.728,634.038 350.061,637.038 366.5,639.5C 366.5,675.5 366.5,711.5 366.5,747.5C 358.195,746.007 349.861,744.674 341.5,743.5C 341.667,715.831 341.5,688.165 341,660.5C 333.344,650.349 325.178,640.682 316.5,631.5 Z"/></g>
<g><path style="opacity:1" fill="#c5c5c5" d="M 987.5,633.5 C 995.899,638.787 1004.07,644.454 1012,650.5C 1012.5,670.831 1012.67,691.164 1012.5,711.5C 1004.2,713.658 995.868,715.658 987.5,717.5C 987.5,689.5 987.5,661.5 987.5,633.5 Z"/></g>
<g><path style="opacity:1" fill="#c5c5c5" d="M 893.5,639.5 C 895.167,639.5 896.833,639.5 898.5,639.5C 898.5,672.833 898.5,706.167 898.5,739.5C 890.267,741.372 881.933,742.705 873.5,743.5C 873.167,710.16 873.5,676.827 874.5,643.5C 880.993,642.342 887.326,641.009 893.5,639.5 Z"/></g>
<g><path style="opacity:1" fill="#bdbdbf" d="M 317.5,641.5 C 316.502,675.663 316.168,709.996 316.5,744.5C 315.209,744.737 314.209,744.404 313.5,743.5C 315.163,709.51 316.163,675.176 316.5,640.5C 317.107,640.624 317.44,640.957 317.5,641.5 Z"/></g>
<g><path style="opacity:1" fill="#3b3a40" d="M 906.5,642.5 C 905.833,676.5 905.167,710.5 904.5,744.5C 904.333,709.832 904.5,675.165 905,640.5C 905.717,641.044 906.217,641.711 906.5,642.5 Z"/></g>
<g><path style="opacity:1" fill="#c5c5c5" d="M 421.5,647.5 C 423.484,683.612 424.15,719.945 423.5,756.5C 415.5,755.5 407.5,754.5 399.5,753.5C 399.167,717.161 399.5,680.827 400.5,644.5C 407.415,646.041 414.415,647.041 421.5,647.5 Z"/></g>
<g><path style="opacity:1" fill="#e1e1e1" d="M 421.5,647.5 C 422.5,647.5 423.5,647.5 424.5,647.5C 424.832,684.004 424.498,720.337 423.5,756.5C 424.15,719.945 423.484,683.612 421.5,647.5 Z"/></g>
<g><path style="opacity:1" fill="#c5c5c5" d="M 835.5,648.5 C 837.5,648.5 839.5,648.5 841.5,648.5C 841.667,677.835 841.5,707.169 841,736.5C 836.713,741.575 832.547,746.742 828.5,752C 809.186,754.849 789.853,757.183 770.5,759C 767.369,754.867 763.869,751.034 760,747.5C 759.5,717.502 759.333,687.502 759.5,657.5C 767.795,656.393 776.128,655.727 784.5,655.5C 784.5,679.5 784.5,703.5 784.5,727.5C 795.175,726.497 805.842,725.497 816.5,724.5C 816.5,700.167 816.5,675.833 816.5,651.5C 823.078,651.236 829.411,650.236 835.5,648.5 Z"/></g>
<g><path style="opacity:1" fill="#c5c5c5" d="M 453.5,651.5 C 468.784,653.362 484.117,654.695 499.5,655.5C 499.5,691.833 499.5,728.167 499.5,764.5C 491.124,764.296 482.79,763.629 474.5,762.5C 474.667,744.497 474.5,726.497 474,708.5C 466.864,689.591 460.031,670.591 453.5,651.5 Z"/></g>
<g><path style="opacity:1" fill="#c5c5c5" d="M 532.5,659.5 C 540.5,659.5 548.5,659.5 556.5,659.5C 556.5,685.167 556.5,710.833 556.5,736.5C 567.167,736.5 577.833,736.5 588.5,736.5C 588.667,716.831 588.5,697.164 588,677.5C 585,673.833 582,670.167 579,666.5C 578.506,664.866 578.34,663.199 578.5,661.5C 586.507,661.334 594.507,661.5 602.5,662C 606,666.167 609.5,670.333 613,674.5C 613.5,705.832 613.667,737.165 613.5,768.5C 590.465,768.924 567.465,768.424 544.5,767C 541,762.833 537.5,758.667 534,754.5C 532.515,722.921 532.015,691.254 532.5,659.5 Z"/></g>
<g><path style="opacity:1" fill="#9b9b9d" d="M 923.5,657.5 C 923.836,685.015 924.836,712.349 926.5,739.5C 925.791,740.404 924.791,740.737 923.5,740.5C 923.5,712.833 923.5,685.167 923.5,657.5 Z"/></g>
<g><path style="opacity:1" fill="#c5c5c5" d="M 674.5,661.5 C 682.833,661.5 691.167,661.5 699.5,661.5C 699.5,696.5 699.5,731.5 699.5,766.5C 691.146,766.427 682.812,766.76 674.5,767.5C 674.5,732.167 674.5,696.833 674.5,661.5 Z"/></g>
<g><path style="opacity:0.012" fill="#e0f9fb" d="M 1126.5,741.5 C 1121.92,744.14 1116.92,745.806 1111.5,746.5C 1116.2,744.265 1121.2,742.598 1126.5,741.5 Z"/></g>
<g><path style="opacity:0.012" fill="#def8fa" d="M 1111.5,746.5 C 1107.5,748.61 1103.16,749.943 1098.5,750.5C 1102.49,748.394 1106.82,747.061 1111.5,746.5 Z"/></g>
<g><path style="opacity:0.031" fill="#e2f9fb" d="M 1098.5,750.5 C 1094.51,752.606 1090.18,753.939 1085.5,754.5C 1089.49,752.394 1093.82,751.061 1098.5,750.5 Z"/></g>
<g><path style="opacity:0.024" fill="#ddfafc" d="M 1085.5,754.5 C 1083.49,755.924 1081.15,756.59 1078.5,756.5C 1080.51,755.076 1082.85,754.41 1085.5,754.5 Z"/></g>
<g><path style="opacity:0.078" fill="#d7f7fa" d="M 1078.5,756.5 C 1069.83,759.944 1060.83,762.61 1051.5,764.5C 1060.16,761.06 1069.16,758.394 1078.5,756.5 Z"/></g>
<g><path style="opacity:0.004" fill="#d8f6f9" d="M 202.5,768.5 C 207.54,768.85 212.206,770.184 216.5,772.5C 211.562,771.769 206.895,770.435 202.5,768.5 Z"/></g>
<g><path style="opacity:0.063" fill="#dbf9fb" d="M 1044.5,766.5 C 1035.14,769.947 1025.48,772.614 1015.5,774.5C 1024.85,771.076 1034.52,768.409 1044.5,766.5 Z"/></g>
<g><path style="opacity:1" fill="#95539f" d="M 291.5,774.5 C 307.902,777.97 324.236,781.637 340.5,785.5C 404.843,910.676 498.01,1008.34 620,1078.5C 722.155,1019.35 805.155,940.015 869,840.5C 879.082,823.338 888.916,806.005 898.5,788.5C 914.538,784.814 930.538,781.814 946.5,779.5C 874.618,929.378 765.618,1043.71 619.5,1122.5C 487.398,1050.57 384.898,948.566 312,816.5C 304.883,802.601 298.05,788.601 291.5,774.5 Z"/></g>
<g><path style="opacity:0.125" fill="#ddf8fa" d="M 1015.5,774.5 C 1009.9,776.478 1004.24,778.478 998.5,780.5C 998.414,779.504 998.748,778.671 999.5,778C 1004.78,776.511 1010.12,775.344 1015.5,774.5 Z"/></g>
<g><path style="opacity:0.976" fill="#9edbee" d="M 243.5,784.5 C 247.618,790.721 251.285,797.388 254.5,804.5C 255.466,806.396 255.799,808.396 255.5,810.5C 250.936,802.165 246.936,793.499 243.5,784.5 Z"/></g>
<g><path style="opacity:1" fill="#a83b23" d="M 527.5,858.5 C 523.581,861.075 519.915,864.075 516.5,867.5C 509.992,873.666 504.658,880.666 500.5,888.5C 491.394,877.3 484.061,864.966 478.5,851.5C 480.14,835.309 483.806,819.643 489.5,804.5C 495.643,805.999 501.976,806.666 508.5,806.5C 509.068,815.437 510.901,824.104 514,832.5C 518.275,841.386 522.775,850.053 527.5,858.5 Z"/></g>
<g><path style="opacity:1" fill="#a93b22" d="M 585.5,810.5 C 585.611,811.117 585.944,811.617 586.5,812C 596.161,812.5 605.828,812.666 615.5,812.5C 615.5,816.167 615.5,819.833 615.5,823.5C 588.587,824.415 563.754,832.082 541,846.5C 539.225,847.77 538.058,849.436 537.5,851.5C 526.716,838.604 519.049,823.937 514.5,807.5C 518.188,806.38 521.854,806.547 525.5,808C 545.505,808.834 565.505,809.667 585.5,810.5 Z"/></g>
<g><path style="opacity:1" fill="#a83b23" d="M 740.5,890.5 C 740.762,889.022 740.429,887.689 739.5,886.5C 732.175,875.844 723.508,866.511 713.5,858.5C 724.597,843.634 731.264,826.968 733.5,808.5C 740.2,808.17 746.866,808.503 753.5,809.5C 759.359,823.936 762.526,838.936 763,854.5C 756.033,866.939 748.533,878.939 740.5,890.5 Z"/></g>
<g><path style="opacity:1" fill="#6b322b" d="M 725.5,812.5 C 719.25,810.541 712.584,809.874 705.5,810.5C 712.317,809.435 719.317,808.768 726.5,808.5C 726.768,810.099 726.434,811.432 725.5,812.5 Z"/></g>
<g><path style="opacity:0.999" fill="#56c6e9" d="M 271.5,812.5 C 350.516,965.35 466.683,1081.02 620,1159.5C 767.922,1083.41 881.755,972.411 961.5,826.5C 962.735,826.721 963.735,827.388 964.5,828.5C 965.167,827.833 965.833,827.167 966.5,826.5C 968.132,829.146 970.465,830.479 973.5,830.5C 973.5,829.167 973.5,827.833 973.5,826.5C 974.5,826.5 975.5,826.5 976.5,826.5C 947.582,885.041 911.249,938.375 867.5,986.5C 865.738,987.262 864.738,988.596 864.5,990.5C 815.396,1045.97 759.73,1093.3 697.5,1132.5C 693.551,1133.47 690.218,1135.47 687.5,1138.5C 674.838,1147.5 661.504,1155.5 647.5,1162.5C 643.388,1163.72 639.721,1165.72 636.5,1168.5C 633.322,1171.26 629.655,1173.26 625.5,1174.5C 622.994,1175.75 620.327,1176.42 617.5,1176.5C 477.106,1104.35 365.939,1000.68 284,865.5C 273.454,847.741 263.954,829.408 255.5,810.5C 256.735,810.721 257.735,811.388 258.5,812.5C 259.833,809.833 261.167,809.833 262.5,812.5C 263.833,811.167 265.167,809.833 266.5,808.5C 267.917,810.261 269.583,811.594 271.5,812.5 Z"/></g>
<g><path style="opacity:1" fill="#a83c23" d="M 705.5,810.5 C 712.584,809.874 719.25,810.541 725.5,812.5C 724.127,817.583 722.46,822.583 720.5,827.5C 715.896,835.766 710.896,843.766 705.5,851.5C 705.043,852.298 704.376,852.631 703.5,852.5C 702.41,850.563 701.076,848.73 699.5,847C 677.232,833.078 652.899,825.245 626.5,823.5C 626.5,824.5 626.5,825.5 626.5,826.5C 626.167,826.5 625.833,826.5 625.5,826.5C 625.5,821.5 625.5,816.5 625.5,811.5C 652.169,811.288 678.835,810.954 705.5,810.5 Z"/></g>
<g><path style="opacity:1" fill="#7b3527" d="M 585.5,810.5 C 595.833,810.5 606.167,810.5 616.5,810.5C 616.825,818.019 616.492,825.352 615.5,832.5C 615.5,829.5 615.5,826.5 615.5,823.5C 615.5,819.833 615.5,816.167 615.5,812.5C 605.828,812.666 596.161,812.5 586.5,812C 585.944,811.617 585.611,811.117 585.5,810.5 Z"/></g>
<g><path style="opacity:0.998" fill="#9fdcef" d="M 998.5,780.5 C 993.228,794.377 986.894,807.71 979.5,820.5C 979.201,818.396 979.534,816.396 980.5,814.5C 986.051,802.722 992.051,791.389 998.5,780.5 Z"/></g>
<g><path style="opacity:1" fill="#d65d28" d="M 615.5,823.5 C 615.5,826.5 615.5,829.5 615.5,832.5C 615.5,841.833 615.5,851.167 615.5,860.5C 614.569,878.999 613.902,897.665 613.5,916.5C 613.5,920.5 613.5,924.5 613.5,928.5C 612.517,932.298 612.183,936.298 612.5,940.5C 607.167,940.5 601.833,940.5 596.5,940.5C 593.463,928.749 588.463,917.749 581.5,907.5C 566.81,888.815 552.143,870.148 537.5,851.5C 538.058,849.436 539.225,847.77 541,846.5C 563.754,832.082 588.587,824.415 615.5,823.5 Z"/></g>
<g><path style="opacity:1" fill="#d65d28" d="M 703.5,852.5 C 689.239,871.272 674.739,889.939 660,908.5C 653.151,918.199 648.484,928.866 646,940.5C 640.633,941.93 635.133,942.597 629.5,942.5C 629.904,925.633 629.237,908.966 627.5,892.5C 627.5,881.833 627.5,871.167 627.5,860.5C 627.69,849.143 627.356,837.81 626.5,826.5C 626.5,825.5 626.5,824.5 626.5,823.5C 652.899,825.245 677.232,833.078 699.5,847C 701.076,848.73 702.41,850.563 703.5,852.5 Z"/></g>
<g><path style="opacity:1" fill="#8a452d" d="M 625.5,826.5 C 625.833,826.5 626.167,826.5 626.5,826.5C 627.356,837.81 627.69,849.143 627.5,860.5C 626.251,849.354 625.584,838.02 625.5,826.5 Z"/></g>
<g><path style="opacity:1" fill="#d45c28" d="M 527.5,858.5 C 540.036,874.558 552.869,890.558 566,906.5C 570.741,913.578 575.074,920.912 579,928.5C 580.143,931.777 580.977,935.11 581.5,938.5C 547.909,932.587 520.909,915.921 500.5,888.5C 504.658,880.666 509.992,873.666 516.5,867.5C 519.915,864.075 523.581,861.075 527.5,858.5 Z"/></g>
<g><path style="opacity:1" fill="#773b2e" d="M 480.5,866.5 C 479.527,868.948 479.194,871.615 479.5,874.5C 478.352,870.019 478.185,865.352 479,860.5C 479.505,862.518 480.005,864.518 480.5,866.5 Z"/></g>
<g><path style="opacity:1" fill="#d55d28" d="M 713.5,858.5 C 723.508,866.511 732.175,875.844 739.5,886.5C 740.429,887.689 740.762,889.022 740.5,890.5C 726.079,908.89 708.079,922.723 686.5,932C 678.049,935.096 669.383,937.263 660.5,938.5C 662.003,930.169 665.169,922.502 670,915.5C 684.739,896.606 699.239,877.606 713.5,858.5 Z"/></g>
<g><path style="opacity:1" fill="#a53b23" d="M 480.5,866.5 C 484.378,877.594 489.378,888.261 495.5,898.5C 491.622,902.255 489.289,906.921 488.5,912.5C 483.325,900.461 480.325,887.794 479.5,874.5C 479.194,871.615 479.527,868.948 480.5,866.5 Z"/></g>
<g><path style="opacity:1" fill="#a43b23" d="M 752.5,914.5 C 751.711,908.921 749.378,904.255 745.5,900.5C 753.229,888.038 759.062,874.705 763,860.5C 763.464,879.405 759.964,897.405 752.5,914.5 Z"/></g>
<g><path style="opacity:1" fill="#240d05" d="M 615.5,860.5 C 615.667,878.503 615.5,896.503 615,914.5C 614.722,915.416 614.222,916.082 613.5,916.5C 613.902,897.665 614.569,878.999 615.5,860.5 Z"/></g>
<g><path style="opacity:1" fill="#d45c28" d="M 495.5,898.5 C 516.315,929.24 544.981,947.906 581.5,954.5C 578.931,967.3 572.931,978.3 563.5,987.5C 561.235,988.647 558.902,988.814 556.5,988C 524.577,971.24 501.91,946.073 488.5,912.5C 489.289,906.921 491.622,902.255 495.5,898.5 Z"/></g>
<g><path style="opacity:1" fill="#d45c28" d="M 745.5,900.5 C 749.378,904.255 751.711,908.921 752.5,914.5C 738.642,948.521 715.142,973.188 682,988.5C 680.833,988.167 679.667,987.833 678.5,987.5C 670.674,979.863 664.841,970.863 661,960.5C 660.192,958.421 660.359,956.421 661.5,954.5C 696.583,947.4 724.583,929.4 745.5,900.5 Z"/></g>
<g><path style="opacity:1" fill="#9e5234" d="M 627.5,892.5 C 629.237,908.966 629.904,925.633 629.5,942.5C 628.462,926.006 627.796,909.339 627.5,892.5 Z"/></g>
<g><path style="opacity:1" fill="#a74924" d="M 613.5,928.5 C 613.5,933.167 613.5,937.833 613.5,942.5C 608.156,942.666 602.823,942.499 597.5,942C 596.944,941.617 596.611,941.117 596.5,940.5C 601.833,940.5 607.167,940.5 612.5,940.5C 612.183,936.298 612.517,932.298 613.5,928.5 Z"/></g>
<g><path style="opacity:1" fill="#d45c28" d="M 645.5,958.5 C 649.827,972.604 657.827,984.438 669.5,994C 655.778,999.768 641.445,1002.6 626.5,1002.5C 626.418,995.142 626.752,987.809 627.5,980.5C 629.239,973.412 629.906,966.079 629.5,958.5C 634.833,958.5 640.167,958.5 645.5,958.5 Z"/></g>
<g><path style="opacity:1" fill="#d45c29" d="M 613.5,970.5 C 613.5,981.167 613.5,991.833 613.5,1002.5C 602.597,1002.75 591.93,1001.25 581.5,998C 578.399,997.145 575.732,995.645 573.5,993.5C 579.968,986.574 585.968,979.24 591.5,971.5C 593.093,966.951 594.76,962.451 596.5,958C 602.157,957.501 607.824,957.334 613.5,957.5C 613.5,961.833 613.5,966.167 613.5,970.5 Z"/></g>
<g><path style="opacity:1" fill="#a35130" d="M 645.5,958.5 C 640.167,958.5 634.833,958.5 629.5,958.5C 629.906,966.079 629.239,973.412 627.5,980.5C 627.596,972.821 627.93,965.154 628.5,957.5C 633.717,957.758 638.884,957.425 644,956.5C 645.03,956.836 645.53,957.503 645.5,958.5 Z"/></g>
<g><path style="opacity:0.047" fill="#ebf9fa" d="M 867.5,986.5 C 867.912,988.973 866.912,990.306 864.5,990.5C 864.738,988.596 865.738,987.262 867.5,986.5 Z"/></g>
<g><path style="opacity:1" fill="#b0542e" d="M 613.5,970.5 C 614.315,979.334 614.982,988.334 615.5,997.5C 615.444,999.64 614.777,1001.31 613.5,1002.5C 613.5,991.833 613.5,981.167 613.5,970.5 Z"/></g>
<g><path style="opacity:0.157" fill="#cceff4" d="M 697.5,1132.5 C 694.506,1135 691.173,1137 687.5,1138.5C 690.218,1135.47 693.551,1133.47 697.5,1132.5 Z"/></g>
<g><path style="opacity:0.039" fill="#e1f6f8" d="M 647.5,1162.5 C 644.322,1165.26 640.655,1167.26 636.5,1168.5C 639.721,1165.72 643.388,1163.72 647.5,1162.5 Z"/></g>
<g><path style="opacity:0.059" fill="#e7f7fa" d="M 625.5,1174.5 C 623.285,1177.34 620.618,1178.01 617.5,1176.5C 620.327,1176.42 622.994,1175.75 625.5,1174.5 Z"/></g>
</svg>
