<?xml version="1.0" encoding="UTF-8"?>
<!DOCTYPE svg PUBLIC "-//W3C//DTD SVG 1.1//EN" "http://www.w3.org/Graphics/SVG/1.1/DTD/svg11.dtd">
<svg xmlns="http://www.w3.org/2000/svg" version="1.1" width="1063px" height="1063px" style="shape-rendering:geometricPrecision; text-rendering:geometricPrecision; image-rendering:optimizeQuality; fill-rule:evenodd; clip-rule:evenodd" xmlns:xlink="http://www.w3.org/1999/xlink">
<g><path style="opacity:0.984" fill="#086dab" d="M 865.5,24.5 C 866.566,33.2295 866.566,41.8962 865.5,50.5C 831.131,51.9691 796.798,53.9691 762.5,56.5C 762.5,47.1667 762.5,37.8333 762.5,28.5C 796.76,26.0275 831.094,24.6942 865.5,24.5 Z"/></g>
<g><path style="opacity:0.989" fill="#0470b1" d="M 865.5,24.5 C 888.167,24.5 910.833,24.5 933.5,24.5C 946.79,142.083 947.623,259.75 936,377.5C 932.605,408.439 927.771,439.106 921.5,469.5C 919.958,455.365 919.125,441.031 919,426.5C 916.077,320.175 913.577,213.842 911.5,107.5C 911.5,88.1667 911.5,68.8333 911.5,49.5C 896.138,49.2309 880.805,49.5642 865.5,50.5C 866.566,41.8962 866.566,33.2295 865.5,24.5 Z"/></g>
<g><path style="opacity:0.991" fill="#0b66a1" d="M 762.5,28.5 C 762.5,37.8333 762.5,47.1667 762.5,56.5C 729.904,60.1056 697.237,64.2723 664.5,69C 646.726,71.6951 629.059,74.8618 611.5,78.5C 610.545,67.5511 610.211,56.5511 610.5,45.5C 660.869,37.2094 711.535,31.5427 762.5,28.5 Z"/></g>
<g><path style="opacity:0.99" fill="#0c6198" d="M 610.5,45.5 C 610.211,56.5511 610.545,67.5511 611.5,78.5C 576.566,84.9217 541.899,92.5883 507.5,101.5C 507.189,90.0857 507.523,78.7524 508.5,67.5C 542.033,58.5251 576.033,51.1918 610.5,45.5 Z"/></g>
<g><path style="opacity:0.999" fill="#fcfdfd" d="M 911.5,107.5 C 910.903,195.543 906.403,283.543 898,371.5C 889.86,456.349 871.86,539.015 844,619.5C 836.915,638.17 829.415,656.67 821.5,675C 822.444,676.477 823.777,677.477 825.5,678C 833.833,680.612 842.166,683.112 850.5,685.5C 860.254,688.529 869.587,692.529 878.5,697.5C 855.127,737.084 831.127,776.251 806.5,815C 795.832,813.5 785.166,811.666 774.5,809.5C 764.784,807.034 754.784,805.701 744.5,805.5C 624.77,792.726 510.77,812.893 402.5,866C 376.444,879.247 352.778,895.747 331.5,915.5C 327.822,920.362 323.488,924.195 318.5,927C 286.986,895.653 255.653,864.153 224.5,832.5C 239.993,815.997 256.66,800.997 274.5,787.5C 278.397,785.879 282.064,783.712 285.5,781C 286.517,779.951 286.684,778.784 286,777.5C 241.201,712.244 205.035,642.244 177.5,567.5C 144.778,477.615 122.278,385.282 110,290.5C 129.431,276.537 149.264,263.204 169.5,250.5C 197.343,233.409 225.677,217.075 254.5,201.5C 283.199,186.649 312.199,172.649 341.5,159.5C 369.673,147.89 398.006,136.89 426.5,126.5C 453.534,117.931 480.534,109.597 507.5,101.5C 541.899,92.5883 576.566,84.9217 611.5,78.5C 629.059,74.8618 646.726,71.6951 664.5,69C 697.237,64.2723 729.904,60.1056 762.5,56.5C 796.798,53.9691 831.131,51.9691 865.5,50.5C 880.805,49.5642 896.138,49.2309 911.5,49.5C 911.5,68.8333 911.5,88.1667 911.5,107.5 Z"/></g>
<g><path style="opacity:1" fill="#0a7dc5" d="M 868.5,198.5 C 868.5,191.5 868.5,184.5 868.5,177.5C 864.629,177.185 860.962,177.518 857.5,178.5C 853.167,178.5 848.833,178.5 844.5,178.5C 844.5,184.5 844.5,190.5 844.5,196.5C 844.5,210.167 844.5,223.833 844.5,237.5C 838.833,237.5 833.167,237.5 827.5,237.5C 827.5,229.167 827.5,220.833 827.5,212.5C 827.642,168.128 828.475,123.794 830,79.5C 831.602,74.1231 834.769,69.9565 839.5,67C 847.77,65.2935 856.103,64.6269 864.5,65C 872.907,69.9682 877.074,77.4682 877,87.5C 882.424,137.027 885.924,186.694 887.5,236.5C 881.167,236.5 874.833,236.5 868.5,236.5C 868.5,223.833 868.5,211.167 868.5,198.5 Z"/></g>
<g><path style="opacity:1" fill="#0c7ec5" d="M 804.5,69.5 C 806.5,69.5 808.5,69.5 810.5,69.5C 814.995,125.074 817.329,180.741 817.5,236.5C 811.833,236.5 806.167,236.5 800.5,236.5C 799.394,206.836 798.227,177.169 797,147.5C 788,136.5 779,125.5 770,114.5C 772.498,155.454 774.664,196.454 776.5,237.5C 770.5,237.5 764.5,237.5 758.5,237.5C 755.531,184.451 751.864,131.451 747.5,78.5C 752.536,77.9218 757.536,77.4218 762.5,77C 773.374,88.8716 783.874,101.038 794,113.5C 793.854,99.4725 793.02,85.4725 791.5,71.5C 796.028,71.2296 800.361,70.5629 804.5,69.5 Z"/></g>
<g><path style="opacity:0.997" fill="#0d5d92" d="M 508.5,67.5 C 507.523,78.7524 507.189,90.0857 507.5,101.5C 480.534,109.597 453.534,117.931 426.5,126.5C 426.5,114.5 426.5,102.5 426.5,90.5C 453.478,81.5886 480.812,73.9219 508.5,67.5 Z"/></g>
<g><path style="opacity:1" fill="#0c7dc5" d="M 711.5,83.5 C 722.802,82.0554 729.969,86.7221 733,97.5C 739.414,144.395 744.914,191.395 749.5,238.5C 743.167,238.5 736.833,238.5 730.5,238.5C 729.633,220.825 728.633,203.158 727.5,185.5C 719.56,186.824 711.56,187.491 703.5,187.5C 705.598,205.44 706.931,223.44 707.5,241.5C 701.529,242.241 695.529,242.575 689.5,242.5C 687.289,194.855 686.123,147.188 686,99.5C 687.119,94.7609 689.619,90.9276 693.5,88C 699.421,85.7439 705.421,84.2439 711.5,83.5 Z"/></g>
<g><path style="opacity:0.993" fill="#0f5a8c" d="M 426.5,90.5 C 426.5,102.5 426.5,114.5 426.5,126.5C 398.006,136.89 369.673,147.89 341.5,159.5C 340.106,147.173 339.773,134.839 340.5,122.5C 368.648,110.451 397.315,99.7839 426.5,90.5 Z"/></g>
<g><path style="opacity:1" fill="#0b7dc5" d="M 642.5,95.5 C 655.394,93.0215 663.561,98.0215 667,110.5C 667.889,118.838 668.722,127.172 669.5,135.5C 662.803,136.314 656.137,137.314 649.5,138.5C 649.665,135.482 649.498,132.482 649,129.5C 648.907,126.993 648.074,124.826 646.5,123C 640.109,122.279 633.942,123.112 628,125.5C 630.09,155.89 633.09,186.223 637,216.5C 637.297,219.295 638.797,220.961 641.5,221.5C 647.032,220.623 652.366,219.29 657.5,217.5C 658.063,216.061 658.397,214.561 658.5,213C 656.911,205.584 656.244,198.084 656.5,190.5C 663.092,189.178 669.758,188.511 676.5,188.5C 677.666,203.485 678.166,218.485 678,233.5C 677.064,237.207 675.231,240.374 672.5,243C 659.949,245.319 647.282,246.652 634.5,247C 626.518,241.872 621.351,234.705 619,225.5C 616.077,200.449 612.744,175.449 609,150.5C 607.42,139.539 606.754,128.539 607,117.5C 608.897,110.271 613.064,104.771 619.5,101C 627.402,99.5813 635.069,97.7479 642.5,95.5 Z"/></g>
<g><path style="opacity:1" fill="#fbfcfe" d="M 851.5,148.5 C 848.833,148.5 846.167,148.5 843.5,148.5C 843.81,145.287 843.477,142.287 842.5,139.5C 842.088,127.771 842.588,116.104 844,104.5C 846.266,97.9507 850.766,95.4507 857.5,97C 859.815,98.1094 861.315,99.9427 862,102.5C 863.408,106.057 864.408,109.724 865,113.5C 866.268,125.131 866.768,136.797 866.5,148.5C 861.5,148.5 856.5,148.5 851.5,148.5 Z"/></g>
<g><path style="opacity:1" fill="#0b7dc5" d="M 568.5,110.5 C 580.056,108.523 587.223,113.19 590,124.5C 597.997,166.816 605.83,209.15 613.5,251.5C 607.185,252.11 600.851,252.443 594.5,252.5C 592.594,236.49 590.594,220.49 588.5,204.5C 581.113,205.555 573.779,206.889 566.5,208.5C 566.167,209.167 565.833,209.833 565.5,210.5C 567.927,225.486 570.26,240.486 572.5,255.5C 572.392,256.442 572.059,257.275 571.5,258C 565.856,259.052 560.189,259.885 554.5,260.5C 550.932,222.155 547.099,183.821 543,145.5C 538.41,123.959 546.91,112.292 568.5,110.5 Z"/></g>
<g><path style="opacity:1" fill="#fbfcfe" d="M 706.5,113.5 C 713.256,111.722 717.756,114.056 720,120.5C 723.284,133.3 724.784,146.3 724.5,159.5C 716.764,159.45 709.097,160.117 701.5,161.5C 699.799,148.549 699.299,135.549 700,122.5C 700.873,118.475 703.039,115.475 706.5,113.5 Z"/></g>
<g><path style="opacity:1" fill="#0c7ec5" d="M 518.5,122.5 C 519.833,122.5 521.167,122.5 522.5,122.5C 528.952,160.832 535.452,199.165 542,237.5C 543.204,246.107 542.204,254.441 539,262.5C 538.08,264.314 536.58,265.314 534.5,265.5C 529.736,266.071 525.07,267.071 520.5,268.5C 514.449,267.228 509.949,263.895 507,258.5C 503.136,273.508 493.636,279.341 478.5,276C 472.75,270.671 468.916,264.171 467,256.5C 459.593,219.388 451.76,182.388 443.5,145.5C 443.709,144.914 444.043,144.414 444.5,144C 449.183,142.665 453.85,141.331 458.5,140C 460.112,139.28 461.612,139.446 463,140.5C 469.49,174.95 476.49,209.284 484,243.5C 485.869,248.543 488.869,249.543 493,246.5C 493.985,244.634 494.485,242.634 494.5,240.5C 490.565,218.993 486.565,197.493 482.5,176C 482.755,174.674 483.422,173.674 484.5,173C 489.102,171.52 493.769,170.354 498.5,169.5C 502.439,190.798 506.272,212.131 510,233.5C 510.786,238.634 513.619,241.134 518.5,241C 519.333,240.167 520.167,239.333 521,238.5C 521.667,235.167 521.667,231.833 521,228.5C 514.624,194.576 508.791,160.576 503.5,126.5C 508.728,125.611 513.728,124.278 518.5,122.5 Z"/></g>
<g><path style="opacity:0.991" fill="#115686" d="M 340.5,122.5 C 339.773,134.839 340.106,147.173 341.5,159.5C 312.199,172.649 283.199,186.649 254.5,201.5C 254.666,192.161 254.5,182.827 254,173.5C 253.819,170.305 253.319,167.305 252.5,164.5C 280.943,148.948 310.276,134.948 340.5,122.5 Z"/></g>
<g><path style="opacity:1" fill="#fbfcfe" d="M 564.5,138.5 C 567.518,138.335 570.518,138.502 573.5,139C 578.184,145.358 581.018,152.525 582,160.5C 583.053,166.814 583.886,173.147 584.5,179.5C 577.464,180.574 570.464,181.907 563.5,183.5C 562.353,183.182 561.519,182.516 561,181.5C 558.899,170.237 557.899,158.904 558,147.5C 558.873,143.475 561.039,140.475 564.5,138.5 Z"/></g>
<g><path style="opacity:0.994" fill="#0d70af" d="M 911.5,107.5 C 913.577,213.842 916.077,320.175 919,426.5C 919.125,441.031 919.958,455.365 921.5,469.5C 907.413,544.76 883.746,616.76 850.5,685.5C 842.166,683.112 833.833,680.612 825.5,678C 823.777,677.477 822.444,676.477 821.5,675C 829.415,656.67 836.915,638.17 844,619.5C 871.86,539.015 889.86,456.349 898,371.5C 906.403,283.543 910.903,195.543 911.5,107.5 Z"/></g>
<g><path style="opacity:1" fill="#87c0e3" d="M 842.5,139.5 C 843.477,142.287 843.81,145.287 843.5,148.5C 846.167,148.5 848.833,148.5 851.5,148.5C 848.713,149.477 845.713,149.81 842.5,149.5C 842.5,146.167 842.5,142.833 842.5,139.5 Z"/></g>
<g><path style="opacity:0.991" fill="#125380" d="M 252.5,164.5 C 253.319,167.305 253.819,170.305 254,173.5C 254.5,182.827 254.666,192.161 254.5,201.5C 225.677,217.075 197.343,233.409 169.5,250.5C 168.812,239.216 168.145,227.883 167.5,216.5C 167.685,215.416 168.018,214.416 168.5,213.5C 195.457,195.579 223.457,179.245 252.5,164.5 Z"/></g>
<g><path style="opacity:1" fill="#0d7ec6" d="M 372.5,168.5 C 381.629,168.321 387.462,172.654 390,181.5C 401.112,219.449 412.612,257.282 424.5,295C 424.355,295.772 424.022,296.439 423.5,297C 418.486,298.51 413.486,300.01 408.5,301.5C 408.167,301.167 407.833,300.833 407.5,300.5C 403.728,286.244 399.728,272.077 395.5,258C 388.16,259.327 381.16,261.827 374.5,265.5C 378.904,279.712 382.904,294.046 386.5,308.5C 386.392,309.442 386.059,310.275 385.5,311C 380.592,313.038 375.759,315.205 371,317.5C 363.749,285.917 356.749,254.25 350,222.5C 347.979,213.065 346.479,203.565 345.5,194C 344.522,186.958 346.855,181.291 352.5,177C 359.226,174.044 365.893,171.211 372.5,168.5 Z"/></g>
<g><path style="opacity:1" fill="#6db2dd" d="M 857.5,178.5 C 860.962,177.518 864.629,177.185 868.5,177.5C 868.5,184.5 868.5,191.5 868.5,198.5C 867.509,192.021 867.176,185.354 867.5,178.5C 864.167,178.5 860.833,178.5 857.5,178.5 Z"/></g>
<g><path style="opacity:1" fill="#0b7ec5" d="M 323.5,188.5 C 324.833,188.5 326.167,188.5 327.5,188.5C 338.352,226.572 349.519,264.572 361,302.5C 361.667,306.833 361.667,311.167 361,315.5C 360.361,318.112 359.194,320.446 357.5,322.5C 342.846,329.376 328.18,336.043 313.5,342.5C 311.977,334.929 309.643,327.596 306.5,320.5C 317.954,314.69 329.454,309.023 341,303.5C 341.667,301.833 341.667,300.167 341,298.5C 338.524,291.573 336.357,284.573 334.5,277.5C 325.392,280.926 316.225,284.259 307,287.5C 303.011,287.004 300.011,285.004 298,281.5C 290.193,258.941 282.693,236.274 275.5,213.5C 275.608,212.558 275.941,211.725 276.5,211C 280.635,208.597 284.968,206.763 289.5,205.5C 294.825,224.644 300.659,243.644 307,262.5C 308.388,263.554 309.888,263.72 311.5,263C 317.511,260.661 323.178,257.828 328.5,254.5C 322.251,235.336 316.584,216.003 311.5,196.5C 311.608,195.558 311.941,194.725 312.5,194C 316.507,192.663 320.173,190.83 323.5,188.5 Z"/></g>
<g><path style="opacity:1" fill="#fbfcfe" d="M 369.5,196.5 C 374.558,195.717 378.058,197.717 380,202.5C 384.979,212.593 387.812,223.093 388.5,234C 381.655,237.004 374.655,239.504 367.5,241.5C 365.102,230.741 363.102,219.908 361.5,209C 361.197,202.825 363.863,198.658 369.5,196.5 Z"/></g>
<g><path style="opacity:1" fill="#0b7ec5" d="M 264.5,215.5 C 265.496,215.414 266.329,215.748 267,216.5C 269.401,223.871 271.901,231.204 274.5,238.5C 270.137,241.344 265.804,244.177 261.5,247C 273,280.833 284.5,314.667 296,348.5C 296.667,349.833 296.667,351.167 296,352.5C 291.496,355.42 286.829,358.086 282,360.5C 269.526,325.577 257.36,290.577 245.5,255.5C 240.643,257.759 235.643,259.759 230.5,261.5C 228.332,253.829 225.665,246.329 222.5,239C 236.401,230.886 250.401,223.052 264.5,215.5 Z"/></g>
<g><path style="opacity:0.992" fill="#15507a" d="M 168.5,213.5 C 168.018,214.416 167.685,215.416 167.5,216.5C 168.145,227.883 168.812,239.216 169.5,250.5C 149.264,263.204 129.431,276.537 110,290.5C 122.278,385.282 144.778,477.615 177.5,567.5C 176.836,569.978 176.503,572.645 176.5,575.5C 177.063,589.858 177.73,604.192 178.5,618.5C 143.555,541.498 117.055,461.498 99,378.5C 91.7024,345.549 85.5358,312.382 80.5,279C 80.99,276.497 82.3234,274.497 84.5,273C 111.68,251.919 139.68,232.085 168.5,213.5 Z"/></g>
<g><path style="opacity:1" fill="#a6cfea" d="M 844.5,196.5 C 845.496,210.323 845.829,224.323 845.5,238.5C 839.167,238.5 832.833,238.5 826.5,238.5C 826.174,229.651 826.507,220.984 827.5,212.5C 827.5,220.833 827.5,229.167 827.5,237.5C 833.167,237.5 838.833,237.5 844.5,237.5C 844.5,223.833 844.5,210.167 844.5,196.5 Z"/></g>
<g><path style="opacity:1" fill="#097dc5" d="M 200.5,250.5 C 207.205,248.984 212.371,250.984 216,256.5C 232.361,293.918 248.528,331.418 264.5,369C 264.387,370.28 263.72,371.113 262.5,371.5C 258.5,373.5 254.5,375.5 250.5,377.5C 244.382,363.321 238.549,348.988 233,334.5C 227.052,338.22 221.218,342.053 215.5,346C 221.119,359.902 226.452,373.902 231.5,388C 228.303,392.014 224.303,395.181 219.5,397.5C 217.879,395.847 216.712,393.847 216,391.5C 203.066,354.365 190.733,317.032 179,279.5C 177.734,273.405 178.734,267.738 182,262.5C 187.976,258.102 194.143,254.102 200.5,250.5 Z"/></g>
<g><path style="opacity:1" fill="#145582" d="M 844.5,323.5 C 836.801,358.996 829.301,394.663 822,430.5C 821.434,432.723 820.6,434.723 819.5,436.5C 820.232,387.68 817.898,339.013 812.5,290.5C 800.167,290.5 787.833,290.5 775.5,290.5C 754.821,290.311 734.154,290.644 713.5,291.5C 715.626,282.206 717.626,272.873 719.5,263.5C 723.042,263.813 726.375,263.479 729.5,262.5C 766.134,260.707 802.801,260.04 839.5,260.5C 841.593,281.464 843.259,302.464 844.5,323.5 Z"/></g>
<g><path style="opacity:1" fill="#115e91" d="M 729.5,262.5 C 726.375,263.479 723.042,263.813 719.5,263.5C 717.626,272.873 715.626,282.206 713.5,291.5C 708.87,292.229 704.203,292.563 699.5,292.5C 679.294,293.467 659.294,295.133 639.5,297.5C 622.818,299.335 606.151,301.335 589.5,303.5C 585.802,303.552 582.135,303.886 578.5,304.5C 580.295,295.525 581.962,286.525 583.5,277.5C 631.653,269.003 680.319,264.003 729.5,262.5 Z"/></g>
<g><path style="opacity:1" fill="#097dc5" d="M 162.5,274.5 C 165.962,281.025 168.962,287.858 171.5,295C 171.355,295.772 171.022,296.439 170.5,297C 162.247,302.376 154.08,307.876 146,313.5C 145.389,317.682 146.056,321.682 148,325.5C 150.644,330.621 153.144,335.788 155.5,341C 156.833,341.667 158.167,341.667 159.5,341C 164.299,336.685 169.799,333.851 176,332.5C 180.925,332.629 184.925,334.629 188,338.5C 195.102,352.466 201.436,366.8 207,381.5C 208.536,387.749 208.87,394.083 208,400.5C 207.235,403.196 206.068,405.696 204.5,408C 192.915,415.376 181.415,422.876 170,430.5C 166.381,423.283 163.381,415.95 161,408.5C 170.413,401.876 179.913,395.376 189.5,389C 190.576,387.274 190.743,385.441 190,383.5C 187.333,376.833 184.667,370.167 182,363.5C 180.68,359.818 178.18,358.318 174.5,359C 169.672,362.581 164.672,365.915 159.5,369C 154.767,369.962 150.934,368.462 148,364.5C 141.621,352.039 135.621,339.373 130,326.5C 127.797,321.188 126.297,315.688 125.5,310C 125.862,302.943 128.862,297.276 134.5,293C 144.009,286.97 153.343,280.804 162.5,274.5 Z"/></g>
<g><path style="opacity:1" fill="#0d6198" d="M 583.5,277.5 C 581.962,286.525 580.295,295.525 578.5,304.5C 582.135,303.886 585.802,303.552 589.5,303.5C 587.316,304.266 584.982,304.933 582.5,305.5C 581.81,326.227 582.143,346.894 583.5,367.5C 539.101,357.461 495.435,359.794 452.5,374.5C 451.786,363.52 451.286,352.52 451,341.5C 450.809,339.292 450.309,337.292 449.5,335.5C 463.715,330.084 478.382,325.751 493.5,322.5C 495.422,313.223 497.088,303.89 498.5,294.5C 526.322,286.936 554.656,281.269 583.5,277.5 Z"/></g>
<g><path style="opacity:1" fill="#fbfcfe" d="M 202.5,277.5 C 207.407,277.551 210.907,279.884 213,284.5C 217.612,293.003 221.445,301.837 224.5,311C 224.241,312.261 223.574,313.261 222.5,314C 217.083,316.79 211.916,319.957 207,323.5C 200.268,310.977 196.602,297.643 196,283.5C 198.063,281.266 200.229,279.266 202.5,277.5 Z"/></g>
<g><path style="opacity:1" fill="#076dab" d="M 775.5,290.5 C 771.702,291.483 767.702,291.817 763.5,291.5C 766.049,415.709 769.382,539.875 773.5,664C 773.164,665.03 772.497,665.53 771.5,665.5C 750.87,663.48 730.204,661.813 709.5,660.5C 738.745,613.221 746.579,562.554 733,508.5C 724.675,480.503 711.175,455.503 692.5,433.5C 693.158,432.207 693.492,430.707 693.5,429C 692.127,383.837 690.794,338.671 689.5,293.5C 693.042,293.813 696.375,293.479 699.5,292.5C 704.203,292.563 708.87,292.229 713.5,291.5C 734.154,290.644 754.821,290.311 775.5,290.5 Z"/></g>
<g><path style="opacity:1" fill="#046fb0" d="M 775.5,290.5 C 787.833,290.5 800.167,290.5 812.5,290.5C 817.898,339.013 820.232,387.68 819.5,436.5C 818.996,515.677 805.996,592.677 780.5,667.5C 777.219,667.58 774.219,666.913 771.5,665.5C 772.497,665.53 773.164,665.03 773.5,664C 769.382,539.875 766.049,415.709 763.5,291.5C 767.702,291.817 771.702,291.483 775.5,290.5 Z"/></g>
<g><path style="opacity:1" fill="#0869a5" d="M 699.5,292.5 C 696.375,293.479 693.042,293.813 689.5,293.5C 690.794,338.671 692.127,383.837 693.5,429C 693.492,430.707 693.158,432.207 692.5,433.5C 676.94,416.932 659.607,402.599 640.5,390.5C 641.166,384.843 641.499,379.01 641.5,373C 640.536,347.84 639.869,322.673 639.5,297.5C 659.294,295.133 679.294,293.467 699.5,292.5 Z"/></g>
<g><path style="opacity:1" fill="#0a669f" d="M 639.5,297.5 C 639.869,322.673 640.536,347.84 641.5,373C 641.499,379.01 641.166,384.843 640.5,390.5C 622.315,380.664 603.315,372.998 583.5,367.5C 582.143,346.894 581.81,326.227 582.5,305.5C 584.982,304.933 587.316,304.266 589.5,303.5C 606.151,301.335 622.818,299.335 639.5,297.5 Z"/></g>
<g><path style="opacity:1" fill="#0d68a3" d="M 498.5,294.5 C 497.088,303.89 495.422,313.223 493.5,322.5C 478.382,325.751 463.715,330.084 449.5,335.5C 428.458,340.735 408.124,347.735 388.5,356.5C 380.287,358.94 372.287,361.94 364.5,365.5C 366.26,355.96 368.26,346.46 370.5,337C 370.43,336.235 370.097,335.735 369.5,335.5C 411.194,318.048 454.194,304.381 498.5,294.5 Z"/></g>
<g><path style="opacity:1" fill="#0f5a8c" d="M 449.5,335.5 C 450.309,337.292 450.809,339.292 451,341.5C 451.286,352.52 451.786,363.52 452.5,374.5C 429.604,382.938 408.937,394.938 390.5,410.5C 390.493,392.318 389.827,374.318 388.5,356.5C 408.124,347.735 428.458,340.735 449.5,335.5 Z"/></g>
<g><path style="opacity:1" fill="#096dab" d="M 369.5,335.5 C 370.097,335.735 370.43,336.235 370.5,337C 368.26,346.46 366.26,355.96 364.5,365.5C 351.526,370.988 338.86,376.988 326.5,383.5C 308.386,392.056 290.719,401.39 273.5,411.5C 275.408,399.62 278.075,387.953 281.5,376.5C 309.772,360.699 339.105,347.033 369.5,335.5 Z"/></g>
<g><path style="opacity:1" fill="#105686" d="M 388.5,356.5 C 389.827,374.318 390.493,392.318 390.5,410.5C 364.49,432.534 344.823,459.201 331.5,490.5C 330.198,459.348 329.198,428.181 328.5,397C 328.493,392.114 327.826,387.614 326.5,383.5C 338.86,376.988 351.526,370.988 364.5,365.5C 372.287,361.94 380.287,358.94 388.5,356.5 Z"/></g>
<g><path style="opacity:1" fill="#ee9b10" d="M 514.5,378.5 C 524.872,378.24 535.206,378.573 545.5,379.5C 549.374,387.251 552.707,395.251 555.5,403.5C 544.516,400.006 533.516,397.006 522.5,394.5C 519.818,389.136 517.151,383.802 514.5,378.5 Z"/></g>
<g><path style="opacity:1" fill="#f1ac18" d="M 514.5,378.5 C 517.151,383.802 519.818,389.136 522.5,394.5C 513.189,393.226 503.855,392.06 494.5,391C 483.655,389.857 472.988,390.69 462.5,393.5C 460.512,392.711 460.179,391.545 461.5,390C 478.535,383.162 496.202,379.328 514.5,378.5 Z"/></g>
<g><path style="opacity:1" fill="#eb8f11" d="M 545.5,379.5 C 557.303,380.178 568.636,382.512 579.5,386.5C 578.624,386.369 577.957,386.702 577.5,387.5C 583.596,400.553 589.596,413.553 595.5,426.5C 582.125,418.765 568.791,411.099 555.5,403.5C 552.707,395.251 549.374,387.251 545.5,379.5 Z"/></g>
<g><path style="opacity:1" fill="#115380" d="M 326.5,383.5 C 327.826,387.614 328.493,392.114 328.5,397C 329.198,428.181 330.198,459.348 331.5,490.5C 314.414,539.635 315.747,588.302 335.5,636.5C 335.649,673.586 336.649,710.586 338.5,747.5C 331.5,751.5 324.5,755.5 317.5,759.5C 301.078,735.008 286.412,709.342 273.5,682.5C 271.865,600.19 269.865,517.69 267.5,435C 267.496,428.462 266.83,422.295 265.5,416.5C 268.131,414.847 270.797,413.181 273.5,411.5C 290.719,401.39 308.386,392.056 326.5,383.5 Z"/></g>
<g><path style="opacity:1" fill="#e98212" d="M 579.5,386.5 C 591.908,389.077 603.575,393.411 614.5,399.5C 613.761,399.369 613.094,399.536 612.5,400C 622.962,421.757 633.295,443.591 643.5,465.5C 643.957,466.298 644.624,466.631 645.5,466.5C 643.979,468.529 641.979,469.362 639.5,469C 629.528,457.094 618.861,445.761 607.5,435C 603.32,432.304 599.32,429.47 595.5,426.5C 589.596,413.553 583.596,400.553 577.5,387.5C 577.957,386.702 578.624,386.369 579.5,386.5 Z"/></g>
<g><path style="opacity:1" fill="#f2b20b" d="M 479.5,395.5 C 484.695,395.179 489.695,395.513 494.5,396.5C 506.09,420.682 517.424,445.016 528.5,469.5C 522.603,468.658 516.936,467.324 511.5,465.5C 500.036,442.968 489.036,420.135 478.5,397C 479.056,396.617 479.389,396.117 479.5,395.5 Z"/></g>
<g><path style="opacity:1" fill="#f4be0b" d="M 464.5,396.5 C 474.878,417.958 484.878,439.624 494.5,461.5C 489.588,461.102 484.921,460.102 480.5,458.5C 471.123,439.407 461.956,420.073 453,400.5C 451.644,399.62 450.144,399.286 448.5,399.5C 453.617,398.011 458.951,397.011 464.5,396.5 Z"/></g>
<g><path style="opacity:1" fill="#f3b90c" d="M 479.5,395.5 C 479.389,396.117 479.056,396.617 478.5,397C 489.036,420.135 500.036,442.968 511.5,465.5C 505.544,464.913 499.878,463.579 494.5,461.5C 484.878,439.624 474.878,417.958 464.5,396.5C 469.305,395.513 474.305,395.179 479.5,395.5 Z"/></g>
<g><path style="opacity:1" fill="#f1ab0c" d="M 494.5,396.5 C 500.791,396.495 506.791,397.495 512.5,399.5C 511.427,400.251 511.26,401.251 512,402.5C 522.801,425.438 533.634,448.438 544.5,471.5C 545.602,472.176 546.602,472.842 547.5,473.5C 541.071,472.578 534.738,471.245 528.5,469.5C 517.424,445.016 506.09,420.682 494.5,396.5 Z"/></g>
<g><path style="opacity:1" fill="#15517c" d="M 844.5,323.5 C 852.142,418.906 845.308,513.24 824,606.5C 818.141,628.077 811.474,649.41 804,670.5C 802.938,671.097 801.772,671.43 800.5,671.5C 793.789,670.153 787.123,668.82 780.5,667.5C 805.996,592.677 818.996,515.677 819.5,436.5C 820.6,434.723 821.434,432.723 822,430.5C 829.301,394.663 836.801,358.996 844.5,323.5 Z"/></g>
<g><path style="opacity:1" fill="#f6c409" d="M 448.5,399.5 C 450.144,399.286 451.644,399.62 453,400.5C 461.956,420.073 471.123,439.407 480.5,458.5C 475.167,457.833 469.833,457.167 464.5,456.5C 456.373,438.812 448.04,421.146 439.5,403.5C 439.863,402.817 440.196,402.15 440.5,401.5C 442.993,400.226 445.659,399.56 448.5,399.5 Z"/></g>
<g><path style="opacity:1" fill="#f0a50c" d="M 512.5,399.5 C 517.806,400.053 522.806,401.386 527.5,403.5C 527.062,403.435 526.728,403.601 526.5,404C 538.171,427.51 549.171,451.343 559.5,475.5C 555.418,475.108 551.418,474.442 547.5,473.5C 546.602,472.842 545.602,472.176 544.5,471.5C 533.634,448.438 522.801,425.438 512,402.5C 511.26,401.251 511.427,400.251 512.5,399.5 Z"/></g>
<g><path style="opacity:1" fill="#0771b2" d="M 281.5,376.5 C 278.075,387.953 275.408,399.62 273.5,411.5C 270.797,413.181 268.131,414.847 265.5,416.5C 244.841,428.831 224.841,442.164 205.5,456.5C 205.167,457.333 204.833,458.167 204.5,459C 211.578,503.316 221.911,546.816 235.5,589.5C 233.368,603.296 230.701,616.963 227.5,630.5C 204.22,570.889 187.554,509.389 177.5,446C 177.833,444.5 178.167,443 178.5,441.5C 211.033,417.062 245.367,395.395 281.5,376.5 Z"/></g>
<g><path style="opacity:1" fill="#f7cb09" d="M 440.5,401.5 C 440.196,402.15 439.863,402.817 439.5,403.5C 448.04,421.146 456.373,438.812 464.5,456.5C 461.193,455.949 457.86,455.616 454.5,455.5C 452.107,454.79 449.607,454.123 447,453.5C 440.055,438.806 433.222,424.14 426.5,409.5C 425.675,408.614 424.675,408.281 423.5,408.5C 428.687,405.21 434.353,402.877 440.5,401.5 Z"/></g>
<g><path style="opacity:1" fill="#efa00e" d="M 527.5,403.5 C 533.285,404.536 538.618,406.536 543.5,409.5C 553.365,432.895 564.032,455.895 575.5,478.5C 570.087,477.75 564.754,476.75 559.5,475.5C 549.171,451.343 538.171,427.51 526.5,404C 526.728,403.601 527.062,403.435 527.5,403.5 Z"/></g>
<g><path style="opacity:1" fill="#e77a15" d="M 614.5,399.5 C 624.083,403.291 633.083,408.124 641.5,414C 648.217,424.938 652.55,436.772 654.5,449.5C 653.841,456.489 650.841,462.156 645.5,466.5C 644.624,466.631 643.957,466.298 643.5,465.5C 633.295,443.591 622.962,421.757 612.5,400C 613.094,399.536 613.761,399.369 614.5,399.5 Z"/></g>
<g><path style="opacity:1" fill="#ed990e" d="M 543.5,409.5 C 551.647,412.739 559.314,416.739 566.5,421.5C 565.761,421.369 565.094,421.536 564.5,422C 573.494,440.819 582.328,459.652 591,478.5C 592.948,479.109 594.782,479.776 596.5,480.5C 589.468,480.126 582.468,479.459 575.5,478.5C 564.032,455.895 553.365,432.895 543.5,409.5 Z"/></g>
<g><path style="opacity:1" fill="#f9d507" d="M 423.5,408.5 C 424.675,408.281 425.675,408.614 426.5,409.5C 433.222,424.14 440.055,438.806 447,453.5C 449.607,454.123 452.107,454.79 454.5,455.5C 443.437,455.27 432.437,455.936 421.5,457.5C 415.98,446.282 410.646,434.948 405.5,423.5C 405.043,422.702 404.376,422.369 403.5,422.5C 409.429,416.861 416.096,412.194 423.5,408.5 Z"/></g>
<g><path style="opacity:1" fill="#ec9110" d="M 566.5,421.5 C 589.624,436.118 609.457,454.452 626,476.5C 626.688,477.332 626.521,477.998 625.5,478.5C 623.556,479.189 621.556,479.689 619.5,480C 611.841,480.5 604.174,480.666 596.5,480.5C 594.782,479.776 592.948,479.109 591,478.5C 582.328,459.652 573.494,440.819 564.5,422C 565.094,421.536 565.761,421.369 566.5,421.5 Z"/></g>
<g><path style="opacity:1" fill="#124f7a" d="M 265.5,416.5 C 266.83,422.295 267.496,428.462 267.5,435C 269.865,517.69 271.865,600.19 273.5,682.5C 258.861,652.233 246.194,621.233 235.5,589.5C 221.911,546.816 211.578,503.316 204.5,459C 204.833,458.167 205.167,457.333 205.5,456.5C 224.841,442.164 244.841,428.831 265.5,416.5 Z"/></g>
<g><path style="opacity:1" fill="#1b4467" d="M 628.5,518.5 C 620.891,512.563 613.558,506.23 606.5,499.5C 623.668,500.302 639.668,496.468 654.5,488C 666,477.497 669.833,464.664 666,449.5C 663.552,442.818 660.718,436.318 657.5,430C 660.017,429.743 662.35,430.41 664.5,432C 680.36,447.206 693.193,464.706 703,484.5C 703.781,485.944 703.614,487.277 702.5,488.5C 678.039,499.066 653.372,509.066 628.5,518.5 Z"/></g>
<g><path style="opacity:1" fill="#fbe109" d="M 403.5,422.5 C 404.376,422.369 405.043,422.702 405.5,423.5C 410.646,434.948 415.98,446.282 421.5,457.5C 412.398,460.382 403.732,464.382 395.5,469.5C 391.758,460.352 387.758,451.352 383.5,442.5C 389.167,434.833 395.833,428.167 403.5,422.5 Z"/></g>
<g><path style="opacity:1" fill="#fef211" d="M 383.5,442.5 C 387.758,451.352 391.758,460.352 395.5,469.5C 385.847,474.326 376.847,480.16 368.5,487C 360.606,495.305 352.606,503.472 344.5,511.5C 343.353,509.235 343.186,506.902 344,504.5C 352.554,480.803 365.72,460.136 383.5,442.5 Z"/></g>
<g><path style="opacity:1" fill="#0f5a8c" d="M 451.5,468.5 C 457.051,468.527 462.384,469.194 467.5,470.5C 466.761,470.369 466.094,470.536 465.5,471C 510.187,511.651 555.187,551.817 600.5,591.5C 597.412,596.68 594.078,601.68 590.5,606.5C 587.732,604.913 585.065,603.08 582.5,601C 566.996,586.995 551.663,572.829 536.5,558.5C 540.103,556.36 543.77,554.193 547.5,552C 538.948,549.315 530.281,547.148 521.5,545.5C 493.67,519.837 465.67,494.337 437.5,469C 442.155,468.501 446.821,468.334 451.5,468.5 Z"/></g>
<g><path style="opacity:1" fill="#115685" d="M 467.5,470.5 C 491.436,473.705 514.77,479.038 537.5,486.5C 537.062,486.435 536.728,486.601 536.5,487C 554.239,502.85 571.906,518.684 589.5,534.5C 578.559,539.3 567.559,544.133 556.5,549C 557,549.167 557.5,549.333 558,549.5C 563.386,547.386 568.886,545.72 574.5,544.5C 585.909,556.578 598.242,567.578 611.5,577.5C 608.305,582.569 604.638,587.235 600.5,591.5C 555.187,551.817 510.187,511.651 465.5,471C 466.094,470.536 466.761,470.369 467.5,470.5 Z"/></g>
<g><path style="opacity:1" fill="#0f6197" d="M 451.5,468.5 C 446.821,468.334 442.155,468.501 437.5,469C 465.67,494.337 493.67,519.837 521.5,545.5C 498.242,541.117 475.242,536.117 452.5,530.5C 434.387,513.894 416.054,497.394 397.5,481C 396.316,479.855 396.316,478.688 397.5,477.5C 411.05,470.874 425.383,467.541 440.5,467.5C 444.349,467.501 448.016,467.835 451.5,468.5 Z"/></g>
<g><path style="opacity:1" fill="#0a68a2" d="M 397.5,477.5 C 396.316,478.688 396.316,479.855 397.5,481C 416.054,497.394 434.387,513.894 452.5,530.5C 448.854,529.717 445.188,529.55 441.5,530C 432.582,533.804 423.582,537.304 414.5,540.5C 400.73,528.57 387.063,516.403 373.5,504C 370.913,501.919 368.913,499.419 367.5,496.5C 375.834,487.659 385.834,481.326 397.5,477.5 Z"/></g>
<g><path style="opacity:1" fill="#154f78" d="M 537.5,486.5 C 560.17,492.5 583.17,496.834 606.5,499.5C 613.558,506.23 620.891,512.563 628.5,518.5C 615.737,524.204 602.737,529.538 589.5,534.5C 571.906,518.684 554.239,502.85 536.5,487C 536.728,486.601 537.062,486.435 537.5,486.5 Z"/></g>
<g><path style="opacity:1" fill="#1d4769" d="M 647.5,542.5 C 641.219,537.852 635.552,532.519 630.5,526.5C 656.602,517.299 682.936,508.799 709.5,501C 716.943,521.156 720.443,541.989 720,563.5C 719.587,566.232 718.92,568.899 718,571.5C 712.49,557.324 703.323,546.157 690.5,538C 682.49,534.664 674.157,533.664 665.5,535C 659.364,537.237 653.364,539.737 647.5,542.5 Z"/></g>
<g><path style="opacity:1" fill="#0770b0" d="M 367.5,496.5 C 368.913,499.419 370.913,501.919 373.5,504C 387.063,516.403 400.73,528.57 414.5,540.5C 400.468,546.737 386.135,552.404 371.5,557.5C 363.686,549.524 355.352,542.024 346.5,535C 344.859,533.871 343.859,532.371 343.5,530.5C 349.044,517.404 357.044,506.071 367.5,496.5 Z"/></g>
<g><path style="opacity:1" fill="#fcfdfe" d="M 452.5,530.5 C 475.242,536.117 498.242,541.117 521.5,545.5C 530.281,547.148 538.948,549.315 547.5,552C 543.77,554.193 540.103,556.36 536.5,558.5C 533.243,559.462 530.243,560.962 527.5,563C 534.923,571.729 536.59,581.562 532.5,592.5C 533.758,594.687 534.758,597.02 535.5,599.5C 535.315,600.584 534.982,601.584 534.5,602.5C 533.007,603.312 532.34,604.645 532.5,606.5C 533.551,614.037 537.218,619.87 543.5,624C 534.898,632.474 528.731,630.974 525,619.5C 524.264,614.134 524.431,608.8 525.5,603.5C 525.061,601.896 524.394,600.396 523.5,599C 529.42,589.801 529.92,580.301 525,570.5C 523.649,568.981 522.149,567.648 520.5,566.5C 514.613,569.274 508.947,572.274 503.5,575.5C 488.077,583.073 472.744,590.906 457.5,599C 456.333,599.167 455.167,599.333 454,599.5C 437.827,595.582 421.661,591.582 405.5,587.5C 384.907,581.753 364.241,575.753 343.5,569.5C 353.011,565.671 362.344,561.671 371.5,557.5C 386.135,552.404 400.468,546.737 414.5,540.5C 423.582,537.304 432.582,533.804 441.5,530C 445.188,529.55 448.854,529.717 452.5,530.5 Z"/></g>
<g><path style="opacity:1" fill="#15527e" d="M 630.5,526.5 C 635.552,532.519 641.219,537.852 647.5,542.5C 634.203,552.797 622.203,564.463 611.5,577.5C 598.242,567.578 585.909,556.578 574.5,544.5C 592.884,537.898 611.551,531.898 630.5,526.5 Z"/></g>
<g><path style="opacity:1" fill="#0677bc" d="M 343.5,530.5 C 343.859,532.371 344.859,533.871 346.5,535C 355.352,542.024 363.686,549.524 371.5,557.5C 362.344,561.671 353.011,565.671 343.5,569.5C 364.241,575.753 384.907,581.753 405.5,587.5C 406.11,588.391 406.443,589.391 406.5,590.5C 402.126,589.656 397.793,588.656 393.5,587.5C 392.629,595.8 392.295,604.133 392.5,612.5C 416.186,608.856 436.186,615.689 452.5,633C 453.577,633.47 454.577,633.303 455.5,632.5C 471.953,648.446 488.953,663.946 506.5,679C 507.305,680.113 507.972,681.279 508.5,682.5C 495.182,685.832 481.849,689.499 468.5,693.5C 425.517,653.854 382.184,614.521 338.5,575.5C 337.341,565.008 337.175,554.341 338,543.5C 339.173,538.791 341.007,534.458 343.5,530.5 Z"/></g>
<g><path style="opacity:1" fill="#ee9c12" d="M 705.5,570.5 C 695.886,583.016 686.719,596.016 678,609.5C 677.184,610.823 676.017,611.489 674.5,611.5C 677.051,596.266 677.885,580.933 677,565.5C 676.693,561.953 675.86,558.62 674.5,555.5C 685.785,554.022 695.285,557.355 703,565.5C 704.094,567.078 704.928,568.745 705.5,570.5 Z"/></g>
<g><path style="opacity:1" fill="#f1ab0b" d="M 662.5,574.5 C 640.363,603.984 619.363,634.317 599.5,665.5C 594.595,666.572 589.595,667.238 584.5,667.5C 608.109,631.893 632.109,596.56 656.5,561.5C 658.129,559.94 659.296,560.273 660,562.5C 661.359,566.405 662.192,570.405 662.5,574.5 Z"/></g>
<g><path style="opacity:1" fill="#f2b212" d="M 656.5,561.5 C 632.109,596.56 608.109,631.893 584.5,667.5C 579.815,668.538 574.981,669.538 570,670.5C 569.167,670.167 568.333,669.833 567.5,669.5C 586.175,642.149 605.342,615.149 625,588.5C 633.576,577.079 644.076,568.079 656.5,561.5 Z"/></g>
<g><path style="opacity:0.984" fill="#145380" d="M 177.5,567.5 C 205.035,642.244 241.201,712.244 286,777.5C 286.684,778.784 286.517,779.951 285.5,781C 282.064,783.712 278.397,785.879 274.5,787.5C 237.076,734.327 205.076,677.994 178.5,618.5C 177.73,604.192 177.063,589.858 176.5,575.5C 176.503,572.645 176.836,569.978 177.5,567.5 Z"/></g>
<g><path style="opacity:1" fill="#ec9312" d="M 705.5,570.5 C 708.054,574.123 710.054,578.123 711.5,582.5C 710.504,582.414 709.671,582.748 709,583.5C 694.637,604.679 680.137,625.679 665.5,646.5C 669.133,635.001 672.133,623.335 674.5,611.5C 676.017,611.489 677.184,610.823 678,609.5C 686.719,596.016 695.886,583.016 705.5,570.5 Z"/></g>
<g><path style="opacity:1" fill="#f0a60d" d="M 662.5,574.5 C 663.815,583.598 663.815,592.598 662.5,601.5C 662.665,598.15 662.498,594.817 662,591.5C 646.205,615.593 630.038,639.426 613.5,663C 615.134,663.494 616.801,663.66 618.5,663.5C 612.342,664.465 606.008,665.132 599.5,665.5C 619.363,634.317 640.363,603.984 662.5,574.5 Z"/></g>
<g><path style="opacity:1" fill="#027cc4" d="M 338.5,575.5 C 382.184,614.521 425.517,653.854 468.5,693.5C 455.852,697.327 443.352,701.661 431,706.5C 416.547,703.024 403.713,696.524 392.5,687C 368.358,662.566 351.525,633.732 342,600.5C 340.039,592.273 338.872,583.94 338.5,575.5 Z"/></g>
<g><path style="opacity:1" fill="#fbfdfd" d="M 507.5,578.5 C 512.004,587.612 513.67,597.279 512.5,607.5C 508.833,607.5 505.167,607.5 501.5,607.5C 489.37,607.247 478.703,610.914 469.5,618.5C 463.833,622.167 459.167,626.833 455.5,632.5C 454.577,633.303 453.577,633.47 452.5,633C 436.186,615.689 416.186,608.856 392.5,612.5C 392.295,604.133 392.629,595.8 393.5,587.5C 397.793,588.656 402.126,589.656 406.5,590.5C 422.223,595.433 438.223,599.766 454.5,603.5C 455.833,603.333 457.167,603.167 458.5,603C 474.619,594.274 490.952,586.107 507.5,578.5 Z"/></g>
<g><path style="opacity:1" fill="#0d6096" d="M 536.5,558.5 C 551.663,572.829 566.996,586.995 582.5,601C 585.065,603.08 587.732,604.913 590.5,606.5C 583.833,616.5 577.167,626.5 570.5,636.5C 559.033,626.869 547.7,617.036 536.5,607C 534.963,605.89 534.297,604.39 534.5,602.5C 534.982,601.584 535.315,600.584 535.5,599.5C 534.758,597.02 533.758,594.687 532.5,592.5C 536.59,581.562 534.923,571.729 527.5,563C 530.243,560.962 533.243,559.462 536.5,558.5 Z"/></g>
<g><path style="opacity:1" fill="#eb8d10" d="M 711.5,582.5 C 713.062,586.345 714.729,590.179 716.5,594C 716.43,594.765 716.097,595.265 715.5,595.5C 715.607,593.621 715.107,593.288 714,594.5C 699.624,616.086 685.124,637.586 670.5,659C 671.416,659.278 672.082,659.778 672.5,660.5C 668.116,660.826 663.783,660.492 659.5,659.5C 661.788,655.26 663.788,650.927 665.5,646.5C 680.137,625.679 694.637,604.679 709,583.5C 709.671,582.748 710.504,582.414 711.5,582.5 Z"/></g>
<g><path style="opacity:1" fill="#ee9e0d" d="M 662.5,601.5 C 661.41,621.94 656.91,641.607 649,660.5C 638.921,661.91 628.754,662.91 618.5,663.5C 616.801,663.66 615.134,663.494 613.5,663C 630.038,639.426 646.205,615.593 662,591.5C 662.498,594.817 662.665,598.15 662.5,601.5 Z"/></g>
<g><path style="opacity:1" fill="#ea8712" d="M 715.5,595.5 C 709.971,618.553 700.637,639.886 687.5,659.5C 682.544,660.494 677.544,660.827 672.5,660.5C 672.082,659.778 671.416,659.278 670.5,659C 685.124,637.586 699.624,616.086 714,594.5C 715.107,593.288 715.607,593.621 715.5,595.5 Z"/></g>
<g><path style="opacity:1" fill="#2778b2" d="M 503.5,575.5 C 504.448,576.978 505.781,577.978 507.5,578.5C 490.952,586.107 474.619,594.274 458.5,603C 457.167,603.167 455.833,603.333 454.5,603.5C 438.223,599.766 422.223,595.433 406.5,590.5C 406.443,589.391 406.11,588.391 405.5,587.5C 421.661,591.582 437.827,595.582 454,599.5C 455.167,599.333 456.333,599.167 457.5,599C 472.744,590.906 488.077,583.073 503.5,575.5 Z"/></g>
<g><path style="opacity:1" fill="#0e68a2" d="M 534.5,602.5 C 534.297,604.39 534.963,605.89 536.5,607C 547.7,617.036 559.033,626.869 570.5,636.5C 564.306,645.566 557.64,654.233 550.5,662.5C 548.405,661.588 546.405,660.421 544.5,659C 527.061,642.734 509.394,626.567 491.5,610.5C 494.759,609.02 498.092,608.02 501.5,607.5C 505.167,607.5 508.833,607.5 512.5,607.5C 513.67,597.279 512.004,587.612 507.5,578.5C 505.781,577.978 504.448,576.978 503.5,575.5C 508.947,572.274 514.613,569.274 520.5,566.5C 522.149,567.648 523.649,568.981 525,570.5C 529.92,580.301 529.42,589.801 523.5,599C 524.394,600.396 525.061,601.896 525.5,603.5C 524.431,608.8 524.264,614.134 525,619.5C 528.731,630.974 534.898,632.474 543.5,624C 537.218,619.87 533.551,614.037 532.5,606.5C 532.34,604.645 533.007,603.312 534.5,602.5 Z"/></g>
<g><path style="opacity:1" fill="#096dab" d="M 501.5,607.5 C 498.092,608.02 494.759,609.02 491.5,610.5C 509.394,626.567 527.061,642.734 544.5,659C 546.405,660.421 548.405,661.588 550.5,662.5C 547.046,667.126 543.379,671.626 539.5,676C 537.19,676.497 534.857,676.663 532.5,676.5C 511.552,657.223 490.552,637.89 469.5,618.5C 478.703,610.914 489.37,607.247 501.5,607.5 Z"/></g>
<g><path style="opacity:1" fill="#0771b2" d="M 469.5,618.5 C 490.552,637.89 511.552,657.223 532.5,676.5C 524.688,678.786 516.688,680.786 508.5,682.5C 507.972,681.279 507.305,680.113 506.5,679C 488.953,663.946 471.953,648.446 455.5,632.5C 459.167,626.833 463.833,622.167 469.5,618.5 Z"/></g>
<g><path style="opacity:1" fill="#125786" d="M 335.5,636.5 C 351.344,668.659 373.677,695.492 402.5,717C 380.745,726.378 359.412,736.545 338.5,747.5C 336.649,710.586 335.649,673.586 335.5,636.5 Z"/></g>
<g><path style="opacity:1" fill="#ed9910" d="M 686.5,668.5 C 684.412,675.351 681.745,682.018 678.5,688.5C 663.118,689.34 647.785,690.673 632.5,692.5C 637.874,686.119 642.541,679.119 646.5,671.5C 643.914,670.52 641.247,670.187 638.5,670.5C 654.297,668.751 670.297,668.085 686.5,668.5 Z"/></g>
<g><path style="opacity:1" fill="#eda00e" d="M 686.5,668.5 C 708.736,668.432 730.736,669.765 752.5,672.5C 750.799,678.438 748.799,684.271 746.5,690C 747.737,690.232 748.737,690.732 749.5,691.5C 733.874,689.787 718.207,689.287 702.5,690C 696.392,692.441 691.892,696.608 689,702.5C 687.602,708.781 686.436,715.115 685.5,721.5C 686.132,727.779 689.132,732.446 694.5,735.5C 693.081,736.451 691.415,736.784 689.5,736.5C 686.315,736.02 683.481,736.686 681,738.5C 679.966,742.333 678.8,745.999 677.5,749.5C 677.649,748.448 677.483,747.448 677,746.5C 658.881,767.13 637.715,783.797 613.5,796.5C 550.949,803.221 490.616,818.554 432.5,842.5C 429.784,842.322 427.117,841.822 424.5,841C 416.726,838.245 409.059,835.411 401.5,832.5C 408.546,827.412 412.213,820.412 412.5,811.5C 411.284,804.016 408.784,797.016 405,790.5C 401.076,787.414 396.576,785.914 391.5,786C 394.167,784.333 396.833,782.667 399.5,781C 400.574,780.261 401.241,779.261 401.5,778C 399.139,771.445 396.639,764.945 394,758.5C 392.867,756.789 391.367,756.289 389.5,757C 381.139,762.178 372.805,767.344 364.5,772.5C 358.479,765.963 352.146,759.629 345.5,753.5C 354.903,747.465 364.903,742.465 375.5,738.5C 386.687,749.51 399.187,758.843 413,766.5C 413.497,763.854 413.664,761.187 413.5,758.5C 415.112,778.573 416.779,798.739 418.5,819C 425.81,817.897 432.81,815.563 439.5,812C 440.76,808.291 442.094,804.624 443.5,801C 446.612,799.694 449.779,798.528 453,797.5C 454.854,799.023 456.354,800.856 457.5,803C 465.409,801.362 473.076,798.696 480.5,795C 481.728,793.51 481.728,792.01 480.5,790.5C 481.999,789.506 483.666,789.506 485.5,790.5C 485.685,792.89 487.018,793.89 489.5,793.5C 492.512,792.828 495.512,792.161 498.5,791.5C 542.543,793.147 582.543,781.48 618.5,756.5C 618.223,759.448 618.556,762.281 619.5,765C 628.107,765.611 636.607,765.111 645,763.5C 647.989,748.569 650.655,733.569 653,718.5C 653.674,717.422 654.674,716.755 656,716.5C 662.476,715.766 668.976,715.266 675.5,715C 676,714.5 676.5,714 677,713.5C 678.997,705.215 679.497,696.881 678.5,688.5C 681.745,682.018 684.412,675.351 686.5,668.5 Z"/></g>
<g><path style="opacity:1" fill="#efab0e" d="M 752.5,672.5 C 763.229,673.341 773.896,674.675 784.5,676.5C 772.348,720.343 751.015,759.01 720.5,792.5C 718.257,793.474 715.924,793.808 713.5,793.5C 695.833,793.5 678.167,793.5 660.5,793.5C 665.681,792.833 671.015,792.167 676.5,791.5C 685.555,783.446 693.889,774.779 701.5,765.5C 730.876,772.429 747.876,761.095 752.5,731.5C 752.216,726.261 749.883,722.261 745.5,719.5C 746.568,718.566 747.901,718.232 749.5,718.5C 752.777,718.784 755.943,718.451 759,717.5C 760.835,710.161 762.668,702.827 764.5,695.5C 764.43,694.228 764.097,693.062 763.5,692C 758.845,691.501 754.179,691.334 749.5,691.5C 748.737,690.732 747.737,690.232 746.5,690C 748.799,684.271 750.799,678.438 752.5,672.5 Z"/></g>
<g><path style="opacity:1" fill="#ea8e12" d="M 638.5,670.5 C 641.247,670.187 643.914,670.52 646.5,671.5C 642.541,679.119 637.874,686.119 632.5,692.5C 622.485,693.096 612.485,693.93 602.5,695C 602,695.5 601.5,696 601,696.5C 600.333,704.167 600.333,711.833 601,719.5C 602.699,720.406 604.533,720.739 606.5,720.5C 601.249,723.464 595.916,726.464 590.5,729.5C 595.119,709.639 587.452,700.472 567.5,702C 549.446,705.744 531.446,709.744 513.5,714C 512.884,715.4 512.551,716.9 512.5,718.5C 514.014,732.489 515.347,746.489 516.5,760.5C 515.549,759.081 515.216,757.415 515.5,755.5C 512.612,754.99 510.279,755.656 508.5,757.5C 506.453,745.009 504.62,732.342 503,719.5C 502.261,718.426 501.261,717.759 500,717.5C 495.177,718.942 490.344,720.275 485.5,721.5C 473.808,718.567 462.474,714.401 451.5,709C 452.056,708.617 452.389,708.117 452.5,707.5C 512.853,687.217 574.853,674.884 638.5,670.5 Z"/></g>
<g><path style="opacity:1" fill="#f2b20a" d="M 784.5,676.5 C 796.59,678.856 808.59,681.523 820.5,684.5C 810.063,725.671 791.897,763.004 766,796.5C 765.184,797.823 764.017,798.489 762.5,798.5C 746.039,796.696 729.706,795.03 713.5,793.5C 715.924,793.808 718.257,793.474 720.5,792.5C 751.015,759.01 772.348,720.343 784.5,676.5 Z"/></g>
<g><path style="opacity:1" fill="#f3b80a" d="M 820.5,684.5 C 826.563,686.299 832.563,688.299 838.5,690.5C 827.437,731.289 809.437,768.622 784.5,802.5C 776.973,801.526 769.64,800.192 762.5,798.5C 764.017,798.489 765.184,797.823 766,796.5C 791.897,763.004 810.063,725.671 820.5,684.5 Z"/></g>
<g><path style="opacity:1" fill="#2f5a7c" d="M 678.5,688.5 C 679.497,696.881 678.997,705.215 677,713.5C 676.5,714 676,714.5 675.5,715C 668.976,715.266 662.476,715.766 656,716.5C 654.674,716.755 653.674,717.422 653,718.5C 650.655,733.569 647.989,748.569 645,763.5C 636.607,765.111 628.107,765.611 619.5,765C 618.556,762.281 618.223,759.448 618.5,756.5C 620.666,744.37 622.332,732.037 623.5,719.5C 617.811,719.532 612.145,719.866 606.5,720.5C 604.533,720.739 602.699,720.406 601,719.5C 600.333,711.833 600.333,704.167 601,696.5C 601.5,696 602,695.5 602.5,695C 612.485,693.93 622.485,693.096 632.5,692.5C 647.785,690.673 663.118,689.34 678.5,688.5 Z"/></g>
<g><path style="opacity:1" fill="#2c5a7e" d="M 749.5,691.5 C 754.179,691.334 758.845,691.501 763.5,692C 764.097,693.062 764.43,694.228 764.5,695.5C 762.668,702.827 760.835,710.161 759,717.5C 755.943,718.451 752.777,718.784 749.5,718.5C 747.372,717.371 745.039,717.204 742.5,718C 743.527,718.513 744.527,719.013 745.5,719.5C 749.883,722.261 752.216,726.261 752.5,731.5C 747.876,761.095 730.876,772.429 701.5,765.5C 693.684,764.346 685.684,763.512 677.5,763C 676.106,762.044 675.439,760.711 675.5,759C 676.25,755.837 676.916,752.67 677.5,749.5C 678.8,745.999 679.966,742.333 681,738.5C 683.481,736.686 686.315,736.02 689.5,736.5C 691.966,737.634 694.633,737.801 697.5,737C 696.473,736.487 695.473,735.987 694.5,735.5C 689.132,732.446 686.132,727.779 685.5,721.5C 686.436,715.115 687.602,708.781 689,702.5C 691.892,696.608 696.392,692.441 702.5,690C 718.207,689.287 733.874,689.787 749.5,691.5 Z"/></g>
<g><path style="opacity:1" fill="#f4be08" d="M 838.5,690.5 C 842.579,691.637 846.579,692.971 850.5,694.5C 840.137,733.889 823.304,770.223 800,803.5C 798.989,804.337 797.822,804.67 796.5,804.5C 792.443,804.152 788.443,803.486 784.5,802.5C 809.437,768.622 827.437,731.289 838.5,690.5 Z"/></g>
<g><path style="opacity:1" fill="#fafbfc" d="M 667.5,691.5 C 670.5,691.5 673.5,691.5 676.5,691.5C 676.073,698.532 675.406,705.532 674.5,712.5C 666.486,712.568 658.486,712.901 650.5,713.5C 647.607,729.42 645.273,745.42 643.5,761.5C 636.143,762.282 628.809,762.282 621.5,761.5C 623.628,746.192 625.628,730.859 627.5,715.5C 619.494,716.107 611.494,716.773 603.5,717.5C 603.5,710.833 603.5,704.167 603.5,697.5C 625.008,695.82 646.342,693.82 667.5,691.5 Z"/></g>
<g><path style="opacity:1" fill="#fbfcfc" d="M 702.5,692.5 C 722.169,693.097 741.836,693.763 761.5,694.5C 759.99,701.541 758.323,708.541 756.5,715.5C 741.523,714.42 726.523,713.753 711.5,713.5C 711.5,715.167 711.5,716.833 711.5,718.5C 721.496,719.285 731.496,720.119 741.5,721C 748.453,723.967 750.953,729.133 749,736.5C 746.714,742.701 744.047,748.701 741,754.5C 737.395,758.721 732.895,761.554 727.5,763C 711.169,762.445 694.836,761.612 678.5,760.5C 680.015,753.441 681.682,746.441 683.5,739.5C 697.797,740.862 712.13,741.529 726.5,741.5C 726.421,740.07 726.754,738.736 727.5,737.5C 717.907,735.915 708.241,734.748 698.5,734C 692.092,731.583 688.758,726.917 688.5,720C 688.179,708.034 692.846,698.867 702.5,692.5 Z"/></g>
<g><path style="opacity:1" fill="#f6c415" d="M 850.5,694.5 C 855.76,696.255 860.76,698.588 865.5,701.5C 844.667,735.833 823.833,770.167 803,804.5C 800.726,805.811 798.56,805.811 796.5,804.5C 797.822,804.67 798.989,804.337 800,803.5C 823.304,770.223 840.137,733.889 850.5,694.5 Z"/></g>
<g><path style="opacity:1" fill="#2c5a7e" d="M 590.5,729.5 C 589.998,742.871 588.998,756.204 587.5,769.5C 579.927,771.548 572.261,773.215 564.5,774.5C 562.97,774.36 561.97,773.693 561.5,772.5C 561.5,758.167 561.5,743.833 561.5,729.5C 559.901,729.232 558.568,729.566 557.5,730.5C 552.868,731.383 548.202,732.05 543.5,732.5C 544.385,747.832 544.885,763.166 545,778.5C 536.701,781.244 528.201,782.744 519.5,783C 518.272,775.565 517.272,768.065 516.5,760.5C 515.347,746.489 514.014,732.489 512.5,718.5C 512.551,716.9 512.884,715.4 513.5,714C 531.446,709.744 549.446,705.744 567.5,702C 587.452,700.472 595.119,709.639 590.5,729.5 Z"/></g>
<g><path style="opacity:1" fill="#fcfcfd" d="M 567.5,704.5 C 573.563,703.838 579.23,705.004 584.5,708C 585.701,708.903 586.535,710.069 587,711.5C 587.144,730.178 586.644,748.845 585.5,767.5C 578.557,769.089 571.557,770.422 564.5,771.5C 564.833,756.152 564.499,740.819 563.5,725.5C 555.974,727.805 548.308,729.472 540.5,730.5C 541.089,745.847 541.589,761.18 542,776.5C 535.267,778.206 528.434,779.54 521.5,780.5C 519.612,759.13 517.778,737.797 516,716.5C 533.274,712.548 550.44,708.548 567.5,704.5 Z"/></g>
<g><path style="opacity:1" fill="#ea9310" d="M 452.5,707.5 C 452.389,708.117 452.056,708.617 451.5,709C 462.474,714.401 473.808,718.567 485.5,721.5C 482.191,722.663 478.857,723.83 475.5,725C 474.919,725.893 474.585,726.893 474.5,728C 478.106,748.863 481.773,769.697 485.5,790.5C 483.666,789.506 481.999,789.506 480.5,790.5C 470.108,772.055 459.941,753.389 450,734.5C 449.107,733.919 448.107,733.585 447,733.5C 443.859,734.603 440.693,735.603 437.5,736.5C 430.181,733.371 423.181,729.537 416.5,725C 415.177,724.184 414.511,723.017 414.5,721.5C 426.707,715.872 439.374,711.206 452.5,707.5 Z"/></g>
<g><path style="opacity:1" fill="#647055" d="M 749.5,718.5 C 747.901,718.232 746.568,718.566 745.5,719.5C 744.527,719.013 743.527,718.513 742.5,718C 745.039,717.204 747.372,717.371 749.5,718.5 Z"/></g>
<g><path style="opacity:1" fill="#0b6ca8" d="M 235.5,589.5 C 246.194,621.233 258.861,652.233 273.5,682.5C 286.412,709.342 301.078,735.008 317.5,759.5C 311.967,763.523 306.134,767.19 300,770.5C 270.357,726.886 246.19,680.219 227.5,630.5C 230.701,616.963 233.368,603.296 235.5,589.5 Z"/></g>
<g><path style="opacity:1" fill="#305a7d" d="M 508.5,757.5 C 509.594,767.174 510.427,776.84 511,786.5C 506.831,788.405 502.664,790.071 498.5,791.5C 495.512,792.161 492.512,792.828 489.5,793.5C 487.018,793.89 485.685,792.89 485.5,790.5C 481.773,769.697 478.106,748.863 474.5,728C 474.585,726.893 474.919,725.893 475.5,725C 478.857,723.83 482.191,722.663 485.5,721.5C 490.344,720.275 495.177,718.942 500,717.5C 501.261,717.759 502.261,718.426 503,719.5C 504.62,732.342 506.453,745.009 508.5,757.5 Z"/></g>
<g><path style="opacity:1" fill="#fafbfc" d="M 498.5,720.5 C 500.262,724.761 501.429,729.428 502,734.5C 504.122,751.516 506.288,768.516 508.5,785.5C 501.839,787.164 495.173,788.831 488.5,790.5C 484.833,769.167 481.167,747.833 477.5,726.5C 484.833,725.254 491.833,723.254 498.5,720.5 Z"/></g>
<g><path style="opacity:1" fill="#eb980e" d="M 618.5,756.5 C 582.543,781.48 542.543,793.147 498.5,791.5C 502.664,790.071 506.831,788.405 511,786.5C 510.427,776.84 509.594,767.174 508.5,757.5C 510.279,755.656 512.612,754.99 515.5,755.5C 515.216,757.415 515.549,759.081 516.5,760.5C 517.272,768.065 518.272,775.565 519.5,783C 528.201,782.744 536.701,781.244 545,778.5C 544.885,763.166 544.385,747.832 543.5,732.5C 548.202,732.05 552.868,731.383 557.5,730.5C 558.5,730.5 559.5,730.5 560.5,730.5C 560.171,744.677 560.504,758.677 561.5,772.5C 561.97,773.693 562.97,774.36 564.5,774.5C 572.261,773.215 579.927,771.548 587.5,769.5C 588.998,756.204 589.998,742.871 590.5,729.5C 595.916,726.464 601.249,723.464 606.5,720.5C 612.145,719.866 617.811,719.532 623.5,719.5C 622.332,732.037 620.666,744.37 618.5,756.5 Z"/></g>
<g><path style="opacity:1" fill="#ed990e" d="M 414.5,721.5 C 414.511,723.017 415.177,724.184 416.5,725C 423.181,729.537 430.181,733.371 437.5,736.5C 429.922,739.614 422.256,742.781 414.5,746C 413.536,750.066 413.203,754.233 413.5,758.5C 413.664,761.187 413.497,763.854 413,766.5C 399.187,758.843 386.687,749.51 375.5,738.5C 388.022,731.876 401.022,726.21 414.5,721.5 Z"/></g>
<g><path style="opacity:1" fill="#2c5a7e" d="M 480.5,790.5 C 481.728,792.01 481.728,793.51 480.5,795C 473.076,798.696 465.409,801.362 457.5,803C 456.354,800.856 454.854,799.023 453,797.5C 449.779,798.528 446.612,799.694 443.5,801C 442.094,804.624 440.76,808.291 439.5,812C 432.81,815.563 425.81,817.897 418.5,819C 416.779,798.739 415.112,778.573 413.5,758.5C 413.203,754.233 413.536,750.066 414.5,746C 422.256,742.781 429.922,739.614 437.5,736.5C 440.693,735.603 443.859,734.603 447,733.5C 448.107,733.585 449.107,733.919 450,734.5C 459.941,753.389 470.108,772.055 480.5,790.5 Z"/></g>
<g><path style="opacity:1" fill="#7b7748" d="M 694.5,735.5 C 695.473,735.987 696.473,736.487 697.5,737C 694.633,737.801 691.966,737.634 689.5,736.5C 691.415,736.784 693.081,736.451 694.5,735.5 Z"/></g>
<g><path style="opacity:1" fill="#fcfcfd" d="M 445.5,736.5 C 446.496,736.414 447.329,736.748 448,737.5C 457.833,755.833 467.667,774.167 477.5,792.5C 471.49,795.947 465.157,798.614 458.5,800.5C 458.031,797.692 456.697,795.358 454.5,793.5C 449.873,795.431 445.206,797.265 440.5,799C 438.947,802.217 437.947,805.717 437.5,809.5C 432.167,811.833 426.833,814.167 421.5,816.5C 419.519,793.517 417.852,770.517 416.5,747.5C 426.464,744.404 436.131,740.738 445.5,736.5 Z"/></g>
<g><path style="opacity:1" fill="#efa50b" d="M 677.5,749.5 C 676.916,752.67 676.25,755.837 675.5,759C 675.439,760.711 676.106,762.044 677.5,763C 685.684,763.512 693.684,764.346 701.5,765.5C 693.889,774.779 685.555,783.446 676.5,791.5C 671.015,792.167 665.681,792.833 660.5,793.5C 644.782,793.836 629.115,794.836 613.5,796.5C 637.715,783.797 658.881,767.13 677,746.5C 677.483,747.448 677.649,748.448 677.5,749.5 Z"/></g>
<g><path style="opacity:1" fill="#efa50e" d="M 345.5,753.5 C 352.146,759.629 358.479,765.963 364.5,772.5C 358.261,775.872 352.428,779.872 347,784.5C 344.056,788.715 342.889,793.382 343.5,798.5C 340.28,792.425 335.614,787.259 329.5,783C 324.978,778.977 320.978,774.477 317.5,769.5C 326.5,763.664 335.833,758.331 345.5,753.5 Z"/></g>
<g><path style="opacity:1" fill="#a9812f" d="M 557.5,730.5 C 558.568,729.566 559.901,729.232 561.5,729.5C 561.5,743.833 561.5,758.167 561.5,772.5C 560.504,758.677 560.171,744.677 560.5,730.5C 559.5,730.5 558.5,730.5 557.5,730.5 Z"/></g>
<g><path style="opacity:1" fill="#2a5a7e" d="M 401.5,832.5 C 390.461,838.68 379.794,845.347 369.5,852.5C 367.689,853.822 365.689,854.322 363.5,854C 361.784,850.933 360.45,847.767 359.5,844.5C 358.894,840.578 357.894,836.745 356.5,833C 358.692,830.22 361.359,827.886 364.5,826C 355.886,824.72 350.386,819.886 348,811.5C 345.921,807.348 344.421,803.014 343.5,798.5C 342.889,793.382 344.056,788.715 347,784.5C 352.428,779.872 358.261,775.872 364.5,772.5C 372.805,767.344 381.139,762.178 389.5,757C 391.367,756.289 392.867,756.789 394,758.5C 396.639,764.945 399.139,771.445 401.5,778C 401.241,779.261 400.574,780.261 399.5,781C 396.833,782.667 394.167,784.333 391.5,786C 396.576,785.914 401.076,787.414 405,790.5C 408.784,797.016 411.284,804.016 412.5,811.5C 412.213,820.412 408.546,827.412 401.5,832.5 Z"/></g>
<g><path style="opacity:1" fill="#fbfcfc" d="M 388.5,760.5 C 391.05,760.561 392.55,761.894 393,764.5C 395.178,769.021 396.511,773.687 397,778.5C 386.415,785.209 375.915,792.042 365.5,799C 366.147,800.609 366.98,802.109 368,803.5C 375.167,799 382.333,794.5 389.5,790C 395.378,788.347 400.212,789.847 404,794.5C 408.542,802.414 409.875,810.747 408,819.5C 406.789,822.759 404.956,825.592 402.5,828C 390.163,836.196 377.496,843.696 364.5,850.5C 362.79,844.556 361.623,838.556 361,832.5C 370.415,826.209 379.915,820.042 389.5,814C 391.368,809.2 390.035,807.867 385.5,810C 379.335,814.25 373.002,818.25 366.5,822C 358.628,822.163 353.461,818.33 351,810.5C 347.602,804.578 346.269,798.245 347,791.5C 347.7,787.934 349.533,785.1 352.5,783C 364.732,775.725 376.732,768.225 388.5,760.5 Z"/></g>
<g><path style="opacity:1" fill="#235982" d="M 437.5,762.5 C 441.168,767.527 444.501,772.861 447.5,778.5C 444.369,780.401 441.035,781.735 437.5,782.5C 437.5,775.833 437.5,769.167 437.5,762.5 Z"/></g>
<g><path style="opacity:1" fill="#f0ab0b" d="M 317.5,769.5 C 320.978,774.477 324.978,778.977 329.5,783C 335.614,787.259 340.28,792.425 343.5,798.5C 344.421,803.014 345.921,807.348 348,811.5C 350.386,819.886 355.886,824.72 364.5,826C 361.359,827.886 358.692,830.22 356.5,833C 357.894,836.745 358.894,840.578 359.5,844.5C 344.171,835.827 329.838,825.66 316.5,814C 308.306,805.806 300.14,797.64 292,789.5C 291.53,788.423 291.697,787.423 292.5,786.5C 300.277,780.104 308.61,774.438 317.5,769.5 Z"/></g>
<g><path style="opacity:1" fill="#ac8531" d="M 440.5,773.5 C 441.364,774.688 442.364,775.855 443.5,777C 442.975,777.692 442.308,778.192 441.5,778.5C 440.548,776.955 440.215,775.288 440.5,773.5 Z"/></g>
<g><path style="opacity:1" fill="#f2b20a" d="M 292.5,786.5 C 291.697,787.423 291.53,788.423 292,789.5C 300.14,797.64 308.306,805.806 316.5,814C 329.838,825.66 344.171,835.827 359.5,844.5C 360.45,847.767 361.784,850.933 363.5,854C 365.689,854.322 367.689,853.822 369.5,852.5C 375.458,854.278 381.124,856.778 386.5,860C 388.74,860.977 391.073,861.477 393.5,861.5C 380.369,869.235 367.369,877.235 354.5,885.5C 319.085,866.097 288.085,841.097 261.5,810.5C 267.013,804.824 273.013,799.658 279.5,795C 283.734,791.918 288.067,789.084 292.5,786.5 Z"/></g>
<g><path style="opacity:0.997" fill="#e67914" d="M 744.5,805.5 C 744.167,805.5 743.833,805.5 743.5,805.5C 739.5,805.5 735.5,805.5 731.5,805.5C 719.307,805.959 707.307,806.959 695.5,808.5C 659.493,811.358 623.826,816.358 588.5,823.5C 566.769,827.268 545.436,832.268 524.5,838.5C 510.848,841.496 497.515,845.496 484.5,850.5C 460.859,857.657 438.859,867.991 418.5,881.5C 414.544,883.485 410.878,885.985 407.5,889C 405.627,890.704 403.96,892.537 402.5,894.5C 398.773,898.273 395.773,902.606 393.5,907.5C 392.4,909.277 391.566,911.277 391,913.5C 390.702,917.366 390.536,921.032 390.5,924.5C 370.843,921.418 351.176,918.418 331.5,915.5C 352.778,895.747 376.444,879.247 402.5,866C 510.77,812.893 624.77,792.726 744.5,805.5 Z"/></g>
<g><path style="opacity:1" fill="#fafbfc" d="M 731.5,805.5 C 735.5,805.5 739.5,805.5 743.5,805.5C 710.757,849.916 673.091,889.916 630.5,925.5C 598.038,951.889 564.372,976.556 529.5,999.5C 524.723,1002.06 520.056,1004.89 515.5,1008C 514.5,1008.67 513.5,1008.67 512.5,1008C 470.615,977.294 430.948,943.794 393.5,907.5C 395.773,902.606 398.773,898.273 402.5,894.5C 433.543,925.561 467.21,953.227 503.5,977.5C 506.586,980.223 509.92,982.723 513.5,985C 514.833,985.667 516.167,985.667 517.5,985C 538.022,973.911 558.022,962.078 577.5,949.5C 637.468,910.87 688.801,862.87 731.5,805.5 Z"/></g>
<g><path style="opacity:1" fill="#0d659f" d="M 695.5,808.5 C 696.873,808.343 698.207,808.51 699.5,809C 667.798,847.31 631.798,880.81 591.5,909.5C 589.695,902.232 588.861,894.565 589,886.5C 588.662,869.328 588.162,852.161 587.5,835C 587.533,831.085 587.867,827.251 588.5,823.5C 623.826,816.358 659.493,811.358 695.5,808.5 Z"/></g>
<g><path style="opacity:1" fill="#f3b809" d="M 261.5,810.5 C 288.085,841.097 319.085,866.097 354.5,885.5C 349.473,889.853 344.14,893.853 338.5,897.5C 303.72,878.068 273.387,853.068 247.5,822.5C 251.847,818.155 256.514,814.155 261.5,810.5 Z"/></g>
<g><path style="opacity:1" fill="#f5bf0d" d="M 247.5,822.5 C 273.387,853.068 303.72,878.068 338.5,897.5C 332.696,903.134 326.696,908.634 320.5,914C 319.833,914.667 319.167,914.667 318.5,914C 291.667,887.167 264.833,860.333 238,833.5C 240.131,829.183 243.298,825.516 247.5,822.5 Z"/></g>
<g><path style="opacity:1" fill="#0d6198" d="M 588.5,823.5 C 587.867,827.251 587.533,831.085 587.5,835C 588.162,852.161 588.662,869.328 589,886.5C 588.861,894.565 589.695,902.232 591.5,909.5C 589.381,911.4 587.047,913.066 584.5,914.5C 565.667,927.755 546,939.755 525.5,950.5C 524.23,913.65 522.897,876.65 521.5,839.5C 522.791,839.737 523.791,839.404 524.5,838.5C 545.436,832.268 566.769,827.268 588.5,823.5 Z"/></g>
<g><path style="opacity:1" fill="#f0ab0e" d="M 401.5,832.5 C 409.059,835.411 416.726,838.245 424.5,841C 427.117,841.822 429.784,842.322 432.5,842.5C 419.457,848.632 406.457,854.966 393.5,861.5C 391.073,861.477 388.74,860.977 386.5,860C 381.124,856.778 375.458,854.278 369.5,852.5C 379.794,845.347 390.461,838.68 401.5,832.5 Z"/></g>
<g><path style="opacity:1" fill="#0f5f93" d="M 524.5,838.5 C 523.791,839.404 522.791,839.737 521.5,839.5C 522.897,876.65 524.23,913.65 525.5,950.5C 522.469,952.835 519.135,954.835 515.5,956.5C 513.004,955.42 510.67,954.086 508.5,952.5C 506.038,960.679 504.372,969.012 503.5,977.5C 467.21,953.227 433.543,925.561 402.5,894.5C 403.96,892.537 405.627,890.704 407.5,889C 410.878,885.985 414.544,883.485 418.5,881.5C 419.922,881.709 421.255,882.209 422.5,883C 442.315,901.808 463.148,919.308 485,935.5C 485.004,910.831 484.504,886.164 483.5,861.5C 483.535,857.751 483.869,854.084 484.5,850.5C 497.515,845.496 510.848,841.496 524.5,838.5 Z"/></g>
<g><path style="opacity:1" fill="#135685" d="M 731.5,805.5 C 688.801,862.87 637.468,910.87 577.5,949.5C 579.449,937.753 581.783,926.086 584.5,914.5C 587.047,913.066 589.381,911.4 591.5,909.5C 631.798,880.81 667.798,847.31 699.5,809C 698.207,808.51 696.873,808.343 695.5,808.5C 707.307,806.959 719.307,805.959 731.5,805.5 Z"/></g>
<g><path style="opacity:0.989" fill="#0c66a0" d="M 743.5,805.5 C 743.833,805.5 744.167,805.5 744.5,805.5C 754.784,805.701 764.784,807.034 774.5,809.5C 733.883,863.451 686.883,911.117 633.5,952.5C 633.156,943.287 632.156,934.287 630.5,925.5C 673.091,889.916 710.757,849.916 743.5,805.5 Z"/></g>
<g><path style="opacity:1" fill="#105c8e" d="M 484.5,850.5 C 483.869,854.084 483.535,857.751 483.5,861.5C 484.504,886.164 485.004,910.831 485,935.5C 463.148,919.308 442.315,901.808 422.5,883C 421.255,882.209 419.922,881.709 418.5,881.5C 438.859,867.991 460.859,857.657 484.5,850.5 Z"/></g>
<g><path style="opacity:1" fill="#105b8d" d="M 584.5,914.5 C 581.783,926.086 579.449,937.753 577.5,949.5C 558.022,962.078 538.022,973.911 517.5,985C 516.167,985.667 514.833,985.667 513.5,985C 509.92,982.723 506.586,980.223 503.5,977.5C 504.372,969.012 506.038,960.679 508.5,952.5C 510.67,954.086 513.004,955.42 515.5,956.5C 519.135,954.835 522.469,952.835 525.5,950.5C 546,939.755 565.667,927.755 584.5,914.5 Z"/></g>
<g><path style="opacity:0.986" fill="#0e6298" d="M 630.5,925.5 C 632.156,934.287 633.156,943.287 633.5,952.5C 600.832,978.147 566.499,1001.48 530.5,1022.5C 530.825,1014.65 530.492,1006.98 529.5,999.5C 564.372,976.556 598.038,951.889 630.5,925.5 Z"/></g>
<g><path style="opacity:0.994" fill="#115d90" d="M 393.5,907.5 C 430.948,943.794 470.615,977.294 512.5,1008C 513.5,1008.67 514.5,1008.67 515.5,1008C 520.056,1004.89 524.723,1002.06 529.5,999.5C 530.492,1006.98 530.825,1014.65 530.5,1022.5C 526.407,1024.74 522.407,1027.24 518.5,1030C 517.167,1030.67 515.833,1030.67 514.5,1030C 470.893,997.564 429.56,962.398 390.5,924.5C 390.536,921.032 390.702,917.366 391,913.5C 391.566,911.277 392.4,909.277 393.5,907.5 Z"/></g>
</svg>
