<?xml version="1.0" encoding="UTF-8"?>
<!DOCTYPE svg PUBLIC "-//W3C//DTD SVG 1.1//EN" "http://www.w3.org/Graphics/SVG/1.1/DTD/svg11.dtd">
<svg xmlns="http://www.w3.org/2000/svg" version="1.1" width="1120px" height="1241px" style="shape-rendering:geometricPrecision; text-rendering:geometricPrecision; image-rendering:optimizeQuality; fill-rule:evenodd; clip-rule:evenodd" xmlns:xlink="http://www.w3.org/1999/xlink">
<g><path style="opacity:0.982" fill="#04043c" d="M 546.5,53.5 C 549.187,53.3359 551.854,53.5026 554.5,54C 684.473,97.602 814.473,141.102 944.5,184.5C 954.679,220.554 963.679,257.221 971.5,294.5C 971.291,295.086 970.957,295.586 970.5,296C 1043,319.501 1065.16,366.668 1037,437.5C 1025.92,457.915 1009.75,472.749 988.5,482C 1021.51,479.315 1054.51,476.148 1087.5,472.5C 1087.5,567.833 1087.5,663.167 1087.5,758.5C 1022.13,765.842 957.459,777.175 893.5,792.5C 840.879,876.293 774.546,947.46 694.5,1006C 648.986,1038.85 601.153,1068.01 551,1093.5C 491.049,1063.37 434.715,1027.7 382,986.5C 278.491,1041.47 180.324,1104.31 87.5,1175C 76.1667,1184.67 64.8333,1194.33 53.5,1204C 51.9751,1205.01 50.3084,1205.51 48.5,1205.5C 48.3333,1024.83 48.5,844.166 49,663.5C 79.2971,655.301 109.797,647.801 140.5,641C 135.656,628.843 132.323,616.51 130.5,604C 122.735,573.577 117.068,542.744 113.5,511.5C 86.0686,515.155 58.902,520.155 32,526.5C 31.8333,526 31.6667,525.5 31.5,525C 57.3913,497.774 84.558,471.941 113,447.5C 117.064,371.051 128.397,295.717 147,221.5C 150.465,209.44 154.131,197.44 158,185.5C 287.553,141.372 417.053,97.3716 546.5,53.5 Z"/></g>
<g><path style="opacity:1" fill="#f59d35" d="M 914.5,264.5 C 912.5,250.334 909.167,236.501 904.5,223C 786.668,183.001 668.668,143.501 550.5,104.5C 495.2,122.1 440.2,140.6 385.5,160C 437.881,168.354 482.547,191.188 519.5,228.5C 434.28,249.101 353.947,281.935 278.5,327C 253.263,342.441 228.597,358.608 204.5,375.5C 205.803,372.881 205.303,370.547 203,368.5C 194.167,359.52 183.667,353.187 171.5,349.5C 168.247,367.695 166.247,386.028 165.5,404.5C 156.525,411.803 147.525,419.137 138.5,426.5C 137.517,422.702 137.183,418.702 137.5,414.5C 138.613,403.371 139.613,392.371 140.5,381.5C 141.884,376.056 142.55,370.389 142.5,364.5C 147.901,308.991 159.234,254.824 176.5,202C 301.061,159.868 425.728,118.035 550.5,76.5C 675.531,118.233 800.531,160.066 925.5,202C 928.597,208.959 931.097,216.125 933,223.5C 936.662,238.817 940.329,254.15 944,269.5C 945.652,276.437 946.819,283.437 947.5,290.5C 944.327,290.599 941.327,289.932 938.5,288.5C 940.492,283.313 939.159,279.146 934.5,276C 927.945,271.939 921.279,268.106 914.5,264.5 Z"/></g>
<g><path style="opacity:1" fill="#492a85" d="M 914.5,264.5 C 846.535,233.776 775.201,216.61 700.5,213C 639.461,210.382 579.128,215.549 519.5,228.5C 482.547,191.188 437.881,168.354 385.5,160C 440.2,140.6 495.2,122.1 550.5,104.5C 668.668,143.501 786.668,183.001 904.5,223C 909.167,236.501 912.5,250.334 914.5,264.5 Z"/></g>
<g><path style="opacity:1" fill="#4a2a85" d="M 347.5,187.5 C 397.299,186.419 441.632,201.253 480.5,232C 427.419,235.395 376.919,248.562 329,271.5C 328.055,271.095 327.388,270.428 327,269.5C 320.002,246.169 323.002,224.169 336,203.5C 339.277,197.73 343.11,192.397 347.5,187.5 Z"/></g>
<g><path style="opacity:1" fill="#4a2a85" d="M 306.5,192.5 C 307.978,192.238 309.311,192.571 310.5,193.5C 294.595,222.604 292.262,252.771 303.5,284C 291.417,292.224 279.417,300.724 267.5,309.5C 254.926,279.796 249.093,248.796 250,216.5C 267.814,205.836 286.647,197.836 306.5,192.5 Z"/></g>
<g><path style="opacity:1" fill="#4a2a85" d="M 220.5,237.5 C 225.005,268.169 233.005,298.169 244.5,327.5C 237.871,335.465 230.871,343.131 223.5,350.5C 210.423,336.796 194.756,327.462 176.5,322.5C 176.69,307.717 179.523,293.384 185,279.5C 195.542,264.454 207.375,250.454 220.5,237.5 Z"/></g>
<g><path style="opacity:1" fill="#4d20a3" d="M 910.5,300.5 C 906.439,297.3 901.772,295.133 896.5,294C 790.62,260.939 683.287,255.272 574.5,277C 516.002,288.944 459.669,307.278 405.5,332C 415.466,331.155 425.466,330.155 435.5,329C 454.486,327.694 473.486,327.361 492.5,328C 496.25,328.26 499.916,328.927 503.5,330C 448.886,345.141 398.553,369.141 352.5,402C 343.575,409.281 334.908,416.781 326.5,424.5C 290.646,422.919 254.813,423.253 219,425.5C 217.5,425.167 216,424.833 214.5,424.5C 327.586,338.598 454.586,283.764 595.5,260C 670.886,249.763 746.22,250.096 821.5,261C 842.316,265.038 862.983,269.704 883.5,275C 891.482,277.216 899.149,280.216 906.5,284C 909.04,286.205 911.207,288.705 913,291.5C 914.07,295.142 913.236,298.142 910.5,300.5 Z"/></g>
<g><path style="opacity:1" fill="#6f3fbd" d="M 910.5,300.5 C 909.883,302.229 908.883,303.729 907.5,305C 895.514,310.962 883.514,310.962 871.5,305C 860.845,296.879 848.845,291.712 835.5,289.5C 805.302,283.972 774.969,283.139 744.5,287C 701.289,292.405 658.955,301.738 617.5,315C 640.549,312.316 663.716,310.816 687,310.5C 700.246,310.205 713.412,311.039 726.5,313C 732.057,314.778 737.391,317.111 742.5,320C 752.323,327.414 762.656,334.081 773.5,340C 790.555,343.513 807.555,343.18 824.5,339C 842.341,333.706 860.341,329.372 878.5,326C 817.167,370.667 755.833,415.333 694.5,460C 722.258,454.145 749.925,447.478 777.5,440C 783.871,438.818 790.205,437.818 796.5,437C 757.359,450.904 720.026,468.571 684.5,490C 645.421,513.536 608.087,539.536 572.5,568C 561.962,565.216 551.296,562.716 540.5,560.5C 531.702,541.07 523.035,521.57 514.5,502C 504.387,502.655 494.387,504.155 484.5,506.5C 492.922,495.242 502.589,485.075 513.5,476C 548.364,448.72 586.03,425.72 626.5,407C 653.291,395.434 679.291,383.934 704.5,372.5C 707.899,371.984 711.232,371.15 714.5,370C 638.295,374.183 563.961,388.183 491.5,412C 471.962,419.1 452.629,426.767 433.5,435C 422.76,434.658 412.093,433.491 401.5,431.5C 422.009,416.575 444.342,404.741 468.5,396C 459.471,395.45 450.471,394.617 441.5,393.5C 491.684,373.717 543.017,357.217 595.5,344C 605.629,343.109 615.629,341.443 625.5,339C 614.823,338.667 604.156,339 593.5,340C 524.716,351.039 459.716,373.039 398.5,406C 399.667,406.167 400.833,406.333 402,406.5C 410.791,405.037 419.625,404.537 428.5,405C 414.487,412.205 401.154,420.372 388.5,429.5C 367.868,427.473 347.201,425.806 326.5,424.5C 334.908,416.781 343.575,409.281 352.5,402C 398.553,369.141 448.886,345.141 503.5,330C 499.916,328.927 496.25,328.26 492.5,328C 473.486,327.361 454.486,327.694 435.5,329C 425.466,330.155 415.466,331.155 405.5,332C 459.669,307.278 516.002,288.944 574.5,277C 683.287,255.272 790.62,260.939 896.5,294C 901.772,295.133 906.439,297.3 910.5,300.5 Z"/></g>
<g><path style="opacity:1" fill="#f29b35" d="M 812.5,326.5 C 806.797,326.625 801.13,326.292 795.5,325.5C 791.559,323.86 787.892,321.694 784.5,319C 781.202,314.7 777.535,310.7 773.5,307C 766.735,304.414 759.735,302.914 752.5,302.5C 754.833,301.833 757.167,301.167 759.5,300.5C 791.483,297.096 822.483,300.93 852.5,312C 855.661,313.413 858.661,315.08 861.5,317C 856.167,317.333 850.833,317.667 845.5,318C 834.762,321.934 823.762,324.768 812.5,326.5 Z"/></g>
<g><path style="opacity:1" fill="#714939" d="M 759.5,300.5 C 757.167,301.167 754.833,301.833 752.5,302.5C 748.107,302.543 747.774,302.043 751.5,301C 754.146,300.503 756.813,300.336 759.5,300.5 Z"/></g>
<g><path style="opacity:1" fill="#d88733" d="M 953.5,321.5 C 940.672,316.934 927.339,314.268 913.5,313.5C 915.808,310.185 918.141,306.851 920.5,303.5C 931.401,302.225 941.401,304.725 950.5,311C 953.506,314.153 954.506,317.653 953.5,321.5 Z"/></g>
<g><path style="opacity:1" fill="#f69d35" d="M 913.5,313.5 C 927.339,314.268 940.672,316.934 953.5,321.5C 952.895,327.046 950.895,332.046 947.5,336.5C 948,336.833 948.5,337.167 949,337.5C 955.536,334.779 961.036,330.779 965.5,325.5C 982.249,330.795 996.749,339.795 1009,352.5C 1020.58,368.177 1023.92,385.51 1019,404.5C 1016.45,412.243 1013.95,419.909 1011.5,427.5C 1010.88,428.627 1010.04,429.627 1009,430.5C 1008.93,409.094 998.435,395.927 977.5,391C 970.621,389.024 963.621,387.691 956.5,387C 943.167,386.333 929.833,386.333 916.5,387C 903.811,388.503 891.145,390.169 878.5,392C 853.522,396.746 828.855,402.413 804.5,409C 846.562,383.775 882.896,351.942 913.5,313.5 Z"/></g>
<g><path style="opacity:1" fill="#0b083b" d="M 924.5,319.5 C 928.41,319.263 932.077,320.096 935.5,322C 939.168,325.237 939.335,328.737 936,332.5C 934.981,331.313 933.814,330.313 932.5,329.5C 930.366,333.468 927.366,336.635 923.5,339C 916.736,342.891 909.736,345.891 902.5,348C 911.579,339.765 918.913,330.265 924.5,319.5 Z"/></g>
<g><path style="opacity:1" fill="#d88733" d="M 1011.5,427.5 C 1013.95,419.909 1016.45,412.243 1019,404.5C 1023.92,385.51 1020.58,368.177 1009,352.5C 996.749,339.795 982.249,330.795 965.5,325.5C 967.113,322.714 968.946,320.047 971,317.5C 988.823,322.906 1004.49,331.906 1018,344.5C 1031.82,359.897 1035.49,377.564 1029,397.5C 1024.92,408.68 1019.09,418.68 1011.5,427.5 Z"/></g>
<g><path style="opacity:1" fill="#59393a" d="M 795.5,325.5 C 801.13,326.292 806.797,326.625 812.5,326.5C 810.359,327.163 808.025,327.497 805.5,327.5C 801.859,327.685 798.526,327.019 795.5,325.5 Z"/></g>
<g><path style="opacity:1" fill="#4f21a4" d="M 401.5,431.5 C 397.072,431.201 392.739,430.535 388.5,429.5C 401.154,420.372 414.487,412.205 428.5,405C 419.625,404.537 410.791,405.037 402,406.5C 400.833,406.333 399.667,406.167 398.5,406C 459.716,373.039 524.716,351.039 593.5,340C 604.156,339 614.823,338.667 625.5,339C 615.629,341.443 605.629,343.109 595.5,344C 543.017,357.217 491.684,373.717 441.5,393.5C 450.471,394.617 459.471,395.45 468.5,396C 444.342,404.741 422.009,416.575 401.5,431.5 Z"/></g>
<g><path style="opacity:1" fill="#4a2a85" d="M 204.5,375.5 C 191.678,385.41 178.678,395.077 165.5,404.5C 166.247,386.028 168.247,367.695 171.5,349.5C 183.667,353.187 194.167,359.52 203,368.5C 205.303,370.547 205.803,372.881 204.5,375.5 Z"/></g>
<g><path style="opacity:1" fill="#4d20a3" d="M 704.5,372.5 C 679.291,383.934 653.291,395.434 626.5,407C 586.03,425.72 548.364,448.72 513.5,476C 502.589,485.075 492.922,495.242 484.5,506.5C 463.144,510.408 441.811,514.408 420.5,518.5C 437.523,503.148 455.523,488.981 474.5,476C 545.865,430.498 622.532,395.998 704.5,372.5 Z"/></g>
<g><path style="opacity:0.937" fill="#a46938" d="M 142.5,364.5 C 142.55,370.389 141.884,376.056 140.5,381.5C 140.45,375.611 141.116,369.944 142.5,364.5 Z"/></g>
<g><path style="opacity:1" fill="#9d6539" d="M 956.5,405.5 C 944.815,405.365 933.148,405.698 921.5,406.5C 922.609,405.71 923.942,405.21 925.5,405C 936.008,404.175 946.342,404.341 956.5,405.5 Z"/></g>
<g><path style="opacity:1" fill="#f49d35" d="M 956.5,405.5 C 959.254,405.784 961.92,406.451 964.5,407.5C 942.727,411.48 921.727,417.98 901.5,427C 867.799,442.016 835.132,458.849 803.5,477.5C 809.484,468.561 815.651,459.227 822,449.5C 826.219,442.159 830.053,434.659 833.5,427C 853.833,420.25 874.5,414.75 895.5,410.5C 898.119,410.232 900.619,410.565 903,411.5C 903.674,410.422 904.674,409.755 906,409.5C 910.674,408.668 915.174,407.668 919.5,406.5C 920.167,406.5 920.833,406.5 921.5,406.5C 933.148,405.698 944.815,405.365 956.5,405.5 Z"/></g>
<g><path style="opacity:1" fill="#b97739" d="M 919.5,406.5 C 915.174,407.668 910.674,408.668 906,409.5C 904.674,409.755 903.674,410.422 903,411.5C 900.619,410.565 898.119,410.232 895.5,410.5C 903.199,408.106 911.199,406.772 919.5,406.5 Z"/></g>
<g><path style="opacity:0.931" fill="#59393a" d="M 137.5,414.5 C 137.183,418.702 137.517,422.702 138.5,426.5C 138.44,427.043 138.107,427.376 137.5,427.5C 136.189,423.016 136.189,418.683 137.5,414.5 Z"/></g>
<g><path style="opacity:1" fill="#f69e35" d="M 72.5,1159.5 C 71.5003,1000 71.167,840.334 71.5,680.5C 82.6272,677.048 93.9605,673.881 105.5,671C 130.843,665.164 156.177,659.331 181.5,653.5C 185.853,634.754 190.52,616.087 195.5,597.5C 198.775,588.087 201.608,578.421 204,568.5C 204.667,566.5 204.667,564.5 204,562.5C 189.579,549.414 176.579,535.081 165,519.5C 167.921,550.279 173.421,580.612 181.5,610.5C 180.928,612.255 180.094,613.922 179,615.5C 173.5,621.667 168,627.833 162.5,634C 161.668,634.688 161.002,634.521 160.5,633.5C 151.074,601.704 144.074,569.371 139.5,536.5C 139.332,530.966 138.665,525.633 137.5,520.5C 137.242,515.875 137.242,511.375 137.5,507C 154.801,505.074 172.134,503.574 189.5,502.5C 199.973,519.146 213.139,533.48 229,545.5C 232.632,530.455 234.799,515.121 235.5,499.5C 244.479,498.734 253.479,498.401 262.5,498.5C 261.61,511.177 260.61,523.843 259.5,536.5C 254.532,540.993 249.532,545.493 244.5,550C 244.833,550.167 245.167,550.333 245.5,550.5C 292.857,541.962 340.19,533.295 387.5,524.5C 391.775,524.098 395.942,524.098 400,524.5C 402.716,522.862 405.549,521.529 408.5,520.5C 412.476,519.705 416.476,519.038 420.5,518.5C 441.811,514.408 463.144,510.408 484.5,506.5C 494.387,504.155 504.387,502.655 514.5,502C 523.035,521.57 531.702,541.07 540.5,560.5C 542.212,564.927 544.212,569.26 546.5,573.5C 547.5,573.833 548.5,574.167 549.5,574.5C 606.976,563.005 664.642,552.671 722.5,543.5C 732.5,543.001 742.167,541.334 751.5,538.5C 765.219,536.269 778.886,533.936 792.5,531.5C 802.47,529.95 812.47,528.616 822.5,527.5C 831.738,526.902 840.738,525.569 849.5,523.5C 878.61,518.842 907.944,514.675 937.5,511C 939.23,491.932 939.897,472.765 939.5,453.5C 948.031,449.929 957.031,448.262 966.5,448.5C 966.53,468.185 966.363,487.852 966,507.5C 999.393,503.29 1032.89,499.623 1066.5,496.5C 1066.5,577.5 1066.5,658.5 1066.5,739.5C 1003.95,747.123 941.949,757.956 880.5,772C 821.199,868.636 744.199,948.303 649.5,1011C 618.187,1031.63 585.853,1050.63 552.5,1068C 551.167,1068.67 549.833,1068.67 548.5,1068C 490.215,1037.71 435.548,1002.21 384.5,961.5C 274.378,1018.38 170.378,1084.38 72.5,1159.5 Z"/></g>
<g><path style="opacity:1" fill="#482985" d="M 939.5,453.5 C 939.897,472.765 939.23,491.932 937.5,511C 907.944,514.675 878.61,518.842 849.5,523.5C 840.262,524.098 831.262,525.431 822.5,527.5C 812.47,528.616 802.47,529.95 792.5,531.5C 829.339,500.897 870.339,477.063 915.5,460C 923.272,456.908 931.272,454.741 939.5,453.5 Z"/></g>
<g><path style="opacity:1" fill="#482982" d="M 262.5,498.5 C 277.515,498.167 292.515,498.501 307.5,499.5C 291.505,511.826 275.505,524.16 259.5,536.5C 260.61,523.843 261.61,511.177 262.5,498.5 Z"/></g>
<g><path style="opacity:1" fill="#4a2a84" d="M 235.5,499.5 C 234.799,515.121 232.632,530.455 229,545.5C 213.139,533.48 199.973,519.146 189.5,502.5C 204.656,501.081 219.989,500.081 235.5,499.5 Z"/></g>
<g><path style="opacity:1" fill="#4a2a85" d="M 195.5,597.5 C 191.034,602.152 186.368,606.486 181.5,610.5C 173.421,580.612 167.921,550.279 165,519.5C 176.579,535.081 189.579,549.414 204,562.5C 204.667,564.5 204.667,566.5 204,568.5C 201.608,578.421 198.775,588.087 195.5,597.5 Z"/></g>
<g><path style="opacity:1" fill="#b87639" d="M 408.5,520.5 C 405.549,521.529 402.716,522.862 400,524.5C 395.942,524.098 391.775,524.098 387.5,524.5C 394.238,522.437 401.238,521.103 408.5,520.5 Z"/></g>
<g><path style="opacity:1" fill="#111140" d="M 504.5,534.5 C 507.649,544.407 510.816,554.407 514,564.5C 515.124,567.442 515.458,570.442 515,573.5C 509.581,575.09 504.081,576.59 498.5,578C 495.854,578.497 493.187,578.664 490.5,578.5C 489.833,578.5 489.167,578.5 488.5,578.5C 486.645,577.31 484.812,575.977 483,574.5C 482.749,576.433 482.249,578.266 481.5,580C 477.325,580.991 473.325,582.158 469.5,583.5C 468.833,583.5 468.167,583.5 467.5,583.5C 466.85,583.196 466.183,582.863 465.5,582.5C 455.242,586.255 444.575,588.255 433.5,588.5C 432.374,580.601 431.54,580.601 431,588.5C 430.167,589.333 429.333,590.167 428.5,591C 404.255,595.818 379.922,600.984 355.5,606.5C 353.288,605.446 351.288,605.946 349.5,608C 341.47,608.775 333.803,610.609 326.5,613.5C 324.297,613.396 322.297,612.73 320.5,611.5C 319.343,609.862 318.176,608.196 317,606.5C 316.9,609.903 316.066,613.07 314.5,616C 310.043,616.856 305.71,618.022 301.5,619.5C 300.833,619.5 300.167,619.5 299.5,619.5C 297.037,617.888 295.037,618.388 293.5,621C 283.487,623.17 273.487,625.337 263.5,627.5C 263.167,627.5 262.833,627.5 262.5,627.5C 262.167,626.833 261.833,626.167 261.5,625.5C 261.665,622.482 261.498,619.482 261,616.5C 260.59,617.901 260.09,619.234 259.5,620.5C 259.101,623.696 258.101,626.696 256.5,629.5C 252.329,630.668 248.329,632.002 244.5,633.5C 243.5,633.5 242.5,633.5 241.5,633.5C 239.442,632.176 237.775,632.676 236.5,635C 231.307,636.968 225.974,637.634 220.5,637C 219.577,634.959 219.244,632.792 219.5,630.5C 222.287,616.802 225.287,603.135 228.5,589.5C 226.083,588.928 223.916,587.928 222,586.5C 222.007,581.787 222.673,577.12 224,572.5C 224.833,571.667 225.667,570.833 226.5,570C 241.66,566.978 256.66,563.645 271.5,560C 274.167,559.333 276.833,559.333 279.5,560C 280.381,560.708 281.047,561.542 281.5,562.5C 281.5,566.167 281.5,569.833 281.5,573.5C 280.345,580.321 280.179,587.321 281,594.5C 281.662,592.187 282.162,589.854 282.5,587.5C 283.208,579.461 284.208,571.461 285.5,563.5C 285.106,560.143 286.439,557.81 289.5,556.5C 294.325,554.781 299.158,554.447 304,555.5C 304.833,554.667 305.667,553.833 306.5,553C 310.819,552.095 315.152,551.762 319.5,552C 320.893,553.171 321.727,554.671 322,556.5C 329.075,546.477 338.241,543.977 349.5,549C 350.772,550.307 351.772,551.807 352.5,553.5C 352.975,550.074 353.975,546.908 355.5,544C 368.313,541.927 380.98,539.593 393.5,537C 404.752,534.788 411.419,539.288 413.5,550.5C 413.915,555.206 413.248,559.706 411.5,564C 412.211,565.255 413.044,566.421 414,567.5C 414.499,561.843 414.666,556.176 414.5,550.5C 414.999,545.508 415.499,540.508 416,535.5C 416.5,535 417,534.5 417.5,534C 423.327,531.884 429.327,531.217 435.5,532C 436.056,532.383 436.389,532.883 436.5,533.5C 438.96,540.716 441.126,548.049 443,555.5C 442.393,547.845 441.56,540.178 440.5,532.5C 441.736,530.172 443.736,529.006 446.5,529C 452.941,528.674 459.275,527.84 465.5,526.5C 470.11,525.366 472.61,527.033 473,531.5C 478.121,523.791 485.288,521.291 494.5,524C 499.387,526.053 502.721,529.553 504.5,534.5 Z"/></g>
<g><path style="opacity:1" fill="#c07851" d="M 849.5,523.5 C 840.738,525.569 831.738,526.902 822.5,527.5C 831.262,525.431 840.262,524.098 849.5,523.5 Z"/></g>
<g><path style="opacity:1" fill="#f4f4f6" d="M 482.5,527.5 C 493.531,525.221 499.864,529.554 501.5,540.5C 498.428,540.817 495.428,540.484 492.5,539.5C 491.958,535.824 489.958,534.324 486.5,535C 485.941,535.725 485.608,536.558 485.5,537.5C 488.153,546.444 490.653,555.444 493,564.5C 494.401,566.192 496.234,566.859 498.5,566.5C 498.737,562.727 498.237,559.06 497,555.5C 495.667,554.833 494.333,554.167 493,553.5C 492.654,551.782 492.154,550.115 491.5,548.5C 491.709,547.914 492.043,547.414 492.5,547C 495.706,546.704 498.872,546.204 502,545.5C 502.5,545.833 503,546.167 503.5,546.5C 506.473,554.392 509.14,562.392 511.5,570.5C 508.506,572.89 505.673,572.89 503,570.5C 498.865,574.191 494.031,575.358 488.5,574C 487.333,572.833 486.167,571.667 485,570.5C 481.449,559.68 478.615,548.68 476.5,537.5C 476.474,532.877 478.474,529.544 482.5,527.5 Z"/></g>
<g><path style="opacity:0.933" fill="#5a383b" d="M 137.5,520.5 C 138.665,525.633 139.332,530.966 139.5,536.5C 137.922,531.417 137.255,526.084 137.5,520.5 Z"/></g>
<g><path style="opacity:1" fill="#f4f4f6" d="M 460.5,530.5 C 463.5,530.5 466.5,530.5 469.5,530.5C 472.661,546.142 475.661,561.808 478.5,577.5C 474.805,578.46 471.139,578.46 467.5,577.5C 463.392,568.951 459.559,560.284 456,551.5C 458.066,561.012 459.566,570.679 460.5,580.5C 457.5,581.167 454.5,581.833 451.5,582.5C 449.751,566.585 447.417,550.752 444.5,535C 444.905,534.055 445.572,533.388 446.5,533C 449.482,532.502 452.482,532.335 455.5,532.5C 458.095,540.363 461.262,548.03 465,555.5C 463.449,547.24 461.949,538.907 460.5,530.5 Z"/></g>
<g><path style="opacity:1" fill="#f2f2f5" d="M 426.5,535.5 C 429.119,535.232 431.619,535.565 434,536.5C 437.634,552.097 442.134,567.43 447.5,582.5C 437.969,587.032 433.636,584.032 434.5,573.5C 432.409,573.318 430.409,573.652 428.5,574.5C 427.508,578.783 427.174,583.116 427.5,587.5C 423.881,588.244 420.215,588.577 416.5,588.5C 417.74,571.527 418.573,554.527 419,537.5C 421.607,536.877 424.107,536.21 426.5,535.5 Z"/></g>
<g><path style="opacity:1" fill="#a56224" d="M 440.5,532.5 C 441.56,540.178 442.393,547.845 443,555.5C 441.126,548.049 438.96,540.716 436.5,533.5C 438.195,534.826 439.528,534.493 440.5,532.5 Z"/></g>
<g><path style="opacity:1" fill="#f5f5f7" d="M 410.5,590.5 C 407.833,590.833 405.167,591.167 402.5,591.5C 401.963,585.35 401.296,579.35 400.5,573.5C 400.586,572.504 400.252,571.671 399.5,571C 397.866,570.506 396.199,570.34 394.5,570.5C 395.224,578.479 395.558,586.479 395.5,594.5C 392.43,594.368 389.43,594.701 386.5,595.5C 385.833,590.5 385.167,585.5 384.5,580.5C 384.682,567.813 384.349,555.147 383.5,542.5C 390.099,541.011 396.765,540.511 403.5,541C 408.022,543.878 410.022,548.045 409.5,553.5C 410.041,558.046 408.708,561.88 405.5,565C 408.953,566.728 410.786,569.562 411,573.5C 411.271,578.53 411.771,583.53 412.5,588.5C 412.253,589.713 411.586,590.38 410.5,590.5 Z"/></g>
<g><path style="opacity:1" fill="#ba7738" d="M 751.5,538.5 C 742.167,541.334 732.5,543.001 722.5,543.5C 731.949,541.313 741.616,539.647 751.5,538.5 Z"/></g>
<g><path style="opacity:1" fill="#0c0d3e" d="M 1041.5,603.5 C 1026.18,605.594 1010.84,607.594 995.5,609.5C 995.5,608.167 995.5,606.833 995.5,605.5C 989.545,606.726 983.545,607.226 977.5,607C 975.859,605.871 974.859,604.371 974.5,602.5C 974.5,598.5 974.5,594.5 974.5,590.5C 972.901,590.232 971.568,590.566 970.5,591.5C 962.787,592.174 955.121,593.174 947.5,594.5C 947.5,598.167 947.5,601.833 947.5,605.5C 974.918,609.298 1002.25,613.798 1029.5,619C 1030.42,619.374 1031.25,619.874 1032,620.5C 1032.18,623.553 1032.68,626.553 1033.5,629.5C 1036.5,630.167 1039.5,630.833 1042.5,631.5C 1043.67,649.157 1043.83,666.824 1043,684.5C 1034.88,690.285 1027.05,696.452 1019.5,703C 1017.48,703.505 1015.48,704.005 1013.5,704.5C 1004.58,704.989 995.909,706.322 987.5,708.5C 969.152,711.369 950.819,714.369 932.5,717.5C 928.597,717.383 924.93,716.383 921.5,714.5C 918.203,715.496 914.869,715.663 911.5,715C 901.61,710.805 892.11,705.972 883,700.5C 882.333,687.167 882.333,673.833 883,660.5C 886.018,657.108 889.851,655.275 894.5,655C 906.921,653.541 919.254,651.541 931.5,649C 919.164,646.905 906.831,644.905 894.5,643C 890.539,642.596 886.872,641.43 883.5,639.5C 882.345,618.543 882.178,597.543 883,576.5C 892.123,569.712 900.956,562.546 909.5,555C 939.683,550.623 969.849,546.123 1000,541.5C 1010.34,545.917 1020.5,550.751 1030.5,556C 1031.99,558.097 1032.99,560.43 1033.5,563C 1036.5,564.5 1039.5,566 1042.5,567.5C 1042.83,573.5 1043.17,579.5 1043.5,585.5C 1043.5,591.872 1042.83,597.872 1041.5,603.5 Z"/></g>
<g><path style="opacity:1" fill="#f3f3f6" d="M 358.5,601.5 C 356.532,593.567 355.865,585.234 356.5,576.5C 356.5,566.833 356.5,557.167 356.5,547.5C 363.775,546.127 371.108,545.127 378.5,544.5C 378.5,547.5 378.5,550.5 378.5,553.5C 374.881,554.244 371.215,554.577 367.5,554.5C 367.5,558.5 367.5,562.5 367.5,566.5C 370.807,565.949 374.14,565.616 377.5,565.5C 377.5,568.5 377.5,571.5 377.5,574.5C 373.785,574.196 370.285,574.863 367,576.5C 366.501,581.155 366.334,585.821 366.5,590.5C 370.76,589.415 375.094,588.748 379.5,588.5C 379.5,591.5 379.5,594.5 379.5,597.5C 372.529,598.94 365.529,600.273 358.5,601.5 Z"/></g>
<g><path style="opacity:1" fill="#fcfcfc" d="M 1021.5,622.5 C 1022.26,623.268 1023.26,623.768 1024.5,624C 984.328,627.735 944.328,632.568 904.5,638.5C 898.867,638.597 893.367,637.93 888,636.5C 887.333,617.5 887.333,598.5 888,579.5C 896.076,572.88 904.242,566.38 912.5,560C 940.955,555.596 969.455,551.429 998,547.5C 999.5,547.667 1001,547.833 1002.5,548C 1010.38,552.106 1018.38,555.939 1026.5,559.5C 1027.83,571.5 1027.83,583.5 1026.5,595.5C 1010.86,597.94 995.19,600.274 979.5,602.5C 979.334,595.492 979.5,588.492 980,581.5C 980.5,581 981,580.5 981.5,580C 964.856,582.05 948.189,584.217 931.5,586.5C 931.5,593.5 931.5,600.5 931.5,607.5C 961.441,612.818 991.441,617.818 1021.5,622.5 Z"/></g>
<g><path style="opacity:1" fill="#f3f3f6" d="M 334.5,550.5 C 346.555,548.555 351.555,553.555 349.5,565.5C 346.211,566.374 342.877,567.041 339.5,567.5C 339.663,565.143 339.497,562.81 339,560.5C 337.062,559.14 335.396,559.473 334,561.5C 332.601,573.811 331.935,586.144 332,598.5C 333.938,599.86 335.604,599.527 337,597.5C 337.583,593.168 338.083,588.835 338.5,584.5C 337.5,584.5 336.5,584.5 335.5,584.5C 335.216,581.223 335.549,578.057 336.5,575C 340.751,573.805 345.085,573.305 349.5,573.5C 349.125,583.832 348.792,594.165 348.5,604.5C 345.934,604.344 343.434,604.678 341,605.5C 340.055,605.095 339.388,604.428 339,603.5C 335.811,607.014 331.811,609.014 327,609.5C 324.497,609.01 322.497,607.677 321,605.5C 320.398,591.78 321.065,578.114 323,564.5C 324.873,558.136 328.706,553.469 334.5,550.5 Z"/></g>
<g><path style="opacity:1" fill="#04083d" d="M 394.5,549.5 C 398.949,549.256 400.615,551.422 399.5,556C 400.079,560.153 398.412,562.32 394.5,562.5C 394.5,558.167 394.5,553.833 394.5,549.5 Z"/></g>
<g><path style="opacity:1" fill="#101345" d="M 428.5,549.5 C 429.502,554.837 430.502,560.17 431.5,565.5C 430.167,565.5 428.833,565.5 427.5,565.5C 427.179,559.974 427.512,554.64 428.5,549.5 Z"/></g>
<g><path style="opacity:1" fill="#8e8fa8" d="M 428.5,549.5 C 427.512,554.64 427.179,559.974 427.5,565.5C 428.833,565.5 430.167,565.5 431.5,565.5C 430.081,566.451 428.415,566.784 426.5,566.5C 426.334,559.159 426.5,551.826 427,544.5C 428.009,546.025 428.509,547.692 428.5,549.5 Z"/></g>
<g><path style="opacity:1" fill="#824d27" d="M 413.5,550.5 C 413.833,550.5 414.167,550.5 414.5,550.5C 414.666,556.176 414.499,561.843 414,567.5C 413.044,566.421 412.211,565.255 411.5,564C 413.248,559.706 413.915,555.206 413.5,550.5 Z"/></g>
<g><path style="opacity:1" fill="#f3f3f6" d="M 285.5,592.5 C 287.561,583.066 288.895,573.4 289.5,563.5C 289.36,561.876 290.027,560.71 291.5,560C 295.041,558.745 298.541,558.578 302,559.5C 302.805,569.535 303.805,579.535 305,589.5C 305.259,578.761 306.259,568.095 308,557.5C 310.997,556.134 314.164,555.467 317.5,555.5C 315.831,574.539 313.831,593.539 311.5,612.5C 307.426,613.288 303.426,614.288 299.5,615.5C 298.969,603.43 297.802,591.43 296,579.5C 294.898,592.19 293.731,604.856 292.5,617.5C 288.899,618.463 285.233,619.13 281.5,619.5C 282.833,610.5 284.167,601.5 285.5,592.5 Z"/></g>
<g><path style="opacity:1" fill="#b26b26" d="M 376.5,556.5 C 377.833,556.5 379.167,556.5 380.5,556.5C 380.5,558.167 380.5,559.833 380.5,561.5C 377.5,561.5 374.5,561.5 371.5,561.5C 371.5,560.167 371.5,558.833 371.5,557.5C 373.415,557.784 375.081,557.451 376.5,556.5 Z"/></g>
<g><path style="opacity:1" fill="#f6f6f8" d="M 272.5,563.5 C 274.167,563.5 275.833,563.5 277.5,563.5C 276.639,582.819 276.306,602.153 276.5,621.5C 272.821,621.363 269.321,622.029 266,623.5C 265.501,619.179 265.334,614.846 265.5,610.5C 262.833,610.833 260.167,611.167 257.5,611.5C 256.671,616.652 255.337,621.652 253.5,626.5C 250.167,627.5 246.833,628.5 243.5,629.5C 248.419,608.718 254.419,588.052 261.5,567.5C 265.13,565.738 268.796,564.404 272.5,563.5 Z"/></g>
<g><path style="opacity:1" fill="#f4f4f6" d="M 250.5,568.5 C 251.833,568.5 253.167,568.5 254.5,568.5C 254.384,571.86 254.051,575.193 253.5,578.5C 250.482,578.704 247.482,579.037 244.5,579.5C 241.289,596.888 237.956,614.221 234.5,631.5C 231.016,632.563 227.516,633.563 224,634.5C 226.037,618.005 229.204,601.672 233.5,585.5C 233.167,584.5 232.833,583.5 232.5,582.5C 230.271,583.577 227.937,584.244 225.5,584.5C 226.031,580.709 227.031,577.043 228.5,573.5C 236.118,572.579 243.451,570.913 250.5,568.5 Z"/></g>
<g><path style="opacity:1" fill="#8a8aa5" d="M 289.5,563.5 C 288.895,573.4 287.561,583.066 285.5,592.5C 286.105,582.6 287.439,572.934 289.5,563.5 Z"/></g>
<g><path style="opacity:1" fill="#be701d" d="M 281.5,562.5 C 282.833,562.833 284.167,563.167 285.5,563.5C 284.208,571.461 283.208,579.461 282.5,587.5C 281.514,583.03 281.181,578.363 281.5,573.5C 281.5,569.833 281.5,566.167 281.5,562.5 Z"/></g>
<g><path style="opacity:1" fill="#b86d20" d="M 488.5,578.5 C 486.75,579.742 485.083,581.242 483.5,583C 478.698,584.366 474.032,584.533 469.5,583.5C 473.325,582.158 477.325,580.991 481.5,580C 482.249,578.266 482.749,576.433 483,574.5C 484.812,575.977 486.645,577.31 488.5,578.5 Z"/></g>
<g><path style="opacity:1" fill="#bd7327" d="M 376.5,577.5 C 377.833,577.5 379.167,577.5 380.5,577.5C 380.5,579.833 380.5,582.167 380.5,584.5C 377.333,584.4 374.333,585.067 371.5,586.5C 369.014,580.864 370.681,577.864 376.5,577.5 Z"/></g>
<g><path style="opacity:1" fill="#bf711e" d="M 504.5,534.5 C 507.938,536.765 509.438,540.098 509,544.5C 511.087,546.745 512.421,549.412 513,552.5C 514.131,556.894 515.465,561.227 517,565.5C 517.997,568.801 518.33,572.134 518,575.5C 511.145,577.672 504.145,579.338 497,580.5C 494.456,580.664 492.29,579.997 490.5,578.5C 493.187,578.664 495.854,578.497 498.5,578C 504.081,576.59 509.581,575.09 515,573.5C 515.458,570.442 515.124,567.442 514,564.5C 510.816,554.407 507.649,544.407 504.5,534.5 Z"/></g>
<g><path style="opacity:1" fill="#58352d" d="M 281.5,573.5 C 281.181,578.363 281.514,583.03 282.5,587.5C 282.162,589.854 281.662,592.187 281,594.5C 280.179,587.321 280.345,580.321 281.5,573.5 Z"/></g>
<g><path style="opacity:1" fill="#a1a1b6" d="M 384.5,580.5 C 385.167,585.5 385.833,590.5 386.5,595.5C 386.44,596.043 386.107,596.376 385.5,596.5C 384.505,591.208 384.172,585.875 384.5,580.5 Z"/></g>
<g><path style="opacity:1" fill="#5c597f" d="M 400.5,573.5 C 401.296,579.35 401.963,585.35 402.5,591.5C 405.167,591.167 407.833,590.833 410.5,590.5C 407.809,592.596 404.809,592.93 401.5,591.5C 400.543,585.561 400.21,579.561 400.5,573.5 Z"/></g>
<g><path style="opacity:1" fill="#080a3d" d="M 877.5,605.5 C 874.518,605.963 871.518,606.296 868.5,606.5C 868.5,615.833 868.5,625.167 868.5,634.5C 861.237,640.481 853.904,646.481 846.5,652.5C 849.673,654.283 853.006,655.783 856.5,657C 858.121,659.166 858.955,661.666 859,664.5C 862.209,666.438 865.543,668.105 869,669.5C 869.5,679.828 869.666,690.161 869.5,700.5C 872.786,699.793 876.119,699.46 879.5,699.5C 879.666,708.839 879.5,718.173 879,727.5C 878.5,728 878,728.5 877.5,729C 855.975,734.205 834.308,738.705 812.5,742.5C 812.5,740.833 812.5,739.167 812.5,737.5C 807.516,738.275 802.516,738.942 797.5,739.5C 798.62,744.058 796.953,746.891 792.5,748C 771.736,753.941 750.736,758.775 729.5,762.5C 729.785,760.712 729.452,759.045 728.5,757.5C 723.899,758.754 719.232,759.754 714.5,760.5C 712.088,760.594 710.255,759.594 709,757.5C 708.333,745.5 708.333,733.5 709,721.5C 711.228,718.922 714.061,717.589 717.5,717.5C 718.498,687.671 718.831,657.671 718.5,627.5C 716.167,627.5 713.833,627.5 711.5,627.5C 710.206,626.71 709.039,625.71 708,624.5C 707.793,628.089 707.293,631.589 706.5,635C 701.833,635.667 697.167,636.333 692.5,637C 692,637.5 691.5,638 691,638.5C 682.715,686.21 674.215,733.877 665.5,781.5C 649.582,786.528 633.749,791.862 618,797.5C 615.966,796.056 615.132,794.056 615.5,791.5C 610.988,792.392 606.488,793.392 602,794.5C 599.333,794.833 597.333,793.833 596,791.5C 591.174,774.528 586.507,757.528 582,740.5C 575.523,765.407 569.523,790.407 564,815.5C 548.781,821.775 533.448,827.775 518,833.5C 516.893,833.415 515.893,833.081 515,832.5C 514.798,830.744 514.298,829.078 513.5,827.5C 509.67,829.418 505.67,830.752 501.5,831.5C 498.675,831.881 496.509,830.881 495,828.5C 486.352,779.447 478.186,730.281 470.5,681C 470.167,680.167 469.833,679.333 469.5,678.5C 465.303,680.295 460.969,681.128 456.5,681C 454.951,679.786 453.785,678.286 453,676.5C 452.034,661.74 452.367,647.073 454,632.5C 463.887,627.568 474.387,624.568 485.5,623.5C 490.45,623.23 495.117,622.23 499.5,620.5C 508.448,618.923 517.448,618.089 526.5,618C 530.895,621.357 532.728,625.857 532,631.5C 534.737,630.39 537.571,630.223 540.5,631C 541.191,632.067 541.691,633.234 542,634.5C 544.356,628.055 545.689,621.388 546,614.5C 546.5,614 547,613.5 547.5,613C 560.615,609.41 573.948,606.91 587.5,605.5C 592.181,605.331 596.848,604.998 601.5,604.5C 602.458,604.953 603.292,605.619 604,606.5C 604.42,610.191 604.92,613.858 605.5,617.5C 607.5,617.5 609.5,617.5 611.5,617.5C 612.5,617.5 613.5,617.5 614.5,617.5C 614.216,619.415 614.549,621.081 615.5,622.5C 616.058,624.823 616.725,627.157 617.5,629.5C 618.332,621.187 618.832,612.853 619,604.5C 622.983,600.617 627.816,598.45 633.5,598C 652.577,593.249 671.91,590.583 691.5,590C 693.286,590.785 694.786,591.951 696,593.5C 696.498,596.817 696.665,600.15 696.5,603.5C 699.896,602.802 703.229,602.802 706.5,603.5C 707.328,598.868 707.828,594.202 708,589.5C 708.833,588.667 709.667,587.833 710.5,587C 733.453,580.73 756.786,577.063 780.5,576C 782.286,576.785 783.786,577.951 785,579.5C 785.498,582.817 785.665,586.15 785.5,589.5C 787.144,589.714 788.644,589.38 790,588.5C 790.333,584.5 790.667,580.5 791,576.5C 792.167,575.333 793.333,574.167 794.5,573C 817.228,567.711 840.228,564.711 863.5,564C 865.286,564.785 866.786,565.951 868,567.5C 868.498,570.482 868.665,573.482 868.5,576.5C 872.106,576.211 875.606,576.544 879,577.5C 879.667,586.5 879.667,595.5 879,604.5C 878.617,605.056 878.117,605.389 877.5,605.5 Z"/></g>
<g><path style="opacity:1" fill="#a6a6bb" d="M 834.5,571.5 C 828.431,573.375 822.098,574.375 815.5,574.5C 821.556,572.547 827.889,571.547 834.5,571.5 Z"/></g>
<g><path style="opacity:1" fill="#fbfbfc" d="M 826.5,649.5 C 792.188,654.987 757.855,660.987 723.5,667.5C 723.5,652.167 723.5,636.833 723.5,621.5C 721.901,621.232 720.568,621.566 719.5,622.5C 717.167,622.5 714.833,622.5 712.5,622.5C 712.18,611.918 712.513,601.418 713.5,591C 735.537,585.733 757.87,582.566 780.5,581.5C 780.666,591.172 780.5,600.839 780,610.5C 777.049,612.076 773.883,612.743 770.5,612.5C 770.168,624.851 770.501,637.185 771.5,649.5C 782.758,640.62 793.925,631.62 805,622.5C 805.499,617.511 805.666,612.511 805.5,607.5C 802.14,607.616 798.807,607.949 795.5,608.5C 795.168,598.478 795.501,588.478 796.5,578.5C 802.676,576.398 809.009,575.065 815.5,574.5C 822.098,574.375 828.431,573.375 834.5,571.5C 843.785,569.958 853.118,569.125 862.5,569C 863.817,578.44 863.817,587.94 862.5,597.5C 859.833,598.167 857.167,598.833 854.5,599.5C 853.668,608.482 853.168,617.482 853,626.5C 843.741,633.88 834.575,641.38 825.5,649C 825.728,649.399 826.062,649.565 826.5,649.5 Z"/></g>
<g><path style="opacity:1" fill="#131646" d="M 266.5,578.5 C 266.908,585.647 266.908,592.98 266.5,600.5C 264.833,600.5 263.167,600.5 261.5,600.5C 263.164,593.173 264.831,585.839 266.5,578.5 Z"/></g>
<g><path style="opacity:1" fill="#aa6421" d="M 249.5,582.5 C 250.5,582.5 251.5,582.5 252.5,582.5C 249.316,593.896 245.816,605.229 242,616.5C 243.433,606.327 245.267,596.16 247.5,586C 247.862,584.566 248.528,583.399 249.5,582.5 Z"/></g>
<g><path style="opacity:1" fill="#6d6d8e" d="M 356.5,576.5 C 355.865,585.234 356.532,593.567 358.5,601.5C 357.791,602.404 356.791,602.737 355.5,602.5C 355.174,593.651 355.507,584.984 356.5,576.5 Z"/></g>
<g><path style="opacity:1" fill="#5d3c3a" d="M 970.5,591.5 C 971.568,590.566 972.901,590.232 974.5,590.5C 974.5,594.5 974.5,598.5 974.5,602.5C 973.518,599.038 973.185,595.371 973.5,591.5C 972.5,591.5 971.5,591.5 970.5,591.5 Z"/></g>
<g><path style="opacity:1" fill="#fcfcfd" d="M 667.5,674.5 C 666.698,675.952 666.198,677.618 666,679.5C 652.367,683.427 638.534,686.594 624.5,689C 608.669,692.707 593.002,696.874 577.5,701.5C 575.455,689.782 573.788,690.115 572.5,702.5C 543.307,709.549 514.307,717.382 485.5,726C 484.901,727.622 484.234,729.122 483.5,730.5C 480.733,711.499 477.9,692.499 475,673.5C 474.107,672.919 473.107,672.585 472,672.5C 467.202,673.742 462.369,674.742 457.5,675.5C 457.333,662.496 457.5,649.496 458,636.5C 467.076,632.519 476.576,629.686 486.5,628C 494.752,626.18 503.085,625.013 511.5,624.5C 515.857,624.414 520.19,624.08 524.5,623.5C 525.825,635.673 525.825,648.006 524.5,660.5C 522.833,660.833 521.833,661.833 521.5,663.5C 524.531,677.823 527.365,692.156 530,706.5C 537.177,676.46 544.344,646.46 551.5,616.5C 567.463,613.617 583.463,610.951 599.5,608.5C 599.593,613.616 600.426,618.616 602,623.5C 608.198,643.763 614.198,664.096 620,684.5C 622.608,669.855 625.108,655.188 627.5,640.5C 626.178,640.67 625.011,640.337 624,639.5C 623.333,628.5 623.333,617.5 624,606.5C 645.888,599.769 668.388,596.102 691.5,595.5C 691.666,605.839 691.5,616.172 691,626.5C 685.777,628.2 680.444,629.534 675,630.5C 672.359,645.153 669.859,659.82 667.5,674.5 Z"/></g>
<g><path style="opacity:1" fill="#bd701e" d="M 467.5,583.5 C 467.586,584.496 467.252,585.329 466.5,586C 456.971,588.9 447.304,590.066 437.5,589.5C 435.258,590.771 432.925,591.937 430.5,593C 422.285,593.905 414.285,595.739 406.5,598.5C 405.446,598.32 404.446,597.987 403.5,597.5C 398.175,600.554 392.508,601.554 386.5,600.5C 385.713,601.242 385.047,602.075 384.5,603C 366.973,605.14 349.973,609.14 333.5,615C 330.788,615.826 328.455,615.326 326.5,613.5C 333.803,610.609 341.47,608.775 349.5,608C 351.288,605.946 353.288,605.446 355.5,606.5C 379.922,600.984 404.255,595.818 428.5,591C 429.333,590.167 430.167,589.333 431,588.5C 431.54,580.601 432.374,580.601 433.5,588.5C 444.575,588.255 455.242,586.255 465.5,582.5C 466.183,582.863 466.85,583.196 467.5,583.5 Z"/></g>
<g><path style="opacity:1" fill="#53333b" d="M 601.5,604.5 C 596.848,604.998 592.181,605.331 587.5,605.5C 592.087,603.544 596.754,603.211 601.5,604.5 Z"/></g>
<g><path style="opacity:1" fill="#9f6639" d="M 1041.5,603.5 C 1029.38,606.077 1017.05,608.244 1004.5,610C 1001.3,610.805 998.304,610.638 995.5,609.5C 1010.84,607.594 1026.18,605.594 1041.5,603.5 Z"/></g>
<g><path style="opacity:1" fill="#c3741d" d="M 320.5,611.5 C 319.926,613.788 318.926,615.955 317.5,618C 312.754,618.853 308.087,620.02 303.5,621.5C 302.287,621.253 301.62,620.586 301.5,619.5C 305.71,618.022 310.043,616.856 314.5,616C 316.066,613.07 316.9,609.903 317,606.5C 318.176,608.196 319.343,609.862 320.5,611.5 Z"/></g>
<g><path style="opacity:1" fill="#8e5c38" d="M 611.5,617.5 C 612.568,616.566 613.901,616.232 615.5,616.5C 615.5,618.5 615.5,620.5 615.5,622.5C 614.549,621.081 614.216,619.415 614.5,617.5C 613.5,617.5 612.5,617.5 611.5,617.5 Z"/></g>
<g><path style="opacity:1" fill="#55332d" d="M 261.5,625.5 C 260.833,623.833 260.167,622.167 259.5,620.5C 260.09,619.234 260.59,617.901 261,616.5C 261.498,619.482 261.665,622.482 261.5,625.5 Z"/></g>
<g><path style="opacity:1" fill="#54343b" d="M 499.5,620.5 C 495.117,622.23 490.45,623.23 485.5,623.5C 489.883,621.77 494.55,620.77 499.5,620.5 Z"/></g>
<g><path style="opacity:1" fill="#ec9836" d="M 787.5,629.5 C 786.523,626.713 786.19,623.713 786.5,620.5C 789.667,620.6 792.667,619.933 795.5,618.5C 796.452,616.955 796.785,615.288 796.5,613.5C 797.833,613.5 799.167,613.5 800.5,613.5C 800.662,615.527 800.495,617.527 800,619.5C 795.959,623.047 791.792,626.38 787.5,629.5 Z"/></g>
<g><path style="opacity:1" fill="#a9a9bc" d="M 524.5,623.5 C 520.19,624.08 515.857,624.414 511.5,624.5C 515.773,622.744 520.106,622.41 524.5,623.5 Z"/></g>
<g><path style="opacity:1" fill="#6c4639" d="M 786.5,620.5 C 786.19,623.713 786.523,626.713 787.5,629.5C 787.44,630.043 787.107,630.376 786.5,630.5C 785.194,627.02 785.194,623.687 786.5,620.5 Z"/></g>
<g><path style="opacity:1" fill="#e4e4e4" d="M 1021.5,622.5 C 1023.5,622.5 1025.5,622.5 1027.5,622.5C 1027.83,640.845 1027.5,659.179 1026.5,677.5C 1018.64,683.858 1010.64,690.025 1002.5,696C 973.634,700.67 944.801,705.503 916,710.5C 906.766,706.865 897.599,703.032 888.5,699C 887.167,686.667 887.167,674.333 888.5,662C 904.296,658.14 920.296,655.64 936.5,654.5C 936.813,661.755 936.48,668.921 935.5,676C 950.138,673.727 964.804,671.561 979.5,669.5C 981.167,669.5 982.833,669.5 984.5,669.5C 984.823,663.31 984.49,657.31 983.5,651.5C 956.951,647.686 930.618,643.353 904.5,638.5C 944.328,632.568 984.328,627.735 1024.5,624C 1023.26,623.768 1022.26,623.268 1021.5,622.5 Z"/></g>
<g><path style="opacity:1" fill="#be711e" d="M 259.5,620.5 C 260.167,622.167 260.833,623.833 261.5,625.5C 261.833,626.167 262.167,626.833 262.5,627.5C 261.781,629.091 260.781,630.591 259.5,632C 255.21,633.322 250.877,634.489 246.5,635.5C 245.287,635.253 244.62,634.586 244.5,633.5C 248.329,632.002 252.329,630.668 256.5,629.5C 258.101,626.696 259.101,623.696 259.5,620.5 Z"/></g>
<g><path style="opacity:1" fill="#b66c1f" d="M 299.5,619.5 C 297.161,622.88 293.995,623.88 290,622.5C 289.814,624.047 288.481,625.047 286,625.5C 285.228,625.355 284.561,625.022 284,624.5C 279.133,626.847 273.967,628.514 268.5,629.5C 266.578,629.199 264.912,628.533 263.5,627.5C 273.487,625.337 283.487,623.17 293.5,621C 295.037,618.388 297.037,617.888 299.5,619.5 Z"/></g>
<g><path style="opacity:1" fill="#8e5b38" d="M 877.5,605.5 C 877.389,606.117 877.056,606.617 876.5,607C 874.19,607.497 871.857,607.663 869.5,607.5C 869.827,616.682 869.493,625.682 868.5,634.5C 868.5,625.167 868.5,615.833 868.5,606.5C 871.518,606.296 874.518,605.963 877.5,605.5 Z"/></g>
<g><path style="opacity:1" fill="#c07322" d="M 219.5,630.5 C 219.244,632.792 219.577,634.959 220.5,637C 225.974,637.634 231.307,636.968 236.5,635C 237.775,632.676 239.442,632.176 241.5,633.5C 241.489,635.017 240.823,636.184 239.5,637C 232.329,639.899 225.163,640.065 218,637.5C 217.932,635.005 218.432,632.672 219.5,630.5 Z"/></g>
<g><path style="opacity:1" fill="#0a0a3c" d="M 420.5,651.5 C 421.5,651.5 422.5,651.5 423.5,651.5C 423.232,653.099 423.566,654.432 424.5,655.5C 436.614,702.012 449.447,748.345 463,794.5C 466.169,794.863 468.836,796.197 471,798.5C 471.499,802.486 471.666,806.486 471.5,810.5C 475.085,809.417 478.751,808.751 482.5,808.5C 482.667,821.171 482.5,833.838 482,846.5C 460.371,858.988 437.871,869.655 414.5,878.5C 414.813,875.753 414.48,873.086 413.5,870.5C 412.893,870.624 412.56,870.957 412.5,871.5C 408.152,873.252 403.652,874.586 399,875.5C 396.966,875.646 395.299,874.98 394,873.5C 392.864,865.599 392.364,857.599 392.5,849.5C 392.516,841.787 392.849,834.12 393.5,826.5C 393.167,826.167 392.833,825.833 392.5,825.5C 387.611,827.305 382.611,828.639 377.5,829.5C 376.762,836.194 375.762,842.86 374.5,849.5C 374.833,850.5 375.167,851.5 375.5,852.5C 377.745,850.377 380.412,849.377 383.5,849.5C 383.667,864.17 383.5,878.837 383,893.5C 363.399,906.723 342.899,918.556 321.5,929C 319.564,929.813 317.564,930.313 315.5,930.5C 315.813,927.753 315.48,925.086 314.5,922.5C 310.833,924.333 307.167,926.167 303.5,928C 301.559,928.743 299.726,928.576 298,927.5C 297.667,932.167 297.333,936.833 297,941.5C 295.878,943.624 294.378,945.457 292.5,947C 278.337,956.582 264.004,965.916 249.5,975C 243.381,978.726 237.048,981.893 230.5,984.5C 230.817,981.428 230.484,978.428 229.5,975.5C 225.833,977.667 222.167,979.833 218.5,982C 215.044,983.123 212.21,982.29 210,979.5C 209.333,959.5 209.333,939.5 210,919.5C 212.197,916.223 215.197,913.89 219,912.5C 219.667,900.833 219.667,889.167 219,877.5C 210.754,881.706 202.587,886.039 194.5,890.5C 193.334,910.825 193.167,931.158 194,951.5C 196.651,948.924 199.818,947.591 203.5,947.5C 203.667,965.836 203.5,984.17 203,1002.5C 202,1004.5 201,1006.5 200,1008.5C 180.281,1024.27 160.114,1039.44 139.5,1054C 138.552,1054.48 137.552,1054.65 136.5,1054.5C 136.82,1051.1 136.487,1047.77 135.5,1044.5C 131.122,1047.69 126.455,1050.36 121.5,1052.5C 118.896,1051.73 117.062,1050.06 116,1047.5C 115.333,1025.5 115.333,1003.5 116,981.5C 117.667,977.167 120.667,974.167 125,972.5C 125.5,908.834 125.667,845.168 125.5,781.5C 120.867,782.542 117.701,780.875 116,776.5C 115.022,753.745 115.355,731.078 117,708.5C 119.408,706.044 122.241,704.211 125.5,703C 145.886,695.319 166.886,690.652 188.5,689C 193.055,692.334 194.722,696.834 193.5,702.5C 195.488,702.173 197.488,701.84 199.5,701.5C 201.374,701.39 202.874,702.056 204,703.5C 204.667,721.833 204.667,740.167 204,758.5C 203.626,759.416 203.126,760.25 202.5,761C 199.568,762.145 196.568,762.978 193.5,763.5C 193.167,778.515 193.501,793.515 194.5,808.5C 202.712,804.561 211.045,800.894 219.5,797.5C 220.496,781.342 220.83,765.009 220.5,748.5C 218.833,748.5 217.167,748.5 215.5,748.5C 213.248,748.084 211.748,746.751 211,744.5C 210.333,725.167 210.333,705.833 211,686.5C 211.785,684.714 212.951,683.214 214.5,682C 227.321,676.296 240.654,672.462 254.5,670.5C 257.152,670.59 259.485,669.924 261.5,668.5C 268.771,667.009 276.104,666.509 283.5,667C 285.286,667.785 286.786,668.951 288,670.5C 288.498,673.482 288.665,676.482 288.5,679.5C 292.106,679.211 295.606,679.544 299,680.5C 299.667,696.5 299.667,712.5 299,728.5C 296.082,730.905 292.748,732.572 289,733.5C 288.5,751.497 288.333,769.497 288.5,787.5C 287.17,823.669 287.17,860.002 288.5,896.5C 289.107,896.376 289.44,896.043 289.5,895.5C 290.807,894.847 292.14,894.18 293.5,893.5C 294.331,886.858 294.831,880.191 295,873.5C 297.517,868.309 301.683,865.142 307.5,864C 308.893,862.829 309.727,861.329 310,859.5C 324.543,791.536 339.709,723.703 355.5,656C 353.815,652.74 354.482,650.073 357.5,648C 374.161,643.734 390.994,640.234 408,637.5C 410.034,637.354 411.701,638.02 413,639.5C 413.501,643.51 414.001,647.51 414.5,651.5C 416.5,651.5 418.5,651.5 420.5,651.5 Z"/></g>
<g><path style="opacity:1" fill="#fbfbfc" d="M 433.5,740.5 C 433.53,741.497 433.03,742.164 432,742.5C 419.978,746.507 407.978,750.507 396,754.5C 395.098,754.257 394.265,753.923 393.5,753.5C 390.887,737.768 387.887,722.101 384.5,706.5C 380.212,724.7 376.546,743.034 373.5,761.5C 361.385,767.545 348.718,772.545 335.5,776.5C 334.702,776.043 334.369,775.376 334.5,774.5C 334.801,769.093 335.634,763.76 337,758.5C 345.95,723.039 353.783,687.372 360.5,651.5C 376.472,649.072 392.305,646.072 408,642.5C 416.198,675.294 424.698,707.961 433.5,740.5 Z"/></g>
<g><path style="opacity:1" fill="#68433a" d="M 420.5,651.5 C 421.568,650.566 422.901,650.232 424.5,650.5C 424.5,652.167 424.5,653.833 424.5,655.5C 423.566,654.432 423.232,653.099 423.5,651.5C 422.5,651.5 421.5,651.5 420.5,651.5 Z"/></g>
<g><path style="opacity:1" fill="#e5e5e5" d="M 826.5,649.5 C 835.273,653.637 844.107,657.637 853,661.5C 853.5,671.828 853.666,682.161 853.5,692.5C 857.119,691.756 860.785,691.423 864.5,691.5C 864.666,700.839 864.5,710.173 864,719.5C 842.142,727.088 819.642,732.088 796.5,734.5C 796.334,724.494 796.5,714.494 797,704.5C 799.904,702.773 803.07,702.107 806.5,702.5C 806.5,696.167 806.5,689.833 806.5,683.5C 801.117,681.54 795.784,679.707 790.5,678C 784.293,683.875 777.793,689.375 771,694.5C 770.501,699.489 770.334,704.489 770.5,709.5C 774.135,708.886 777.802,708.552 781.5,708.5C 781.666,718.172 781.5,727.839 781,737.5C 780.5,738 780,738.5 779.5,739C 757.953,746.387 735.953,751.887 713.5,755.5C 713.333,744.828 713.5,734.161 714,723.5C 716.951,721.924 720.117,721.257 723.5,721.5C 723.5,713.167 723.5,704.833 723.5,696.5C 723.5,686.833 723.5,677.167 723.5,667.5C 757.855,660.987 792.188,654.987 826.5,649.5 Z"/></g>
<g><path style="opacity:1" fill="#ef9a35" d="M 940.5,650.5 C 953.196,651.927 965.863,653.594 978.5,655.5C 978.5,658.5 978.5,661.5 978.5,664.5C 969.831,665.834 961.164,667.167 952.5,668.5C 952.756,666.208 952.423,664.041 951.5,662C 948.122,661.952 944.789,662.452 941.5,663.5C 941.706,659.102 941.373,654.768 940.5,650.5 Z"/></g>
<g><path style="opacity:1" fill="#6f4839" d="M 711.5,627.5 C 713.833,627.5 716.167,627.5 718.5,627.5C 718.831,657.671 718.498,687.671 717.5,717.5C 717.5,687.833 717.5,658.167 717.5,628.5C 715.265,628.795 713.265,628.461 711.5,627.5 Z"/></g>
<g><path style="opacity:1" fill="#82829c" d="M 983.5,651.5 C 984.49,657.31 984.823,663.31 984.5,669.5C 982.833,669.5 981.167,669.5 979.5,669.5C 980.568,668.566 981.901,668.232 983.5,668.5C 983.5,662.833 983.5,657.167 983.5,651.5 Z"/></g>
<g><path style="opacity:1" fill="#6c453a" d="M 261.5,668.5 C 259.485,669.924 257.152,670.59 254.5,670.5C 256.515,669.076 258.848,668.41 261.5,668.5 Z"/></g>
<g><path style="opacity:1" fill="#fcfcfd" d="M 272.5,825.5 C 271.503,846.327 271.169,867.327 271.5,888.5C 270.502,860.338 270.169,832.005 270.5,803.5C 222.825,822.502 176.492,844.502 131.5,869.5C 131.5,837.5 131.5,805.5 131.5,773.5C 130.209,773.263 129.209,773.596 128.5,774.5C 126.45,774.961 124.45,775.628 122.5,776.5C 121.914,776.291 121.414,775.957 121,775.5C 120.333,754.167 120.333,732.833 121,711.5C 141.82,701.837 163.653,696.004 186.5,694C 187,694.5 187.5,695 188,695.5C 188.667,714.167 188.667,732.833 188,751.5C 184.789,753.352 181.456,755.019 178,756.5C 177.5,777.831 177.333,799.164 177.5,820.5C 193.455,814.179 209.455,807.846 225.5,801.5C 226.828,781.329 226.828,760.996 225.5,740.5C 224.893,740.624 224.56,740.957 224.5,741.5C 222.063,741.756 219.729,742.423 217.5,743.5C 216.914,743.291 216.414,742.957 216,742.5C 215.333,724.167 215.333,705.833 216,687.5C 233.79,680.092 252.29,674.925 271.5,672C 275.423,671.207 279.256,671.374 283,672.5C 283.667,688.833 283.667,705.167 283,721.5C 280.051,723.204 276.885,724.538 273.5,725.5C 272.5,758.827 272.167,792.16 272.5,825.5 Z"/></g>
<g><path style="opacity:1" fill="#525278" d="M 719.5,622.5 C 720.568,621.566 721.901,621.232 723.5,621.5C 723.5,636.833 723.5,652.167 723.5,667.5C 723.5,677.167 723.5,686.833 723.5,696.5C 722.502,672.006 722.169,647.339 722.5,622.5C 721.5,622.5 720.5,622.5 719.5,622.5 Z"/></g>
<g><path style="opacity:1" fill="#e5e5e5" d="M 667.5,674.5 C 662.457,707.631 656.624,740.631 650,773.5C 633.856,779.937 617.356,785.27 600.5,789.5C 592.207,760.327 584.54,730.993 577.5,701.5C 593.002,696.874 608.669,692.707 624.5,689C 638.534,686.594 652.367,683.427 666,679.5C 666.198,677.618 666.698,675.952 667.5,674.5 Z"/></g>
<g><path style="opacity:0.851" fill="#c27d36" d="M 71.5,680.5 C 71.167,840.334 71.5003,1000 72.5,1159.5C 72.44,1160.04 72.1067,1160.38 71.5,1160.5C 70.1674,1000.33 70.1674,840.334 71.5,680.5 Z"/></g>
<g><path style="opacity:1" fill="#e99536" d="M 791.5,704.5 C 791.036,708.95 790.036,713.283 788.5,717.5C 787.191,715.429 786.525,712.929 786.5,710C 786.667,707.5 786.833,705 787,702.5C 791.649,698.686 796.149,694.686 800.5,690.5C 801.48,693.086 801.813,695.753 801.5,698.5C 796.582,698.115 793.249,700.115 791.5,704.5 Z"/></g>
<g><path style="opacity:1" fill="#e5e5e5" d="M 572.5,702.5 C 564.605,737.472 556.772,772.472 549,807.5C 534.178,814.443 519.011,820.609 503.5,826C 501.888,826.72 500.388,826.554 499,825.5C 493.18,793.916 488.014,762.25 483.5,730.5C 484.234,729.122 484.901,727.622 485.5,726C 514.307,717.382 543.307,709.549 572.5,702.5 Z"/></g>
<g><path style="opacity:1" fill="#8c5a38" d="M 791.5,704.5 C 791.5,708.833 791.5,713.167 791.5,717.5C 790.5,717.5 789.5,717.5 788.5,717.5C 790.036,713.283 791.036,708.95 791.5,704.5 Z"/></g>
<g><path style="opacity:1" fill="#b57438" d="M 1013.5,704.5 C 1005.09,706.678 996.424,708.011 987.5,708.5C 995.909,706.322 1004.58,704.989 1013.5,704.5 Z"/></g>
<g><path style="opacity:1" fill="#070d3f" d="M 393.5,753.5 C 394.005,756.521 394.672,759.521 395.5,762.5C 395.392,763.442 395.059,764.275 394.5,765C 387.127,768.402 379.461,770.902 371.5,772.5C 372.008,768.803 372.674,765.136 373.5,761.5C 376.546,743.034 380.212,724.7 384.5,706.5C 387.887,722.101 390.887,737.768 393.5,753.5 Z"/></g>
<g><path style="opacity:1" fill="#e4e4e4" d="M 433.5,740.5 C 439.832,761.796 446.499,783.129 453.5,804.5C 457.471,802.089 461.804,800.756 466.5,800.5C 466.963,813.932 466.463,827.265 465,840.5C 457.405,845.049 449.571,849.215 441.5,853C 427.844,859.661 413.844,865.495 399.5,870.5C 398.334,855.845 398.167,841.178 399,826.5C 401.887,825.307 404.72,823.973 407.5,822.5C 406.169,816.508 404.836,810.508 403.5,804.5C 390.951,813.044 377.284,818.71 362.5,821.5C 361.567,828.734 360.234,835.9 358.5,843C 358.833,843.5 359.167,844 359.5,844.5C 362.234,842.629 365.234,841.629 368.5,841.5C 368.967,856.597 368.467,871.597 367,886.5C 346.132,900.607 324.132,912.94 301,923.5C 300.667,923.167 300.333,922.833 300,922.5C 299.167,906.156 299.334,889.823 300.5,873.5C 305.123,870.611 309.623,867.611 314,864.5C 319.918,834.172 326.751,804.172 334.5,774.5C 334.369,775.376 334.702,776.043 335.5,776.5C 348.718,772.545 361.385,767.545 373.5,761.5C 372.674,765.136 372.008,768.803 371.5,772.5C 379.461,770.902 387.127,768.402 394.5,765C 395.059,764.275 395.392,763.442 395.5,762.5C 394.672,759.521 394.005,756.521 393.5,753.5C 394.265,753.923 395.098,754.257 396,754.5C 407.978,750.507 419.978,746.507 432,742.5C 433.03,742.164 433.53,741.497 433.5,740.5 Z"/></g>
<g><path style="opacity:1" fill="#cbcbd7" d="M 224.5,741.5 C 224.56,740.957 224.893,740.624 225.5,740.5C 226.828,760.996 226.828,781.329 225.5,801.5C 225.83,781.326 225.497,761.326 224.5,741.5 Z"/></g>
<g><path style="opacity:1" fill="#6c6d8d" d="M 128.5,774.5 C 129.209,773.596 130.209,773.263 131.5,773.5C 131.5,805.5 131.5,837.5 131.5,869.5C 131.5,870.167 131.167,870.5 130.5,870.5C 131.159,838.149 130.493,806.149 128.5,774.5 Z"/></g>
<g><path style="opacity:1" fill="#b07136" d="M 215.5,748.5 C 217.167,748.5 218.833,748.5 220.5,748.5C 220.83,765.009 220.496,781.342 219.5,797.5C 219.5,781.5 219.5,765.5 219.5,749.5C 217.901,749.768 216.568,749.434 215.5,748.5 Z"/></g>
<g><path style="opacity:1" fill="#4b2a85" d="M 839.5,782.5 C 840.239,782.369 840.906,782.536 841.5,783C 827.585,804.008 812.585,824.174 796.5,843.5C 781.342,832.911 767.342,820.911 754.5,807.5C 756.925,805.855 759.592,804.689 762.5,804C 788.24,796.652 813.906,789.485 839.5,782.5 Z"/></g>
<g><path style="opacity:1" fill="#e4e4e5" d="M 271.5,888.5 C 272.492,888.672 273.158,888.338 273.5,887.5C 275.506,886.489 277.506,885.489 279.5,884.5C 280.442,884.608 281.275,884.941 282,885.5C 282.667,901.167 282.667,916.833 282,932.5C 281.333,933.833 280.667,935.167 280,936.5C 259.16,951.832 237.326,965.499 214.5,977.5C 214.333,958.83 214.5,940.164 215,921.5C 217.308,918.509 220.308,916.509 224,915.5C 224.667,896.833 224.667,878.167 224,859.5C 208.628,867.103 193.461,875.103 178.5,883.5C 177.167,903.5 177.167,923.5 178.5,943.5C 181.009,942.079 183.343,940.412 185.5,938.5C 186.086,938.709 186.586,939.043 187,939.5C 187.667,958.5 187.667,977.5 187,996.5C 185.542,998.96 183.709,1001.13 181.5,1003C 162.471,1018.93 142.638,1033.76 122,1047.5C 121.667,1047.17 121.333,1046.83 121,1046.5C 120.333,1024.83 120.333,1003.17 121,981.5C 124,979.5 127,977.5 130,975.5C 130.5,940.502 130.667,905.502 130.5,870.5C 131.167,870.5 131.5,870.167 131.5,869.5C 176.492,844.502 222.825,822.502 270.5,803.5C 270.169,832.005 270.502,860.338 271.5,888.5 Z"/></g>
<g><path style="opacity:1" fill="#4a2a85" d="M 718.5,817.5 C 720.199,817.34 721.866,817.506 723.5,818C 739.664,836.17 757.664,852.17 777.5,866C 767.015,877.651 756.015,888.818 744.5,899.5C 714.541,883.175 687.875,862.508 664.5,837.5C 682.534,830.811 700.534,824.145 718.5,817.5 Z"/></g>
<g><path style="opacity:1" fill="#7c5039" d="M 288.5,787.5 C 288.168,823.671 288.502,859.671 289.5,895.5C 289.44,896.043 289.107,896.376 288.5,896.5C 287.17,860.002 287.17,823.669 288.5,787.5 Z"/></g>
<g><path style="opacity:1" fill="#4a2a85" d="M 632.5,848.5 C 633.552,848.351 634.552,848.517 635.5,849C 660.469,877.486 689.135,901.319 721.5,920.5C 710.806,930.692 699.64,940.359 688,949.5C 645.801,931.625 609.468,905.625 579,871.5C 578.544,870.256 579.044,869.423 580.5,869C 597.994,862.414 615.327,855.581 632.5,848.5 Z"/></g>
<g><path style="opacity:1" fill="#757591" d="M 272.5,825.5 C 272.169,846.34 272.503,867.007 273.5,887.5C 273.158,888.338 272.492,888.672 271.5,888.5C 271.169,867.327 271.503,846.327 272.5,825.5 Z"/></g>
<g><path style="opacity:1" fill="#7e5239" d="M 412.5,871.5 C 412.56,870.957 412.893,870.624 413.5,870.5C 414.48,873.086 414.813,875.753 414.5,878.5C 413.833,876.167 413.167,873.833 412.5,871.5 Z"/></g>
<g><path style="opacity:1" fill="#4a2a85" d="M 547.5,882.5 C 548.552,882.351 549.552,882.517 550.5,883C 580.872,919.176 617.205,947.676 659.5,968.5C 660.521,969.002 660.688,969.668 660,970.5C 648.597,978.906 636.931,986.906 625,994.5C 573.715,976.954 530.548,947.62 495.5,906.5C 512.924,898.451 530.257,890.451 547.5,882.5 Z"/></g>
<g><path style="opacity:1" fill="#4a2a85" d="M 465.5,919.5 C 467.716,920.203 469.549,921.536 471,923.5C 504.861,963.023 545.694,993.189 593.5,1014C 579.492,1022.67 565.159,1030.84 550.5,1038.5C 500.882,1012.88 454.548,982.546 411.5,947.5C 429.445,937.97 447.445,928.636 465.5,919.5 Z"/></g>
</svg>
